<?xml version="1.0" encoding="UTF-8"?>
<svg id="Layer_1" xmlns="http://www.w3.org/2000/svg" width="384" height="48" version="1.1" viewBox="0 0 384 48">
  <!-- Generator: Adobe Illustrator 29.4.0, SVG Export Plug-In . SVG Version: 2.1.0 Build 152)  -->
  <g id="Layer_1-2" shape-rendering="crispEdges">
    <polygon points="367 43 367 44 366 44 365 44 364 44 363 44 362 44 362 43 361 43 361 42 360 42 360 43 360 44 359 44 358 44 357 44 356 44 355 44 354 44 353 44 353 43 352 43 351 43 351 44 352 44 352 45 353 45 354 45 355 45 356 45 357 45 358 45 359 45 360 45 361 45 362 45 363 45 364 45 365 45 366 45 367 45 368 45 368 44 369 44 369 43 368 43 367 43" fill="#92d3ff"/>
    <polygon points="319 43 319 44 318 44 317 44 316 44 315 44 314 44 314 43 313 43 313 42 312 42 312 43 312 44 311 44 310 44 309 44 308 44 307 44 306 44 305 44 305 43 304 43 303 43 303 44 304 44 304 45 305 45 306 45 307 45 308 45 309 45 310 45 311 45 312 45 313 45 314 45 315 45 316 45 317 45 318 45 319 45 320 45 320 44 321 44 321 43 320 43 319 43" fill="#92d3ff"/>
    <polygon points="271 43 271 44 270 44 269 44 268 44 267 44 266 44 266 43 265 43 265 42 264 42 264 43 264 44 263 44 262 44 261 44 260 44 259 44 258 44 257 44 257 43 256 43 255 43 255 44 256 44 256 45 257 45 258 45 259 45 260 45 261 45 262 45 263 45 264 45 265 45 266 45 267 45 268 45 269 45 270 45 271 45 272 45 272 44 273 44 273 43 272 43 271 43" fill="#92d3ff"/>
    <polygon points="223 43 223 44 222 44 221 44 220 44 219 44 218 44 218 43 217 43 217 42 216 42 216 43 216 44 215 44 214 44 213 44 212 44 211 44 210 44 209 44 209 43 208 43 207 43 207 44 208 44 208 45 209 45 210 45 211 45 212 45 213 45 214 45 215 45 216 45 217 45 218 45 219 45 220 45 221 45 222 45 223 45 224 45 224 44 225 44 225 43 224 43 223 43" fill="#92d3ff"/>
    <polygon points="175 43 175 44 174 44 173 44 172 44 171 44 170 44 170 43 169 43 169 42 168 42 168 43 168 44 167 44 166 44 165 44 164 44 163 44 162 44 161 44 161 43 160 43 159 43 159 44 160 44 160 45 161 45 162 45 163 45 164 45 165 45 166 45 167 45 168 45 169 45 170 45 171 45 172 45 173 45 174 45 175 45 176 45 176 44 177 44 177 43 176 43 175 43" fill="#92d3ff"/>
    <polygon points="127 43 127 44 126 44 125 44 124 44 123 44 122 44 122 43 121 43 121 42 120 42 120 43 120 44 119 44 118 44 117 44 116 44 115 44 114 44 113 44 113 43 112 43 111 43 111 44 112 44 112 45 113 45 114 45 115 45 116 45 117 45 118 45 119 45 120 45 121 45 122 45 123 45 124 45 125 45 126 45 127 45 128 45 128 44 129 44 129 43 128 43 127 43" fill="#92d3ff"/>
    <polygon points="79 43 79 44 78 44 77 44 76 44 75 44 74 44 74 43 73 43 73 42 72 42 72 43 72 44 71 44 70 44 69 44 68 44 67 44 66 44 65 44 65 43 64 43 63 43 63 44 64 44 64 45 65 45 66 45 67 45 68 45 69 45 70 45 71 45 72 45 73 45 74 45 75 45 76 45 77 45 78 45 79 45 80 45 80 44 81 44 81 43 80 43 79 43" fill="#92d3ff"/>
    <polygon points="31 43 31 44 30 44 29 44 28 44 27 44 26 44 26 43 25 43 25 42 24 42 24 43 24 44 23 44 22 44 21 44 20 44 19 44 18 44 17 44 17 43 16 43 15 43 15 44 16 44 16 45 17 45 18 45 19 45 20 45 21 45 22 45 23 45 24 45 25 45 26 45 27 45 28 45 29 45 30 45 31 45 32 45 32 44 33 44 33 43 32 43 31 43" fill="#92d3ff"/>
    <polygon points="360 40 360 39 360 38 359 38 359 39 359 40 359 41 359 42 360 42 360 41 360 40" fill="#92d3ff"/>
    <polygon points="312 40 312 39 312 38 311 38 311 39 311 40 311 41 311 42 312 42 312 41 312 40" fill="#92d3ff"/>
    <polygon points="264 40 264 39 264 38 263 38 263 39 263 40 263 41 263 42 264 42 264 41 264 40" fill="#92d3ff"/>
    <polygon points="216 40 216 39 216 38 215 38 215 39 215 40 215 41 215 42 216 42 216 41 216 40" fill="#92d3ff"/>
    <polygon points="168 40 168 39 168 38 167 38 167 39 167 40 167 41 167 42 168 42 168 41 168 40" fill="#92d3ff"/>
    <polygon points="120 40 120 39 120 38 119 38 119 39 119 40 119 41 119 42 120 42 120 41 120 40" fill="#92d3ff"/>
    <polygon points="72 40 72 39 72 38 71 38 71 39 71 40 71 41 71 42 72 42 72 41 72 40" fill="#92d3ff"/>
    <polygon points="24 40 24 39 24 38 23 38 23 39 23 40 23 41 23 42 24 42 24 41 24 40" fill="#92d3ff"/>
    <rect x="358" y="37" width="1" height="1" fill="#92d3ff"/>
    <rect x="310" y="37" width="1" height="1" fill="#92d3ff"/>
    <rect x="262" y="37" width="1" height="1" fill="#92d3ff"/>
    <rect x="214" y="37" width="1" height="1" fill="#92d3ff"/>
    <rect x="166" y="37" width="1" height="1" fill="#92d3ff"/>
    <rect x="118" y="37" width="1" height="1" fill="#92d3ff"/>
    <rect x="70" y="37" width="1" height="1" fill="#92d3ff"/>
    <rect x="22" y="37" width="1" height="1" fill="#92d3ff"/>
    <polygon points="374 35 374 36 374 37 374 38 375 38 375 37 375 36 375 35 374 35" fill="#92d3ff"/>
    <polygon points="368 35 367 35 366 35 365 35 364 35 363 35 362 35 361 35 360 35 359 35 358 35 357 35 356 35 355 35 354 35 353 35 352 35 351 35 350 35 350 36 351 36 352 36 353 36 354 36 355 36 356 36 357 36 358 36 359 36 360 36 361 36 362 36 363 36 364 36 365 36 366 36 367 36 368 36 369 36 370 36 370 35 369 35 368 35" fill="#92d3ff"/>
    <polygon points="345 36 345 37 345 38 346 38 346 37 346 36 346 35 345 35 345 36" fill="#92d3ff"/>
    <polygon points="326 36 326 37 326 38 327 38 327 37 327 36 327 35 326 35 326 36" fill="#92d3ff"/>
    <polygon points="320 35 319 35 318 35 317 35 316 35 315 35 314 35 313 35 312 35 311 35 310 35 309 35 308 35 307 35 306 35 305 35 304 35 303 35 302 35 302 36 303 36 304 36 305 36 306 36 307 36 308 36 309 36 310 36 311 36 312 36 313 36 314 36 315 36 316 36 317 36 318 36 319 36 320 36 321 36 322 36 322 35 321 35 320 35" fill="#92d3ff"/>
    <polygon points="297 36 297 37 297 38 298 38 298 37 298 36 298 35 297 35 297 36" fill="#92d3ff"/>
    <polygon points="278 36 278 37 278 38 279 38 279 37 279 36 279 35 278 35 278 36" fill="#92d3ff"/>
    <polygon points="272 35 271 35 270 35 269 35 268 35 267 35 266 35 265 35 264 35 263 35 262 35 261 35 260 35 259 35 258 35 257 35 256 35 255 35 254 35 254 36 255 36 256 36 257 36 258 36 259 36 260 36 261 36 262 36 263 36 264 36 265 36 266 36 267 36 268 36 269 36 270 36 271 36 272 36 273 36 274 36 274 35 273 35 272 35" fill="#92d3ff"/>
    <polygon points="249 36 249 37 249 38 250 38 250 37 250 36 250 35 249 35 249 36" fill="#92d3ff"/>
    <polygon points="230 36 230 37 230 38 231 38 231 37 231 36 231 35 230 35 230 36" fill="#92d3ff"/>
    <polygon points="224 35 223 35 222 35 221 35 220 35 219 35 218 35 217 35 216 35 215 35 214 35 213 35 212 35 211 35 210 35 209 35 208 35 207 35 206 35 206 36 207 36 208 36 209 36 210 36 211 36 212 36 213 36 214 36 215 36 216 36 217 36 218 36 219 36 220 36 221 36 222 36 223 36 224 36 225 36 226 36 226 35 225 35 224 35" fill="#92d3ff"/>
    <polygon points="201 36 201 37 201 38 202 38 202 37 202 36 202 35 201 35 201 36" fill="#92d3ff"/>
    <polygon points="182 36 182 37 182 38 183 38 183 37 183 36 183 35 182 35 182 36" fill="#92d3ff"/>
    <polygon points="176 35 175 35 174 35 173 35 172 35 171 35 170 35 169 35 168 35 167 35 166 35 165 35 164 35 163 35 162 35 161 35 160 35 159 35 158 35 158 36 159 36 160 36 161 36 162 36 163 36 164 36 165 36 166 36 167 36 168 36 169 36 170 36 171 36 172 36 173 36 174 36 175 36 176 36 177 36 178 36 178 35 177 35 176 35" fill="#92d3ff"/>
    <polygon points="153 36 153 37 153 38 154 38 154 37 154 36 154 35 153 35 153 36" fill="#92d3ff"/>
    <polygon points="134 36 134 37 134 38 135 38 135 37 135 36 135 35 134 35 134 36" fill="#92d3ff"/>
    <polygon points="128 35 127 35 126 35 125 35 124 35 123 35 122 35 121 35 120 35 119 35 118 35 117 35 116 35 115 35 114 35 113 35 112 35 111 35 110 35 110 36 111 36 112 36 113 36 114 36 115 36 116 36 117 36 118 36 119 36 120 36 121 36 122 36 123 36 124 36 125 36 126 36 127 36 128 36 129 36 130 36 130 35 129 35 128 35" fill="#92d3ff"/>
    <polygon points="105 36 105 37 105 38 106 38 106 37 106 36 106 35 105 35 105 36" fill="#92d3ff"/>
    <polygon points="86 36 86 37 86 38 87 38 87 37 87 36 87 35 86 35 86 36" fill="#92d3ff"/>
    <polygon points="80 35 79 35 78 35 77 35 76 35 75 35 74 35 73 35 72 35 71 35 70 35 69 35 68 35 67 35 66 35 65 35 64 35 63 35 62 35 62 36 63 36 64 36 65 36 66 36 67 36 68 36 69 36 70 36 71 36 72 36 73 36 74 36 75 36 76 36 77 36 78 36 79 36 80 36 81 36 82 36 82 35 81 35 80 35" fill="#92d3ff"/>
    <polygon points="57 36 57 37 57 38 58 38 58 37 58 36 58 35 57 35 57 36" fill="#92d3ff"/>
    <polygon points="38 36 38 37 38 38 39 38 39 37 39 36 39 35 38 35 38 36" fill="#92d3ff"/>
    <polygon points="32 35 31 35 30 35 29 35 28 35 27 35 26 35 25 35 24 35 23 35 22 35 21 35 20 35 19 35 18 35 17 35 16 35 15 35 14 35 14 36 15 36 16 36 17 36 18 36 19 36 20 36 21 36 22 36 23 36 24 36 25 36 26 36 27 36 28 36 29 36 30 36 31 36 32 36 33 36 34 36 34 35 33 35 32 35" fill="#92d3ff"/>
    <polygon points="9 36 9 37 9 38 10 38 10 37 10 36 10 35 9 35 9 36" fill="#92d3ff"/>
    <path d="M373,35h-2v-1h-22v1h-3v2h5v1h1v5h1v1h7v-2h-1v-4h-1v-1h1v1h1v4h1v1h1v1h5v-1h1v-5h1v-1h5v-2h-1ZM369,36h-19v-1h20v1h-1Z" fill="#fff"/>
    <path d="M324,35h-1v-1h-22v1h-3v2h5v1h1v5h1v1h7v-2h-1v-4h-1v-1h1v1h1v4h1v1h1v1h5v-1h1v-5h1v-1h5v-2h-2ZM321,36h-19v-1h20v1h-1Z" fill="#fff"/>
    <path d="M276,35h-1v-1h-22v1h-3v2h5v1h1v5h1v1h7v-2h-1v-4h-1v-1h1v1h1v4h1v1h1v1h5v-1h1v-5h1v-1h5v-2h-2ZM273,36h-19v-1h20v1h-1Z" fill="#fff"/>
    <path d="M228,35h-1v-1h-22v1h-3v2h5v1h1v5h1v1h7v-2h-1v-4h-1v-1h1v1h1v4h1v1h1v1h5v-1h1v-5h1v-1h5v-2h-2ZM225,36h-19v-1h20v1h-1Z" fill="#fff"/>
    <path d="M180,35h-1v-1h-22v1h-3v2h5v1h1v5h1v1h7v-2h-1v-4h-1v-1h1v1h1v4h1v1h1v1h5v-1h1v-5h1v-1h5v-2h-2ZM177,36h-19v-1h20v1h-1Z" fill="#fff"/>
    <path d="M132,35h-1v-1h-22v1h-3v2h5v1h1v5h1v1h7v-2h-1v-4h-1v-1h1v1h1v4h1v1h1v1h5v-1h1v-5h1v-1h5v-2h-2ZM129,36h-19v-1h20v1h-1Z" fill="#fff"/>
    <polygon points="84 35 83 35 82 35 82 36 81 36 80 36 79 36 78 36 77 36 76 36 75 36 74 36 73 36 72 36 71 36 70 36 69 36 68 36 67 36 66 36 65 36 64 36 63 36 62 36 62 35 61 35 60 35 59 35 58 35 58 36 58 37 59 37 60 37 61 37 62 37 63 37 63 38 64 38 64 39 64 40 64 41 64 42 64 43 65 43 65 44 66 44 67 44 68 44 69 44 70 44 71 44 72 44 72 43 72 42 71 42 71 41 71 40 71 39 71 38 70 38 70 37 71 37 71 38 72 38 72 39 72 40 72 41 72 42 73 42 73 43 74 43 74 44 75 44 76 44 77 44 78 44 79 44 79 43 80 43 80 42 80 41 80 40 80 39 80 38 81 38 81 37 82 37 83 37 84 37 85 37 86 37 86 36 86 35 85 35 84 35" fill="#fff"/>
    <path d="M36,35h-1v-1H13v1h-3v2h5v1h1v5h1v1h7v-2h-1v-4h-1v-1h1v1h1v4h1v1h1v1h5v-1h1v-5h1v-1h5v-2h-2ZM33,36H14v-1h20v1h-1Z" fill="#fff"/>
    <polygon points="65 35 66 35 67 35 68 35 69 35 70 35 71 35 72 35 73 35 74 35 75 35 76 35 77 35 78 35 79 35 80 35 81 35 81 34 80 34 79 34 78 34 77 34 76 34 75 34 74 34 73 34 72 34 71 34 70 34 69 34 68 34 67 34 66 34 65 34 64 34 63 34 63 35 64 35 65 35" fill="#fff"/>
    <polygon points="370 39 369 39 369 40 369 41 369 42 369 43 369 44 370 44 370 43 370 42 370 41 370 40 371 40 371 39 371 38 370 38 370 39" fill="#f2bcac"/>
    <polygon points="350 38 349 38 349 39 349 40 350 40 350 41 350 42 350 43 350 44 351 44 351 43 351 42 351 41 351 40 351 39 350 39 350 38" fill="#f2bcac"/>
    <polygon points="322 39 321 39 321 40 321 41 321 42 321 43 321 44 322 44 322 43 322 42 322 41 322 40 323 40 323 39 323 38 322 38 322 39" fill="#f2bcac"/>
    <polygon points="302 38 301 38 301 39 301 40 302 40 302 41 302 42 302 43 302 44 303 44 303 43 303 42 303 41 303 40 303 39 302 39 302 38" fill="#f2bcac"/>
    <polygon points="274 39 273 39 273 40 273 41 273 42 273 43 273 44 274 44 274 43 274 42 274 41 274 40 275 40 275 39 275 38 274 38 274 39" fill="#f2bcac"/>
    <polygon points="254 38 253 38 253 39 253 40 254 40 254 41 254 42 254 43 254 44 255 44 255 43 255 42 255 41 255 40 255 39 254 39 254 38" fill="#f2bcac"/>
    <polygon points="226 39 225 39 225 40 225 41 225 42 225 43 225 44 226 44 226 43 226 42 226 41 226 40 227 40 227 39 227 38 226 38 226 39" fill="#f2bcac"/>
    <polygon points="206 38 205 38 205 39 205 40 206 40 206 41 206 42 206 43 206 44 207 44 207 43 207 42 207 41 207 40 207 39 206 39 206 38" fill="#f2bcac"/>
    <polygon points="178 39 177 39 177 40 177 41 177 42 177 43 177 44 178 44 178 43 178 42 178 41 178 40 179 40 179 39 179 38 178 38 178 39" fill="#f2bcac"/>
    <polygon points="158 38 157 38 157 39 157 40 158 40 158 41 158 42 158 43 158 44 159 44 159 43 159 42 159 41 159 40 159 39 158 39 158 38" fill="#f2bcac"/>
    <polygon points="130 39 129 39 129 40 129 41 129 42 129 43 129 44 130 44 130 43 130 42 130 41 130 40 131 40 131 39 131 38 130 38 130 39" fill="#f2bcac"/>
    <polygon points="110 38 109 38 109 39 109 40 110 40 110 41 110 42 110 43 110 44 111 44 111 43 111 42 111 41 111 40 111 39 110 39 110 38" fill="#f2bcac"/>
    <polygon points="82 39 81 39 81 40 81 41 81 42 81 43 81 44 82 44 82 43 82 42 82 41 82 40 83 40 83 39 83 38 82 38 82 39" fill="#f2bcac"/>
    <polygon points="62 38 61 38 61 39 61 40 62 40 62 41 62 42 62 43 62 44 63 44 63 43 63 42 63 41 63 40 63 39 62 39 62 38" fill="#f2bcac"/>
    <polygon points="34 39 33 39 33 40 33 41 33 42 33 43 33 44 34 44 34 43 34 42 34 41 34 40 35 40 35 39 35 38 34 38 34 39" fill="#f2bcac"/>
    <polygon points="14 38 13 38 13 39 13 40 14 40 14 41 14 42 14 43 14 44 15 44 15 43 15 42 15 41 15 40 15 39 14 39 14 38" fill="#f2bcac"/>
    <polygon points="372 37 371 37 371 38 372 38 373 38 374 38 374 37 373 37 372 37" fill="#f2bcac"/>
    <polygon points="348 37 347 37 346 37 346 38 347 38 348 38 349 38 349 37 348 37" fill="#f2bcac"/>
    <polygon points="324 37 323 37 323 38 324 38 325 38 326 38 326 37 325 37 324 37" fill="#f2bcac"/>
    <polygon points="300 37 299 37 298 37 298 38 299 38 300 38 301 38 301 37 300 37" fill="#f2bcac"/>
    <polygon points="276 37 275 37 275 38 276 38 277 38 278 38 278 37 277 37 276 37" fill="#f2bcac"/>
    <polygon points="252 37 251 37 250 37 250 38 251 38 252 38 253 38 253 37 252 37" fill="#f2bcac"/>
    <polygon points="228 37 227 37 227 38 228 38 229 38 230 38 230 37 229 37 228 37" fill="#f2bcac"/>
    <polygon points="204 37 203 37 202 37 202 38 203 38 204 38 205 38 205 37 204 37" fill="#f2bcac"/>
    <polygon points="180 37 179 37 179 38 180 38 181 38 182 38 182 37 181 37 180 37" fill="#f2bcac"/>
    <polygon points="156 37 155 37 154 37 154 38 155 38 156 38 157 38 157 37 156 37" fill="#f2bcac"/>
    <polygon points="132 37 131 37 131 38 132 38 133 38 134 38 134 37 133 37 132 37" fill="#f2bcac"/>
    <polygon points="108 37 107 37 106 37 106 38 107 38 108 38 109 38 109 37 108 37" fill="#f2bcac"/>
    <polygon points="84 37 83 37 83 38 84 38 85 38 86 38 86 37 85 37 84 37" fill="#f2bcac"/>
    <polygon points="60 37 59 37 58 37 58 38 59 38 60 38 61 38 61 37 60 37" fill="#f2bcac"/>
    <polygon points="36 37 35 37 35 38 36 38 37 38 38 38 38 37 37 37 36 37" fill="#f2bcac"/>
    <polygon points="12 37 11 37 10 37 10 38 11 38 12 38 13 38 13 37 12 37" fill="#f2bcac"/>
    <polygon points="375 34 374 34 373 34 372 34 371 34 371 35 372 35 373 35 374 35 375 35 376 35 376 34 375 34" fill="#f2bcac"/>
    <polygon points="347 35 348 35 349 35 349 34 348 34 347 34 346 34 345 34 344 34 344 35 345 35 346 35 347 35" fill="#f2bcac"/>
    <polygon points="326 34 325 34 324 34 323 34 323 35 324 35 325 35 326 35 327 35 328 35 328 34 327 34 326 34" fill="#f2bcac"/>
    <polygon points="299 35 300 35 301 35 301 34 300 34 299 34 298 34 297 34 296 34 296 35 297 35 298 35 299 35" fill="#f2bcac"/>
    <polygon points="278 34 277 34 276 34 275 34 275 35 276 35 277 35 278 35 279 35 280 35 280 34 279 34 278 34" fill="#f2bcac"/>
    <polygon points="251 35 252 35 253 35 253 34 252 34 251 34 250 34 249 34 248 34 248 35 249 35 250 35 251 35" fill="#f2bcac"/>
    <polygon points="230 34 229 34 228 34 227 34 227 35 228 35 229 35 230 35 231 35 232 35 232 34 231 34 230 34" fill="#f2bcac"/>
    <polygon points="203 35 204 35 205 35 205 34 204 34 203 34 202 34 201 34 200 34 200 35 201 35 202 35 203 35" fill="#f2bcac"/>
    <polygon points="182 34 181 34 180 34 179 34 179 35 180 35 181 35 182 35 183 35 184 35 184 34 183 34 182 34" fill="#f2bcac"/>
    <polygon points="155 35 156 35 157 35 157 34 156 34 155 34 154 34 153 34 152 34 152 35 153 35 154 35 155 35" fill="#f2bcac"/>
    <polygon points="134 34 133 34 132 34 131 34 131 35 132 35 133 35 134 35 135 35 136 35 136 34 135 34 134 34" fill="#f2bcac"/>
    <polygon points="107 35 108 35 109 35 109 34 108 34 107 34 106 34 105 34 104 34 104 35 105 35 106 35 107 35" fill="#f2bcac"/>
    <polygon points="82 35 83 35 84 35 85 35 86 35 86 34 85 34 84 34 83 34 82 34 81 34 81 35 82 35" fill="#f2bcac"/>
    <polygon points="61 34 60 34 59 34 58 34 58 35 59 35 60 35 61 35 62 35 63 35 63 34 62 34 61 34" fill="#f2bcac"/>
    <polygon points="38 34 37 34 36 34 35 34 35 35 36 35 37 35 38 35 39 35 40 35 40 34 39 34 38 34" fill="#f2bcac"/>
    <polygon points="11 35 12 35 13 35 13 34 12 34 11 34 10 34 9 34 8 34 8 35 9 35 10 35 11 35" fill="#f2bcac"/>
    <polygon points="369 33 368 33 367 33 366 33 365 33 364 33 363 33 362 33 361 33 361 34 362 34 363 34 364 34 365 34 366 34 367 34 368 34 369 34 369 33" fill="#f2bcac"/>
    <polygon points="356 33 355 33 354 33 353 33 352 33 351 33 351 34 352 34 353 34 354 34 355 34 356 34 357 34 358 34 358 33 357 33 356 33" fill="#f2bcac"/>
    <polygon points="350 33 350 32 350 31 349 31 349 32 349 33 349 34 350 34 350 33" fill="#f2bcac"/>
    <polygon points="321 33 320 33 319 33 318 33 317 33 316 33 315 33 314 33 313 33 313 34 314 34 315 34 316 34 317 34 318 34 319 34 320 34 321 34 321 33" fill="#f2bcac"/>
    <polygon points="308 33 307 33 306 33 305 33 304 33 303 33 303 34 304 34 305 34 306 34 307 34 308 34 309 34 310 34 310 33 309 33 308 33" fill="#f2bcac"/>
    <polygon points="302 33 302 32 302 31 301 31 301 32 301 33 301 34 302 34 302 33" fill="#f2bcac"/>
    <polygon points="273 33 272 33 271 33 270 33 269 33 268 33 267 33 266 33 265 33 265 34 266 34 267 34 268 34 269 34 270 34 271 34 272 34 273 34 273 33" fill="#f2bcac"/>
    <polygon points="260 33 259 33 258 33 257 33 256 33 255 33 255 34 256 34 257 34 258 34 259 34 260 34 261 34 262 34 262 33 261 33 260 33" fill="#f2bcac"/>
    <polygon points="254 33 254 32 254 31 253 31 253 32 253 33 253 34 254 34 254 33" fill="#f2bcac"/>
    <polygon points="225 33 224 33 223 33 222 33 221 33 220 33 219 33 218 33 217 33 217 34 218 34 219 34 220 34 221 34 222 34 223 34 224 34 225 34 225 33" fill="#f2bcac"/>
    <polygon points="212 33 211 33 210 33 209 33 208 33 207 33 207 34 208 34 209 34 210 34 211 34 212 34 213 34 214 34 214 33 213 33 212 33" fill="#f2bcac"/>
    <polygon points="206 33 206 32 206 31 205 31 205 32 205 33 205 34 206 34 206 33" fill="#f2bcac"/>
    <polygon points="177 33 176 33 175 33 174 33 173 33 172 33 171 33 170 33 169 33 169 34 170 34 171 34 172 34 173 34 174 34 175 34 176 34 177 34 177 33" fill="#f2bcac"/>
    <polygon points="164 33 163 33 162 33 161 33 160 33 159 33 159 34 160 34 161 34 162 34 163 34 164 34 165 34 166 34 166 33 165 33 164 33" fill="#f2bcac"/>
    <polygon points="158 33 158 32 158 31 157 31 157 32 157 33 157 34 158 34 158 33" fill="#f2bcac"/>
    <polygon points="129 33 128 33 127 33 126 33 125 33 124 33 123 33 122 33 121 33 121 34 122 34 123 34 124 34 125 34 126 34 127 34 128 34 129 34 129 33" fill="#f2bcac"/>
    <polygon points="116 33 115 33 114 33 113 33 112 33 111 33 111 34 112 34 113 34 114 34 115 34 116 34 117 34 118 34 118 33 117 33 116 33" fill="#f2bcac"/>
    <polygon points="110 33 110 32 110 31 109 31 109 32 109 33 109 34 110 34 110 33" fill="#f2bcac"/>
    <polygon points="68 33 67 33 66 33 65 33 64 33 64 32 64 31 63 31 63 32 63 33 63 34 64 34 65 34 66 34 67 34 68 34 69 34 70 34 70 33 69 33 68 33" fill="#f2bcac"/>
    <polygon points="33 33 32 33 31 33 30 33 29 33 28 33 27 33 26 33 25 33 25 34 26 34 27 34 28 34 29 34 30 34 31 34 32 34 33 34 33 33" fill="#f2bcac"/>
    <polygon points="20 33 19 33 18 33 17 33 16 33 15 33 15 34 16 34 17 34 18 34 19 34 20 34 21 34 22 34 22 33 21 33 20 33" fill="#f2bcac"/>
    <polygon points="14 33 14 32 14 31 13 31 13 32 13 33 13 34 14 34 14 33" fill="#f2bcac"/>
    <polygon points="371 32 371 31 370 31 370 32 370 33 370 34 371 34 371 33 371 32" fill="#f2bcac"/>
    <polygon points="323 32 323 31 322 31 322 32 322 33 322 34 323 34 323 33 323 32" fill="#f2bcac"/>
    <polygon points="275 32 275 31 274 31 274 32 274 33 274 34 275 34 275 33 275 32" fill="#f2bcac"/>
    <polygon points="227 32 227 31 226 31 226 32 226 33 226 34 227 34 227 33 227 32" fill="#f2bcac"/>
    <polygon points="179 32 179 31 178 31 178 32 178 33 178 34 179 34 179 33 179 32" fill="#f2bcac"/>
    <polygon points="131 32 131 31 130 31 130 32 130 33 130 34 131 34 131 33 131 32" fill="#f2bcac"/>
    <polygon points="35 32 35 31 34 31 34 32 34 33 34 34 35 34 35 33 35 32" fill="#f2bcac"/>
    <polygon points="80 32 80 33 79 33 78 33 77 33 76 33 75 33 74 33 73 33 73 34 74 34 75 34 76 34 77 34 78 34 79 34 80 34 81 34 81 33 81 32 81 31 80 31 80 32" fill="#f2bcac"/>
    <polygon points="373 31 373 30 372 30 371 30 371 31 372 31 373 31" fill="#f2bcac"/>
    <polygon points="348 30 347 30 347 31 348 31 349 31 349 30 348 30" fill="#f2bcac"/>
    <polygon points="325 31 325 30 324 30 323 30 323 31 324 31 325 31" fill="#f2bcac"/>
    <polygon points="300 30 299 30 299 31 300 31 301 31 301 30 300 30" fill="#f2bcac"/>
    <polygon points="277 31 277 30 276 30 275 30 275 31 276 31 277 31" fill="#f2bcac"/>
    <polygon points="252 30 251 30 251 31 252 31 253 31 253 30 252 30" fill="#f2bcac"/>
    <polygon points="229 31 229 30 228 30 227 30 227 31 228 31 229 31" fill="#f2bcac"/>
    <polygon points="204 30 203 30 203 31 204 31 205 31 205 30 204 30" fill="#f2bcac"/>
    <polygon points="181 31 181 30 180 30 179 30 179 31 180 31 181 31" fill="#f2bcac"/>
    <polygon points="156 30 155 30 155 31 156 31 157 31 157 30 156 30" fill="#f2bcac"/>
    <polygon points="133 31 133 30 132 30 131 30 131 31 132 31 133 31" fill="#f2bcac"/>
    <polygon points="108 30 107 30 107 31 108 31 109 31 109 30 108 30" fill="#f2bcac"/>
    <polygon points="81 30 81 31 82 31 83 31 83 30 82 30 81 30" fill="#f2bcac"/>
    <polygon points="62 30 61 30 61 31 62 31 63 31 63 30 62 30" fill="#f2bcac"/>
    <polygon points="37 31 37 30 36 30 35 30 35 31 36 31 37 31" fill="#f2bcac"/>
    <polygon points="12 30 11 30 11 31 12 31 13 31 13 30 12 30" fill="#f2bcac"/>
    <polygon points="374 29 374 28 373 28 373 29 373 30 374 30 374 29" fill="#f2bcac"/>
    <polygon points="359 30 359 31 359 32 360 32 360 31 360 30 360 29 359 29 359 30" fill="#f2bcac"/>
    <polygon points="326 29 326 28 325 28 325 29 325 30 326 30 326 29" fill="#f2bcac"/>
    <polygon points="311 30 311 31 311 32 312 32 312 31 312 30 312 29 311 29 311 30" fill="#f2bcac"/>
    <polygon points="278 29 278 28 277 28 277 29 277 30 278 30 278 29" fill="#f2bcac"/>
    <polygon points="263 30 263 31 263 32 264 32 264 31 264 30 264 29 263 29 263 30" fill="#f2bcac"/>
    <polygon points="230 29 230 28 229 28 229 29 229 30 230 30 230 29" fill="#f2bcac"/>
    <polygon points="215 30 215 31 215 32 216 32 216 31 216 30 216 29 215 29 215 30" fill="#f2bcac"/>
    <polygon points="182 29 182 28 181 28 181 29 181 30 182 30 182 29" fill="#f2bcac"/>
    <polygon points="167 30 167 31 167 32 168 32 168 31 168 30 168 29 167 29 167 30" fill="#f2bcac"/>
    <polygon points="134 29 134 28 133 28 133 29 133 30 134 30 134 29" fill="#f2bcac"/>
    <polygon points="119 30 119 31 119 32 120 32 120 31 120 30 120 29 119 29 119 30" fill="#f2bcac"/>
    <polygon points="83 30 84 30 84 29 84 28 83 28 83 29 83 30" fill="#f2bcac"/>
    <polygon points="38 29 38 28 37 28 37 29 37 30 38 30 38 29" fill="#f2bcac"/>
    <polygon points="23 30 23 31 23 32 24 32 24 31 24 30 24 29 23 29 23 30" fill="#f2bcac"/>
    <polygon points="347 28 346 28 346 29 346 30 347 30 347 29 347 28" fill="#f2bcac"/>
    <polygon points="299 28 298 28 298 29 298 30 299 30 299 29 299 28" fill="#f2bcac"/>
    <polygon points="251 28 250 28 250 29 250 30 251 30 251 29 251 28" fill="#f2bcac"/>
    <polygon points="203 28 202 28 202 29 202 30 203 30 203 29 203 28" fill="#f2bcac"/>
    <polygon points="155 28 154 28 154 29 154 30 155 30 155 29 155 28" fill="#f2bcac"/>
    <polygon points="107 28 106 28 106 29 106 30 107 30 107 29 107 28" fill="#f2bcac"/>
    <polygon points="74 29 74 28 73 28 72 28 71 28 70 28 69 28 69 29 70 29 71 29 71 30 71 31 71 32 72 32 72 31 72 30 72 29 73 29 74 29" fill="#f2bcac"/>
    <polygon points="61 28 60 28 60 29 60 30 61 30 61 29 61 28" fill="#f2bcac"/>
    <polygon points="11 28 10 28 10 29 10 30 11 30 11 29 11 28" fill="#f2bcac"/>
    <polygon points="362 28 363 28 363 27 362 27 361 27 360 27 359 27 358 27 357 27 356 27 356 28 357 28 358 28 359 28 360 28 361 28 362 28" fill="#f2bcac"/>
    <polygon points="314 28 315 28 315 27 314 27 313 27 312 27 311 27 310 27 309 27 308 27 308 28 309 28 310 28 311 28 312 28 313 28 314 28" fill="#f2bcac"/>
    <polygon points="266 28 267 28 267 27 266 27 265 27 264 27 263 27 262 27 261 27 260 27 260 28 261 28 262 28 263 28 264 28 265 28 266 28" fill="#f2bcac"/>
    <polygon points="218 28 219 28 219 27 218 27 217 27 216 27 215 27 214 27 213 27 212 27 212 28 213 28 214 28 215 28 216 28 217 28 218 28" fill="#f2bcac"/>
    <polygon points="170 28 171 28 171 27 170 27 169 27 168 27 167 27 166 27 165 27 164 27 164 28 165 28 166 28 167 28 168 28 169 28 170 28" fill="#f2bcac"/>
    <polygon points="122 28 123 28 123 27 122 27 121 27 120 27 119 27 118 27 117 27 116 27 116 28 117 28 118 28 119 28 120 28 121 28 122 28" fill="#f2bcac"/>
    <rect x="74" y="27" width="1" height="1" fill="#f2bcac"/>
    <rect x="68" y="27" width="1" height="1" fill="#f2bcac"/>
    <polygon points="63 28 64 28 65 28 65 27 64 27 63 27 62 27 62 26 61 26 60 26 59 26 59 27 60 27 61 27 61 28 62 28 63 28" fill="#f2bcac"/>
    <polygon points="26 28 27 28 27 27 26 27 25 27 24 27 23 27 22 27 21 27 20 27 20 28 21 28 22 28 23 28 24 28 25 28 26 28" fill="#f2bcac"/>
    <polygon points="365 27 366 27 367 27 367 26 366 26 365 26 364 26 363 26 363 27 364 27 365 27" fill="#f2bcac"/>
    <polygon points="355 26 354 26 353 26 353 27 354 27 355 27 356 27 356 26 355 26" fill="#f2bcac"/>
    <polygon points="317 27 318 27 319 27 319 26 318 26 317 26 316 26 315 26 315 27 316 27 317 27" fill="#f2bcac"/>
    <polygon points="307 26 306 26 305 26 305 27 306 27 307 27 308 27 308 26 307 26" fill="#f2bcac"/>
    <polygon points="269 27 270 27 271 27 271 26 270 26 269 26 268 26 267 26 267 27 268 27 269 27" fill="#f2bcac"/>
    <polygon points="259 26 258 26 257 26 257 27 258 27 259 27 260 27 260 26 259 26" fill="#f2bcac"/>
    <polygon points="221 27 222 27 223 27 223 26 222 26 221 26 220 26 219 26 219 27 220 27 221 27" fill="#f2bcac"/>
    <polygon points="211 26 210 26 209 26 209 27 210 27 211 27 212 27 212 26 211 26" fill="#f2bcac"/>
    <polygon points="173 27 174 27 175 27 175 26 174 26 173 26 172 26 171 26 171 27 172 27 173 27" fill="#f2bcac"/>
    <polygon points="163 26 162 26 161 26 161 27 162 27 163 27 164 27 164 26 163 26" fill="#f2bcac"/>
    <polygon points="125 27 126 27 127 27 127 26 126 26 125 26 124 26 123 26 123 27 124 27 125 27" fill="#f2bcac"/>
    <polygon points="115 26 114 26 113 26 113 27 114 27 115 27 116 27 116 26 115 26" fill="#f2bcac"/>
    <polygon points="83 26 82 26 82 27 81 27 80 27 79 27 79 28 80 28 81 28 82 28 83 28 83 27 84 27 85 27 85 26 84 26 83 26" fill="#f2bcac"/>
    <rect x="75" y="26" width="1" height="1" fill="#f2bcac"/>
    <rect x="67" y="26" width="1" height="1" fill="#f2bcac"/>
    <polygon points="29 27 30 27 31 27 31 26 30 26 29 26 28 26 27 26 27 27 28 27 29 27" fill="#f2bcac"/>
    <polygon points="19 26 18 26 17 26 17 27 18 27 19 27 20 27 20 26 19 26" fill="#f2bcac"/>
    <polygon points="369 26 369 25 368 25 367 25 367 26 368 26 369 26" fill="#f2bcac"/>
    <polygon points="352 25 351 25 351 26 352 26 353 26 353 25 352 25" fill="#f2bcac"/>
    <polygon points="321 26 321 25 320 25 319 25 319 26 320 26 321 26" fill="#f2bcac"/>
    <polygon points="304 25 303 25 303 26 304 26 305 26 305 25 304 25" fill="#f2bcac"/>
    <polygon points="273 26 273 25 272 25 271 25 271 26 272 26 273 26" fill="#f2bcac"/>
    <polygon points="256 25 255 25 255 26 256 26 257 26 257 25 256 25" fill="#f2bcac"/>
    <polygon points="225 26 225 25 224 25 223 25 223 26 224 26 225 26" fill="#f2bcac"/>
    <polygon points="208 25 207 25 207 26 208 26 209 26 209 25 208 25" fill="#f2bcac"/>
    <polygon points="177 26 177 25 176 25 175 25 175 26 176 26 177 26" fill="#f2bcac"/>
    <polygon points="160 25 159 25 159 26 160 26 161 26 161 25 160 25" fill="#f2bcac"/>
    <polygon points="129 26 129 25 128 25 127 25 127 26 128 26 129 26" fill="#f2bcac"/>
    <polygon points="112 25 111 25 111 26 112 26 113 26 113 25 112 25" fill="#f2bcac"/>
    <polygon points="58 25 58 24 57 24 57 25 57 26 58 26 59 26 59 25 58 25" fill="#f2bcac"/>
    <polygon points="33 26 33 25 32 25 31 25 31 26 32 26 33 26" fill="#f2bcac"/>
    <polygon points="16 25 15 25 15 26 16 26 17 26 17 25 16 25" fill="#f2bcac"/>
    <rect x="369" y="24" width="1" height="1" fill="#f2bcac"/>
    <rect x="350" y="24" width="1" height="1" fill="#f2bcac"/>
    <rect x="321" y="24" width="1" height="1" fill="#f2bcac"/>
    <rect x="302" y="24" width="1" height="1" fill="#f2bcac"/>
    <rect x="273" y="24" width="1" height="1" fill="#f2bcac"/>
    <rect x="254" y="24" width="1" height="1" fill="#f2bcac"/>
    <rect x="225" y="24" width="1" height="1" fill="#f2bcac"/>
    <rect x="206" y="24" width="1" height="1" fill="#f2bcac"/>
    <rect x="177" y="24" width="1" height="1" fill="#f2bcac"/>
    <rect x="158" y="24" width="1" height="1" fill="#f2bcac"/>
    <rect x="129" y="24" width="1" height="1" fill="#f2bcac"/>
    <rect x="110" y="24" width="1" height="1" fill="#f2bcac"/>
    <polygon points="86 25 85 25 85 26 86 26 87 26 87 25 87 24 86 24 86 25" fill="#f2bcac"/>
    <rect x="33" y="24" width="1" height="1" fill="#f2bcac"/>
    <rect x="14" y="24" width="1" height="1" fill="#f2bcac"/>
    <rect x="370" y="23" width="1" height="1" fill="#f2bcac"/>
    <rect x="349" y="23" width="1" height="1" fill="#f2bcac"/>
    <rect x="322" y="23" width="1" height="1" fill="#f2bcac"/>
    <rect x="301" y="23" width="1" height="1" fill="#f2bcac"/>
    <rect x="274" y="23" width="1" height="1" fill="#f2bcac"/>
    <rect x="253" y="23" width="1" height="1" fill="#f2bcac"/>
    <rect x="226" y="23" width="1" height="1" fill="#f2bcac"/>
    <rect x="205" y="23" width="1" height="1" fill="#f2bcac"/>
    <rect x="178" y="23" width="1" height="1" fill="#f2bcac"/>
    <rect x="157" y="23" width="1" height="1" fill="#f2bcac"/>
    <rect x="130" y="23" width="1" height="1" fill="#f2bcac"/>
    <rect x="109" y="23" width="1" height="1" fill="#f2bcac"/>
    <rect x="87" y="23" width="1" height="1" fill="#f2bcac"/>
    <polygon points="71 24 72 24 73 24 73 23 74 23 74 22 73 22 72 22 71 22 70 22 70 23 71 23 71 24" fill="#f2bcac"/>
    <rect x="34" y="23" width="1" height="1" fill="#f2bcac"/>
    <rect x="13" y="23" width="1" height="1" fill="#f2bcac"/>
    <polygon points="356 23 357 23 357 24 358 24 359 24 360 24 361 24 362 24 362 23 363 23 363 22 363 21 362 21 361 21 360 21 359 21 358 21 357 21 356 21 356 22 356 23" fill="#f2bcac"/>
    <polygon points="308 23 309 23 309 24 310 24 311 24 312 24 313 24 314 24 314 23 315 23 315 22 315 21 314 21 313 21 312 21 311 21 310 21 309 21 308 21 308 22 308 23" fill="#f2bcac"/>
    <polygon points="260 23 261 23 261 24 262 24 263 24 264 24 265 24 266 24 266 23 267 23 267 22 267 21 266 21 265 21 264 21 263 21 262 21 261 21 260 21 260 22 260 23" fill="#f2bcac"/>
    <polygon points="212 23 213 23 213 24 214 24 215 24 216 24 217 24 218 24 218 23 219 23 219 22 219 21 218 21 217 21 216 21 215 21 214 21 213 21 212 21 212 22 212 23" fill="#f2bcac"/>
    <polygon points="164 23 165 23 165 24 166 24 167 24 168 24 169 24 170 24 170 23 171 23 171 22 171 21 170 21 169 21 168 21 167 21 166 21 165 21 164 21 164 22 164 23" fill="#f2bcac"/>
    <polygon points="116 23 117 23 117 24 118 24 119 24 120 24 121 24 122 24 122 23 123 23 123 22 123 21 122 21 121 21 120 21 119 21 118 21 117 21 116 21 116 22 116 23" fill="#f2bcac"/>
    <polygon points="57 22 57 21 58 21 58 20 58 19 57 19 57 20 56 20 56 21 56 22 56 23 56 24 57 24 57 23 57 22" fill="#f2bcac"/>
    <polygon points="20 23 21 23 21 24 22 24 23 24 24 24 25 24 26 24 26 23 27 23 27 22 27 21 26 21 25 21 24 21 23 21 22 21 21 21 20 21 20 22 20 23" fill="#f2bcac"/>
    <rect x="363" y="20" width="1" height="1" fill="#f2bcac"/>
    <rect x="355" y="20" width="1" height="1" fill="#f2bcac"/>
    <rect x="315" y="20" width="1" height="1" fill="#f2bcac"/>
    <rect x="307" y="20" width="1" height="1" fill="#f2bcac"/>
    <rect x="267" y="20" width="1" height="1" fill="#f2bcac"/>
    <rect x="259" y="20" width="1" height="1" fill="#f2bcac"/>
    <rect x="219" y="20" width="1" height="1" fill="#f2bcac"/>
    <rect x="211" y="20" width="1" height="1" fill="#f2bcac"/>
    <rect x="171" y="20" width="1" height="1" fill="#f2bcac"/>
    <rect x="163" y="20" width="1" height="1" fill="#f2bcac"/>
    <rect x="123" y="20" width="1" height="1" fill="#f2bcac"/>
    <rect x="115" y="20" width="1" height="1" fill="#f2bcac"/>
    <rect x="27" y="20" width="1" height="1" fill="#f2bcac"/>
    <rect x="19" y="20" width="1" height="1" fill="#f2bcac"/>
    <rect x="361" y="18" width="1" height="1" fill="#ff9c83"/>
    <rect x="360" y="18" width="1" height="1" fill="#ff9c83"/>
    <rect x="359" y="18" width="1" height="1" fill="#ff9c83"/>
    <rect x="313" y="18" width="1" height="1" fill="#ff9c83"/>
    <rect x="312" y="18" width="1" height="1" fill="#ff9c83"/>
    <rect x="311" y="18" width="1" height="1" fill="#ff9c83"/>
    <rect x="265" y="18" width="1" height="1" fill="#ff9c83"/>
    <rect x="264" y="18" width="1" height="1" fill="#ff9c83"/>
    <rect x="263" y="18" width="1" height="1" fill="#ff9c83"/>
    <rect x="217" y="18" width="1" height="1" fill="#ff9c83"/>
    <rect x="216" y="18" width="1" height="1" fill="#ff9c83"/>
    <rect x="215" y="18" width="1" height="1" fill="#ff9c83"/>
    <rect x="169" y="18" width="1" height="1" fill="#ff9c83"/>
    <rect x="168" y="18" width="1" height="1" fill="#ff9c83"/>
    <rect x="167" y="18" width="1" height="1" fill="#ff9c83"/>
    <rect x="121" y="18" width="1" height="1" fill="#ff9c83"/>
    <rect x="120" y="18" width="1" height="1" fill="#ff9c83"/>
    <rect x="119" y="18" width="1" height="1" fill="#ff9c83"/>
    <rect x="25" y="18" width="1" height="1" fill="#ff9c83"/>
    <rect x="24" y="18" width="1" height="1" fill="#ff9c83"/>
    <rect x="23" y="18" width="1" height="1" fill="#ff9c83"/>
    <rect x="361" y="17" width="1" height="1" fill="#ff9c83"/>
    <rect x="360" y="17" width="1" height="1" fill="#ff9c83"/>
    <rect x="359" y="17" width="1" height="1" fill="#ff9c83"/>
    <rect x="313" y="17" width="1" height="1" fill="#ff9c83"/>
    <rect x="312" y="17" width="1" height="1" fill="#ff9c83"/>
    <rect x="311" y="17" width="1" height="1" fill="#ff9c83"/>
    <rect x="265" y="17" width="1" height="1" fill="#ff9c83"/>
    <rect x="264" y="17" width="1" height="1" fill="#ff9c83"/>
    <rect x="263" y="17" width="1" height="1" fill="#ff9c83"/>
    <rect x="217" y="17" width="1" height="1" fill="#ff9c83"/>
    <rect x="216" y="17" width="1" height="1" fill="#ff9c83"/>
    <rect x="215" y="17" width="1" height="1" fill="#ff9c83"/>
    <rect x="169" y="17" width="1" height="1" fill="#ff9c83"/>
    <rect x="168" y="17" width="1" height="1" fill="#ff9c83"/>
    <rect x="167" y="17" width="1" height="1" fill="#ff9c83"/>
    <rect x="121" y="17" width="1" height="1" fill="#ff9c83"/>
    <rect x="120" y="17" width="1" height="1" fill="#ff9c83"/>
    <rect x="119" y="17" width="1" height="1" fill="#ff9c83"/>
    <rect x="73" y="17" width="1" height="1" fill="#ff9c83"/>
    <rect x="72" y="17" width="1" height="1" fill="#ff9c83"/>
    <rect x="71" y="17" width="1" height="1" fill="#ff9c83"/>
    <rect x="25" y="17" width="1" height="1" fill="#ff9c83"/>
    <rect x="24" y="17" width="1" height="1" fill="#ff9c83"/>
    <rect x="23" y="17" width="1" height="1" fill="#ff9c83"/>
    <rect x="73" y="16" width="1" height="1" fill="#ff9c83"/>
    <rect x="72" y="16" width="1" height="1" fill="#ff9c83"/>
    <rect x="71" y="16" width="1" height="1" fill="#ff9c83"/>
    <rect x="364" y="15" width="1" height="1" fill="#fbf8f6"/>
    <rect x="352" y="15" width="1" height="1" fill="#fbf8f6"/>
    <rect x="316" y="15" width="1" height="1" fill="#fbf8f6"/>
    <rect x="304" y="15" width="1" height="1" fill="#fbf8f6"/>
    <rect x="268" y="15" width="1" height="1" fill="#fbf8f6"/>
    <rect x="256" y="15" width="1" height="1" fill="#fbf8f6"/>
    <rect x="220" y="15" width="1" height="1" fill="#fbf8f6"/>
    <rect x="208" y="15" width="1" height="1" fill="#fbf8f6"/>
    <rect x="172" y="15" width="1" height="1" fill="#fbf8f6"/>
    <rect x="160" y="15" width="1" height="1" fill="#fbf8f6"/>
    <rect x="124" y="15" width="1" height="1" fill="#fbf8f6"/>
    <rect x="112" y="15" width="1" height="1" fill="#fbf8f6"/>
    <rect x="28" y="15" width="1" height="1" fill="#fbf8f6"/>
    <rect x="16" y="15" width="1" height="1" fill="#fbf8f6"/>
    <rect x="364" y="14" width="1" height="1" fill="#fbf8f6"/>
    <rect x="352" y="14" width="1" height="1" fill="#fbf8f6"/>
    <rect x="316" y="14" width="1" height="1" fill="#fbf8f6"/>
    <rect x="304" y="14" width="1" height="1" fill="#fbf8f6"/>
    <rect x="268" y="14" width="1" height="1" fill="#fbf8f6"/>
    <rect x="256" y="14" width="1" height="1" fill="#fbf8f6"/>
    <rect x="220" y="14" width="1" height="1" fill="#fbf8f6"/>
    <rect x="208" y="14" width="1" height="1" fill="#fbf8f6"/>
    <rect x="172" y="14" width="1" height="1" fill="#fbf8f6"/>
    <rect x="160" y="14" width="1" height="1" fill="#fbf8f6"/>
    <rect x="124" y="14" width="1" height="1" fill="#fbf8f6"/>
    <rect x="112" y="14" width="1" height="1" fill="#fbf8f6"/>
    <rect x="76" y="14" width="1" height="1" fill="#fbf8f6"/>
    <rect x="64" y="14" width="1" height="1" fill="#fbf8f6"/>
    <rect x="28" y="14" width="1" height="1" fill="#fbf8f6"/>
    <rect x="16" y="14" width="1" height="1" fill="#fbf8f6"/>
    <polygon points="367 14 366 14 365 14 365 15 365 16 366 16 367 16 368 16 368 15 368 14 367 14" fill="#326efc"/>
    <polygon points="354 14 353 14 353 15 353 16 354 16 355 16 356 16 356 15 356 14 355 14 354 14" fill="#326efc"/>
    <polygon points="318 14 317 14 317 15 317 16 318 16 319 16 320 16 320 15 320 14 319 14 318 14" fill="#326efc"/>
    <polygon points="306 14 305 14 305 15 305 16 306 16 307 16 308 16 308 15 308 14 307 14 306 14" fill="#326efc"/>
    <polygon points="270 14 269 14 269 15 269 16 270 16 271 16 272 16 272 15 272 14 271 14 270 14" fill="#326efc"/>
    <polygon points="258 14 257 14 257 15 257 16 258 16 259 16 260 16 260 15 260 14 259 14 258 14" fill="#326efc"/>
    <polygon points="222 14 221 14 221 15 221 16 222 16 223 16 224 16 224 15 224 14 223 14 222 14" fill="#326efc"/>
    <polygon points="210 14 209 14 209 15 209 16 210 16 211 16 212 16 212 15 212 14 211 14 210 14" fill="#326efc"/>
    <polygon points="174 14 173 14 173 15 173 16 174 16 175 16 176 16 176 15 176 14 175 14 174 14" fill="#326efc"/>
    <polygon points="162 14 161 14 161 15 161 16 162 16 163 16 164 16 164 15 164 14 163 14 162 14" fill="#326efc"/>
    <polygon points="126 14 125 14 125 15 125 16 126 16 127 16 128 16 128 15 128 14 127 14 126 14" fill="#326efc"/>
    <polygon points="114 14 113 14 113 15 113 16 114 16 115 16 116 16 116 15 116 14 115 14 114 14" fill="#326efc"/>
    <polygon points="66 14 65 14 65 15 66 15 67 15 68 15 68 14 67 14 66 14" fill="#326efc"/>
    <polygon points="30 14 29 14 29 15 29 16 30 16 31 16 32 16 32 15 32 14 31 14 30 14" fill="#326efc"/>
    <polygon points="18 14 17 14 17 15 17 16 18 16 19 16 20 16 20 15 20 14 19 14 18 14" fill="#326efc"/>
    <polygon points="78 13 77 13 77 14 77 15 78 15 79 15 80 15 80 14 80 13 79 13 78 13" fill="#326efc"/>
    <rect x="76" y="13" width="1" height="1" fill="#fbf8f6"/>
    <rect x="79" y="21" width="1" height="1" fill="#ffc5a9"/>
    <rect x="61" y="21" width="1" height="1" fill="#ffc5a9"/>
    <polygon points="369 18 368 18 367 18 367 19 368 19 368 20 369 20 370 20 370 19 370 18 369 18" fill="#ffc5a9"/>
    <polygon points="351 18 350 18 350 19 351 19 351 20 352 20 353 20 353 19 353 18 352 18 351 18" fill="#ffc5a9"/>
    <polygon points="320 18 319 18 319 19 320 19 320 20 321 20 322 20 322 19 322 18 321 18 320 18" fill="#ffc5a9"/>
    <polygon points="303 18 302 18 302 19 303 19 303 20 304 20 305 20 305 19 305 18 304 18 303 18" fill="#ffc5a9"/>
    <polygon points="272 18 271 18 271 19 272 19 272 20 273 20 274 20 274 19 274 18 273 18 272 18" fill="#ffc5a9"/>
    <polygon points="255 18 254 18 254 19 255 19 255 20 256 20 257 20 257 19 257 18 256 18 255 18" fill="#ffc5a9"/>
    <polygon points="224 18 223 18 223 19 224 19 224 20 225 20 226 20 226 19 226 18 225 18 224 18" fill="#ffc5a9"/>
    <polygon points="207 18 206 18 206 19 207 19 207 20 208 20 209 20 209 19 209 18 208 18 207 18" fill="#ffc5a9"/>
    <polygon points="176 18 175 18 175 19 176 19 176 20 177 20 178 20 178 19 178 18 177 18 176 18" fill="#ffc5a9"/>
    <polygon points="159 18 158 18 158 19 159 19 159 20 160 20 161 20 161 19 161 18 160 18 159 18" fill="#ffc5a9"/>
    <polygon points="128 18 127 18 127 19 128 19 128 20 129 20 130 20 130 19 130 18 129 18 128 18" fill="#ffc5a9"/>
    <polygon points="111 18 110 18 110 19 111 19 111 20 112 20 113 20 113 19 113 18 112 18 111 18" fill="#ffc5a9"/>
    <polygon points="82 18 81 18 80 18 80 19 79 19 79 20 80 20 80 21 81 21 81 22 82 22 82 21 83 21 83 20 83 19 82 19 82 18" fill="#ffc5a9"/>
    <polygon points="64 18 63 18 62 18 62 19 61 19 61 20 62 20 62 21 63 21 63 22 64 22 64 21 65 21 65 20 65 19 64 19 64 18" fill="#ffc5a9"/>
    <polygon points="32 18 31 18 31 19 32 19 32 20 33 20 34 20 34 19 34 18 33 18 32 18" fill="#ffc5a9"/>
    <polygon points="15 18 14 18 14 19 15 19 15 20 16 20 17 20 17 19 17 18 16 18 15 18" fill="#ffc5a9"/>
    <polygon points="368 14 368 13 368 12 367 12 366 12 365 12 365 13 364 13 364 14 365 14 366 14 367 14 368 14" fill="#ffc5a9"/>
    <polygon points="320 14 320 13 320 12 319 12 318 12 317 12 317 13 316 13 316 14 317 14 318 14 319 14 320 14" fill="#ffc5a9"/>
    <polygon points="272 14 272 13 272 12 271 12 270 12 269 12 269 13 268 13 268 14 269 14 270 14 271 14 272 14" fill="#ffc5a9"/>
    <polygon points="224 14 224 13 224 12 223 12 222 12 221 12 221 13 220 13 220 14 221 14 222 14 223 14 224 14" fill="#ffc5a9"/>
    <polygon points="176 14 176 13 176 12 175 12 174 12 173 12 173 13 172 13 172 14 173 14 174 14 175 14 176 14" fill="#ffc5a9"/>
    <polygon points="128 14 128 13 128 12 127 12 126 12 125 12 125 13 124 13 124 14 125 14 126 14 127 14 128 14" fill="#ffc5a9"/>
    <polygon points="32 14 32 13 32 12 31 12 30 12 29 12 29 13 28 13 28 14 29 14 30 14 31 14 32 14" fill="#ffc5a9"/>
    <polygon points="354 12 353 12 353 13 352 13 352 14 353 14 354 14 355 14 356 14 356 13 356 12 355 12 354 12" fill="#ffc5a9"/>
    <polygon points="306 12 305 12 305 13 304 13 304 14 305 14 306 14 307 14 308 14 308 13 308 12 307 12 306 12" fill="#ffc5a9"/>
    <polygon points="258 12 257 12 257 13 256 13 256 14 257 14 258 14 259 14 260 14 260 13 260 12 259 12 258 12" fill="#ffc5a9"/>
    <polygon points="210 12 209 12 209 13 208 13 208 14 209 14 210 14 211 14 212 14 212 13 212 12 211 12 210 12" fill="#ffc5a9"/>
    <polygon points="162 12 161 12 161 13 160 13 160 14 161 14 162 14 163 14 164 14 164 13 164 12 163 12 162 12" fill="#ffc5a9"/>
    <polygon points="114 12 113 12 113 13 112 13 112 14 113 14 114 14 115 14 116 14 116 13 116 12 115 12 114 12" fill="#ffc5a9"/>
    <polygon points="80 13 80 12 79 12 78 12 77 12 76 12 76 13 77 13 78 13 79 13 80 13" fill="#ffc5a9"/>
    <polygon points="66 12 65 12 65 13 64 13 64 14 65 14 66 14 67 14 68 14 68 13 68 12 67 12 66 12" fill="#ffc5a9"/>
    <polygon points="18 12 17 12 17 13 16 13 16 14 17 14 18 14 19 14 20 14 20 13 20 12 19 12 18 12" fill="#ffc5a9"/>
    <rect x="71" y="9" width="1" height="1" fill="#90725a"/>
    <rect x="70" y="9" width="1" height="1" fill="#90725a"/>
    <rect x="359" y="8" width="1" height="1" fill="#90725a"/>
    <rect x="358" y="8" width="1" height="1" fill="#90725a"/>
    <rect x="311" y="8" width="1" height="1" fill="#90725a"/>
    <rect x="310" y="8" width="1" height="1" fill="#90725a"/>
    <rect x="263" y="8" width="1" height="1" fill="#90725a"/>
    <rect x="262" y="8" width="1" height="1" fill="#90725a"/>
    <rect x="215" y="8" width="1" height="1" fill="#90725a"/>
    <rect x="214" y="8" width="1" height="1" fill="#90725a"/>
    <rect x="167" y="8" width="1" height="1" fill="#90725a"/>
    <rect x="166" y="8" width="1" height="1" fill="#90725a"/>
    <rect x="119" y="8" width="1" height="1" fill="#90725a"/>
    <rect x="118" y="8" width="1" height="1" fill="#90725a"/>
    <rect x="82" y="8" width="1" height="1" fill="#90725a"/>
    <rect x="72" y="8" width="1" height="1" fill="#90725a"/>
    <rect x="71" y="8" width="1" height="1" fill="#90725a"/>
    <rect x="61" y="8" width="1" height="1" fill="#90725a"/>
    <rect x="23" y="8" width="1" height="1" fill="#90725a"/>
    <rect x="22" y="8" width="1" height="1" fill="#90725a"/>
    <rect x="370" y="7" width="1" height="1" fill="#90725a"/>
    <rect x="360" y="7" width="1" height="1" fill="#90725a"/>
    <rect x="359" y="7" width="1" height="1" fill="#90725a"/>
    <rect x="349" y="7" width="1" height="1" fill="#90725a"/>
    <rect x="322" y="7" width="1" height="1" fill="#90725a"/>
    <rect x="312" y="7" width="1" height="1" fill="#90725a"/>
    <rect x="311" y="7" width="1" height="1" fill="#90725a"/>
    <rect x="301" y="7" width="1" height="1" fill="#90725a"/>
    <rect x="274" y="7" width="1" height="1" fill="#90725a"/>
    <rect x="264" y="7" width="1" height="1" fill="#90725a"/>
    <rect x="263" y="7" width="1" height="1" fill="#90725a"/>
    <rect x="253" y="7" width="1" height="1" fill="#90725a"/>
    <rect x="226" y="7" width="1" height="1" fill="#90725a"/>
    <rect x="216" y="7" width="1" height="1" fill="#90725a"/>
    <rect x="215" y="7" width="1" height="1" fill="#90725a"/>
    <rect x="205" y="7" width="1" height="1" fill="#90725a"/>
    <rect x="178" y="7" width="1" height="1" fill="#90725a"/>
    <rect x="168" y="7" width="1" height="1" fill="#90725a"/>
    <rect x="167" y="7" width="1" height="1" fill="#90725a"/>
    <rect x="157" y="7" width="1" height="1" fill="#90725a"/>
    <rect x="130" y="7" width="1" height="1" fill="#90725a"/>
    <rect x="120" y="7" width="1" height="1" fill="#90725a"/>
    <rect x="119" y="7" width="1" height="1" fill="#90725a"/>
    <rect x="109" y="7" width="1" height="1" fill="#90725a"/>
    <rect x="82" y="7" width="1" height="1" fill="#90725a"/>
    <rect x="81" y="7" width="1" height="1" fill="#90725a"/>
    <rect x="73" y="7" width="1" height="1" fill="#90725a"/>
    <rect x="72" y="7" width="1" height="1" fill="#90725a"/>
    <rect x="71" y="7" width="1" height="1" fill="#90725a"/>
    <rect x="70" y="7" width="1" height="1" fill="#90725a"/>
    <rect x="62" y="7" width="1" height="1" fill="#90725a"/>
    <rect x="61" y="7" width="1" height="1" fill="#90725a"/>
    <rect x="34" y="7" width="1" height="1" fill="#90725a"/>
    <rect x="24" y="7" width="1" height="1" fill="#90725a"/>
    <rect x="23" y="7" width="1" height="1" fill="#90725a"/>
    <rect x="13" y="7" width="1" height="1" fill="#90725a"/>
    <rect x="370" y="6" width="1" height="1" fill="#90725a"/>
    <rect x="369" y="6" width="1" height="1" fill="#90725a"/>
    <rect x="361" y="6" width="1" height="1" fill="#90725a"/>
    <rect x="360" y="6" width="1" height="1" fill="#90725a"/>
    <rect x="359" y="6" width="1" height="1" fill="#90725a"/>
    <rect x="358" y="6" width="1" height="1" fill="#90725a"/>
    <rect x="350" y="6" width="1" height="1" fill="#90725a"/>
    <rect x="349" y="6" width="1" height="1" fill="#90725a"/>
    <rect x="322" y="6" width="1" height="1" fill="#90725a"/>
    <rect x="321" y="6" width="1" height="1" fill="#90725a"/>
    <rect x="313" y="6" width="1" height="1" fill="#90725a"/>
    <rect x="312" y="6" width="1" height="1" fill="#90725a"/>
    <rect x="311" y="6" width="1" height="1" fill="#90725a"/>
    <rect x="310" y="6" width="1" height="1" fill="#90725a"/>
    <rect x="302" y="6" width="1" height="1" fill="#90725a"/>
    <rect x="301" y="6" width="1" height="1" fill="#90725a"/>
    <rect x="274" y="6" width="1" height="1" fill="#90725a"/>
    <rect x="273" y="6" width="1" height="1" fill="#90725a"/>
    <rect x="265" y="6" width="1" height="1" fill="#90725a"/>
    <rect x="264" y="6" width="1" height="1" fill="#90725a"/>
    <rect x="263" y="6" width="1" height="1" fill="#90725a"/>
    <rect x="262" y="6" width="1" height="1" fill="#90725a"/>
    <rect x="254" y="6" width="1" height="1" fill="#90725a"/>
    <rect x="253" y="6" width="1" height="1" fill="#90725a"/>
    <rect x="226" y="6" width="1" height="1" fill="#90725a"/>
    <rect x="225" y="6" width="1" height="1" fill="#90725a"/>
    <rect x="217" y="6" width="1" height="1" fill="#90725a"/>
    <rect x="216" y="6" width="1" height="1" fill="#90725a"/>
    <rect x="215" y="6" width="1" height="1" fill="#90725a"/>
    <rect x="214" y="6" width="1" height="1" fill="#90725a"/>
    <rect x="206" y="6" width="1" height="1" fill="#90725a"/>
    <rect x="205" y="6" width="1" height="1" fill="#90725a"/>
    <rect x="178" y="6" width="1" height="1" fill="#90725a"/>
    <rect x="177" y="6" width="1" height="1" fill="#90725a"/>
    <rect x="169" y="6" width="1" height="1" fill="#90725a"/>
    <rect x="168" y="6" width="1" height="1" fill="#90725a"/>
    <rect x="167" y="6" width="1" height="1" fill="#90725a"/>
    <rect x="166" y="6" width="1" height="1" fill="#90725a"/>
    <rect x="158" y="6" width="1" height="1" fill="#90725a"/>
    <rect x="157" y="6" width="1" height="1" fill="#90725a"/>
    <rect x="130" y="6" width="1" height="1" fill="#90725a"/>
    <rect x="129" y="6" width="1" height="1" fill="#90725a"/>
    <rect x="121" y="6" width="1" height="1" fill="#90725a"/>
    <rect x="120" y="6" width="1" height="1" fill="#90725a"/>
    <rect x="119" y="6" width="1" height="1" fill="#90725a"/>
    <rect x="118" y="6" width="1" height="1" fill="#90725a"/>
    <rect x="110" y="6" width="1" height="1" fill="#90725a"/>
    <rect x="109" y="6" width="1" height="1" fill="#90725a"/>
    <rect x="81" y="6" width="1" height="1" fill="#90725a"/>
    <rect x="80" y="6" width="1" height="1" fill="#90725a"/>
    <rect x="79" y="6" width="1" height="1" fill="#90725a"/>
    <rect x="78" y="6" width="1" height="1" fill="#90725a"/>
    <rect x="74" y="6" width="1" height="1" fill="#90725a"/>
    <rect x="73" y="6" width="1" height="1" fill="#90725a"/>
    <rect x="72" y="6" width="1" height="1" fill="#90725a"/>
    <rect x="71" y="6" width="1" height="1" fill="#90725a"/>
    <rect x="70" y="6" width="1" height="1" fill="#90725a"/>
    <rect x="69" y="6" width="1" height="1" fill="#90725a"/>
    <rect x="64" y="6" width="1" height="1" fill="#90725a"/>
    <rect x="63" y="6" width="1" height="1" fill="#90725a"/>
    <rect x="62" y="6" width="1" height="1" fill="#90725a"/>
    <rect x="34" y="6" width="1" height="1" fill="#90725a"/>
    <rect x="33" y="6" width="1" height="1" fill="#90725a"/>
    <rect x="25" y="6" width="1" height="1" fill="#90725a"/>
    <rect x="24" y="6" width="1" height="1" fill="#90725a"/>
    <rect x="23" y="6" width="1" height="1" fill="#90725a"/>
    <rect x="22" y="6" width="1" height="1" fill="#90725a"/>
    <rect x="14" y="6" width="1" height="1" fill="#90725a"/>
    <rect x="13" y="6" width="1" height="1" fill="#90725a"/>
    <rect x="369" y="5" width="1" height="1" fill="#90725a"/>
    <rect x="368" y="5" width="1" height="1" fill="#90725a"/>
    <rect x="367" y="5" width="1" height="1" fill="#90725a"/>
    <rect x="366" y="5" width="1" height="1" fill="#90725a"/>
    <rect x="362" y="5" width="1" height="1" fill="#90725a"/>
    <rect x="361" y="5" width="1" height="1" fill="#90725a"/>
    <rect x="360" y="5" width="1" height="1" fill="#90725a"/>
    <rect x="359" y="5" width="1" height="1" fill="#90725a"/>
    <rect x="358" y="5" width="1" height="1" fill="#90725a"/>
    <rect x="357" y="5" width="1" height="1" fill="#90725a"/>
    <rect x="352" y="5" width="1" height="1" fill="#90725a"/>
    <rect x="351" y="5" width="1" height="1" fill="#90725a"/>
    <rect x="350" y="5" width="1" height="1" fill="#90725a"/>
    <rect x="321" y="5" width="1" height="1" fill="#90725a"/>
    <rect x="320" y="5" width="1" height="1" fill="#90725a"/>
    <rect x="319" y="5" width="1" height="1" fill="#90725a"/>
    <rect x="318" y="5" width="1" height="1" fill="#90725a"/>
    <rect x="314" y="5" width="1" height="1" fill="#90725a"/>
    <rect x="313" y="5" width="1" height="1" fill="#90725a"/>
    <rect x="312" y="5" width="1" height="1" fill="#90725a"/>
    <rect x="311" y="5" width="1" height="1" fill="#90725a"/>
    <rect x="310" y="5" width="1" height="1" fill="#90725a"/>
    <rect x="309" y="5" width="1" height="1" fill="#90725a"/>
    <rect x="304" y="5" width="1" height="1" fill="#90725a"/>
    <rect x="303" y="5" width="1" height="1" fill="#90725a"/>
    <rect x="302" y="5" width="1" height="1" fill="#90725a"/>
    <rect x="273" y="5" width="1" height="1" fill="#90725a"/>
    <rect x="272" y="5" width="1" height="1" fill="#90725a"/>
    <rect x="271" y="5" width="1" height="1" fill="#90725a"/>
    <rect x="270" y="5" width="1" height="1" fill="#90725a"/>
    <rect x="266" y="5" width="1" height="1" fill="#90725a"/>
    <rect x="265" y="5" width="1" height="1" fill="#90725a"/>
    <rect x="264" y="5" width="1" height="1" fill="#90725a"/>
    <rect x="263" y="5" width="1" height="1" fill="#90725a"/>
    <rect x="262" y="5" width="1" height="1" fill="#90725a"/>
    <rect x="261" y="5" width="1" height="1" fill="#90725a"/>
    <rect x="256" y="5" width="1" height="1" fill="#90725a"/>
    <rect x="255" y="5" width="1" height="1" fill="#90725a"/>
    <rect x="254" y="5" width="1" height="1" fill="#90725a"/>
    <rect x="225" y="5" width="1" height="1" fill="#90725a"/>
    <rect x="224" y="5" width="1" height="1" fill="#90725a"/>
    <rect x="223" y="5" width="1" height="1" fill="#90725a"/>
    <rect x="222" y="5" width="1" height="1" fill="#90725a"/>
    <rect x="218" y="5" width="1" height="1" fill="#90725a"/>
    <rect x="217" y="5" width="1" height="1" fill="#90725a"/>
    <rect x="216" y="5" width="1" height="1" fill="#90725a"/>
    <rect x="215" y="5" width="1" height="1" fill="#90725a"/>
    <rect x="214" y="5" width="1" height="1" fill="#90725a"/>
    <rect x="213" y="5" width="1" height="1" fill="#90725a"/>
    <rect x="208" y="5" width="1" height="1" fill="#90725a"/>
    <rect x="207" y="5" width="1" height="1" fill="#90725a"/>
    <rect x="206" y="5" width="1" height="1" fill="#90725a"/>
    <rect x="177" y="5" width="1" height="1" fill="#90725a"/>
    <rect x="176" y="5" width="1" height="1" fill="#90725a"/>
    <rect x="175" y="5" width="1" height="1" fill="#90725a"/>
    <rect x="174" y="5" width="1" height="1" fill="#90725a"/>
    <rect x="170" y="5" width="1" height="1" fill="#90725a"/>
    <rect x="169" y="5" width="1" height="1" fill="#90725a"/>
    <rect x="168" y="5" width="1" height="1" fill="#90725a"/>
    <rect x="167" y="5" width="1" height="1" fill="#90725a"/>
    <rect x="166" y="5" width="1" height="1" fill="#90725a"/>
    <rect x="165" y="5" width="1" height="1" fill="#90725a"/>
    <rect x="160" y="5" width="1" height="1" fill="#90725a"/>
    <rect x="159" y="5" width="1" height="1" fill="#90725a"/>
    <rect x="158" y="5" width="1" height="1" fill="#90725a"/>
    <rect x="129" y="5" width="1" height="1" fill="#90725a"/>
    <rect x="128" y="5" width="1" height="1" fill="#90725a"/>
    <rect x="127" y="5" width="1" height="1" fill="#90725a"/>
    <rect x="126" y="5" width="1" height="1" fill="#90725a"/>
    <rect x="122" y="5" width="1" height="1" fill="#90725a"/>
    <rect x="121" y="5" width="1" height="1" fill="#90725a"/>
    <rect x="120" y="5" width="1" height="1" fill="#90725a"/>
    <rect x="119" y="5" width="1" height="1" fill="#90725a"/>
    <rect x="118" y="5" width="1" height="1" fill="#90725a"/>
    <rect x="117" y="5" width="1" height="1" fill="#90725a"/>
    <rect x="112" y="5" width="1" height="1" fill="#90725a"/>
    <rect x="111" y="5" width="1" height="1" fill="#90725a"/>
    <rect x="110" y="5" width="1" height="1" fill="#90725a"/>
    <rect x="80" y="5" width="1" height="1" fill="#90725a"/>
    <rect x="79" y="5" width="1" height="1" fill="#90725a"/>
    <rect x="78" y="5" width="1" height="1" fill="#90725a"/>
    <rect x="77" y="5" width="1" height="1" fill="#90725a"/>
    <rect x="76" y="5" width="1" height="1" fill="#90725a"/>
    <rect x="75" y="5" width="1" height="1" fill="#90725a"/>
    <rect x="74" y="5" width="1" height="1" fill="#90725a"/>
    <rect x="73" y="5" width="1" height="1" fill="#90725a"/>
    <rect x="72" y="5" width="1" height="1" fill="#90725a"/>
    <rect x="71" y="5" width="1" height="1" fill="#90725a"/>
    <rect x="70" y="5" width="1" height="1" fill="#90725a"/>
    <rect x="69" y="5" width="1" height="1" fill="#90725a"/>
    <rect x="68" y="5" width="1" height="1" fill="#90725a"/>
    <rect x="67" y="5" width="1" height="1" fill="#90725a"/>
    <rect x="66" y="5" width="1" height="1" fill="#90725a"/>
    <rect x="65" y="5" width="1" height="1" fill="#90725a"/>
    <rect x="64" y="5" width="1" height="1" fill="#90725a"/>
    <rect x="63" y="5" width="1" height="1" fill="#90725a"/>
    <rect x="33" y="5" width="1" height="1" fill="#90725a"/>
    <rect x="32" y="5" width="1" height="1" fill="#90725a"/>
    <rect x="31" y="5" width="1" height="1" fill="#90725a"/>
    <rect x="30" y="5" width="1" height="1" fill="#90725a"/>
    <rect x="26" y="5" width="1" height="1" fill="#90725a"/>
    <rect x="25" y="5" width="1" height="1" fill="#90725a"/>
    <rect x="24" y="5" width="1" height="1" fill="#90725a"/>
    <rect x="23" y="5" width="1" height="1" fill="#90725a"/>
    <rect x="22" y="5" width="1" height="1" fill="#90725a"/>
    <rect x="21" y="5" width="1" height="1" fill="#90725a"/>
    <polygon points="375 38 374 38 373 38 372 38 371 38 371 39 371 40 370 40 370 41 370 42 370 43 370 44 370 45 371 45 371 46 372 46 373 46 374 46 375 46 375 45 376 45 376 44 376 43 376 42 376 41 376 40 376 39 375 39 375 38" fill="#ffe3cd"/>
    <polygon points="347 38 346 38 345 38 345 39 344 39 344 40 344 41 344 42 344 43 344 44 344 45 345 45 345 46 346 46 347 46 348 46 349 46 349 45 350 45 350 44 350 43 350 42 350 41 350 40 349 40 349 39 349 38 348 38 347 38" fill="#ffe3cd"/>
    <polygon points="327 38 326 38 325 38 324 38 323 38 323 39 323 40 322 40 322 41 322 42 322 43 322 44 322 45 323 45 323 46 324 46 325 46 326 46 327 46 327 45 328 45 328 44 328 43 328 42 328 41 328 40 328 39 327 39 327 38" fill="#ffe3cd"/>
    <polygon points="299 38 298 38 297 38 297 39 296 39 296 40 296 41 296 42 296 43 296 44 296 45 297 45 297 46 298 46 299 46 300 46 301 46 301 45 302 45 302 44 302 43 302 42 302 41 302 40 301 40 301 39 301 38 300 38 299 38" fill="#ffe3cd"/>
    <polygon points="279 38 278 38 277 38 276 38 275 38 275 39 275 40 274 40 274 41 274 42 274 43 274 44 274 45 275 45 275 46 276 46 277 46 278 46 279 46 279 45 280 45 280 44 280 43 280 42 280 41 280 40 280 39 279 39 279 38" fill="#ffe3cd"/>
    <polygon points="251 38 250 38 249 38 249 39 248 39 248 40 248 41 248 42 248 43 248 44 248 45 249 45 249 46 250 46 251 46 252 46 253 46 253 45 254 45 254 44 254 43 254 42 254 41 254 40 253 40 253 39 253 38 252 38 251 38" fill="#ffe3cd"/>
    <polygon points="231 38 230 38 229 38 228 38 227 38 227 39 227 40 226 40 226 41 226 42 226 43 226 44 226 45 227 45 227 46 228 46 229 46 230 46 231 46 231 45 232 45 232 44 232 43 232 42 232 41 232 40 232 39 231 39 231 38" fill="#ffe3cd"/>
    <polygon points="203 38 202 38 201 38 201 39 200 39 200 40 200 41 200 42 200 43 200 44 200 45 201 45 201 46 202 46 203 46 204 46 205 46 205 45 206 45 206 44 206 43 206 42 206 41 206 40 205 40 205 39 205 38 204 38 203 38" fill="#ffe3cd"/>
    <polygon points="183 38 182 38 181 38 180 38 179 38 179 39 179 40 178 40 178 41 178 42 178 43 178 44 178 45 179 45 179 46 180 46 181 46 182 46 183 46 183 45 184 45 184 44 184 43 184 42 184 41 184 40 184 39 183 39 183 38" fill="#ffe3cd"/>
    <polygon points="155 38 154 38 153 38 153 39 152 39 152 40 152 41 152 42 152 43 152 44 152 45 153 45 153 46 154 46 155 46 156 46 157 46 157 45 158 45 158 44 158 43 158 42 158 41 158 40 157 40 157 39 157 38 156 38 155 38" fill="#ffe3cd"/>
    <polygon points="135 38 134 38 133 38 132 38 131 38 131 39 131 40 130 40 130 41 130 42 130 43 130 44 130 45 131 45 131 46 132 46 133 46 134 46 135 46 135 45 136 45 136 44 136 43 136 42 136 41 136 40 136 39 135 39 135 38" fill="#ffe3cd"/>
    <polygon points="107 38 106 38 105 38 105 39 104 39 104 40 104 41 104 42 104 43 104 44 104 45 105 45 105 46 106 46 107 46 108 46 109 46 109 45 110 45 110 44 110 43 110 42 110 41 110 40 109 40 109 39 109 38 108 38 107 38" fill="#ffe3cd"/>
    <polygon points="87 38 86 38 85 38 84 38 83 38 83 39 83 40 82 40 82 41 82 42 82 43 82 44 82 45 83 45 83 46 84 46 85 46 86 46 87 46 87 45 88 45 88 44 88 43 88 42 88 41 88 40 88 39 87 39 87 38" fill="#ffe3cd"/>
    <polygon points="59 38 58 38 57 38 57 39 56 39 56 40 56 41 56 42 56 43 56 44 56 45 57 45 57 46 58 46 59 46 60 46 61 46 61 45 62 45 62 44 62 43 62 42 62 41 62 40 61 40 61 39 61 38 60 38 59 38" fill="#ffe3cd"/>
    <polygon points="39 38 38 38 37 38 36 38 35 38 35 39 35 40 34 40 34 41 34 42 34 43 34 44 34 45 35 45 35 46 36 46 37 46 38 46 39 46 39 45 40 45 40 44 40 43 40 42 40 41 40 40 40 39 39 39 39 38" fill="#ffe3cd"/>
    <polygon points="11 38 10 38 9 38 9 39 8 39 8 40 8 41 8 42 8 43 8 44 8 45 9 45 9 46 10 46 11 46 12 46 13 46 13 45 14 45 14 44 14 43 14 42 14 41 14 40 13 40 13 39 13 38 12 38 11 38" fill="#ffe3cd"/>
    <polygon points="370 37 369 37 369 38 368 38 368 39 368 40 368 41 368 42 368 43 369 43 369 42 369 41 369 40 369 39 370 39 370 38 371 38 371 37 370 37" fill="#ffe3cd"/>
    <polygon points="351 37 350 37 349 37 349 38 350 38 350 39 351 39 351 40 351 41 351 42 351 43 352 43 352 42 352 41 352 40 352 39 352 38 351 38 351 37" fill="#ffe3cd"/>
    <polygon points="322 37 321 37 321 38 320 38 320 39 320 40 320 41 320 42 320 43 321 43 321 42 321 41 321 40 321 39 322 39 322 38 323 38 323 37 322 37" fill="#ffe3cd"/>
    <polygon points="303 37 302 37 301 37 301 38 302 38 302 39 303 39 303 40 303 41 303 42 303 43 304 43 304 42 304 41 304 40 304 39 304 38 303 38 303 37" fill="#ffe3cd"/>
    <polygon points="274 37 273 37 273 38 272 38 272 39 272 40 272 41 272 42 272 43 273 43 273 42 273 41 273 40 273 39 274 39 274 38 275 38 275 37 274 37" fill="#ffe3cd"/>
    <polygon points="255 37 254 37 253 37 253 38 254 38 254 39 255 39 255 40 255 41 255 42 255 43 256 43 256 42 256 41 256 40 256 39 256 38 255 38 255 37" fill="#ffe3cd"/>
    <polygon points="226 37 225 37 225 38 224 38 224 39 224 40 224 41 224 42 224 43 225 43 225 42 225 41 225 40 225 39 226 39 226 38 227 38 227 37 226 37" fill="#ffe3cd"/>
    <polygon points="207 37 206 37 205 37 205 38 206 38 206 39 207 39 207 40 207 41 207 42 207 43 208 43 208 42 208 41 208 40 208 39 208 38 207 38 207 37" fill="#ffe3cd"/>
    <polygon points="178 37 177 37 177 38 176 38 176 39 176 40 176 41 176 42 176 43 177 43 177 42 177 41 177 40 177 39 178 39 178 38 179 38 179 37 178 37" fill="#ffe3cd"/>
    <polygon points="159 37 158 37 157 37 157 38 158 38 158 39 159 39 159 40 159 41 159 42 159 43 160 43 160 42 160 41 160 40 160 39 160 38 159 38 159 37" fill="#ffe3cd"/>
    <polygon points="130 37 129 37 129 38 128 38 128 39 128 40 128 41 128 42 128 43 129 43 129 42 129 41 129 40 129 39 130 39 130 38 131 38 131 37 130 37" fill="#ffe3cd"/>
    <polygon points="111 37 110 37 109 37 109 38 110 38 110 39 111 39 111 40 111 41 111 42 111 43 112 43 112 42 112 41 112 40 112 39 112 38 111 38 111 37" fill="#ffe3cd"/>
    <polygon points="82 37 81 37 81 38 80 38 80 39 80 40 80 41 80 42 80 43 81 43 81 42 81 41 81 40 81 39 82 39 82 38 83 38 83 37 82 37" fill="#ffe3cd"/>
    <polygon points="63 37 62 37 61 37 61 38 62 38 62 39 63 39 63 40 63 41 63 42 63 43 64 43 64 42 64 41 64 40 64 39 64 38 63 38 63 37" fill="#ffe3cd"/>
    <polygon points="34 37 33 37 33 38 32 38 32 39 32 40 32 41 32 42 32 43 33 43 33 42 33 41 33 40 33 39 34 39 34 38 35 38 35 37 34 37" fill="#ffe3cd"/>
    <polygon points="15 37 14 37 13 37 13 38 14 38 14 39 15 39 15 40 15 41 15 42 15 43 16 43 16 42 16 41 16 40 16 39 16 38 15 38 15 37" fill="#ffe3cd"/>
    <polygon points="61 31 61 30 60 30 60 29 60 28 61 28 61 27 60 27 59 27 59 26 58 26 57 26 56 26 55 26 55 27 55 28 54 28 54 29 54 30 54 31 55 31 55 32 55 33 56 33 57 33 57 34 58 34 59 34 60 34 61 34 62 34 63 34 63 33 63 32 63 31 62 31 61 31" fill="#ffe3cd"/>
    <path d="M82,30h1v-2h-4v-1h3v-1h3v-1h1v-1h1v-1h1v-3h-1v-2h-2v-1h1v-5h-2v-2h-1v-1h-1v-1h-1v-1h-3v-1h-3v1h-1v1h-1v1h-1v1h-2v-1h1v-1h-1v-1h-1v-1h-4v1h-2v1h-1v1h-1v1h-1v2h-2v5h1v1h-1v3h-1v3h1v1h1v1h3v1h3v1h-4v2h2v1h1v2h6v1h3v-1h7v-2h1v-1h1ZM72,32h-1v-3h-2v-1h-1v-1h-1v-1h1v1h1v1h5v-1h1v-1h1v1h-1v1h-1v1h-2v3ZM83,19v2h-1v1h-1v-1h-1v1h-1v-1h1v-1h-1v-1h1v-1h2v1h1ZM64,14v-1h1v-1h3v3h-4v-1ZM76,12h4v3h-4v-3ZM74,17v1h-3v-2h3v1ZM72,24h-1v-1h-1v-1h4v1h-1v1h-1ZM62,19v-1h2v1h1v2h-1v1h-1v-1h-1v1h-1v-1h1v-1h-1v-1h1Z" fill="#ffe3cd"/>
    <path d="M379,28v-2h-2v-1h-1v-1h-2v-1h-3v1h-1v1h-1v1h-2v1h-4v1h-7v-1h-3v-1h-2v-1h-1v-1h-1v-1h-3v1h-2v1h-1v1h-2v2h-1v3h1v2h2v1h6v-3h-2v-1h-1v-2h1v2h2v1h1v3h1v-1h7v1h3v-1h8v1h1v-3h1v-1h2v-2h1v2h-1v1h-2v3h6v-1h2v-2h1v-3h-1ZM360,29v3h-1v-3h1Z" fill="#ffe3cd"/>
    <path d="M331,27v-1h-2v-1h-1v-1h-2v-1h-3v1h-1v1h-1v1h-2v1h-4v1h-7v-1h-3v-1h-2v-1h-1v-1h-1v-1h-3v1h-2v1h-1v1h-2v2h-1v3h1v2h2v1h6v-3h-2v-1h-1v-2h1v2h2v1h1v3h1v-1h7v1h3v-1h8v1h1v-3h1v-1h2v-2h1v2h-1v1h-2v3h6v-1h2v-2h1v-3h-1v-1ZM312,29v3h-1v-3h1Z" fill="#ffe3cd"/>
    <path d="M283,27v-1h-2v-1h-1v-1h-2v-1h-3v1h-1v1h-1v1h-2v1h-4v1h-7v-1h-3v-1h-2v-1h-1v-1h-1v-1h-3v1h-2v1h-1v1h-2v2h-1v3h1v2h2v1h6v-3h-2v-1h-1v-2h1v2h2v1h1v3h1v-1h7v1h3v-1h8v1h1v-3h1v-1h2v-2h1v2h-1v1h-2v3h6v-1h2v-2h1v-3h-1v-1ZM264,29v3h-1v-3h1Z" fill="#ffe3cd"/>
    <path d="M235,27v-1h-2v-1h-1v-1h-2v-1h-3v1h-1v1h-1v1h-2v1h-4v1h-7v-1h-3v-1h-2v-1h-1v-1h-1v-1h-3v1h-2v1h-1v1h-2v2h-1v3h1v2h2v1h6v-3h-2v-1h-1v-2h1v2h2v1h1v3h1v-1h7v1h3v-1h8v1h1v-3h1v-1h2v-2h1v2h-1v1h-2v3h6v-1h2v-2h1v-3h-1v-1ZM216,29v3h-1v-3h1Z" fill="#ffe3cd"/>
    <path d="M187,27v-1h-2v-1h-1v-1h-2v-1h-3v1h-1v1h-1v1h-2v1h-4v1h-7v-1h-3v-1h-2v-1h-1v-1h-1v-1h-3v1h-2v1h-1v1h-2v2h-1v3h1v2h2v1h6v-3h-2v-1h-1v-2h1v2h2v1h1v3h1v-1h7v1h3v-1h8v1h1v-3h1v-1h2v-2h1v2h-1v1h-2v3h6v-1h2v-2h1v-3h-1v-1ZM168,29v3h-1v-3h1Z" fill="#ffe3cd"/>
    <path d="M139,27v-1h-2v-1h-1v-1h-2v-1h-3v1h-1v1h-1v1h-2v1h-4v1h-7v-1h-3v-1h-2v-1h-1v-1h-1v-1h-3v1h-2v1h-1v1h-2v2h-1v3h1v2h2v1h6v-3h-2v-1h-1v-2h1v2h2v1h1v3h1v-1h7v1h3v-1h8v1h1v-3h1v-1h2v-2h1v2h-1v1h-2v3h6v-1h2v-2h1v-3h-1v-1ZM120,29v3h-1v-3h1Z" fill="#ffe3cd"/>
    <polygon points="89 27 89 26 88 26 87 26 86 26 85 26 85 27 84 27 83 27 83 28 84 28 84 29 84 30 83 30 83 31 82 31 81 31 81 32 81 33 81 34 82 34 83 34 84 34 85 34 86 34 87 34 87 33 88 33 89 33 89 32 89 31 90 31 90 30 90 29 90 28 89 28 89 27" fill="#ffe3cd"/>
    <path d="M43,27v-1h-2v-1h-1v-1h-2v-1h-3v1h-1v1h-1v1h-2v1h-4v1h-7v-1h-3v-1h-2v-1h-1v-1h-1v-1h-3v1h-2v1h-1v1h-2v2h-1v3h1v2h2v1h6v-3h-2v-1h-1v-2h1v2h2v1h1v3h1v-1h7v1h3v-1h8v1h1v-3h1v-1h2v-2h1v2h-1v1h-2v3h6v-1h2v-2h1v-3h-1v-1ZM24,29v3h-1v-3h1Z" fill="#ffe3cd"/>
    <path d="M350,24h1v1h2v1h3v1h7v-1h4v-1h2v-1h1v-1h1v-1h1v-3h2v-6h-2v-3h-1v-2h-1v-1h-1v-1h-3v-1h-3v1h-1v1h-1v1h-1v1h-2v-1h1v-1h-1v-1h-1v-1h-4v1h-2v1h-1v1h-1v2h-1v3h-2v6h2v3h1v1h1v1ZM370,19v1h-2v-1h-1v-1h3v1ZM352,15v-2h1v-1h3v4h-4v-1ZM368,13v3h-4v-3h1v-1h3v1ZM361,19h-2v-2h3v2h-1ZM361,24h-4v-1h-1v-2h-1v-1h1v1h7v-1h1v1h-1v2h-1v1h-1ZM350,18h3v2h-2v-1h-1v-1Z" fill="#ffe3cd"/>
    <path d="M302,24h1v1h2v1h3v1h7v-1h4v-1h2v-1h1v-1h1v-1h1v-3h2v-6h-2v-3h-1v-2h-1v-1h-1v-1h-3v-1h-3v1h-1v1h-1v1h-1v1h-2v-1h1v-1h-1v-1h-1v-1h-4v1h-2v1h-1v1h-1v2h-1v3h-2v6h2v3h1v1h1v1ZM322,19v1h-2v-1h-1v-1h3v1ZM304,15v-2h1v-1h3v4h-4v-1ZM320,13v3h-4v-3h1v-1h3v1ZM313,19h-2v-2h3v2h-1ZM313,24h-4v-1h-1v-2h-1v-1h1v1h7v-1h1v1h-1v2h-1v1h-1ZM302,18h3v2h-2v-1h-1v-1Z" fill="#ffe3cd"/>
    <path d="M254,24h1v1h2v1h3v1h7v-1h4v-1h2v-1h1v-1h1v-1h1v-3h2v-6h-2v-3h-1v-2h-1v-1h-1v-1h-3v-1h-3v1h-1v1h-1v1h-1v1h-2v-1h1v-1h-1v-1h-1v-1h-4v1h-2v1h-1v1h-1v2h-1v3h-2v6h2v3h1v1h1v1ZM274,19v1h-2v-1h-1v-1h3v1ZM256,15v-2h1v-1h3v4h-4v-1ZM272,13v3h-4v-3h1v-1h3v1ZM265,19h-2v-2h3v2h-1ZM265,24h-4v-1h-1v-2h-1v-1h1v1h7v-1h1v1h-1v2h-1v1h-1ZM254,18h3v2h-2v-1h-1v-1Z" fill="#ffe3cd"/>
    <path d="M206,24h1v1h2v1h3v1h7v-1h4v-1h2v-1h1v-1h1v-1h1v-3h2v-6h-2v-3h-1v-2h-1v-1h-1v-1h-3v-1h-3v1h-1v1h-1v1h-1v1h-2v-1h1v-1h-1v-1h-1v-1h-4v1h-2v1h-1v1h-1v2h-1v3h-2v6h2v3h1v1h1v1ZM226,19v1h-2v-1h-1v-1h3v1ZM208,15v-2h1v-1h3v4h-4v-1ZM224,13v3h-4v-3h1v-1h3v1ZM217,19h-2v-2h3v2h-1ZM217,24h-4v-1h-1v-2h-1v-1h1v1h7v-1h1v1h-1v2h-1v1h-1ZM206,18h3v2h-2v-1h-1v-1Z" fill="#ffe3cd"/>
    <path d="M158,24h1v1h2v1h3v1h7v-1h4v-1h2v-1h1v-1h1v-1h1v-3h2v-6h-2v-3h-1v-2h-1v-1h-1v-1h-3v-1h-3v1h-1v1h-1v1h-1v1h-2v-1h1v-1h-1v-1h-1v-1h-4v1h-2v1h-1v1h-1v2h-1v3h-2v6h2v3h1v1h1v1ZM178,19v1h-2v-1h-1v-1h3v1ZM160,15v-2h1v-1h3v4h-4v-1ZM176,13v3h-4v-3h1v-1h3v1ZM169,19h-2v-2h3v2h-1ZM169,24h-4v-1h-1v-2h-1v-1h1v1h7v-1h1v1h-1v2h-1v1h-1ZM158,18h3v2h-2v-1h-1v-1Z" fill="#ffe3cd"/>
    <path d="M110,24h1v1h2v1h3v1h7v-1h4v-1h2v-1h1v-1h1v-1h1v-3h2v-6h-2v-3h-1v-2h-1v-1h-1v-1h-3v-1h-3v1h-1v1h-1v1h-1v1h-2v-1h1v-1h-1v-1h-1v-1h-4v1h-2v1h-1v1h-1v2h-1v3h-2v6h2v3h1v1h1v1ZM130,19v1h-2v-1h-1v-1h3v1ZM112,15v-2h1v-1h3v4h-4v-1ZM128,13v3h-4v-3h1v-1h3v1ZM121,19h-2v-2h3v2h-1ZM121,24h-4v-1h-1v-2h-1v-1h1v1h7v-1h1v1h-1v2h-1v1h-1ZM110,18h3v2h-2v-1h-1v-1Z" fill="#ffe3cd"/>
    <path d="M14,24h1v1h2v1h3v1h7v-1h4v-1h2v-1h1v-1h1v-1h1v-3h2v-6h-2v-3h-1v-2h-1v-1h-1v-1h-3v-1h-3v1h-1v1h-1v1h-1v1h-2v-1h1v-1h-1v-1h-1v-1h-4v1h-2v1h-1v1h-1v2h-1v3h-2v6h2v3h1v1h1v1ZM34,19v1h-2v-1h-1v-1h3v1ZM16,15v-2h1v-1h3v4h-4v-1ZM32,13v3h-4v-3h1v-1h3v1ZM25,19h-2v-2h3v2h-1ZM25,24h-4v-1h-1v-2h-1v-1h1v1h7v-1h1v1h-1v2h-1v1h-1ZM14,18h3v2h-2v-1h-1v-1Z" fill="#ffe3cd"/>
    <rect x="16" y="5" width="1" height="1" fill="#90725a"/>
    <rect x="15" y="5" width="1" height="1" fill="#90725a"/>
    <rect x="14" y="5" width="1" height="1" fill="#90725a"/>
    <rect x="368" y="4" width="1" height="1" fill="#90725a"/>
    <rect x="367" y="4" width="1" height="1" fill="#90725a"/>
    <rect x="366" y="4" width="1" height="1" fill="#90725a"/>
    <rect x="365" y="4" width="1" height="1" fill="#90725a"/>
    <rect x="364" y="4" width="1" height="1" fill="#90725a"/>
    <rect x="363" y="4" width="1" height="1" fill="#90725a"/>
    <rect x="362" y="4" width="1" height="1" fill="#90725a"/>
    <rect x="361" y="4" width="1" height="1" fill="#90725a"/>
    <rect x="360" y="4" width="1" height="1" fill="#90725a"/>
    <rect x="359" y="4" width="1" height="1" fill="#90725a"/>
    <rect x="358" y="4" width="1" height="1" fill="#90725a"/>
    <rect x="357" y="4" width="1" height="1" fill="#90725a"/>
    <rect x="356" y="4" width="1" height="1" fill="#90725a"/>
    <rect x="355" y="4" width="1" height="1" fill="#90725a"/>
    <rect x="354" y="4" width="1" height="1" fill="#90725a"/>
    <rect x="353" y="4" width="1" height="1" fill="#90725a"/>
    <rect x="352" y="4" width="1" height="1" fill="#90725a"/>
    <rect x="351" y="4" width="1" height="1" fill="#90725a"/>
    <rect x="320" y="4" width="1" height="1" fill="#90725a"/>
    <rect x="319" y="4" width="1" height="1" fill="#90725a"/>
    <rect x="318" y="4" width="1" height="1" fill="#90725a"/>
    <rect x="317" y="4" width="1" height="1" fill="#90725a"/>
    <rect x="316" y="4" width="1" height="1" fill="#90725a"/>
    <rect x="315" y="4" width="1" height="1" fill="#90725a"/>
    <rect x="314" y="4" width="1" height="1" fill="#90725a"/>
    <rect x="313" y="4" width="1" height="1" fill="#90725a"/>
    <rect x="312" y="4" width="1" height="1" fill="#90725a"/>
    <rect x="311" y="4" width="1" height="1" fill="#90725a"/>
    <rect x="310" y="4" width="1" height="1" fill="#90725a"/>
    <rect x="309" y="4" width="1" height="1" fill="#90725a"/>
    <rect x="308" y="4" width="1" height="1" fill="#90725a"/>
    <rect x="307" y="4" width="1" height="1" fill="#90725a"/>
    <rect x="306" y="4" width="1" height="1" fill="#90725a"/>
    <rect x="305" y="4" width="1" height="1" fill="#90725a"/>
    <rect x="304" y="4" width="1" height="1" fill="#90725a"/>
    <rect x="303" y="4" width="1" height="1" fill="#90725a"/>
    <rect x="272" y="4" width="1" height="1" fill="#90725a"/>
    <rect x="271" y="4" width="1" height="1" fill="#90725a"/>
    <rect x="270" y="4" width="1" height="1" fill="#90725a"/>
    <rect x="269" y="4" width="1" height="1" fill="#90725a"/>
    <rect x="268" y="4" width="1" height="1" fill="#90725a"/>
    <rect x="267" y="4" width="1" height="1" fill="#90725a"/>
    <rect x="266" y="4" width="1" height="1" fill="#90725a"/>
    <rect x="265" y="4" width="1" height="1" fill="#90725a"/>
    <rect x="264" y="4" width="1" height="1" fill="#90725a"/>
    <rect x="263" y="4" width="1" height="1" fill="#90725a"/>
    <rect x="262" y="4" width="1" height="1" fill="#90725a"/>
    <rect x="261" y="4" width="1" height="1" fill="#90725a"/>
    <rect x="260" y="4" width="1" height="1" fill="#90725a"/>
    <rect x="259" y="4" width="1" height="1" fill="#90725a"/>
    <rect x="258" y="4" width="1" height="1" fill="#90725a"/>
    <rect x="257" y="4" width="1" height="1" fill="#90725a"/>
    <rect x="256" y="4" width="1" height="1" fill="#90725a"/>
    <rect x="255" y="4" width="1" height="1" fill="#90725a"/>
    <rect x="224" y="4" width="1" height="1" fill="#90725a"/>
    <rect x="223" y="4" width="1" height="1" fill="#90725a"/>
    <rect x="222" y="4" width="1" height="1" fill="#90725a"/>
    <rect x="221" y="4" width="1" height="1" fill="#90725a"/>
    <rect x="220" y="4" width="1" height="1" fill="#90725a"/>
    <rect x="219" y="4" width="1" height="1" fill="#90725a"/>
    <rect x="218" y="4" width="1" height="1" fill="#90725a"/>
    <rect x="217" y="4" width="1" height="1" fill="#90725a"/>
    <rect x="216" y="4" width="1" height="1" fill="#90725a"/>
    <rect x="215" y="4" width="1" height="1" fill="#90725a"/>
    <rect x="214" y="4" width="1" height="1" fill="#90725a"/>
    <rect x="213" y="4" width="1" height="1" fill="#90725a"/>
    <rect x="212" y="4" width="1" height="1" fill="#90725a"/>
    <rect x="211" y="4" width="1" height="1" fill="#90725a"/>
    <rect x="210" y="4" width="1" height="1" fill="#90725a"/>
    <rect x="209" y="4" width="1" height="1" fill="#90725a"/>
    <rect x="208" y="4" width="1" height="1" fill="#90725a"/>
    <rect x="207" y="4" width="1" height="1" fill="#90725a"/>
    <rect x="176" y="4" width="1" height="1" fill="#90725a"/>
    <rect x="175" y="4" width="1" height="1" fill="#90725a"/>
    <rect x="174" y="4" width="1" height="1" fill="#90725a"/>
    <rect x="173" y="4" width="1" height="1" fill="#90725a"/>
    <rect x="172" y="4" width="1" height="1" fill="#90725a"/>
    <rect x="171" y="4" width="1" height="1" fill="#90725a"/>
    <rect x="170" y="4" width="1" height="1" fill="#90725a"/>
    <rect x="169" y="4" width="1" height="1" fill="#90725a"/>
    <rect x="168" y="4" width="1" height="1" fill="#90725a"/>
    <rect x="167" y="4" width="1" height="1" fill="#90725a"/>
    <rect x="166" y="4" width="1" height="1" fill="#90725a"/>
    <rect x="165" y="4" width="1" height="1" fill="#90725a"/>
    <rect x="164" y="4" width="1" height="1" fill="#90725a"/>
    <rect x="163" y="4" width="1" height="1" fill="#90725a"/>
    <rect x="162" y="4" width="1" height="1" fill="#90725a"/>
    <rect x="161" y="4" width="1" height="1" fill="#90725a"/>
    <rect x="160" y="4" width="1" height="1" fill="#90725a"/>
    <rect x="159" y="4" width="1" height="1" fill="#90725a"/>
    <rect x="128" y="4" width="1" height="1" fill="#90725a"/>
    <rect x="127" y="4" width="1" height="1" fill="#90725a"/>
    <rect x="126" y="4" width="1" height="1" fill="#90725a"/>
    <rect x="125" y="4" width="1" height="1" fill="#90725a"/>
    <rect x="124" y="4" width="1" height="1" fill="#90725a"/>
    <rect x="123" y="4" width="1" height="1" fill="#90725a"/>
    <rect x="122" y="4" width="1" height="1" fill="#90725a"/>
    <rect x="121" y="4" width="1" height="1" fill="#90725a"/>
    <rect x="120" y="4" width="1" height="1" fill="#90725a"/>
    <rect x="119" y="4" width="1" height="1" fill="#90725a"/>
    <rect x="118" y="4" width="1" height="1" fill="#90725a"/>
    <rect x="117" y="4" width="1" height="1" fill="#90725a"/>
    <rect x="116" y="4" width="1" height="1" fill="#90725a"/>
    <rect x="115" y="4" width="1" height="1" fill="#90725a"/>
    <rect x="114" y="4" width="1" height="1" fill="#90725a"/>
    <rect x="113" y="4" width="1" height="1" fill="#90725a"/>
    <rect x="112" y="4" width="1" height="1" fill="#90725a"/>
    <rect x="111" y="4" width="1" height="1" fill="#90725a"/>
    <rect x="79" y="4" width="1" height="1" fill="#90725a"/>
    <rect x="78" y="4" width="1" height="1" fill="#90725a"/>
    <rect x="77" y="4" width="1" height="1" fill="#90725a"/>
    <rect x="76" y="4" width="1" height="1" fill="#90725a"/>
    <rect x="75" y="4" width="1" height="1" fill="#90725a"/>
    <rect x="74" y="4" width="1" height="1" fill="#90725a"/>
    <rect x="73" y="4" width="1" height="1" fill="#90725a"/>
    <rect x="72" y="4" width="1" height="1" fill="#90725a"/>
    <rect x="71" y="4" width="1" height="1" fill="#90725a"/>
    <rect x="70" y="4" width="1" height="1" fill="#90725a"/>
    <rect x="69" y="4" width="1" height="1" fill="#90725a"/>
    <rect x="68" y="4" width="1" height="1" fill="#90725a"/>
    <rect x="67" y="4" width="1" height="1" fill="#90725a"/>
    <rect x="66" y="4" width="1" height="1" fill="#90725a"/>
    <rect x="65" y="4" width="1" height="1" fill="#90725a"/>
    <rect x="64" y="4" width="1" height="1" fill="#90725a"/>
    <rect x="32" y="4" width="1" height="1" fill="#90725a"/>
    <rect x="31" y="4" width="1" height="1" fill="#90725a"/>
    <rect x="30" y="4" width="1" height="1" fill="#90725a"/>
    <rect x="29" y="4" width="1" height="1" fill="#90725a"/>
    <rect x="28" y="4" width="1" height="1" fill="#90725a"/>
    <rect x="27" y="4" width="1" height="1" fill="#90725a"/>
    <rect x="26" y="4" width="1" height="1" fill="#90725a"/>
    <rect x="25" y="4" width="1" height="1" fill="#90725a"/>
    <rect x="24" y="4" width="1" height="1" fill="#90725a"/>
    <rect x="23" y="4" width="1" height="1" fill="#90725a"/>
    <rect x="22" y="4" width="1" height="1" fill="#90725a"/>
    <rect x="21" y="4" width="1" height="1" fill="#90725a"/>
    <rect x="20" y="4" width="1" height="1" fill="#90725a"/>
    <rect x="19" y="4" width="1" height="1" fill="#90725a"/>
    <rect x="18" y="4" width="1" height="1" fill="#90725a"/>
    <rect x="17" y="4" width="1" height="1" fill="#90725a"/>
    <rect x="16" y="4" width="1" height="1" fill="#90725a"/>
    <rect x="15" y="4" width="1" height="1" fill="#90725a"/>
    <rect x="367" y="3" width="1" height="1" fill="#90725a"/>
    <rect x="366" y="3" width="1" height="1" fill="#90725a"/>
    <rect x="365" y="3" width="1" height="1" fill="#90725a"/>
    <rect x="364" y="3" width="1" height="1" fill="#90725a"/>
    <rect x="363" y="3" width="1" height="1" fill="#90725a"/>
    <rect x="362" y="3" width="1" height="1" fill="#90725a"/>
    <rect x="361" y="3" width="1" height="1" fill="#90725a"/>
    <rect x="360" y="3" width="1" height="1" fill="#90725a"/>
    <rect x="359" y="3" width="1" height="1" fill="#90725a"/>
    <rect x="358" y="3" width="1" height="1" fill="#90725a"/>
    <rect x="357" y="3" width="1" height="1" fill="#90725a"/>
    <rect x="356" y="3" width="1" height="1" fill="#90725a"/>
    <rect x="355" y="3" width="1" height="1" fill="#90725a"/>
    <rect x="354" y="3" width="1" height="1" fill="#90725a"/>
    <rect x="353" y="3" width="1" height="1" fill="#90725a"/>
    <rect x="352" y="3" width="1" height="1" fill="#90725a"/>
    <rect x="319" y="3" width="1" height="1" fill="#90725a"/>
    <rect x="318" y="3" width="1" height="1" fill="#90725a"/>
    <rect x="317" y="3" width="1" height="1" fill="#90725a"/>
    <rect x="316" y="3" width="1" height="1" fill="#90725a"/>
    <rect x="315" y="3" width="1" height="1" fill="#90725a"/>
    <rect x="314" y="3" width="1" height="1" fill="#90725a"/>
    <rect x="313" y="3" width="1" height="1" fill="#90725a"/>
    <rect x="312" y="3" width="1" height="1" fill="#90725a"/>
    <rect x="311" y="3" width="1" height="1" fill="#90725a"/>
    <rect x="310" y="3" width="1" height="1" fill="#90725a"/>
    <rect x="309" y="3" width="1" height="1" fill="#90725a"/>
    <rect x="308" y="3" width="1" height="1" fill="#90725a"/>
    <rect x="307" y="3" width="1" height="1" fill="#90725a"/>
    <rect x="306" y="3" width="1" height="1" fill="#90725a"/>
    <rect x="305" y="3" width="1" height="1" fill="#90725a"/>
    <rect x="304" y="3" width="1" height="1" fill="#90725a"/>
    <rect x="271" y="3" width="1" height="1" fill="#90725a"/>
    <rect x="270" y="3" width="1" height="1" fill="#90725a"/>
    <rect x="269" y="3" width="1" height="1" fill="#90725a"/>
    <rect x="268" y="3" width="1" height="1" fill="#90725a"/>
    <rect x="267" y="3" width="1" height="1" fill="#90725a"/>
    <rect x="266" y="3" width="1" height="1" fill="#90725a"/>
    <rect x="265" y="3" width="1" height="1" fill="#90725a"/>
    <rect x="264" y="3" width="1" height="1" fill="#90725a"/>
    <rect x="263" y="3" width="1" height="1" fill="#90725a"/>
    <rect x="262" y="3" width="1" height="1" fill="#90725a"/>
    <rect x="261" y="3" width="1" height="1" fill="#90725a"/>
    <rect x="260" y="3" width="1" height="1" fill="#90725a"/>
    <rect x="259" y="3" width="1" height="1" fill="#90725a"/>
    <rect x="258" y="3" width="1" height="1" fill="#90725a"/>
    <rect x="257" y="3" width="1" height="1" fill="#90725a"/>
    <rect x="256" y="3" width="1" height="1" fill="#90725a"/>
    <rect x="223" y="3" width="1" height="1" fill="#90725a"/>
    <rect x="222" y="3" width="1" height="1" fill="#90725a"/>
    <rect x="221" y="3" width="1" height="1" fill="#90725a"/>
    <rect x="220" y="3" width="1" height="1" fill="#90725a"/>
    <rect x="219" y="3" width="1" height="1" fill="#90725a"/>
    <rect x="218" y="3" width="1" height="1" fill="#90725a"/>
    <rect x="217" y="3" width="1" height="1" fill="#90725a"/>
    <rect x="216" y="3" width="1" height="1" fill="#90725a"/>
    <rect x="215" y="3" width="1" height="1" fill="#90725a"/>
    <rect x="214" y="3" width="1" height="1" fill="#90725a"/>
    <rect x="213" y="3" width="1" height="1" fill="#90725a"/>
    <rect x="212" y="3" width="1" height="1" fill="#90725a"/>
    <rect x="211" y="3" width="1" height="1" fill="#90725a"/>
    <rect x="210" y="3" width="1" height="1" fill="#90725a"/>
    <rect x="209" y="3" width="1" height="1" fill="#90725a"/>
    <rect x="208" y="3" width="1" height="1" fill="#90725a"/>
    <rect x="175" y="3" width="1" height="1" fill="#90725a"/>
    <rect x="174" y="3" width="1" height="1" fill="#90725a"/>
    <rect x="173" y="3" width="1" height="1" fill="#90725a"/>
    <rect x="172" y="3" width="1" height="1" fill="#90725a"/>
    <rect x="171" y="3" width="1" height="1" fill="#90725a"/>
    <rect x="170" y="3" width="1" height="1" fill="#90725a"/>
    <rect x="169" y="3" width="1" height="1" fill="#90725a"/>
    <rect x="168" y="3" width="1" height="1" fill="#90725a"/>
    <rect x="167" y="3" width="1" height="1" fill="#90725a"/>
    <rect x="166" y="3" width="1" height="1" fill="#90725a"/>
    <rect x="165" y="3" width="1" height="1" fill="#90725a"/>
    <rect x="164" y="3" width="1" height="1" fill="#90725a"/>
    <rect x="163" y="3" width="1" height="1" fill="#90725a"/>
    <rect x="162" y="3" width="1" height="1" fill="#90725a"/>
    <rect x="161" y="3" width="1" height="1" fill="#90725a"/>
    <rect x="160" y="3" width="1" height="1" fill="#90725a"/>
    <rect x="127" y="3" width="1" height="1" fill="#90725a"/>
    <rect x="126" y="3" width="1" height="1" fill="#90725a"/>
    <rect x="125" y="3" width="1" height="1" fill="#90725a"/>
    <rect x="124" y="3" width="1" height="1" fill="#90725a"/>
    <rect x="123" y="3" width="1" height="1" fill="#90725a"/>
    <rect x="122" y="3" width="1" height="1" fill="#90725a"/>
    <rect x="121" y="3" width="1" height="1" fill="#90725a"/>
    <rect x="120" y="3" width="1" height="1" fill="#90725a"/>
    <rect x="119" y="3" width="1" height="1" fill="#90725a"/>
    <rect x="118" y="3" width="1" height="1" fill="#90725a"/>
    <rect x="117" y="3" width="1" height="1" fill="#90725a"/>
    <rect x="116" y="3" width="1" height="1" fill="#90725a"/>
    <rect x="115" y="3" width="1" height="1" fill="#90725a"/>
    <rect x="114" y="3" width="1" height="1" fill="#90725a"/>
    <rect x="113" y="3" width="1" height="1" fill="#90725a"/>
    <rect x="112" y="3" width="1" height="1" fill="#90725a"/>
    <rect x="77" y="3" width="1" height="1" fill="#90725a"/>
    <rect x="76" y="3" width="1" height="1" fill="#90725a"/>
    <rect x="75" y="3" width="1" height="1" fill="#90725a"/>
    <rect x="74" y="3" width="1" height="1" fill="#90725a"/>
    <rect x="73" y="3" width="1" height="1" fill="#90725a"/>
    <rect x="72" y="3" width="1" height="1" fill="#90725a"/>
    <rect x="71" y="3" width="1" height="1" fill="#90725a"/>
    <rect x="70" y="3" width="1" height="1" fill="#90725a"/>
    <rect x="69" y="3" width="1" height="1" fill="#90725a"/>
    <rect x="68" y="3" width="1" height="1" fill="#90725a"/>
    <rect x="67" y="3" width="1" height="1" fill="#90725a"/>
    <rect x="66" y="3" width="1" height="1" fill="#90725a"/>
    <rect x="31" y="3" width="1" height="1" fill="#90725a"/>
    <rect x="30" y="3" width="1" height="1" fill="#90725a"/>
    <rect x="29" y="3" width="1" height="1" fill="#90725a"/>
    <rect x="28" y="3" width="1" height="1" fill="#90725a"/>
    <rect x="27" y="3" width="1" height="1" fill="#90725a"/>
    <rect x="26" y="3" width="1" height="1" fill="#90725a"/>
    <rect x="25" y="3" width="1" height="1" fill="#90725a"/>
    <rect x="24" y="3" width="1" height="1" fill="#90725a"/>
    <rect x="23" y="3" width="1" height="1" fill="#90725a"/>
    <rect x="22" y="3" width="1" height="1" fill="#90725a"/>
    <rect x="21" y="3" width="1" height="1" fill="#90725a"/>
    <rect x="20" y="3" width="1" height="1" fill="#90725a"/>
    <rect x="19" y="3" width="1" height="1" fill="#90725a"/>
    <rect x="18" y="3" width="1" height="1" fill="#90725a"/>
    <rect x="17" y="3" width="1" height="1" fill="#90725a"/>
    <rect x="16" y="3" width="1" height="1" fill="#90725a"/>
    <rect x="365" y="2" width="1" height="1" fill="#90725a"/>
    <rect x="364" y="2" width="1" height="1" fill="#90725a"/>
    <rect x="363" y="2" width="1" height="1" fill="#90725a"/>
    <rect x="362" y="2" width="1" height="1" fill="#90725a"/>
    <rect x="361" y="2" width="1" height="1" fill="#90725a"/>
    <rect x="360" y="2" width="1" height="1" fill="#90725a"/>
    <rect x="359" y="2" width="1" height="1" fill="#90725a"/>
    <rect x="358" y="2" width="1" height="1" fill="#90725a"/>
    <rect x="357" y="2" width="1" height="1" fill="#90725a"/>
    <rect x="356" y="2" width="1" height="1" fill="#90725a"/>
    <rect x="355" y="2" width="1" height="1" fill="#90725a"/>
    <rect x="354" y="2" width="1" height="1" fill="#90725a"/>
    <rect x="317" y="2" width="1" height="1" fill="#90725a"/>
    <rect x="316" y="2" width="1" height="1" fill="#90725a"/>
    <rect x="315" y="2" width="1" height="1" fill="#90725a"/>
    <rect x="314" y="2" width="1" height="1" fill="#90725a"/>
    <rect x="313" y="2" width="1" height="1" fill="#90725a"/>
    <rect x="312" y="2" width="1" height="1" fill="#90725a"/>
    <rect x="311" y="2" width="1" height="1" fill="#90725a"/>
    <rect x="310" y="2" width="1" height="1" fill="#90725a"/>
    <rect x="309" y="2" width="1" height="1" fill="#90725a"/>
    <rect x="308" y="2" width="1" height="1" fill="#90725a"/>
    <rect x="307" y="2" width="1" height="1" fill="#90725a"/>
    <rect x="306" y="2" width="1" height="1" fill="#90725a"/>
    <rect x="269" y="2" width="1" height="1" fill="#90725a"/>
    <rect x="268" y="2" width="1" height="1" fill="#90725a"/>
    <rect x="267" y="2" width="1" height="1" fill="#90725a"/>
    <rect x="266" y="2" width="1" height="1" fill="#90725a"/>
    <rect x="265" y="2" width="1" height="1" fill="#90725a"/>
    <rect x="264" y="2" width="1" height="1" fill="#90725a"/>
    <rect x="263" y="2" width="1" height="1" fill="#90725a"/>
    <rect x="262" y="2" width="1" height="1" fill="#90725a"/>
    <rect x="261" y="2" width="1" height="1" fill="#90725a"/>
    <rect x="260" y="2" width="1" height="1" fill="#90725a"/>
    <rect x="259" y="2" width="1" height="1" fill="#90725a"/>
    <rect x="258" y="2" width="1" height="1" fill="#90725a"/>
    <rect x="221" y="2" width="1" height="1" fill="#90725a"/>
    <rect x="220" y="2" width="1" height="1" fill="#90725a"/>
    <rect x="219" y="2" width="1" height="1" fill="#90725a"/>
    <rect x="218" y="2" width="1" height="1" fill="#90725a"/>
    <rect x="217" y="2" width="1" height="1" fill="#90725a"/>
    <rect x="216" y="2" width="1" height="1" fill="#90725a"/>
    <rect x="215" y="2" width="1" height="1" fill="#90725a"/>
    <rect x="214" y="2" width="1" height="1" fill="#90725a"/>
    <rect x="213" y="2" width="1" height="1" fill="#90725a"/>
    <rect x="212" y="2" width="1" height="1" fill="#90725a"/>
    <rect x="211" y="2" width="1" height="1" fill="#90725a"/>
    <rect x="210" y="2" width="1" height="1" fill="#90725a"/>
    <rect x="173" y="2" width="1" height="1" fill="#90725a"/>
    <rect x="172" y="2" width="1" height="1" fill="#90725a"/>
    <rect x="171" y="2" width="1" height="1" fill="#90725a"/>
    <rect x="170" y="2" width="1" height="1" fill="#90725a"/>
    <rect x="169" y="2" width="1" height="1" fill="#90725a"/>
    <rect x="168" y="2" width="1" height="1" fill="#90725a"/>
    <rect x="167" y="2" width="1" height="1" fill="#90725a"/>
    <rect x="166" y="2" width="1" height="1" fill="#90725a"/>
    <rect x="165" y="2" width="1" height="1" fill="#90725a"/>
    <rect x="164" y="2" width="1" height="1" fill="#90725a"/>
    <rect x="163" y="2" width="1" height="1" fill="#90725a"/>
    <rect x="162" y="2" width="1" height="1" fill="#90725a"/>
    <rect x="125" y="2" width="1" height="1" fill="#90725a"/>
    <rect x="124" y="2" width="1" height="1" fill="#90725a"/>
    <rect x="123" y="2" width="1" height="1" fill="#90725a"/>
    <rect x="122" y="2" width="1" height="1" fill="#90725a"/>
    <rect x="121" y="2" width="1" height="1" fill="#90725a"/>
    <rect x="120" y="2" width="1" height="1" fill="#90725a"/>
    <rect x="119" y="2" width="1" height="1" fill="#90725a"/>
    <rect x="118" y="2" width="1" height="1" fill="#90725a"/>
    <rect x="117" y="2" width="1" height="1" fill="#90725a"/>
    <rect x="116" y="2" width="1" height="1" fill="#90725a"/>
    <rect x="115" y="2" width="1" height="1" fill="#90725a"/>
    <rect x="114" y="2" width="1" height="1" fill="#90725a"/>
    <rect x="29" y="2" width="1" height="1" fill="#90725a"/>
    <rect x="28" y="2" width="1" height="1" fill="#90725a"/>
    <rect x="27" y="2" width="1" height="1" fill="#90725a"/>
    <rect x="26" y="2" width="1" height="1" fill="#90725a"/>
    <rect x="25" y="2" width="1" height="1" fill="#90725a"/>
    <rect x="24" y="2" width="1" height="1" fill="#90725a"/>
    <rect x="23" y="2" width="1" height="1" fill="#90725a"/>
    <rect x="22" y="2" width="1" height="1" fill="#90725a"/>
    <rect x="21" y="2" width="1" height="1" fill="#90725a"/>
    <rect x="20" y="2" width="1" height="1" fill="#90725a"/>
    <rect x="19" y="2" width="1" height="1" fill="#90725a"/>
    <rect x="18" y="2" width="1" height="1" fill="#90725a"/>
  </g>
</svg>