<?xml version="1.0" encoding="UTF-8"?><svg id="Layer_1" xmlns="http://www.w3.org/2000/svg" width="384" height="48" viewBox="0 0 384 48"><polygon points="325 35 324 35 323 35 323 34 322 34 321 34 320 34 319 34 318 34 317 34 316 34 315 34 314 34 313 34 312 34 311 34 310 34 309 34 308 34 307 34 306 34 305 34 304 34 303 34 302 34 301 34 301 35 300 35 299 35 298 35 297 35 297 36 297 37 297 38 298 38 298 37 299 37 300 37 301 37 302 37 303 37 303 38 304 38 304 39 304 40 304 41 304 42 304 43 303 43 303 44 304 44 304 45 305 45 306 45 307 45 308 45 309 45 310 45 311 45 312 45 313 45 314 45 315 45 316 45 317 45 318 45 319 45 320 45 320 44 321 44 321 43 320 43 320 42 320 41 320 40 320 39 320 38 321 38 321 37 322 37 323 37 324 37 325 37 326 37 326 38 327 38 327 37 327 36 327 35 326 35 325 35" fill="#92d3ff"/><polygon points="277 36 277 35 276 35 276 34 275 34 274 34 273 34 272 34 271 34 270 34 269 34 268 34 267 34 266 34 265 34 264 34 263 34 262 34 261 34 260 34 259 34 258 34 257 34 256 34 255 34 254 34 253 34 252 34 252 35 251 35 251 36 250 36 249 36 249 37 249 38 249 39 250 39 250 38 251 38 251 37 252 37 253 37 254 37 254 38 255 38 255 39 255 40 256 40 256 41 256 42 256 43 255 43 255 44 256 44 256 45 257 45 258 45 259 45 260 45 261 45 262 45 263 45 264 45 265 45 266 45 267 45 268 45 269 45 270 45 271 45 272 45 272 44 273 44 273 43 272 43 272 42 272 41 272 40 272 39 273 39 273 38 274 38 274 37 275 37 276 37 277 37 278 37 278 38 278 39 279 39 279 38 279 37 279 36 278 36 277 36" fill="#92d3ff"/><polygon points="85 35 84 35 83 35 83 34 82 34 81 34 80 34 79 34 78 34 77 34 76 34 75 34 74 34 73 34 72 34 71 34 70 34 69 34 68 34 67 34 66 34 65 34 64 34 63 34 62 34 61 34 61 35 60 35 59 35 58 35 57 35 57 36 57 37 57 38 58 38 58 37 59 37 60 37 61 37 62 37 63 37 63 38 64 38 64 39 64 40 64 41 64 42 64 43 63 43 63 44 64 44 64 45 65 45 66 45 67 45 68 45 69 45 70 45 71 45 72 45 73 45 74 45 75 45 76 45 77 45 78 45 79 45 80 45 80 44 81 44 81 43 80 43 80 42 80 41 80 40 80 39 80 38 81 38 81 37 82 37 83 37 84 37 85 37 86 37 86 38 87 38 87 37 87 36 87 35 86 35 85 35" fill="#92d3ff"/><polygon points="228 34 227 34 226 34 225 34 224 34 223 34 222 34 221 34 220 34 219 34 218 34 217 34 216 34 215 34 214 34 213 34 212 34 211 34 210 34 209 34 208 34 207 34 206 34 205 34 204 34 203 34 202 34 201 34 201 35 201 36 201 37 201 38 201 39 201 40 202 40 202 39 202 38 203 38 203 37 204 37 205 37 206 37 206 38 207 38 207 39 207 40 208 40 208 41 208 42 208 43 207 43 207 44 208 44 208 45 209 45 210 45 211 45 212 45 213 45 214 45 215 45 216 45 217 45 218 45 219 45 220 45 221 45 222 45 223 45 224 45 224 44 225 44 225 43 224 43 224 42 224 41 224 40 224 39 224 38 225 38 225 37 226 37 226 36 227 36 228 36 229 36 229 37 230 37 230 36 230 35 230 34 229 34 228 34" fill="#92d3ff"/><polygon points="180 34 179 34 178 34 177 34 176 34 175 34 174 34 173 34 172 34 171 34 170 34 169 34 168 34 167 34 166 34 165 34 164 34 163 34 162 34 161 34 160 34 159 34 158 34 157 34 156 34 155 34 154 34 153 34 153 35 153 36 153 37 153 38 153 39 153 40 154 40 154 39 154 38 155 38 155 37 156 37 157 37 158 37 158 38 159 38 159 39 159 40 160 40 160 41 160 42 160 43 159 43 159 44 160 44 160 45 161 45 162 45 163 45 164 45 165 45 166 45 167 45 168 45 169 45 170 45 171 45 172 45 173 45 174 45 175 45 176 45 176 44 177 44 177 43 176 43 176 42 176 41 176 40 176 39 176 38 177 38 177 37 178 37 178 36 179 36 179 35 180 35 181 35 182 35 182 34 181 34 180 34" fill="#92d3ff"/><polygon points="130 34 129 34 128 34 127 34 126 34 125 34 124 34 123 34 122 34 121 34 120 34 119 34 118 34 117 34 116 34 115 34 114 34 113 34 112 34 111 34 110 34 109 34 108 34 108 35 107 35 107 36 106 36 105 36 105 37 105 38 105 39 106 39 106 38 107 38 107 37 108 37 109 37 110 37 110 38 111 38 111 39 112 39 112 40 112 41 112 42 112 43 111 43 111 44 112 44 112 45 113 45 114 45 115 45 116 45 117 45 118 45 119 45 120 45 121 45 122 45 123 45 124 45 125 45 126 45 127 45 128 45 128 44 129 44 129 43 128 43 128 42 128 41 128 40 128 39 128 38 129 38 129 37 130 37 130 36 131 36 132 36 132 35 132 34 131 34 130 34" fill="#92d3ff"/><polygon points="37 34 36 34 35 34 34 34 33 34 32 34 31 34 30 34 29 34 28 34 27 34 26 34 25 34 24 34 23 34 22 34 21 34 20 34 19 34 18 34 17 34 16 34 15 34 14 34 13 34 12 34 11 34 10 34 9 34 9 35 9 36 9 37 10 37 10 36 11 36 12 36 13 36 13 37 14 37 15 37 15 38 16 38 16 39 16 40 16 41 16 42 16 43 15 43 15 44 16 44 16 45 17 45 18 45 19 45 20 45 21 45 22 45 23 45 24 45 25 45 26 45 27 45 28 45 29 45 30 45 31 45 32 45 32 44 33 44 33 43 32 43 32 42 32 41 32 40 32 39 32 38 33 38 33 37 34 37 35 37 35 36 36 36 37 36 38 36 38 37 39 37 39 36 39 35 39 34 38 34 37 34" fill="#92d3ff"/><polygon points="374 34 373 34 372 34 371 34 370 34 369 34 368 34 367 34 366 34 365 34 364 34 363 34 362 34 361 34 360 34 359 34 358 34 357 34 356 34 355 34 354 34 353 34 352 34 351 34 350 34 349 34 348 34 347 34 346 34 345 34 345 35 345 36 345 37 346 37 346 36 347 36 348 36 349 36 349 37 350 37 351 37 351 38 352 38 352 39 352 40 352 41 352 42 352 43 351 43 351 44 352 44 352 45 353 45 354 45 355 45 356 45 357 45 358 45 359 45 360 45 361 45 362 45 363 45 364 45 365 45 366 45 367 45 368 45 368 44 369 44 369 43 368 43 368 42 368 41 368 40 368 39 368 38 369 38 369 37 370 37 371 37 371 36 372 36 373 36 374 36 374 37 375 37 375 36 375 35 375 34 374 34" fill="#92d3ff"/><polygon points="279 39 278 39 278 38 278 37 277 37 276 37 275 37 274 37 274 38 273 38 273 39 272 39 272 40 272 41 272 42 272 43 273 43 274 43 274 44 274 45 274 46 275 46 275 47 276 47 277 47 278 47 279 47 279 46 280 46 280 45 280 44 280 43 280 42 280 41 280 40 279 40 279 39" fill="#ffe3cd"/><polygon points="327 38 326 38 326 37 325 37 324 37 323 37 322 37 321 37 321 38 320 38 320 39 320 40 320 41 320 42 320 43 321 43 322 43 322 44 322 45 323 45 323 46 324 46 325 46 326 46 327 46 327 45 328 45 328 44 328 43 328 42 328 41 328 40 328 39 327 39 327 38" fill="#ffe3cd"/><polygon points="231 38 230 38 230 37 229 37 229 36 228 36 227 36 226 36 226 37 225 37 225 38 224 38 224 39 224 40 224 41 224 42 224 43 225 43 225 44 225 45 226 45 226 46 227 46 228 46 229 46 230 46 231 46 231 45 232 45 232 44 232 43 232 42 232 41 232 40 232 39 231 39 231 38" fill="#ffe3cd"/><polygon points="87 38 86 38 86 37 85 37 84 37 83 37 82 37 81 37 81 38 80 38 80 39 80 40 80 41 80 42 80 43 81 43 81 44 82 44 82 45 83 45 83 46 84 46 85 46 86 46 87 46 87 45 88 45 88 44 88 43 88 42 88 41 88 40 88 39 87 39 87 38" fill="#ffe3cd"/><polygon points="375 37 374 37 374 36 373 36 372 36 371 36 371 37 370 37 369 37 369 38 368 38 368 39 368 40 368 41 368 42 368 43 369 43 370 43 370 44 371 44 371 45 372 45 373 45 374 45 375 45 375 44 376 44 376 43 376 42 376 41 376 40 376 39 376 38 375 38 375 37" fill="#ffe3cd"/><polygon points="39 37 38 37 38 36 37 36 36 36 35 36 35 37 34 37 33 37 33 38 32 38 32 39 32 40 32 41 32 42 32 43 33 43 34 43 34 44 35 44 35 45 36 45 37 45 38 45 39 45 39 44 40 44 40 43 40 42 40 41 40 40 40 39 40 38 39 38 39 37" fill="#ffe3cd"/><polygon points="380 29 380 28 380 27 379 27 379 26 378 26 378 25 377 25 376 25 376 24 375 24 374 24 374 23 373 23 372 23 371 23 371 22 372 22 372 21 372 20 372 19 373 19 374 19 374 18 374 17 374 16 374 15 374 14 374 13 373 13 372 13 372 12 372 11 372 10 371 10 371 9 371 8 370 8 370 7 369 7 369 6 368 6 367 6 366 6 366 5 365 5 364 5 363 5 363 6 362 6 362 7 361 7 361 8 360 8 360 9 359 9 358 9 358 8 359 8 359 7 358 7 358 6 357 6 357 5 356 5 355 5 354 5 353 5 353 6 352 6 351 6 351 7 350 7 350 8 349 8 349 9 349 10 348 10 348 11 348 12 348 13 347 13 346 13 346 14 346 15 346 16 346 17 346 18 346 19 347 19 348 19 348 20 348 21 348 22 349 22 349 23 348 23 347 23 346 23 346 24 345 24 344 24 344 25 343 25 342 25 342 26 341 26 341 27 340 27 340 28 340 29 339 29 339 30 339 31 339 32 340 32 340 33 341 33 341 34 342 34 343 34 344 34 345 34 346 34 347 34 348 34 349 34 350 34 351 34 352 34 353 34 354 34 355 34 356 34 357 34 358 34 359 34 360 34 361 34 362 34 363 34 364 34 365 34 366 34 367 34 368 34 369 34 370 34 371 34 372 34 373 34 374 34 375 34 376 34 377 34 378 34 379 34 379 33 380 33 380 32 381 32 381 31 381 30 381 29 380 29" fill="#ffe3cd"/><polygon points="237 29 237 28 236 28 236 27 235 27 235 26 234 26 233 26 233 25 232 25 231 25 231 24 230 24 229 24 229 23 228 23 227 23 227 22 228 22 228 21 228 20 228 19 229 19 230 19 230 18 230 17 230 16 230 15 230 14 230 13 229 13 228 13 228 12 228 11 228 10 227 10 227 9 227 8 226 8 226 7 225 7 225 6 224 6 223 6 222 6 222 5 221 5 220 5 219 5 219 6 218 6 218 7 217 7 217 8 216 8 216 9 215 9 214 9 214 8 215 8 215 7 214 7 214 6 213 6 213 5 212 5 211 5 210 5 209 5 209 6 208 6 207 6 207 7 206 7 206 8 205 8 205 9 205 10 204 10 204 11 204 12 204 13 203 13 202 13 202 14 202 15 202 16 202 17 202 18 202 19 203 19 204 19 204 20 204 21 204 22 205 22 205 23 204 23 203 23 202 23 202 24 201 24 200 24 200 25 199 25 198 25 198 26 197 26 196 26 196 27 195 27 195 28 194 28 194 29 194 30 193 30 193 31 193 32 193 33 193 34 193 35 193 36 194 36 194 37 195 37 195 38 196 38 197 38 198 38 199 38 199 37 200 37 200 36 200 35 200 34 200 33 201 33 201 34 202 34 203 34 204 34 205 34 206 34 207 34 208 34 209 34 210 34 211 34 212 34 213 34 214 34 215 34 216 34 217 34 218 34 219 34 220 34 221 34 222 34 223 34 224 34 225 34 226 34 227 34 228 34 229 34 230 34 230 33 231 33 231 34 231 35 231 36 231 37 232 37 232 38 233 38 234 38 235 38 236 38 236 37 237 37 237 36 238 36 238 35 238 34 238 33 238 32 238 31 238 30 237 30 237 29" fill="#ffe3cd"/><polygon points="189 29 189 28 188 28 188 27 187 27 187 26 186 26 185 26 185 25 184 25 183 25 183 24 182 24 181 24 181 23 180 23 179 23 179 22 180 22 180 21 180 20 180 19 181 19 182 19 182 18 182 17 182 16 182 15 182 14 182 13 181 13 180 13 180 12 180 11 180 10 179 10 179 9 179 8 178 8 178 7 177 7 177 6 176 6 175 6 174 6 174 5 173 5 172 5 171 5 171 6 170 6 170 7 169 7 169 8 168 8 168 9 167 9 166 9 166 8 167 8 167 7 166 7 166 6 165 6 165 5 164 5 163 5 162 5 161 5 161 6 160 6 159 6 159 7 158 7 158 8 157 8 157 9 157 10 156 10 156 11 156 12 156 13 155 13 154 13 154 14 154 15 154 16 154 17 154 18 154 19 155 19 156 19 156 20 156 21 156 22 157 22 157 23 156 23 155 23 154 23 154 24 153 24 152 24 152 25 151 25 150 25 150 26 149 26 148 26 148 27 147 27 147 28 146 28 146 29 146 30 145 30 145 31 145 32 145 33 145 34 145 35 145 36 146 36 146 37 147 37 147 38 148 38 149 38 150 38 151 38 151 37 152 37 152 36 152 35 152 34 152 33 153 33 153 34 154 34 155 34 156 34 157 34 158 34 159 34 160 34 161 34 162 34 163 34 164 34 165 34 166 34 167 34 168 34 169 34 170 34 171 34 172 34 173 34 174 34 175 34 176 34 177 34 178 34 179 34 180 34 181 34 182 34 182 33 183 33 183 34 183 35 183 36 182 36 182 35 181 35 180 35 179 35 179 36 178 36 178 37 177 37 177 38 176 38 176 39 176 40 176 41 176 42 176 43 177 43 178 43 178 44 179 44 180 44 181 44 182 44 183 44 183 43 184 43 184 42 184 41 184 40 184 39 184 38 185 38 186 38 187 38 188 38 188 37 189 37 189 36 190 36 190 35 190 34 190 33 190 32 190 31 190 30 189 30 189 29" fill="#ffe3cd"/><polygon points="284 27 283 27 283 26 282 26 282 25 281 25 280 25 280 24 279 24 278 24 278 23 277 23 276 23 275 23 275 22 276 22 276 21 276 20 276 19 277 19 278 19 278 18 278 17 278 16 278 15 278 14 278 13 277 13 276 13 276 12 276 11 276 10 275 10 275 9 275 8 274 8 274 7 273 7 273 6 272 6 271 6 270 6 270 5 269 5 268 5 267 5 267 6 266 6 266 7 265 7 265 8 264 8 264 9 263 9 262 9 262 8 263 8 263 7 262 7 262 6 261 6 261 5 260 5 259 5 258 5 257 5 257 6 256 6 255 6 255 7 254 7 254 8 253 8 253 9 253 10 252 10 252 11 252 12 252 13 251 13 250 13 250 14 250 15 250 16 250 17 250 18 250 19 251 19 252 19 252 20 252 21 252 22 253 22 253 23 252 23 251 23 250 23 250 24 249 24 248 24 248 25 247 25 246 25 246 26 245 26 245 27 244 27 244 28 243 28 243 29 243 30 243 31 243 32 244 32 244 33 245 33 245 34 246 34 246 35 247 35 247 36 248 36 249 36 250 36 251 36 251 35 252 35 252 34 253 34 254 34 255 34 256 34 257 34 258 34 259 34 260 34 261 34 262 34 263 34 264 34 265 34 266 34 267 34 268 34 269 34 270 34 271 34 272 34 273 34 274 34 275 34 276 34 276 35 277 35 277 36 278 36 279 36 280 36 281 36 281 35 282 35 282 34 283 34 283 33 284 33 284 32 285 32 285 31 285 30 285 29 285 28 284 28 284 27" fill="#ffe3cd"/><polygon points="140 27 139 27 139 26 138 26 138 25 137 25 136 25 136 24 135 24 134 24 134 23 133 23 132 23 131 23 131 22 132 22 132 21 132 20 132 19 133 19 134 19 134 18 134 17 134 16 134 15 134 14 134 13 133 13 132 13 132 12 132 11 132 10 131 10 131 9 131 8 130 8 130 7 129 7 129 6 128 6 127 6 126 6 126 5 125 5 124 5 123 5 123 6 122 6 122 7 121 7 121 8 120 8 120 9 119 9 118 9 118 8 119 8 119 7 118 7 118 6 117 6 117 5 116 5 115 5 114 5 113 5 113 6 112 6 111 6 111 7 110 7 110 8 109 8 109 9 109 10 108 10 108 11 108 12 108 13 107 13 106 13 106 14 106 15 106 16 106 17 106 18 106 19 107 19 108 19 108 20 108 21 108 22 109 22 109 23 108 23 107 23 106 23 106 24 105 24 104 24 104 25 103 25 102 25 102 26 101 26 101 27 100 27 100 28 99 28 99 29 99 30 99 31 99 32 100 32 100 33 101 33 101 34 102 34 102 35 103 35 103 36 104 36 105 36 106 36 107 36 107 35 108 35 108 34 109 34 110 34 111 34 112 34 113 34 114 34 115 34 116 34 117 34 118 34 119 34 120 34 121 34 122 34 123 34 124 34 125 34 126 34 127 34 128 34 129 34 130 34 131 34 132 34 132 35 132 36 131 36 130 36 130 37 129 37 129 38 128 38 128 39 128 40 128 41 128 42 128 43 129 43 129 44 130 44 130 45 131 45 132 45 133 45 134 45 135 45 135 44 136 44 136 43 136 42 136 41 136 40 136 39 136 38 135 38 135 37 134 37 134 36 135 36 136 36 137 36 137 35 138 35 138 34 139 34 139 33 140 33 140 32 141 32 141 31 141 30 141 29 141 28 140 28 140 27" fill="#ffe3cd"/><polygon points="44 28 44 27 43 27 43 26 42 26 42 25 41 25 40 25 40 24 39 24 38 24 38 23 37 23 36 23 35 23 35 22 36 22 36 21 36 20 36 19 37 19 38 19 38 18 38 17 38 16 38 15 38 14 38 13 37 13 36 13 36 12 36 11 36 10 35 10 35 9 35 8 34 8 34 7 33 7 33 6 32 6 31 6 30 6 30 5 29 5 28 5 27 5 27 6 26 6 26 7 25 7 25 8 24 8 24 9 23 9 22 9 22 8 23 8 23 7 22 7 22 6 21 6 21 5 20 5 19 5 18 5 17 5 17 6 16 6 15 6 15 7 14 7 14 8 13 8 13 9 13 10 12 10 12 11 12 12 12 13 11 13 10 13 10 14 10 15 10 16 10 17 10 18 10 19 11 19 12 19 12 20 12 21 12 22 13 22 13 23 12 23 11 23 10 23 10 24 9 24 8 24 8 25 7 25 6 25 6 26 5 26 5 27 4 27 4 28 4 29 3 29 3 30 3 31 3 32 4 32 4 33 5 33 5 34 6 34 7 34 8 34 9 34 10 34 11 34 12 34 13 34 14 34 15 34 16 34 17 34 18 34 19 34 20 34 21 34 22 34 23 34 24 34 25 34 26 34 27 34 28 34 29 34 30 34 31 34 32 34 33 34 34 34 35 34 36 34 37 34 38 34 39 34 40 34 41 34 42 34 43 34 43 33 44 33 44 32 45 32 45 31 45 30 45 29 44 29 44 28" fill="#ffe3cd"/><polygon points="331 27 331 26 330 26 329 26 329 25 328 25 328 24 327 24 326 24 326 23 325 23 324 23 323 23 323 22 324 22 324 21 324 20 324 19 325 19 326 19 326 18 326 17 326 16 326 15 326 14 326 13 325 13 324 13 324 12 324 11 324 10 323 10 323 9 323 8 322 8 322 7 321 7 321 6 320 6 319 6 318 6 318 5 317 5 316 5 315 5 315 6 314 6 314 7 313 7 313 8 312 8 312 9 311 9 310 9 310 8 311 8 311 7 310 7 310 6 309 6 309 5 308 5 307 5 306 5 305 5 305 6 304 6 303 6 303 7 302 7 302 8 301 8 301 9 301 10 300 10 300 11 300 12 300 13 299 13 298 13 298 14 298 15 298 16 298 17 298 18 298 19 299 19 300 19 300 20 300 21 300 22 301 22 301 23 300 23 299 23 298 23 298 24 297 24 296 24 296 25 295 25 295 26 294 26 293 26 293 27 293 28 292 28 292 29 292 30 292 31 293 31 293 32 293 33 294 33 295 33 295 34 296 34 296 35 297 35 298 35 299 35 300 35 301 35 301 34 302 34 303 34 304 34 305 34 306 34 307 34 308 34 309 34 310 34 311 34 312 34 313 34 314 34 315 34 316 34 317 34 318 34 319 34 320 34 321 34 322 34 323 34 323 35 324 35 325 35 326 35 327 35 328 35 328 34 329 34 329 33 330 33 331 33 331 32 331 31 332 31 332 30 332 29 332 28 331 28 331 27" fill="#ffe3cd"/><polygon points="91 27 91 26 90 26 89 26 89 25 88 25 88 24 87 24 86 24 86 23 85 23 84 23 83 23 83 22 84 22 84 21 84 20 84 19 85 19 86 19 86 18 86 17 86 16 86 15 86 14 86 13 85 13 84 13 84 12 84 11 84 10 83 10 83 9 83 8 82 8 82 7 81 7 81 6 80 6 79 6 78 6 78 5 77 5 76 5 75 5 75 6 74 6 74 7 73 7 73 8 72 8 72 9 71 9 70 9 70 8 71 8 71 7 70 7 70 6 69 6 69 5 68 5 67 5 66 5 65 5 65 6 64 6 63 6 63 7 62 7 62 8 61 8 61 9 61 10 60 10 60 11 60 12 60 13 59 13 58 13 58 14 58 15 58 16 58 17 58 18 58 19 59 19 60 19 60 20 60 21 60 22 61 22 61 23 60 23 59 23 58 23 58 24 57 24 56 24 56 25 55 25 55 26 54 26 53 26 53 27 53 28 52 28 52 29 52 30 52 31 53 31 53 32 53 33 54 33 55 33 55 34 56 34 56 35 57 35 58 35 59 35 60 35 61 35 61 34 62 34 63 34 64 34 65 34 66 34 67 34 68 34 69 34 70 34 71 34 72 34 73 34 74 34 75 34 76 34 77 34 78 34 79 34 80 34 81 34 82 34 83 34 83 35 84 35 85 35 86 35 87 35 88 35 88 34 89 34 89 33 90 33 91 33 91 32 91 31 92 31 92 30 92 29 92 28 91 28 91 27" fill="#ffe3cd"/><polygon points="255 39 255 38 254 38 254 37 253 37 252 37 251 37 251 38 250 38 250 39 249 39 249 40 248 40 248 41 248 42 248 43 248 44 248 45 248 46 249 46 249 47 250 47 251 47 252 47 253 47 253 46 254 46 254 45 254 44 254 43 255 43 256 43 256 42 256 41 256 40 255 40 255 39" fill="#ffe3cd"/><polygon points="207 39 207 38 206 38 206 37 205 37 204 37 203 37 203 38 202 38 202 39 202 40 201 40 201 41 200 41 200 42 200 43 200 44 200 45 200 46 200 47 201 47 201 48 202 48 203 48 204 48 205 48 205 47 206 47 206 46 206 45 206 44 207 44 207 43 208 43 208 42 208 41 208 40 207 40 207 39" fill="#ffe3cd"/><polygon points="159 39 159 38 158 38 158 37 157 37 156 37 155 37 155 38 154 38 154 39 154 40 153 40 153 41 152 41 152 42 152 43 152 44 152 45 152 46 152 47 153 47 153 48 154 48 155 48 156 48 157 48 157 47 158 47 158 46 158 45 158 44 159 44 159 43 160 43 160 42 160 41 160 40 159 40 159 39" fill="#ffe3cd"/><polygon points="111 38 110 38 110 37 109 37 108 37 107 37 107 38 106 38 106 39 105 39 105 40 104 40 104 41 104 42 104 43 104 44 104 45 104 46 105 46 105 47 106 47 107 47 108 47 109 47 109 46 110 46 110 45 110 44 111 44 111 43 112 43 112 42 112 41 112 40 112 39 111 39 111 38" fill="#ffe3cd"/><polygon points="351 37 350 37 349 37 349 36 348 36 347 36 346 36 346 37 345 37 345 38 344 38 344 39 344 40 344 41 344 42 344 43 344 44 345 44 345 45 346 45 347 45 348 45 349 45 349 44 350 44 350 43 351 43 352 43 352 42 352 41 352 40 352 39 352 38 351 38 351 37" fill="#ffe3cd"/><polygon points="303 37 302 37 301 37 300 37 299 37 298 37 298 38 297 38 297 39 296 39 296 40 296 41 296 42 296 43 296 44 296 45 297 45 297 46 298 46 299 46 300 46 301 46 301 45 302 45 302 44 302 43 303 43 304 43 304 42 304 41 304 40 304 39 304 38 303 38 303 37" fill="#ffe3cd"/><polygon points="63 37 62 37 61 37 60 37 59 37 58 37 58 38 57 38 57 39 56 39 56 40 56 41 56 42 56 43 56 44 56 45 57 45 57 46 58 46 59 46 60 46 61 46 61 45 62 45 62 44 63 44 63 43 64 43 64 42 64 41 64 40 64 39 64 38 63 38 63 37" fill="#ffe3cd"/><polygon points="15 37 14 37 13 37 13 36 12 36 11 36 10 36 10 37 9 37 9 38 8 38 8 39 8 40 8 41 8 42 8 43 8 44 9 44 9 45 10 45 11 45 12 45 13 45 13 44 14 44 14 43 15 43 16 43 16 42 16 41 16 40 16 39 16 38 15 38 15 37" fill="#ffe3cd"/><polygon points="370 6 370 5 369 5 369 4 368 4 368 3 367 3 366 3 366 2 365 2 364 2 363 2 362 2 361 2 360 2 359 2 358 2 357 2 356 2 355 2 354 2 354 3 353 3 352 3 352 4 351 4 351 5 350 5 350 6 349 6 349 7 349 8 350 8 350 7 351 7 351 6 352 6 353 6 353 5 354 5 355 5 356 5 357 5 357 6 358 6 358 7 359 7 359 8 358 8 358 9 359 9 360 9 360 8 361 8 361 7 362 7 362 6 363 6 363 5 364 5 365 5 366 5 366 6 367 6 368 6 369 6 369 7 370 7 370 8 371 8 371 7 371 6 370 6" fill="#90725a"/><polygon points="322 5 321 5 321 4 320 4 320 3 319 3 318 3 318 2 317 2 316 2 315 2 314 2 313 2 312 2 311 2 310 2 309 2 308 2 307 2 306 2 306 3 305 3 304 3 304 4 303 4 303 5 302 5 302 6 301 6 301 7 301 8 302 8 302 7 303 7 303 6 304 6 305 6 305 5 306 5 307 5 308 5 309 5 309 6 310 6 310 7 311 7 311 8 310 8 310 9 311 9 312 9 312 8 313 8 313 7 314 7 314 6 315 6 315 5 316 5 317 5 318 5 318 6 319 6 320 6 321 6 321 7 322 7 322 8 323 8 323 7 323 6 322 6 322 5" fill="#90725a"/><polygon points="274 5 273 5 273 4 272 4 272 3 271 3 270 3 270 2 269 2 268 2 267 2 266 2 265 2 264 2 263 2 262 2 261 2 260 2 259 2 258 2 258 3 257 3 256 3 256 4 255 4 255 5 254 5 254 6 253 6 253 7 253 8 254 8 254 7 255 7 255 6 256 6 257 6 257 5 258 5 259 5 260 5 261 5 261 6 262 6 262 7 263 7 263 8 262 8 262 9 263 9 264 9 264 8 265 8 265 7 266 7 266 6 267 6 267 5 268 5 269 5 270 5 270 6 271 6 272 6 273 6 273 7 274 7 274 8 275 8 275 7 275 6 274 6 274 5" fill="#90725a"/><polygon points="226 5 225 5 225 4 224 4 224 3 223 3 222 3 222 2 221 2 220 2 219 2 218 2 217 2 216 2 215 2 214 2 213 2 212 2 211 2 210 2 210 3 209 3 208 3 208 4 207 4 207 5 206 5 206 6 205 6 205 7 205 8 206 8 206 7 207 7 207 6 208 6 209 6 209 5 210 5 211 5 212 5 213 5 213 6 214 6 214 7 215 7 215 8 214 8 214 9 215 9 216 9 216 8 217 8 217 7 218 7 218 6 219 6 219 5 220 5 221 5 222 5 222 6 223 6 224 6 225 6 225 7 226 7 226 8 227 8 227 7 227 6 226 6 226 5" fill="#90725a"/><polygon points="178 5 177 5 177 4 176 4 176 3 175 3 174 3 174 2 173 2 172 2 171 2 170 2 169 2 168 2 167 2 166 2 165 2 164 2 163 2 162 2 162 3 161 3 160 3 160 4 159 4 159 5 158 5 158 6 157 6 157 7 157 8 158 8 158 7 159 7 159 6 160 6 161 6 161 5 162 5 163 5 164 5 165 5 165 6 166 6 166 7 167 7 167 8 166 8 166 9 167 9 168 9 168 8 169 8 169 7 170 7 170 6 171 6 171 5 172 5 173 5 174 5 174 6 175 6 176 6 177 6 177 7 178 7 178 8 179 8 179 7 179 6 178 6 178 5" fill="#90725a"/><polygon points="130 5 129 5 129 4 128 4 128 3 127 3 126 3 126 2 125 2 124 2 123 2 122 2 121 2 120 2 119 2 118 2 117 2 116 2 115 2 114 2 114 3 113 3 112 3 112 4 111 4 111 5 110 5 110 6 109 6 109 7 109 8 110 8 110 7 111 7 111 6 112 6 113 6 113 5 114 5 115 5 116 5 117 5 117 6 118 6 118 7 119 7 119 8 118 8 118 9 119 9 120 9 120 8 121 8 121 7 122 7 122 6 123 6 123 5 124 5 125 5 126 5 126 6 127 6 128 6 129 6 129 7 130 7 130 8 131 8 131 7 131 6 130 6 130 5" fill="#90725a"/><polygon points="82 5 81 5 81 4 80 4 80 3 79 3 78 3 78 2 77 2 76 2 75 2 74 2 73 2 72 2 71 2 70 2 69 2 68 2 67 2 66 2 66 3 65 3 64 3 64 4 63 4 63 5 62 5 62 6 61 6 61 7 61 8 62 8 62 7 63 7 63 6 64 6 65 6 65 5 66 5 67 5 68 5 69 5 69 6 70 6 70 7 71 7 71 8 70 8 70 9 71 9 72 9 72 8 73 8 73 7 74 7 74 6 75 6 75 5 76 5 77 5 78 5 78 6 79 6 80 6 81 6 81 7 82 7 82 8 83 8 83 7 83 6 82 6 82 5" fill="#90725a"/><polygon points="34 5 33 5 33 4 32 4 32 3 31 3 30 3 30 2 29 2 28 2 27 2 26 2 25 2 24 2 23 2 22 2 21 2 20 2 19 2 18 2 18 3 17 3 16 3 16 4 15 4 15 5 14 5 14 6 13 6 13 7 13 8 14 8 14 7 15 7 15 6 16 6 17 6 17 5 18 5 19 5 20 5 21 5 21 6 22 6 22 7 23 7 23 8 22 8 22 9 23 9 24 9 24 8 25 8 25 7 26 7 26 6 27 6 27 5 28 5 29 5 30 5 30 6 31 6 32 6 33 6 33 7 34 7 34 8 35 8 35 7 35 6 34 6 34 5" fill="#90725a"/><polygon points="359 7 359 8 358 8 358 9 359 9 360 9 360 8 360 7 359 7" fill="#86674f"/><rect x="349" y="7" width="1" height="1" fill="#86674f"/><polygon points="311 8 310 8 310 9 311 9 312 9 312 8 312 7 311 7 311 8" fill="#86674f"/><rect x="301" y="7" width="1" height="1" fill="#86674f"/><polygon points="263 8 262 8 262 9 263 9 264 9 264 8 264 7 263 7 263 8" fill="#86674f"/><rect x="253" y="7" width="1" height="1" fill="#86674f"/><polygon points="215 8 214 8 214 9 215 9 216 9 216 8 216 7 215 7 215 8" fill="#86674f"/><rect x="205" y="7" width="1" height="1" fill="#86674f"/><polygon points="167 8 166 8 166 9 167 9 168 9 168 8 168 7 167 7 167 8" fill="#86674f"/><rect x="157" y="7" width="1" height="1" fill="#86674f"/><polygon points="119 8 118 8 118 9 119 9 120 9 120 8 120 7 119 7 119 8" fill="#86674f"/><rect x="109" y="7" width="1" height="1" fill="#86674f"/><polygon points="71 8 70 8 70 9 71 9 72 9 72 8 72 7 71 7 71 8" fill="#86674f"/><rect x="61" y="7" width="1" height="1" fill="#86674f"/><polygon points="23 8 22 8 22 9 23 9 24 9 24 8 24 7 23 7 23 8" fill="#86674f"/><rect x="13" y="7" width="1" height="1" fill="#86674f"/><rect x="358" y="6" width="1" height="1" fill="#86674f"/><rect x="350" y="6" width="1" height="1" fill="#86674f"/><rect x="310" y="6" width="1" height="1" fill="#86674f"/><rect x="302" y="6" width="1" height="1" fill="#86674f"/><rect x="262" y="6" width="1" height="1" fill="#86674f"/><rect x="254" y="6" width="1" height="1" fill="#86674f"/><rect x="214" y="6" width="1" height="1" fill="#86674f"/><rect x="206" y="6" width="1" height="1" fill="#86674f"/><rect x="166" y="6" width="1" height="1" fill="#86674f"/><rect x="158" y="6" width="1" height="1" fill="#86674f"/><rect x="118" y="6" width="1" height="1" fill="#86674f"/><rect x="110" y="6" width="1" height="1" fill="#86674f"/><rect x="70" y="6" width="1" height="1" fill="#86674f"/><rect x="62" y="6" width="1" height="1" fill="#86674f"/><rect x="22" y="6" width="1" height="1" fill="#86674f"/><rect x="14" y="6" width="1" height="1" fill="#86674f"/><rect x="357" y="5" width="1" height="1" fill="#86674f"/><polygon points="351 5 351 6 352 6 353 6 353 5 352 5 351 5" fill="#86674f"/><rect x="309" y="5" width="1" height="1" fill="#86674f"/><polygon points="303 5 303 6 304 6 305 6 305 5 304 5 303 5" fill="#86674f"/><rect x="261" y="5" width="1" height="1" fill="#86674f"/><polygon points="255 5 255 6 256 6 257 6 257 5 256 5 255 5" fill="#86674f"/><rect x="213" y="5" width="1" height="1" fill="#86674f"/><polygon points="207 5 207 6 208 6 209 6 209 5 208 5 207 5" fill="#86674f"/><rect x="165" y="5" width="1" height="1" fill="#86674f"/><polygon points="159 5 159 6 160 6 161 6 161 5 160 5 159 5" fill="#86674f"/><rect x="117" y="5" width="1" height="1" fill="#86674f"/><polygon points="111 5 111 6 112 6 113 6 113 5 112 5 111 5" fill="#86674f"/><rect x="69" y="5" width="1" height="1" fill="#86674f"/><polygon points="63 5 63 6 64 6 65 6 65 5 64 5 63 5" fill="#86674f"/><rect x="21" y="5" width="1" height="1" fill="#86674f"/><polygon points="15 5 15 6 16 6 17 6 17 5 16 5 15 5" fill="#86674f"/><polygon points="356 4 355 4 354 4 353 4 353 5 354 5 355 5 356 5 357 5 357 4 356 4" fill="#86674f"/><polygon points="308 4 307 4 306 4 305 4 305 5 306 5 307 5 308 5 309 5 309 4 308 4" fill="#86674f"/><polygon points="260 4 259 4 258 4 257 4 257 5 258 5 259 5 260 5 261 5 261 4 260 4" fill="#86674f"/><polygon points="212 4 211 4 210 4 209 4 209 5 210 5 211 5 212 5 213 5 213 4 212 4" fill="#86674f"/><polygon points="164 4 163 4 162 4 161 4 161 5 162 5 163 5 164 5 165 5 165 4 164 4" fill="#86674f"/><polygon points="116 4 115 4 114 4 113 4 113 5 114 5 115 5 116 5 117 5 117 4 116 4" fill="#86674f"/><polygon points="68 4 67 4 66 4 65 4 65 5 66 5 67 5 68 5 69 5 69 4 68 4" fill="#86674f"/><polygon points="20 4 19 4 18 4 17 4 17 5 18 5 19 5 20 5 21 5 21 4 20 4" fill="#86674f"/><rect x="368" y="4" width="1" height="1" fill="#ac8a6f"/><rect x="320" y="4" width="1" height="1" fill="#ac8a6f"/><rect x="272" y="4" width="1" height="1" fill="#ac8a6f"/><rect x="224" y="4" width="1" height="1" fill="#ac8a6f"/><rect x="176" y="4" width="1" height="1" fill="#ac8a6f"/><rect x="128" y="4" width="1" height="1" fill="#ac8a6f"/><rect x="80" y="4" width="1" height="1" fill="#ac8a6f"/><rect x="32" y="4" width="1" height="1" fill="#ac8a6f"/><polygon points="367 3 366 3 366 4 367 4 368 4 368 3 367 3" fill="#ac8a6f"/><rect x="360" y="3" width="1" height="1" fill="#ac8a6f"/><polygon points="319 3 318 3 318 4 319 4 320 4 320 3 319 3" fill="#ac8a6f"/><rect x="312" y="3" width="1" height="1" fill="#ac8a6f"/><polygon points="271 3 270 3 270 4 271 4 272 4 272 3 271 3" fill="#ac8a6f"/><rect x="264" y="3" width="1" height="1" fill="#ac8a6f"/><polygon points="223 3 222 3 222 4 223 4 224 4 224 3 223 3" fill="#ac8a6f"/><rect x="216" y="3" width="1" height="1" fill="#ac8a6f"/><polygon points="175 3 174 3 174 4 175 4 176 4 176 3 175 3" fill="#ac8a6f"/><rect x="168" y="3" width="1" height="1" fill="#ac8a6f"/><polygon points="127 3 126 3 126 4 127 4 128 4 128 3 127 3" fill="#ac8a6f"/><rect x="120" y="3" width="1" height="1" fill="#ac8a6f"/><polygon points="79 3 78 3 78 4 79 4 80 4 80 3 79 3" fill="#ac8a6f"/><rect x="72" y="3" width="1" height="1" fill="#ac8a6f"/><polygon points="31 3 30 3 30 4 31 4 32 4 32 3 31 3" fill="#ac8a6f"/><rect x="24" y="3" width="1" height="1" fill="#ac8a6f"/><polygon points="365 2 364 2 363 2 362 2 361 2 361 3 362 3 363 3 364 3 365 3 366 3 366 2 365 2" fill="#ac8a6f"/><polygon points="317 2 316 2 315 2 314 2 313 2 313 3 314 3 315 3 316 3 317 3 318 3 318 2 317 2" fill="#ac8a6f"/><polygon points="269 2 268 2 267 2 266 2 265 2 265 3 266 3 267 3 268 3 269 3 270 3 270 2 269 2" fill="#ac8a6f"/><polygon points="221 2 220 2 219 2 218 2 217 2 217 3 218 3 219 3 220 3 221 3 222 3 222 2 221 2" fill="#ac8a6f"/><polygon points="173 2 172 2 171 2 170 2 169 2 169 3 170 3 171 3 172 3 173 3 174 3 174 2 173 2" fill="#ac8a6f"/><polygon points="125 2 124 2 123 2 122 2 121 2 121 3 122 3 123 3 124 3 125 3 126 3 126 2 125 2" fill="#ac8a6f"/><polygon points="77 2 76 2 75 2 74 2 73 2 73 3 74 3 75 3 76 3 77 3 78 3 78 2 77 2" fill="#ac8a6f"/><polygon points="29 2 28 2 27 2 26 2 25 2 25 3 26 3 27 3 28 3 29 3 30 3 30 2 29 2" fill="#ac8a6f"/><polygon points="361 17 360 17 359 17 359 18 359 19 360 19 361 19 362 19 362 18 362 17 361 17" fill="#ff9c83"/><polygon points="312 17 311 17 311 18 311 19 312 19 313 19 314 19 314 18 314 17 313 17 312 17" fill="#ff9c83"/><polygon points="72 17 71 17 71 18 71 19 72 19 73 19 74 19 74 18 74 17 73 17 72 17" fill="#ff9c83"/><polygon points="24 17 23 17 23 18 23 19 24 19 25 19 26 19 26 18 26 17 25 17 24 17" fill="#ff9c83"/><polygon points="264 16 263 16 263 17 263 18 264 18 265 18 266 18 266 17 266 16 265 16 264 16" fill="#ff9c83"/><polygon points="120 16 119 16 119 17 119 18 120 18 121 18 122 18 122 17 122 16 121 16 120 16" fill="#ff9c83"/><polygon points="216 15 215 15 215 16 215 17 216 17 217 17 218 17 218 16 218 15 217 15 216 15" fill="#ff9c83"/><polygon points="168 15 167 15 167 16 167 17 168 17 169 17 170 17 170 16 170 15 169 15 168 15" fill="#ff9c83"/><polygon points="367 14 366 14 365 14 365 15 365 16 365 17 366 17 367 17 368 17 368 16 368 15 368 14 367 14" fill="#326efc"/><polygon points="354 14 353 14 353 15 353 16 353 17 354 17 355 17 356 17 356 16 356 15 356 14 355 14 354 14" fill="#326efc"/><polygon points="318 14 317 14 317 15 317 16 318 16 319 16 320 16 320 15 320 14 319 14 318 14" fill="#326efc"/><polygon points="306 14 305 14 305 15 305 16 306 16 307 16 308 16 308 15 308 14 307 14 306 14" fill="#326efc"/><polygon points="270 14 269 14 269 15 270 15 271 15 272 15 272 14 271 14 270 14" fill="#326efc"/><polygon points="258 14 257 14 257 15 258 15 259 15 260 15 260 14 259 14 258 14" fill="#326efc"/><polygon points="126 14 125 14 125 15 126 15 127 15 128 15 128 14 127 14 126 14" fill="#326efc"/><polygon points="114 14 113 14 113 15 114 15 115 15 116 15 116 14 115 14 114 14" fill="#326efc"/><polygon points="78 14 77 14 77 15 77 16 78 16 79 16 80 16 80 15 80 14 79 14 78 14" fill="#326efc"/><polygon points="66 14 65 14 65 15 65 16 66 16 67 16 68 16 68 15 68 14 67 14 66 14" fill="#326efc"/><polygon points="30 14 29 14 29 15 29 16 29 17 30 17 31 17 32 17 32 16 32 15 32 14 31 14 30 14" fill="#326efc"/><polygon points="18 14 17 14 17 15 17 16 17 17 18 17 19 17 20 17 20 16 20 15 20 14 19 14 18 14" fill="#326efc"/><polygon points="364 14 364 15 364 16 364 17 365 17 365 16 365 15 365 14 364 14" fill="#fbf8f6"/><polygon points="352 15 352 16 352 17 353 17 353 16 353 15 353 14 352 14 352 15" fill="#fbf8f6"/><polygon points="316 15 316 16 317 16 317 15 317 14 316 14 316 15" fill="#fbf8f6"/><polygon points="304 15 304 16 305 16 305 15 305 14 304 14 304 15" fill="#fbf8f6"/><rect x="268" y="14" width="1" height="1" fill="#fbf8f6"/><rect x="256" y="14" width="1" height="1" fill="#fbf8f6"/><rect x="124" y="14" width="1" height="1" fill="#fbf8f6"/><rect x="112" y="14" width="1" height="1" fill="#fbf8f6"/><polygon points="76 15 76 16 77 16 77 15 77 14 76 14 76 15" fill="#fbf8f6"/><polygon points="64 15 64 16 65 16 65 15 65 14 64 14 64 15" fill="#fbf8f6"/><polygon points="28 15 28 16 28 17 29 17 29 16 29 15 29 14 28 14 28 15" fill="#fbf8f6"/><polygon points="16 15 16 16 16 17 17 17 17 16 17 15 17 14 16 14 16 15" fill="#fbf8f6"/><polygon points="369 18 368 18 367 18 367 19 368 19 368 20 369 20 370 20 370 19 370 18 369 18" fill="#fdbea0"/><polygon points="351 18 350 18 350 19 351 19 351 20 352 20 353 20 353 19 353 18 352 18 351 18" fill="#fdbea0"/><polygon points="320 18 319 18 319 19 320 19 321 19 322 19 322 18 321 18 320 18" fill="#fdbea0"/><polygon points="303 18 302 18 302 19 303 19 304 19 305 19 305 18 304 18 303 18" fill="#fdbea0"/><polygon points="80 18 79 18 79 19 80 19 81 19 82 19 82 18 81 18 80 18" fill="#fdbea0"/><polygon points="63 18 62 18 62 19 63 19 64 19 65 19 65 18 64 18 63 18" fill="#fdbea0"/><polygon points="32 18 31 18 31 19 32 19 32 20 33 20 34 20 34 19 34 18 33 18 32 18" fill="#fdbea0"/><polygon points="15 18 14 18 14 19 15 19 15 20 16 20 17 20 17 19 17 18 16 18 15 18" fill="#fdbea0"/><polygon points="272 17 271 17 271 18 272 18 273 18 274 18 274 17 273 17 272 17" fill="#fdbea0"/><polygon points="255 17 254 17 254 18 255 18 256 18 257 18 257 17 256 17 255 17" fill="#fdbea0"/><polygon points="128 17 127 17 127 18 128 18 129 18 130 18 130 17 129 17 128 17" fill="#fdbea0"/><polygon points="111 17 110 17 110 18 111 18 112 18 113 18 113 17 112 17 111 17" fill="#fdbea0"/><polygon points="224 16 223 16 223 17 224 17 225 17 226 17 226 16 225 16 224 16" fill="#fdbea0"/><polygon points="207 16 206 16 206 17 207 17 208 17 209 17 209 16 208 16 207 16" fill="#fdbea0"/><polygon points="176 16 175 16 175 17 176 17 177 17 178 17 178 16 177 16 176 16" fill="#fdbea0"/><polygon points="159 16 158 16 158 17 159 17 160 17 161 17 161 16 160 16 159 16" fill="#fdbea0"/><polygon points="223 14 222 14 221 14 220 14 219 14 219 15 220 15 221 15 222 15 223 15 223 14" fill="#fdbea0"/><polygon points="211 14 210 14 209 14 209 15 210 15 211 15 212 15 213 15 213 14 212 14 211 14" fill="#fdbea0"/><polygon points="175 14 174 14 173 14 172 14 171 14 171 15 172 15 173 15 174 15 175 15 175 14" fill="#fdbea0"/><polygon points="163 14 162 14 161 14 161 15 162 15 163 15 164 15 165 15 165 14 164 14 163 14" fill="#fdbea0"/><polygon points="368 14 368 13 368 12 367 12 366 12 365 12 365 13 364 13 364 14 365 14 366 14 367 14 368 14" fill="#fdbea0"/><polygon points="320 14 320 13 320 12 319 12 318 12 317 12 317 13 316 13 316 14 317 14 318 14 319 14 320 14" fill="#fdbea0"/><polygon points="272 14 272 13 272 12 271 12 270 12 269 12 269 13 268 13 268 14 269 14 270 14 271 14 272 14" fill="#fdbea0"/><polygon points="128 14 128 13 128 12 127 12 126 12 125 12 125 13 124 13 124 14 125 14 126 14 127 14 128 14" fill="#fdbea0"/><polygon points="80 14 80 13 80 12 79 12 78 12 77 12 77 13 76 13 76 14 77 14 78 14 79 14 80 14" fill="#fdbea0"/><polygon points="32 14 32 13 32 12 31 12 30 12 29 12 29 13 28 13 28 14 29 14 30 14 31 14 32 14" fill="#fdbea0"/><polygon points="354 12 353 12 353 13 352 13 352 14 353 14 354 14 355 14 356 14 356 13 356 12 355 12 354 12" fill="#fdbea0"/><polygon points="306 12 305 12 305 13 304 13 304 14 305 14 306 14 307 14 308 14 308 13 308 12 307 12 306 12" fill="#fdbea0"/><polygon points="258 12 257 12 257 13 256 13 256 14 257 14 258 14 259 14 260 14 260 13 260 12 259 12 258 12" fill="#fdbea0"/><polygon points="114 12 113 12 113 13 112 13 112 14 113 14 114 14 115 14 116 14 116 13 116 12 115 12 114 12" fill="#fdbea0"/><polygon points="66 12 65 12 65 13 64 13 64 14 65 14 66 14 67 14 68 14 68 13 68 12 67 12 66 12" fill="#fdbea0"/><polygon points="18 12 17 12 17 13 16 13 16 14 17 14 18 14 19 14 20 14 20 13 20 12 19 12 18 12" fill="#fdbea0"/><rect x="205" y="42" width="1" height="1" fill="#fdf4f0"/><rect x="157" y="42" width="1" height="1" fill="#fdf4f0"/><rect x="253" y="41" width="1" height="1" fill="#fdf4f0"/><rect x="109" y="41" width="1" height="1" fill="#fdf4f0"/><rect x="301" y="40" width="1" height="1" fill="#fdf4f0"/><polygon points="279 41 279 42 279 43 279 44 279 45 279 46 280 46 280 45 280 44 280 43 280 42 280 41 280 40 279 40 279 41" fill="#fdf4f0"/><polygon points="205 40 204 40 204 41 204 42 205 42 205 41 205 40" fill="#fdf4f0"/><polygon points="157 40 156 40 156 41 156 42 157 42 157 41 157 40" fill="#fdf4f0"/><rect x="61" y="40" width="1" height="1" fill="#fdf4f0"/><rect x="349" y="39" width="1" height="1" fill="#fdf4f0"/><polygon points="327 40 327 41 327 42 327 43 327 44 327 45 328 45 328 44 328 43 328 42 328 41 328 40 328 39 327 39 327 40" fill="#fdf4f0"/><rect x="278" y="39" width="1" height="1" fill="#fdf4f0"/><polygon points="253 39 252 39 252 40 252 41 253 41 253 40 253 39" fill="#fdf4f0"/><polygon points="231 40 231 41 231 42 231 43 231 44 231 45 232 45 232 44 232 43 232 42 232 41 232 40 232 39 231 39 231 40" fill="#fdf4f0"/><polygon points="109 39 108 39 108 40 108 41 109 41 109 40 109 39" fill="#fdf4f0"/><polygon points="87 40 87 41 87 42 87 43 87 44 87 45 88 45 88 44 88 43 88 42 88 41 88 40 88 39 87 39 87 40" fill="#fdf4f0"/><rect x="13" y="39" width="1" height="1" fill="#fdf4f0"/><polygon points="375 39 375 40 375 41 375 42 375 43 375 44 376 44 376 43 376 42 376 41 376 40 376 39 376 38 375 38 375 39" fill="#fdf4f0"/><rect x="326" y="38" width="1" height="1" fill="#fdf4f0"/><polygon points="301 38 300 38 300 39 300 40 301 40 301 39 301 38" fill="#fdf4f0"/><rect x="230" y="38" width="1" height="1" fill="#fdf4f0"/><polygon points="135 39 135 40 135 41 135 42 135 43 135 44 136 44 136 43 136 42 136 41 136 40 136 39 136 38 135 38 135 39" fill="#fdf4f0"/><rect x="86" y="38" width="1" height="1" fill="#fdf4f0"/><polygon points="61 38 60 38 60 39 60 40 61 40 61 39 61 38" fill="#fdf4f0"/><polygon points="39 39 39 40 39 41 39 42 39 43 39 44 40 44 40 43 40 42 40 41 40 40 40 39 40 38 39 38 39 39" fill="#fdf4f0"/><rect x="374" y="37" width="1" height="1" fill="#fdf4f0"/><polygon points="349 37 348 37 348 38 348 39 349 39 349 38 349 37" fill="#fdf4f0"/><polygon points="183 38 183 39 183 40 183 41 183 42 183 43 184 43 184 42 184 41 184 40 184 39 184 38 184 37 183 37 183 38" fill="#fdf4f0"/><rect x="134" y="37" width="1" height="1" fill="#fdf4f0"/><rect x="38" y="37" width="1" height="1" fill="#fdf4f0"/><polygon points="13 37 12 37 12 38 12 39 13 39 13 38 13 37" fill="#fdf4f0"/><rect x="182" y="36" width="1" height="1" fill="#fdf4f0"/><polygon points="330 32 329 32 329 33 330 33 331 33 331 32 331 31 330 31 330 32" fill="#fdf4f0"/><polygon points="90 32 89 32 89 33 90 33 91 33 91 32 91 31 90 31 90 32" fill="#fdf4f0"/><polygon points="237 31 237 32 237 33 237 34 237 35 237 36 238 36 238 35 238 34 238 33 238 32 238 31 238 30 237 30 237 31" fill="#fdf4f0"/><polygon points="189 31 189 32 189 33 189 34 189 35 189 36 190 36 190 35 190 34 190 33 190 32 190 31 190 30 189 30 189 31" fill="#fdf4f0"/><polygon points="380 29 380 30 380 31 380 32 381 32 381 31 381 30 381 29 380 29" fill="#fdf4f0"/><polygon points="44 30 44 31 44 32 45 32 45 31 45 30 45 29 44 29 44 30" fill="#fdf4f0"/><polygon points="331 29 331 30 331 31 332 31 332 30 332 29 332 28 331 28 331 29" fill="#fdf4f0"/><polygon points="284 29 284 30 284 31 284 32 285 32 285 31 285 30 285 29 285 28 284 28 284 29" fill="#fdf4f0"/><polygon points="237 28 236 28 236 29 236 30 237 30 237 29 237 28" fill="#fdf4f0"/><polygon points="189 28 188 28 188 29 188 30 189 30 189 29 189 28" fill="#fdf4f0"/><polygon points="140 29 140 30 140 31 140 32 141 32 141 31 141 30 141 29 141 28 140 28 140 29" fill="#fdf4f0"/><polygon points="91 29 91 30 91 31 92 31 92 30 92 29 92 28 91 28 91 29" fill="#fdf4f0"/><polygon points="380 27 379 27 379 28 379 29 380 29 380 28 380 27" fill="#fdf4f0"/><rect x="283" y="27" width="1" height="1" fill="#fdf4f0"/><rect x="244" y="27" width="1" height="1" fill="#fdf4f0"/><rect x="235" y="27" width="1" height="1" fill="#fdf4f0"/><rect x="187" y="27" width="1" height="1" fill="#fdf4f0"/><rect x="139" y="27" width="1" height="1" fill="#fdf4f0"/><rect x="100" y="27" width="1" height="1" fill="#fdf4f0"/><polygon points="44 27 43 27 43 28 43 29 44 29 44 28 44 27" fill="#fdf4f0"/><rect x="378" y="26" width="1" height="1" fill="#fdf4f0"/><rect x="341" y="26" width="1" height="1" fill="#fdf4f0"/><polygon points="331 26 330 26 329 26 329 27 330 27 330 28 331 28 331 27 331 26" fill="#fdf4f0"/><polygon points="293 26 293 27 293 28 294 28 294 27 295 27 295 26 294 26 293 26" fill="#fdf4f0"/><rect x="282" y="26" width="1" height="1" fill="#fdf4f0"/><rect x="245" y="26" width="1" height="1" fill="#fdf4f0"/><polygon points="234 26 233 26 233 27 234 27 235 27 235 26 234 26" fill="#fdf4f0"/><polygon points="196 26 196 27 197 27 198 27 198 26 197 26 196 26" fill="#fdf4f0"/><polygon points="186 26 185 26 185 27 186 27 187 27 187 26 186 26" fill="#fdf4f0"/><polygon points="148 26 148 27 149 27 150 27 150 26 149 26 148 26" fill="#fdf4f0"/><rect x="138" y="26" width="1" height="1" fill="#fdf4f0"/><rect x="101" y="26" width="1" height="1" fill="#fdf4f0"/><polygon points="91 26 90 26 89 26 89 27 90 27 90 28 91 28 91 27 91 26" fill="#fdf4f0"/><polygon points="53 26 53 27 53 28 54 28 54 27 55 27 55 26 54 26 53 26" fill="#fdf4f0"/><rect x="42" y="26" width="1" height="1" fill="#fdf4f0"/><rect x="5" y="26" width="1" height="1" fill="#fdf4f0"/><polygon points="377 25 376 25 376 26 377 26 378 26 378 25 377 25" fill="#fdf4f0"/><polygon points="342 25 342 26 343 26 344 26 344 25 343 25 342 25" fill="#fdf4f0"/><rect x="328" y="25" width="1" height="1" fill="#fdf4f0"/><rect x="295" y="25" width="1" height="1" fill="#fdf4f0"/><polygon points="281 25 280 25 280 26 281 26 282 26 282 25 281 25" fill="#fdf4f0"/><polygon points="246 25 246 26 247 26 248 26 248 25 247 25 246 25" fill="#fdf4f0"/><polygon points="232 25 231 25 231 26 232 26 233 26 233 25 232 25" fill="#fdf4f0"/><polygon points="198 25 198 26 199 26 200 26 200 25 199 25 198 25" fill="#fdf4f0"/><polygon points="184 25 183 25 183 26 184 26 185 26 185 25 184 25" fill="#fdf4f0"/><polygon points="150 25 150 26 151 26 152 26 152 25 151 25 150 25" fill="#fdf4f0"/><polygon points="137 25 136 25 136 26 137 26 138 26 138 25 137 25" fill="#fdf4f0"/><polygon points="102 25 102 26 103 26 104 26 104 25 103 25 102 25" fill="#fdf4f0"/><rect x="88" y="25" width="1" height="1" fill="#fdf4f0"/><rect x="55" y="25" width="1" height="1" fill="#fdf4f0"/><polygon points="41 25 40 25 40 26 41 26 42 26 42 25 41 25" fill="#fdf4f0"/><polygon points="6 25 6 26 7 26 8 26 8 25 7 25 6 25" fill="#fdf4f0"/><polygon points="375 24 374 24 374 25 375 25 376 25 376 24 375 24" fill="#fdf4f0"/><rect x="368" y="24" width="1" height="1" fill="#fdf4f0"/><polygon points="344 24 344 25 345 25 346 25 346 24 345 24 344 24" fill="#fdf4f0"/><polygon points="327 24 326 24 326 25 327 25 328 25 328 24 327 24" fill="#fdf4f0"/><rect x="320" y="24" width="1" height="1" fill="#fdf4f0"/><polygon points="296 24 296 25 297 25 298 25 298 24 297 24 296 24" fill="#fdf4f0"/><polygon points="279 24 278 24 278 25 279 25 280 25 280 24 279 24" fill="#fdf4f0"/><rect x="272" y="24" width="1" height="1" fill="#fdf4f0"/><polygon points="248 24 248 25 249 25 250 25 250 24 249 24 248 24" fill="#fdf4f0"/><polygon points="230 24 229 24 229 25 230 25 231 25 231 24 230 24" fill="#fdf4f0"/><rect x="224" y="24" width="1" height="1" fill="#fdf4f0"/><polygon points="200 24 200 25 201 25 202 25 202 24 201 24 200 24" fill="#fdf4f0"/><polygon points="182 24 181 24 181 25 182 25 183 25 183 24 182 24" fill="#fdf4f0"/><rect x="176" y="24" width="1" height="1" fill="#fdf4f0"/><polygon points="152 24 152 25 153 25 154 25 154 24 153 24 152 24" fill="#fdf4f0"/><polygon points="135 24 134 24 134 25 135 25 136 25 136 24 135 24" fill="#fdf4f0"/><rect x="128" y="24" width="1" height="1" fill="#fdf4f0"/><polygon points="104 24 104 25 105 25 106 25 106 24 105 24 104 24" fill="#fdf4f0"/><polygon points="87 24 86 24 86 25 87 25 88 25 88 24 87 24" fill="#fdf4f0"/><rect x="80" y="24" width="1" height="1" fill="#fdf4f0"/><polygon points="56 24 56 25 57 25 58 25 58 24 57 24 56 24" fill="#fdf4f0"/><polygon points="39 24 38 24 38 25 39 25 40 25 40 24 39 24" fill="#fdf4f0"/><rect x="32" y="24" width="1" height="1" fill="#fdf4f0"/><polygon points="8 24 8 25 9 25 10 25 10 24 9 24 8 24" fill="#fdf4f0"/><polygon points="373 23 372 23 371 23 371 24 372 24 373 24 374 24 374 23 373 23" fill="#fdf4f0"/><rect x="369" y="23" width="1" height="1" fill="#fdf4f0"/><polygon points="349 24 349 23 348 23 347 23 346 23 346 24 347 24 348 24 349 24" fill="#fdf4f0"/><polygon points="325 23 324 23 323 23 323 24 324 24 325 24 326 24 326 23 325 23" fill="#fdf4f0"/><rect x="321" y="23" width="1" height="1" fill="#fdf4f0"/><polygon points="301 24 301 23 300 23 299 23 298 23 298 24 299 24 300 24 301 24" fill="#fdf4f0"/><polygon points="277 23 276 23 275 23 275 24 276 24 277 24 278 24 278 23 277 23" fill="#fdf4f0"/><rect x="273" y="23" width="1" height="1" fill="#fdf4f0"/><polygon points="253 24 253 23 252 23 251 23 250 23 250 24 251 24 252 24 253 24" fill="#fdf4f0"/><polygon points="228 23 227 23 227 24 228 24 229 24 229 23 228 23" fill="#fdf4f0"/><rect x="225" y="23" width="1" height="1" fill="#fdf4f0"/><polygon points="205 24 205 23 204 23 203 23 202 23 202 24 203 24 204 24 205 24" fill="#fdf4f0"/><polygon points="180 23 179 23 179 24 180 24 181 24 181 23 180 23" fill="#fdf4f0"/><rect x="177" y="23" width="1" height="1" fill="#fdf4f0"/><polygon points="157 24 157 23 156 23 155 23 154 23 154 24 155 24 156 24 157 24" fill="#fdf4f0"/><polygon points="133 23 132 23 131 23 131 24 132 24 133 24 134 24 134 23 133 23" fill="#fdf4f0"/><rect x="129" y="23" width="1" height="1" fill="#fdf4f0"/><polygon points="109 24 109 23 108 23 107 23 106 23 106 24 107 24 108 24 109 24" fill="#fdf4f0"/><polygon points="85 23 84 23 83 23 83 24 84 24 85 24 86 24 86 23 85 23" fill="#fdf4f0"/><rect x="81" y="23" width="1" height="1" fill="#fdf4f0"/><polygon points="61 24 61 23 60 23 59 23 58 23 58 24 59 24 60 24 61 24" fill="#fdf4f0"/><polygon points="37 23 36 23 35 23 35 24 36 24 37 24 38 24 38 23 37 23" fill="#fdf4f0"/><rect x="33" y="23" width="1" height="1" fill="#fdf4f0"/><polygon points="13 24 13 23 12 23 11 23 10 23 10 24 11 24 12 24 13 24" fill="#fdf4f0"/><rect x="370" y="22" width="1" height="1" fill="#fdf4f0"/><rect x="322" y="22" width="1" height="1" fill="#fdf4f0"/><rect x="274" y="22" width="1" height="1" fill="#fdf4f0"/><rect x="226" y="22" width="1" height="1" fill="#fdf4f0"/><rect x="178" y="22" width="1" height="1" fill="#fdf4f0"/><rect x="130" y="22" width="1" height="1" fill="#fdf4f0"/><rect x="82" y="22" width="1" height="1" fill="#fdf4f0"/><rect x="34" y="22" width="1" height="1" fill="#fdf4f0"/><polygon points="372 21 372 20 371 20 371 21 371 22 372 22 372 21" fill="#fdf4f0"/><polygon points="324 21 324 20 323 20 323 21 323 22 324 22 324 21" fill="#fdf4f0"/><polygon points="276 21 276 20 275 20 275 21 275 22 276 22 276 21" fill="#fdf4f0"/><polygon points="228 21 228 20 227 20 227 21 227 22 228 22 228 21" fill="#fdf4f0"/><polygon points="180 21 180 20 179 20 179 21 179 22 180 22 180 21" fill="#fdf4f0"/><polygon points="132 21 132 20 131 20 131 21 131 22 132 22 132 21" fill="#fdf4f0"/><polygon points="84 21 84 20 83 20 83 21 83 22 84 22 84 21" fill="#fdf4f0"/><polygon points="36 21 36 20 35 20 35 21 35 22 36 22 36 21" fill="#fdf4f0"/><polygon points="372 14 373 14 373 15 373 16 373 17 373 18 373 19 374 19 374 18 374 17 374 16 374 15 374 14 374 13 373 13 372 13 372 14" fill="#fdf4f0"/><polygon points="324 14 325 14 325 15 325 16 325 17 325 18 325 19 326 19 326 18 326 17 326 16 326 15 326 14 326 13 325 13 324 13 324 14" fill="#fdf4f0"/><polygon points="276 14 277 14 277 15 277 16 277 17 277 18 277 19 278 19 278 18 278 17 278 16 278 15 278 14 278 13 277 13 276 13 276 14" fill="#fdf4f0"/><polygon points="228 14 229 14 229 15 229 16 229 17 229 18 229 19 230 19 230 18 230 17 230 16 230 15 230 14 230 13 229 13 228 13 228 14" fill="#fdf4f0"/><polygon points="180 14 181 14 181 15 181 16 181 17 181 18 181 19 182 19 182 18 182 17 182 16 182 15 182 14 182 13 181 13 180 13 180 14" fill="#fdf4f0"/><polygon points="132 14 133 14 133 15 133 16 133 17 133 18 133 19 134 19 134 18 134 17 134 16 134 15 134 14 134 13 133 13 132 13 132 14" fill="#fdf4f0"/><polygon points="84 14 85 14 85 15 85 16 85 17 85 18 85 19 86 19 86 18 86 17 86 16 86 15 86 14 86 13 85 13 84 13 84 14" fill="#fdf4f0"/><polygon points="36 14 37 14 37 15 37 16 37 17 37 18 37 19 38 19 38 18 38 17 38 16 38 15 38 14 38 13 37 13 36 13 36 14" fill="#fdf4f0"/><rect x="371" y="10" width="1" height="1" fill="#fdf4f0"/><rect x="323" y="10" width="1" height="1" fill="#fdf4f0"/><rect x="275" y="10" width="1" height="1" fill="#fdf4f0"/><rect x="227" y="10" width="1" height="1" fill="#fdf4f0"/><rect x="179" y="10" width="1" height="1" fill="#fdf4f0"/><rect x="131" y="10" width="1" height="1" fill="#fdf4f0"/><rect x="83" y="10" width="1" height="1" fill="#fdf4f0"/><rect x="35" y="10" width="1" height="1" fill="#fdf4f0"/><polygon points="370 10 371 10 371 9 371 8 370 8 370 9 370 10" fill="#fdf4f0"/><polygon points="322 10 323 10 323 9 323 8 322 8 322 9 322 10" fill="#fdf4f0"/><polygon points="274 10 275 10 275 9 275 8 274 8 274 9 274 10" fill="#fdf4f0"/><polygon points="226 10 227 10 227 9 227 8 226 8 226 9 226 10" fill="#fdf4f0"/><polygon points="178 10 179 10 179 9 179 8 178 8 178 9 178 10" fill="#fdf4f0"/><polygon points="130 10 131 10 131 9 131 8 130 8 130 9 130 10" fill="#fdf4f0"/><polygon points="82 10 83 10 83 9 83 8 82 8 82 9 82 10" fill="#fdf4f0"/><polygon points="34 10 35 10 35 9 35 8 34 8 34 9 34 10" fill="#fdf4f0"/><rect x="369" y="7" width="1" height="1" fill="#fdf4f0"/><rect x="321" y="7" width="1" height="1" fill="#fdf4f0"/><rect x="273" y="7" width="1" height="1" fill="#fdf4f0"/><rect x="225" y="7" width="1" height="1" fill="#fdf4f0"/><rect x="177" y="7" width="1" height="1" fill="#fdf4f0"/><rect x="129" y="7" width="1" height="1" fill="#fdf4f0"/><rect x="81" y="7" width="1" height="1" fill="#fdf4f0"/><rect x="33" y="7" width="1" height="1" fill="#fdf4f0"/><polygon points="369 7 369 6 368 6 367 6 367 7 368 7 369 7" fill="#fdf4f0"/><polygon points="321 7 321 6 320 6 319 6 319 7 320 7 321 7" fill="#fdf4f0"/><polygon points="273 7 273 6 272 6 271 6 271 7 272 7 273 7" fill="#fdf4f0"/><polygon points="225 7 225 6 224 6 223 6 223 7 224 7 225 7" fill="#fdf4f0"/><polygon points="177 7 177 6 176 6 175 6 175 7 176 7 177 7" fill="#fdf4f0"/><polygon points="129 7 129 6 128 6 127 6 127 7 128 7 129 7" fill="#fdf4f0"/><polygon points="81 7 81 6 80 6 79 6 79 7 80 7 81 7" fill="#fdf4f0"/><polygon points="33 7 33 6 32 6 31 6 31 7 32 7 33 7" fill="#fdf4f0"/><rect x="226" y="45" width="1" height="1" fill="#eeb19f"/><rect x="130" y="44" width="1" height="1" fill="#eeb19f"/><rect x="178" y="43" width="1" height="1" fill="#eeb19f"/><polygon points="206 43 206 44 207 44 207 43 207 42 206 42 206 43" fill="#eeb19f"/><polygon points="158 43 158 44 159 44 159 43 159 42 158 42 158 43" fill="#eeb19f"/><polygon points="273 42 273 43 274 43 274 42 274 41 273 41 273 42" fill="#eeb19f"/><polygon points="254 42 254 43 255 43 255 42 255 41 254 41 254 42" fill="#eeb19f"/><polygon points="110 42 110 43 110 44 111 44 111 43 111 42 111 41 110 41 110 42" fill="#eeb19f"/><polygon points="225 41 225 42 225 43 225 44 225 45 226 45 226 44 226 43 226 42 226 41 226 40 225 40 225 41" fill="#eeb19f"/><polygon points="206 40 205 40 205 41 205 42 206 42 206 41 206 40" fill="#eeb19f"/><polygon points="158 40 157 40 157 41 157 42 158 42 158 41 158 40" fill="#eeb19f"/><polygon points="369 40 369 41 369 42 369 43 370 43 370 42 370 41 370 40 370 39 369 39 369 40" fill="#eeb19f"/><polygon points="350 40 350 41 350 42 350 43 351 43 351 42 351 41 351 40 351 39 350 39 350 40" fill="#eeb19f"/><polygon points="274 40 274 41 275 41 275 40 275 39 274 39 274 40" fill="#eeb19f"/><polygon points="254 39 253 39 253 40 253 41 254 41 254 40 254 39" fill="#eeb19f"/><polygon points="204 39 203 39 202 39 202 40 203 40 204 40 205 40 205 39 204 39" fill="#eeb19f"/><polygon points="156 39 155 39 154 39 154 40 155 40 156 40 157 40 157 39 156 39" fill="#eeb19f"/><polygon points="129 40 129 41 129 42 129 43 129 44 130 44 130 43 130 42 130 41 130 40 130 39 129 39 129 40" fill="#eeb19f"/><polygon points="110 39 109 39 109 40 109 41 110 41 110 40 110 39" fill="#eeb19f"/><polygon points="33 40 33 41 33 42 33 43 34 43 34 42 34 41 34 40 34 39 33 39 33 40" fill="#eeb19f"/><polygon points="14 40 14 41 14 42 14 43 15 43 15 42 15 41 15 40 15 39 14 39 14 40" fill="#eeb19f"/><polygon points="322 39 321 39 321 40 321 41 321 42 321 43 322 43 322 42 322 41 322 40 323 40 323 39 323 38 322 38 322 39" fill="#eeb19f"/><polygon points="302 38 301 38 301 39 301 40 302 40 302 41 302 42 302 43 303 43 303 42 303 41 303 40 303 39 302 39 302 38" fill="#eeb19f"/><polygon points="276 38 275 38 275 39 276 39 277 39 278 39 278 38 277 38 276 38" fill="#eeb19f"/><polygon points="252 38 251 38 250 38 250 39 251 39 252 39 253 39 253 38 252 38" fill="#eeb19f"/><polygon points="226 39 226 40 227 40 227 39 227 38 226 38 226 39" fill="#eeb19f"/><polygon points="177 39 177 40 177 41 177 42 177 43 178 43 178 42 178 41 178 40 178 39 178 38 177 38 177 39" fill="#eeb19f"/><polygon points="108 38 107 38 106 38 106 39 107 39 108 39 109 39 109 38 108 38" fill="#eeb19f"/><polygon points="82 39 81 39 81 40 81 41 81 42 81 43 81 44 82 44 82 43 82 42 82 41 82 40 83 40 83 39 83 38 82 38 82 39" fill="#eeb19f"/><polygon points="62 38 61 38 61 39 61 40 62 40 62 41 62 42 62 43 62 44 63 44 63 43 63 42 63 41 63 40 63 39 62 39 62 38" fill="#eeb19f"/><polygon points="370 38 370 39 371 39 371 38 371 37 370 37 370 38" fill="#eeb19f"/><polygon points="350 37 349 37 349 38 349 39 350 39 350 38 350 37" fill="#eeb19f"/><polygon points="324 37 323 37 323 38 324 38 325 38 326 38 326 37 325 37 324 37" fill="#eeb19f"/><polygon points="300 37 299 37 298 37 298 38 299 38 300 38 301 38 301 37 300 37" fill="#eeb19f"/><polygon points="234 37 233 37 232 37 232 38 233 38 234 38 235 38 236 38 236 37 235 37 234 37" fill="#eeb19f"/><polygon points="228 37 227 37 227 38 228 38 229 38 230 38 230 37 229 37 228 37" fill="#eeb19f"/><polygon points="197 37 196 37 195 37 195 38 196 38 197 38 198 38 199 38 199 37 198 37 197 37" fill="#eeb19f"/><polygon points="186 37 185 37 184 37 184 38 185 38 186 38 187 38 188 38 188 37 187 37 186 37" fill="#eeb19f"/><polygon points="149 37 148 37 147 37 147 38 148 38 149 38 150 38 151 38 151 37 150 37 149 37" fill="#eeb19f"/><polygon points="130 38 130 39 131 39 131 38 131 37 130 37 130 38" fill="#eeb19f"/><polygon points="84 37 83 37 83 38 84 38 85 38 86 38 86 37 85 37 84 37" fill="#eeb19f"/><polygon points="60 37 59 37 58 37 58 38 59 38 60 38 61 38 61 37 60 37" fill="#eeb19f"/><polygon points="34 38 34 39 35 39 35 38 35 37 34 37 34 38" fill="#eeb19f"/><polygon points="14 37 13 37 13 38 13 39 14 39 14 38 14 37" fill="#eeb19f"/><polygon points="372 36 371 36 371 37 372 37 373 37 374 37 374 36 373 36 372 36" fill="#eeb19f"/><polygon points="348 36 347 36 346 36 346 37 347 37 348 37 349 37 349 36 348 36" fill="#eeb19f"/><rect x="236" y="36" width="1" height="1" fill="#eeb19f"/><rect x="194" y="36" width="1" height="1" fill="#eeb19f"/><rect x="188" y="36" width="1" height="1" fill="#eeb19f"/><polygon points="178 37 178 38 179 38 179 37 179 36 178 36 178 37" fill="#eeb19f"/><rect x="146" y="36" width="1" height="1" fill="#eeb19f"/><polygon points="36 36 35 36 35 37 36 37 37 37 38 37 38 36 37 36 36 36" fill="#eeb19f"/><polygon points="12 36 11 36 10 36 10 37 11 37 12 37 13 37 13 36 12 36" fill="#eeb19f"/><polygon points="279 35 278 35 277 35 277 36 278 36 279 36 280 36 281 36 281 35 280 35 279 35" fill="#eeb19f"/><polygon points="251 36 251 35 250 35 249 35 248 35 247 35 247 36 248 36 249 36 250 36 251 36" fill="#eeb19f"/><polygon points="232 35 232 34 232 33 231 33 231 34 231 35 231 36 231 37 232 37 232 36 232 35" fill="#eeb19f"/><polygon points="184 35 184 34 184 33 183 33 183 34 183 35 183 36 183 37 184 37 184 36 184 35" fill="#eeb19f"/><polygon points="180 35 179 35 179 36 180 36 181 36 182 36 182 35 181 35 180 35" fill="#eeb19f"/><polygon points="135 35 134 35 133 35 133 34 133 33 133 32 132 32 132 33 132 34 132 35 132 36 131 36 131 37 132 37 133 37 134 37 134 36 135 36 136 36 137 36 137 35 136 35 135 35" fill="#eeb19f"/><polygon points="107 36 107 35 106 35 105 35 104 35 103 35 103 36 104 36 105 36 106 36 107 36" fill="#eeb19f"/><polygon points="326 34 325 34 324 34 323 34 323 35 324 35 325 35 326 35 327 35 328 35 328 34 327 34 326 34" fill="#eeb19f"/><polygon points="299 35 300 35 301 35 301 34 300 34 299 34 298 34 297 34 296 34 296 35 297 35 298 35 299 35" fill="#eeb19f"/><rect x="281" y="34" width="1" height="1" fill="#eeb19f"/><polygon points="252 34 252 33 252 32 251 32 251 33 251 34 251 35 252 35 252 34" fill="#eeb19f"/><rect x="246" y="34" width="1" height="1" fill="#eeb19f"/><polygon points="194 34 194 33 194 32 194 31 194 30 193 30 193 31 193 32 193 33 193 34 193 35 193 36 194 36 194 35 194 34" fill="#eeb19f"/><polygon points="146 34 146 33 146 32 146 31 146 30 145 30 145 31 145 32 145 33 145 34 145 35 145 36 146 36 146 35 146 34" fill="#eeb19f"/><rect x="137" y="34" width="1" height="1" fill="#eeb19f"/><polygon points="108 34 108 33 108 32 107 32 107 33 107 34 107 35 108 35 108 34" fill="#eeb19f"/><rect x="102" y="34" width="1" height="1" fill="#eeb19f"/><polygon points="86 34 85 34 84 34 83 34 83 35 84 35 85 35 86 35 87 35 88 35 88 34 87 34 86 34" fill="#eeb19f"/><polygon points="59 35 60 35 61 35 61 34 60 34 59 34 58 34 57 34 56 34 56 35 57 35 58 35 59 35" fill="#eeb19f"/><polygon points="377 33 376 33 375 33 374 33 373 33 373 34 374 34 375 34 376 34 377 34 378 34 379 34 379 33 378 33 377 33" fill="#eeb19f"/><polygon points="369 33 368 33 367 33 366 33 365 33 364 33 363 33 362 33 361 33 361 34 362 34 363 34 364 34 365 34 366 34 367 34 368 34 369 34 369 33" fill="#eeb19f"/><polygon points="356 33 355 33 354 33 353 33 352 33 351 33 351 34 352 34 353 34 354 34 355 34 356 34 357 34 358 34 358 33 357 33 356 33" fill="#eeb19f"/><polygon points="347 34 347 33 346 33 345 33 344 33 343 33 342 33 341 33 341 34 342 34 343 34 344 34 345 34 346 34 347 34" fill="#eeb19f"/><rect x="328" y="33" width="1" height="1" fill="#eeb19f"/><polygon points="321 33 320 33 319 33 318 33 317 33 316 33 315 33 314 33 313 33 313 34 314 34 315 34 316 34 317 34 318 34 319 34 320 34 321 34 321 33" fill="#eeb19f"/><polygon points="308 33 307 33 306 33 305 33 304 33 303 33 303 34 304 34 305 34 306 34 307 34 308 34 309 34 310 34 310 33 309 33 308 33" fill="#eeb19f"/><polygon points="302 33 302 32 302 31 301 31 301 32 301 33 301 34 302 34 302 33" fill="#eeb19f"/><rect x="295" y="33" width="1" height="1" fill="#eeb19f"/><rect x="282" y="33" width="1" height="1" fill="#eeb19f"/><polygon points="277 33 277 32 276 32 276 33 276 34 276 35 277 35 277 34 277 33" fill="#eeb19f"/><polygon points="273 33 272 33 271 33 270 33 269 33 268 33 267 33 266 33 265 33 265 34 266 34 267 34 268 34 269 34 270 34 271 34 272 34 273 34 273 33" fill="#eeb19f"/><polygon points="260 33 259 33 258 33 257 33 256 33 255 33 255 34 256 34 257 34 258 34 259 34 260 34 261 34 262 34 262 33 261 33 260 33" fill="#eeb19f"/><rect x="245" y="33" width="1" height="1" fill="#eeb19f"/><rect x="229" y="33" width="1" height="1" fill="#eeb19f"/><polygon points="225 33 224 33 223 33 222 33 221 33 220 33 219 33 218 33 217 33 217 34 218 34 219 34 220 34 221 34 222 34 223 34 224 34 225 34 225 33" fill="#eeb19f"/><polygon points="212 33 211 33 210 33 209 33 208 33 207 33 207 34 208 34 209 34 210 34 211 34 212 34 213 34 214 34 214 33 213 33 212 33" fill="#eeb19f"/><rect x="201" y="33" width="1" height="1" fill="#eeb19f"/><polygon points="199 34 199 35 199 36 199 37 200 37 200 36 200 35 200 34 200 33 199 33 199 34" fill="#eeb19f"/><rect x="181" y="33" width="1" height="1" fill="#eeb19f"/><polygon points="177 33 176 33 175 33 174 33 173 33 172 33 171 33 170 33 169 33 169 34 170 34 171 34 172 34 173 34 174 34 175 34 176 34 177 34 177 33" fill="#eeb19f"/><polygon points="164 33 163 33 162 33 161 33 160 33 159 33 159 34 160 34 161 34 162 34 163 34 164 34 165 34 166 34 166 33 165 33 164 33" fill="#eeb19f"/><rect x="153" y="33" width="1" height="1" fill="#eeb19f"/><polygon points="151 34 151 35 151 36 151 37 152 37 152 36 152 35 152 34 152 33 151 33 151 34" fill="#eeb19f"/><rect x="138" y="33" width="1" height="1" fill="#eeb19f"/><polygon points="129 33 128 33 127 33 126 33 125 33 124 33 123 33 122 33 121 33 121 34 122 34 123 34 124 34 125 34 126 34 127 34 128 34 129 34 129 33" fill="#eeb19f"/><polygon points="116 33 115 33 114 33 113 33 112 33 111 33 111 34 112 34 113 34 114 34 115 34 116 34 117 34 118 34 118 33 117 33 116 33" fill="#eeb19f"/><rect x="101" y="33" width="1" height="1" fill="#eeb19f"/><rect x="88" y="33" width="1" height="1" fill="#eeb19f"/><polygon points="81 33 80 33 79 33 78 33 77 33 76 33 75 33 74 33 73 33 73 34 74 34 75 34 76 34 77 34 78 34 79 34 80 34 81 34 81 33" fill="#eeb19f"/><polygon points="68 33 67 33 66 33 65 33 64 33 63 33 63 34 64 34 65 34 66 34 67 34 68 34 69 34 70 34 70 33 69 33 68 33" fill="#eeb19f"/><polygon points="62 33 62 32 62 31 61 31 61 32 61 33 61 34 62 34 62 33" fill="#eeb19f"/><rect x="55" y="33" width="1" height="1" fill="#eeb19f"/><polygon points="41 33 40 33 39 33 38 33 37 33 37 34 38 34 39 34 40 34 41 34 42 34 43 34 43 33 42 33 41 33" fill="#eeb19f"/><polygon points="33 33 32 33 31 33 30 33 29 33 28 33 27 33 26 33 25 33 25 34 26 34 27 34 28 34 29 34 30 34 31 34 32 34 33 34 33 33" fill="#eeb19f"/><polygon points="20 33 19 33 18 33 17 33 16 33 15 33 15 34 16 34 17 34 18 34 19 34 20 34 21 34 22 34 22 33 21 33 20 33" fill="#eeb19f"/><polygon points="11 34 11 33 10 33 9 33 8 33 7 33 6 33 5 33 5 34 6 34 7 34 8 34 9 34 10 34 11 34" fill="#eeb19f"/><rect x="379" y="32" width="1" height="1" fill="#eeb19f"/><polygon points="348 32 348 31 348 30 347 30 347 31 347 32 347 33 348 33 348 32" fill="#eeb19f"/><rect x="340" y="32" width="1" height="1" fill="#eeb19f"/><polygon points="323 32 323 31 322 31 322 32 322 33 322 34 323 34 323 33 323 32" fill="#eeb19f"/><polygon points="294 32 294 31 293 31 293 32 293 33 294 33 295 33 295 32 294 32" fill="#eeb19f"/><rect x="283" y="32" width="1" height="1" fill="#eeb19f"/><rect x="244" y="32" width="1" height="1" fill="#eeb19f"/><polygon points="234 33 234 32 233 32 232 32 232 33 233 33 234 33" fill="#eeb19f"/><rect x="230" y="32" width="1" height="1" fill="#eeb19f"/><rect x="200" y="32" width="1" height="1" fill="#eeb19f"/><polygon points="198 32 197 32 197 33 198 33 199 33 199 32 198 32" fill="#eeb19f"/><polygon points="186 33 186 32 185 32 184 32 184 33 185 33 186 33" fill="#eeb19f"/><rect x="182" y="32" width="1" height="1" fill="#eeb19f"/><rect x="152" y="32" width="1" height="1" fill="#eeb19f"/><polygon points="150 32 149 32 149 33 150 33 151 33 151 32 150 32" fill="#eeb19f"/><rect x="139" y="32" width="1" height="1" fill="#eeb19f"/><rect x="100" y="32" width="1" height="1" fill="#eeb19f"/><polygon points="83 32 83 31 82 31 82 32 82 33 82 34 83 34 83 33 83 32" fill="#eeb19f"/><polygon points="54 32 54 31 53 31 53 32 53 33 54 33 55 33 55 32 54 32" fill="#eeb19f"/><rect x="43" y="32" width="1" height="1" fill="#eeb19f"/><polygon points="12 32 12 31 12 30 11 30 11 31 11 32 11 33 12 33 12 32" fill="#eeb19f"/><rect x="4" y="32" width="1" height="1" fill="#eeb19f"/><polygon points="373 31 373 30 372 30 372 31 372 32 372 33 373 33 373 32 373 31" fill="#eeb19f"/><rect x="277" y="31" width="1" height="1" fill="#eeb19f"/><rect x="250" y="31" width="1" height="1" fill="#eeb19f"/><rect x="133" y="31" width="1" height="1" fill="#eeb19f"/><rect x="106" y="31" width="1" height="1" fill="#eeb19f"/><polygon points="37 31 37 30 36 30 36 31 36 32 36 33 37 33 37 32 37 31" fill="#eeb19f"/><polygon points="340 30 340 29 339 29 339 30 339 31 339 32 340 32 340 31 340 30" fill="#eeb19f"/><polygon points="325 31 325 30 324 30 323 30 323 31 324 31 325 31" fill="#eeb19f"/><polygon points="300 30 299 30 299 31 300 31 301 31 301 30 300 30" fill="#eeb19f"/><rect x="278" y="30" width="1" height="1" fill="#eeb19f"/><rect x="249" y="30" width="1" height="1" fill="#eeb19f"/><polygon points="244 30 244 29 244 28 243 28 243 29 243 30 243 31 243 32 244 32 244 31 244 30" fill="#eeb19f"/><rect x="134" y="30" width="1" height="1" fill="#eeb19f"/><rect x="105" y="30" width="1" height="1" fill="#eeb19f"/><polygon points="100 30 100 29 100 28 99 28 99 29 99 30 99 31 99 32 100 32 100 31 100 30" fill="#eeb19f"/><polygon points="85 31 85 30 84 30 83 30 83 31 84 31 85 31" fill="#eeb19f"/><polygon points="60 30 59 30 59 31 60 31 61 31 61 30 60 30" fill="#eeb19f"/><polygon points="4 30 4 29 3 29 3 30 3 31 3 32 4 32 4 31 4 30" fill="#eeb19f"/><polygon points="375 30 375 29 374 29 373 29 373 30 374 30 375 30" fill="#eeb19f"/><polygon points="359 30 359 31 359 32 360 32 360 31 360 30 360 29 359 29 359 30" fill="#eeb19f"/><polygon points="346 29 345 29 345 30 346 30 347 30 347 29 346 29" fill="#eeb19f"/><polygon points="326 29 326 28 325 28 325 29 325 30 326 30 326 29" fill="#eeb19f"/><polygon points="311 30 311 31 311 32 312 32 312 31 312 30 312 29 311 29 311 30" fill="#eeb19f"/><polygon points="293 29 293 28 292 28 292 29 292 30 292 31 293 31 293 30 293 29" fill="#eeb19f"/><polygon points="280 29 280 28 279 28 279 29 279 30 280 30 280 29" fill="#eeb19f"/><polygon points="263 30 263 31 263 32 264 32 264 31 264 30 264 29 263 29 263 30" fill="#eeb19f"/><polygon points="215 30 215 31 215 32 216 32 216 31 216 30 216 29 215 29 215 30" fill="#eeb19f"/><polygon points="195 29 195 28 194 28 194 29 194 30 195 30 195 29" fill="#eeb19f"/><polygon points="167 30 167 31 167 32 168 32 168 31 168 30 168 29 167 29 167 30" fill="#eeb19f"/><polygon points="147 29 147 28 146 28 146 29 146 30 147 30 147 29" fill="#eeb19f"/><polygon points="136 29 136 28 135 28 135 29 135 30 136 30 136 29" fill="#eeb19f"/><polygon points="119 30 119 31 119 32 120 32 120 31 120 30 120 29 119 29 119 30" fill="#eeb19f"/><polygon points="86 29 86 28 85 28 85 29 85 30 86 30 86 29" fill="#eeb19f"/><polygon points="71 30 71 31 71 32 72 32 72 31 72 30 72 29 71 29 71 30" fill="#eeb19f"/><polygon points="53 29 53 28 52 28 52 29 52 30 52 31 53 31 53 30 53 29" fill="#eeb19f"/><polygon points="39 30 39 29 38 29 37 29 37 30 38 30 39 30" fill="#eeb19f"/><polygon points="23 30 23 31 23 32 24 32 24 31 24 30 24 29 23 29 23 30" fill="#eeb19f"/><polygon points="10 29 9 29 9 30 10 30 11 30 11 29 10 29" fill="#eeb19f"/><rect x="375" y="28" width="1" height="1" fill="#eeb19f"/><rect x="344" y="28" width="1" height="1" fill="#eeb19f"/><polygon points="341 28 341 27 340 27 340 28 340 29 341 29 341 28" fill="#eeb19f"/><polygon points="299 28 298 28 298 29 298 30 299 30 299 29 299 28" fill="#eeb19f"/><polygon points="249 28 248 28 248 29 248 30 249 30 249 29 249 28" fill="#eeb19f"/><polygon points="105 28 104 28 104 29 104 30 105 30 105 29 105 28" fill="#eeb19f"/><polygon points="59 28 58 28 58 29 58 30 59 30 59 29 59 28" fill="#eeb19f"/><rect x="39" y="28" width="1" height="1" fill="#eeb19f"/><rect x="8" y="28" width="1" height="1" fill="#eeb19f"/><polygon points="5 28 5 27 4 27 4 28 4 29 5 29 5 28" fill="#eeb19f"/><polygon points="362 28 363 28 363 27 362 27 361 27 360 27 359 27 358 27 357 27 356 27 356 28 357 28 358 28 359 28 360 28 361 28 362 28" fill="#eeb19f"/><polygon points="314 28 315 28 315 27 314 27 313 27 312 27 311 27 310 27 309 27 308 27 308 28 309 28 310 28 311 28 312 28 313 28 314 28" fill="#eeb19f"/><polygon points="266 28 267 28 267 27 266 27 265 27 264 27 263 27 262 27 261 27 260 27 260 28 261 28 262 28 263 28 264 28 265 28 266 28" fill="#eeb19f"/><polygon points="218 28 219 28 219 27 218 27 217 27 216 27 215 27 214 27 213 27 212 27 212 28 213 28 214 28 215 28 216 28 217 28 218 28" fill="#eeb19f"/><rect x="195" y="27" width="1" height="1" fill="#eeb19f"/><polygon points="170 28 171 28 171 27 170 27 169 27 168 27 167 27 166 27 165 27 164 27 164 28 165 28 166 28 167 28 168 28 169 28 170 28" fill="#eeb19f"/><rect x="147" y="27" width="1" height="1" fill="#eeb19f"/><polygon points="122 28 123 28 123 27 122 27 121 27 120 27 119 27 118 27 117 27 116 27 116 28 117 28 118 28 119 28 120 28 121 28 122 28" fill="#eeb19f"/><polygon points="74 28 75 28 75 27 74 27 73 27 72 27 71 27 70 27 69 27 68 27 68 28 69 28 70 28 71 28 72 28 73 28 74 28" fill="#eeb19f"/><polygon points="26 28 27 28 27 27 26 27 25 27 24 27 23 27 22 27 21 27 20 27 20 28 21 28 22 28 23 28 24 28 25 28 26 28" fill="#eeb19f"/><polygon points="365 27 366 27 367 27 367 26 366 26 365 26 364 26 363 26 363 27 364 27 365 27" fill="#eeb19f"/><polygon points="355 26 354 26 353 26 353 27 354 27 355 27 356 27 356 26 355 26" fill="#eeb19f"/><polygon points="317 27 318 27 319 27 319 26 318 26 317 26 316 26 315 26 315 27 316 27 317 27" fill="#eeb19f"/><polygon points="307 26 306 26 305 26 305 27 306 27 307 27 308 27 308 26 307 26" fill="#eeb19f"/><polygon points="269 27 270 27 271 27 271 26 270 26 269 26 268 26 267 26 267 27 268 27 269 27" fill="#eeb19f"/><polygon points="259 26 258 26 257 26 257 27 258 27 259 27 260 27 260 26 259 26" fill="#eeb19f"/><polygon points="221 27 222 27 223 27 223 26 222 26 221 26 220 26 219 26 219 27 220 27 221 27" fill="#eeb19f"/><polygon points="211 26 210 26 209 26 209 27 210 27 211 27 212 27 212 26 211 26" fill="#eeb19f"/><polygon points="173 27 174 27 175 27 175 26 174 26 173 26 172 26 171 26 171 27 172 27 173 27" fill="#eeb19f"/><polygon points="163 26 162 26 161 26 161 27 162 27 163 27 164 27 164 26 163 26" fill="#eeb19f"/><polygon points="125 27 126 27 127 27 127 26 126 26 125 26 124 26 123 26 123 27 124 27 125 27" fill="#eeb19f"/><polygon points="115 26 114 26 113 26 113 27 114 27 115 27 116 27 116 26 115 26" fill="#eeb19f"/><polygon points="77 27 78 27 79 27 79 26 78 26 77 26 76 26 75 26 75 27 76 27 77 27" fill="#eeb19f"/><polygon points="67 26 66 26 65 26 65 27 66 27 67 27 68 27 68 26 67 26" fill="#eeb19f"/><polygon points="29 27 30 27 31 27 31 26 30 26 29 26 28 26 27 26 27 27 28 27 29 27" fill="#eeb19f"/><polygon points="19 26 18 26 17 26 17 27 18 27 19 27 20 27 20 26 19 26" fill="#eeb19f"/><polygon points="369 26 369 25 368 25 367 25 367 26 368 26 369 26" fill="#eeb19f"/><polygon points="352 25 351 25 351 26 352 26 353 26 353 25 352 25" fill="#eeb19f"/><polygon points="321 26 321 25 320 25 319 25 319 26 320 26 321 26" fill="#eeb19f"/><polygon points="304 25 303 25 303 26 304 26 305 26 305 25 304 25" fill="#eeb19f"/><polygon points="273 26 273 25 272 25 271 25 271 26 272 26 273 26" fill="#eeb19f"/><polygon points="256 25 255 25 255 26 256 26 257 26 257 25 256 25" fill="#eeb19f"/><polygon points="225 26 225 25 224 25 223 25 223 26 224 26 225 26" fill="#eeb19f"/><polygon points="208 25 207 25 207 26 208 26 209 26 209 25 208 25" fill="#eeb19f"/><polygon points="177 26 177 25 176 25 175 25 175 26 176 26 177 26" fill="#eeb19f"/><polygon points="160 25 159 25 159 26 160 26 161 26 161 25 160 25" fill="#eeb19f"/><polygon points="129 26 129 25 128 25 127 25 127 26 128 26 129 26" fill="#eeb19f"/><polygon points="112 25 111 25 111 26 112 26 113 26 113 25 112 25" fill="#eeb19f"/><polygon points="81 26 81 25 80 25 79 25 79 26 80 26 81 26" fill="#eeb19f"/><polygon points="64 25 63 25 63 26 64 26 65 26 65 25 64 25" fill="#eeb19f"/><polygon points="33 26 33 25 32 25 31 25 31 26 32 26 33 26" fill="#eeb19f"/><polygon points="16 25 15 25 15 26 16 26 17 26 17 25 16 25" fill="#eeb19f"/><rect x="369" y="24" width="1" height="1" fill="#eeb19f"/><rect x="350" y="24" width="1" height="1" fill="#eeb19f"/><rect x="321" y="24" width="1" height="1" fill="#eeb19f"/><rect x="302" y="24" width="1" height="1" fill="#eeb19f"/><rect x="273" y="24" width="1" height="1" fill="#eeb19f"/><rect x="254" y="24" width="1" height="1" fill="#eeb19f"/><rect x="225" y="24" width="1" height="1" fill="#eeb19f"/><rect x="206" y="24" width="1" height="1" fill="#eeb19f"/><rect x="177" y="24" width="1" height="1" fill="#eeb19f"/><rect x="158" y="24" width="1" height="1" fill="#eeb19f"/><rect x="129" y="24" width="1" height="1" fill="#eeb19f"/><rect x="110" y="24" width="1" height="1" fill="#eeb19f"/><rect x="81" y="24" width="1" height="1" fill="#eeb19f"/><rect x="62" y="24" width="1" height="1" fill="#eeb19f"/><rect x="33" y="24" width="1" height="1" fill="#eeb19f"/><rect x="14" y="24" width="1" height="1" fill="#eeb19f"/><rect x="370" y="23" width="1" height="1" fill="#eeb19f"/><rect x="349" y="23" width="1" height="1" fill="#eeb19f"/><rect x="322" y="23" width="1" height="1" fill="#eeb19f"/><polygon points="310 24 311 24 312 24 313 24 314 24 314 23 315 23 315 22 315 21 314 21 313 21 312 21 311 21 310 21 309 21 309 22 309 23 310 23 310 24" fill="#eeb19f"/><rect x="301" y="23" width="1" height="1" fill="#eeb19f"/><rect x="274" y="23" width="1" height="1" fill="#eeb19f"/><rect x="253" y="23" width="1" height="1" fill="#eeb19f"/><rect x="226" y="23" width="1" height="1" fill="#eeb19f"/><rect x="205" y="23" width="1" height="1" fill="#eeb19f"/><rect x="178" y="23" width="1" height="1" fill="#eeb19f"/><rect x="157" y="23" width="1" height="1" fill="#eeb19f"/><rect x="130" y="23" width="1" height="1" fill="#eeb19f"/><rect x="109" y="23" width="1" height="1" fill="#eeb19f"/><rect x="82" y="23" width="1" height="1" fill="#eeb19f"/><polygon points="69 24 70 24 71 24 72 24 73 24 74 24 74 23 75 23 75 22 75 21 74 21 73 21 72 21 71 21 70 21 69 21 68 21 68 22 68 23 69 23 69 24" fill="#eeb19f"/><rect x="61" y="23" width="1" height="1" fill="#eeb19f"/><rect x="34" y="23" width="1" height="1" fill="#eeb19f"/><rect x="13" y="23" width="1" height="1" fill="#eeb19f"/><polygon points="356 23 357 23 357 24 358 24 359 24 360 24 361 24 362 24 362 23 363 23 363 22 363 21 362 21 361 21 360 21 359 21 358 21 357 21 356 21 356 22 356 23" fill="#eeb19f"/><polygon points="120 23 121 23 121 22 122 22 122 21 121 21 120 21 119 21 118 21 118 22 118 23 119 23 120 23" fill="#eeb19f"/><polygon points="20 23 21 23 21 24 22 24 23 24 24 24 25 24 26 24 26 23 27 23 27 22 27 21 26 21 25 21 24 21 23 21 22 21 21 21 20 21 20 22 20 23" fill="#eeb19f"/><polygon points="264 22 265 22 265 21 265 20 264 20 263 20 262 20 262 21 262 22 263 22 264 22" fill="#eeb19f"/><polygon points="216 22 217 22 217 21 217 20 216 20 215 20 214 20 214 21 214 22 215 22 216 22" fill="#eeb19f"/><polygon points="168 22 169 22 169 21 169 20 168 20 167 20 166 20 166 21 166 22 167 22 168 22" fill="#eeb19f"/><rect x="363" y="20" width="1" height="1" fill="#eeb19f"/><rect x="355" y="20" width="1" height="1" fill="#eeb19f"/><rect x="27" y="20" width="1" height="1" fill="#eeb19f"/><rect x="19" y="20" width="1" height="1" fill="#eeb19f"/><polygon points="348 19 348 18 347 18 346 18 346 19 347 19 348 19" fill="#eeb19f"/><polygon points="300 19 300 18 299 18 298 18 298 19 299 19 300 19" fill="#eeb19f"/><polygon points="252 19 252 18 251 18 250 18 250 19 251 19 252 19" fill="#eeb19f"/><polygon points="204 19 204 18 203 18 202 18 202 19 203 19 204 19" fill="#eeb19f"/><polygon points="156 19 156 18 155 18 154 18 154 19 155 19 156 19" fill="#eeb19f"/><polygon points="108 19 108 18 107 18 106 18 106 19 107 19 108 19" fill="#eeb19f"/><polygon points="60 19 60 18 59 18 58 18 58 19 59 19 60 19" fill="#eeb19f"/><polygon points="12 19 12 18 11 18 10 18 10 19 11 19 12 19" fill="#eeb19f"/><polygon points="349 12 349 11 349 10 348 10 348 11 348 12 348 13 349 13 349 12" fill="#eeb19f"/><polygon points="301 12 301 11 301 10 300 10 300 11 300 12 300 13 301 13 301 12" fill="#eeb19f"/><polygon points="253 12 253 11 253 10 252 10 252 11 252 12 252 13 253 13 253 12" fill="#eeb19f"/><polygon points="205 12 205 11 205 10 204 10 204 11 204 12 204 13 205 13 205 12" fill="#eeb19f"/><polygon points="157 12 157 11 157 10 156 10 156 11 156 12 156 13 157 13 157 12" fill="#eeb19f"/><polygon points="109 12 109 11 109 10 108 10 108 11 108 12 108 13 109 13 109 12" fill="#eeb19f"/><polygon points="61 12 61 11 61 10 60 10 60 11 60 12 60 13 61 13 61 12" fill="#eeb19f"/><polygon points="13 12 13 11 13 10 12 10 12 11 12 12 12 13 13 13 13 12" fill="#eeb19f"/><polygon points="350 9 350 8 349 8 349 9 349 10 350 10 350 9" fill="#eeb19f"/><polygon points="302 9 302 8 301 8 301 9 301 10 302 10 302 9" fill="#eeb19f"/><polygon points="254 9 254 8 253 8 253 9 253 10 254 10 254 9" fill="#eeb19f"/><polygon points="206 9 206 8 205 8 205 9 205 10 206 10 206 9" fill="#eeb19f"/><polygon points="158 9 158 8 157 8 157 9 157 10 158 10 158 9" fill="#eeb19f"/><polygon points="110 9 110 8 109 8 109 9 109 10 110 10 110 9" fill="#eeb19f"/><polygon points="62 9 62 8 61 8 61 9 61 10 62 10 62 9" fill="#eeb19f"/><polygon points="14 9 14 8 13 8 13 9 13 10 14 10 14 9" fill="#eeb19f"/><rect x="350" y="7" width="1" height="1" fill="#eeb19f"/><rect x="302" y="7" width="1" height="1" fill="#eeb19f"/><rect x="254" y="7" width="1" height="1" fill="#eeb19f"/><rect x="206" y="7" width="1" height="1" fill="#eeb19f"/><rect x="158" y="7" width="1" height="1" fill="#eeb19f"/><rect x="110" y="7" width="1" height="1" fill="#eeb19f"/><rect x="62" y="7" width="1" height="1" fill="#eeb19f"/><rect x="14" y="7" width="1" height="1" fill="#eeb19f"/><rect x="351" y="6" width="1" height="1" fill="#eeb19f"/><rect x="303" y="6" width="1" height="1" fill="#eeb19f"/><rect x="255" y="6" width="1" height="1" fill="#eeb19f"/><rect x="207" y="6" width="1" height="1" fill="#eeb19f"/><rect x="159" y="6" width="1" height="1" fill="#eeb19f"/><rect x="111" y="6" width="1" height="1" fill="#eeb19f"/><rect x="63" y="6" width="1" height="1" fill="#eeb19f"/><rect x="15" y="6" width="1" height="1" fill="#eeb19f"/><rect x="353" y="5" width="1" height="1" fill="#eeb19f"/><rect x="305" y="5" width="1" height="1" fill="#eeb19f"/><rect x="257" y="5" width="1" height="1" fill="#eeb19f"/><rect x="209" y="5" width="1" height="1" fill="#eeb19f"/><rect x="161" y="5" width="1" height="1" fill="#eeb19f"/><rect x="113" y="5" width="1" height="1" fill="#eeb19f"/><rect x="65" y="5" width="1" height="1" fill="#eeb19f"/><rect x="17" y="5" width="1" height="1" fill="#eeb19f"/><path d="M324,35h-1v-1h-22v1h-3v2h5v1h1v5h1v1h7v-2h-1v-4h-1v-1h1v1h1v4h1v1h1v1h5v-1h1v-5h1v-1h5v-2h-2ZM321,36h-19v-1h20v1h-1Z" fill="#fff"/><path d="M277,35h-1v-1h-24v1h-1v1h-1v2h1v-1h3v1h1v2h1v3h1v1h7v-2h-1v-4h-1v-1h1v1h1v4h1v1h1v1h5v-1h1v-4h1v-1h1v-1h4v-1h-1v-1ZM273,36h-19v-1h20v1h-1Z" fill="#fff"/><path d="M84,35h-1v-1h-22v1h-3v2h5v1h1v5h1v1h7v-2h-1v-4h-1v-1h1v1h1v4h1v1h1v1h5v-1h1v-5h1v-1h5v-2h-2ZM81,36h-19v-1h20v1h-1Z" fill="#fff"/><path d="M373,34h-27v2h3v1h2v1h1v5h1v1h7v-2h-1v-4h-1v-1h1v1h1v4h1v1h1v1h5v-1h1v-5h1v-1h2v-1h3v-2h-1ZM369,36h-19v-1h20v1h-1Z" fill="#fff"/><polygon points="227 34 226 34 225 34 224 34 223 34 222 34 221 34 220 34 219 34 218 34 217 34 216 34 215 34 214 34 213 34 212 34 211 34 210 34 209 34 208 34 207 34 206 34 205 34 204 34 203 34 202 34 202 35 202 36 202 37 202 38 203 38 203 37 204 37 205 37 206 37 206 38 207 38 207 39 207 40 208 40 208 41 208 42 208 43 209 43 209 44 210 44 211 44 212 44 213 44 214 44 215 44 216 44 216 43 216 42 215 42 215 41 215 40 215 39 215 38 214 38 214 37 215 37 215 38 216 38 216 39 216 40 216 41 216 42 217 42 217 43 218 43 218 44 219 44 220 44 221 44 222 44 223 44 223 43 224 43 224 42 224 41 224 40 224 39 224 38 225 38 225 37 226 37 226 36 225 36 224 36 223 36 222 36 221 36 220 36 219 36 218 36 217 36 216 36 215 36 214 36 213 36 212 36 211 36 210 36 209 36 208 36 207 36 206 36 206 35 207 35 208 35 209 35 210 35 211 35 212 35 213 35 214 35 215 35 216 35 217 35 218 35 219 35 220 35 221 35 222 35 223 35 224 35 225 35 226 35 226 36 227 36 228 36 229 36 229 35 229 34 228 34 227 34" fill="#fff"/><polygon points="179 34 178 34 177 34 176 34 175 34 174 34 173 34 172 34 171 34 170 34 169 34 168 34 167 34 166 34 165 34 164 34 163 34 162 34 161 34 160 34 159 34 158 34 157 34 156 34 155 34 154 34 154 35 154 36 154 37 154 38 155 38 155 37 156 37 157 37 158 37 158 38 159 38 159 39 159 40 160 40 160 41 160 42 160 43 161 43 161 44 162 44 163 44 164 44 165 44 166 44 167 44 168 44 168 43 168 42 167 42 167 41 167 40 167 39 167 38 166 38 166 37 167 37 167 38 168 38 168 39 168 40 168 41 168 42 169 42 169 43 170 43 170 44 171 44 172 44 173 44 174 44 175 44 175 43 176 43 176 42 176 41 176 40 176 39 176 38 177 38 177 37 178 37 178 36 177 36 176 36 175 36 174 36 173 36 172 36 171 36 170 36 169 36 168 36 167 36 166 36 165 36 164 36 163 36 162 36 161 36 160 36 159 36 158 36 158 35 159 35 160 35 161 35 162 35 163 35 164 35 165 35 166 35 167 35 168 35 169 35 170 35 171 35 172 35 173 35 174 35 175 35 176 35 177 35 178 35 178 36 179 36 179 35 180 35 181 35 181 34 180 34 179 34" fill="#fff"/><polygon points="130 34 129 34 128 34 127 34 126 34 125 34 124 34 123 34 122 34 121 34 120 34 119 34 118 34 117 34 116 34 115 34 114 34 113 34 112 34 111 34 110 34 109 34 108 34 108 35 107 35 107 36 106 36 106 37 106 38 107 38 107 37 108 37 109 37 110 37 110 38 111 38 111 39 112 39 112 40 112 41 112 42 112 43 113 43 113 44 114 44 115 44 116 44 117 44 118 44 119 44 120 44 120 43 120 42 119 42 119 41 119 40 119 39 119 38 118 38 118 37 119 37 119 38 120 38 120 39 120 40 120 41 120 42 121 42 121 43 122 43 122 44 123 44 124 44 125 44 126 44 127 44 127 43 128 43 128 42 128 41 128 40 128 39 128 38 129 38 129 37 130 37 130 36 129 36 128 36 127 36 126 36 125 36 124 36 123 36 122 36 121 36 120 36 119 36 118 36 117 36 116 36 115 36 114 36 113 36 112 36 111 36 110 36 110 35 111 35 112 35 113 35 114 35 115 35 116 35 117 35 118 35 119 35 120 35 121 35 122 35 123 35 124 35 125 35 126 35 127 35 128 35 129 35 130 35 130 36 131 36 132 36 132 35 132 34 131 34 130 34" fill="#fff"/><path d="M36,34H10v2h3v1h2v1h1v5h1v1h7v-2h-1v-4h-1v-1h1v1h1v4h1v1h1v1h5v-1h1v-5h1v-1h2v-1h3v-2h-2ZM33,36H14v-1h20v1h-1Z" fill="#fff"/></svg>