<?xml version="1.0" encoding="UTF-8"?><svg id="Layer_1" xmlns="http://www.w3.org/2000/svg" width="384" height="48" viewBox="0 0 384 48"><defs><style>.cls-1{fill:#326efc;}.cls-2{fill:#ac8a6f;}.cls-3{fill:#eeb19f;}.cls-4{fill:#fdf4f0;}.cls-5{fill:#fff;}.cls-6{fill:#ffc5a9;}.cls-7{fill:#90725a;}.cls-8{fill:#fbf8f6;}.cls-9{fill:#86674f;}.cls-10{fill:#92d3ff;}.cls-11{fill:#ff9c83;}.cls-12{fill:#ffe3cd;}</style></defs><path class="cls-5" d="M324,35h-1v-1h-22v1h-3v2h5v1h1v5h1v1h7v-2h-1v-4h-1v-1h1v1h1v4h1v1h1v1h5v-1h1v-5h1v-1h5v-2h-2ZM321,36h-19v-1h20v1h-1Z"/><path class="cls-5" d="M277,35h-1v-1h-24v1h-1v1h-1v2h1v-1h3v1h1v2h1v3h1v1h7v-2h-1v-4h-1v-1h1v1h1v4h1v1h1v1h5v-1h1v-4h1v-1h1v-1h4v-1h-1v-1ZM273,36h-19v-1h20v1h-1Z"/><path class="cls-5" d="M84,35h-1v-1h-22v1h-3v2h5v1h1v5h1v1h7v-2h-1v-4h-1v-1h1v1h1v4h1v1h1v1h5v-1h1v-5h1v-1h5v-2h-2ZM81,36h-19v-1h20v1h-1Z"/><path class="cls-5" d="M373,34h-27v2h3v1h2v1h1v5h1v1h7v-2h-1v-4h-1v-1h1v1h1v4h1v1h1v1h5v-1h1v-5h1v-1h2v-1h3v-2h-1ZM369,36h-19v-1h20v1h-1Z"/><polygon class="cls-5" points="227 34 226 34 225 34 224 34 223 34 222 34 221 34 220 34 219 34 218 34 217 34 216 34 215 34 214 34 213 34 212 34 211 34 210 34 209 34 208 34 207 34 206 34 205 34 204 34 203 34 202 34 202 35 202 36 202 37 202 38 203 38 203 37 204 37 205 37 206 37 206 38 207 38 207 39 207 40 208 40 208 41 208 42 208 43 209 43 209 44 210 44 211 44 212 44 213 44 214 44 215 44 216 44 216 43 216 42 215 42 215 41 215 40 215 39 215 38 214 38 214 37 215 37 215 38 216 38 216 39 216 40 216 41 216 42 217 42 217 43 218 43 218 44 219 44 220 44 221 44 222 44 223 44 223 43 224 43 224 42 224 41 224 40 224 39 224 38 225 38 225 37 226 37 226 36 225 36 224 36 223 36 222 36 221 36 220 36 219 36 218 36 217 36 216 36 215 36 214 36 213 36 212 36 211 36 210 36 209 36 208 36 207 36 206 36 206 35 207 35 208 35 209 35 210 35 211 35 212 35 213 35 214 35 215 35 216 35 217 35 218 35 219 35 220 35 221 35 222 35 223 35 224 35 225 35 226 35 226 36 227 36 228 36 229 36 229 35 229 34 228 34 227 34"/><polygon class="cls-5" points="179 34 178 34 177 34 176 34 175 34 174 34 173 34 172 34 171 34 170 34 169 34 168 34 167 34 166 34 165 34 164 34 163 34 162 34 161 34 160 34 159 34 158 34 157 34 156 34 155 34 154 34 154 35 154 36 154 37 154 38 155 38 155 37 156 37 157 37 158 37 158 38 159 38 159 39 159 40 160 40 160 41 160 42 160 43 161 43 161 44 162 44 163 44 164 44 165 44 166 44 167 44 168 44 168 43 168 42 167 42 167 41 167 40 167 39 167 38 166 38 166 37 167 37 167 38 168 38 168 39 168 40 168 41 168 42 169 42 169 43 170 43 170 44 171 44 172 44 173 44 174 44 175 44 175 43 176 43 176 42 176 41 176 40 176 39 176 38 177 38 177 37 178 37 178 36 177 36 176 36 175 36 174 36 173 36 172 36 171 36 170 36 169 36 168 36 167 36 166 36 165 36 164 36 163 36 162 36 161 36 160 36 159 36 158 36 158 35 159 35 160 35 161 35 162 35 163 35 164 35 165 35 166 35 167 35 168 35 169 35 170 35 171 35 172 35 173 35 174 35 175 35 176 35 177 35 178 35 178 36 179 36 179 35 180 35 181 35 181 34 180 34 179 34"/><polygon class="cls-5" points="130 34 129 34 128 34 127 34 126 34 125 34 124 34 123 34 122 34 121 34 120 34 119 34 118 34 117 34 116 34 115 34 114 34 113 34 112 34 111 34 110 34 109 34 108 34 108 35 107 35 107 36 106 36 106 37 106 38 107 38 107 37 108 37 109 37 110 37 110 38 111 38 111 39 112 39 112 40 112 41 112 42 112 43 113 43 113 44 114 44 115 44 116 44 117 44 118 44 119 44 120 44 120 43 120 42 119 42 119 41 119 40 119 39 119 38 118 38 118 37 119 37 119 38 120 38 120 39 120 40 120 41 120 42 121 42 121 43 122 43 122 44 123 44 124 44 125 44 126 44 127 44 127 43 128 43 128 42 128 41 128 40 128 39 128 38 129 38 129 37 130 37 130 36 129 36 128 36 127 36 126 36 125 36 124 36 123 36 122 36 121 36 120 36 119 36 118 36 117 36 116 36 115 36 114 36 113 36 112 36 111 36 110 36 110 35 111 35 112 35 113 35 114 35 115 35 116 35 117 35 118 35 119 35 120 35 121 35 122 35 123 35 124 35 125 35 126 35 127 35 128 35 129 35 130 35 130 36 131 36 132 36 132 35 132 34 131 34 130 34"/><path class="cls-5" d="M36,34H10v2h3v1h2v1h1v5h1v1h7v-2h-1v-4h-1v-1h1v1h1v4h1v1h1v1h5v-1h1v-5h1v-1h2v-1h3v-2h-2ZM33,36H14v-1h20v1h-1Z"/><polygon class="cls-10" points="367 43 367 44 366 44 365 44 364 44 363 44 362 44 362 43 361 43 361 42 360 42 360 43 360 44 359 44 358 44 357 44 356 44 355 44 354 44 353 44 353 43 352 43 351 43 351 44 352 44 352 45 353 45 354 45 355 45 356 45 357 45 358 45 359 45 360 45 361 45 362 45 363 45 364 45 365 45 366 45 367 45 368 45 368 44 369 44 369 43 368 43 367 43"/><polygon class="cls-10" points="319 43 319 44 318 44 317 44 316 44 315 44 314 44 314 43 313 43 313 42 312 42 312 43 312 44 311 44 310 44 309 44 308 44 307 44 306 44 305 44 305 43 304 43 303 43 303 44 304 44 304 45 305 45 306 45 307 45 308 45 309 45 310 45 311 45 312 45 313 45 314 45 315 45 316 45 317 45 318 45 319 45 320 45 320 44 321 44 321 43 320 43 319 43"/><polygon class="cls-10" points="271 43 271 44 270 44 269 44 268 44 267 44 266 44 266 43 265 43 265 42 264 42 264 43 264 44 263 44 262 44 261 44 260 44 259 44 258 44 257 44 257 43 256 43 255 43 255 44 256 44 256 45 257 45 258 45 259 45 260 45 261 45 262 45 263 45 264 45 265 45 266 45 267 45 268 45 269 45 270 45 271 45 272 45 272 44 273 44 273 43 272 43 271 43"/><polygon class="cls-10" points="223 43 223 44 222 44 221 44 220 44 219 44 218 44 218 43 217 43 217 42 216 42 216 43 216 44 215 44 214 44 213 44 212 44 211 44 210 44 209 44 209 43 208 43 207 43 207 44 208 44 208 45 209 45 210 45 211 45 212 45 213 45 214 45 215 45 216 45 217 45 218 45 219 45 220 45 221 45 222 45 223 45 224 45 224 44 225 44 225 43 224 43 223 43"/><polygon class="cls-10" points="175 43 175 44 174 44 173 44 172 44 171 44 170 44 170 43 169 43 169 42 168 42 168 43 168 44 167 44 166 44 165 44 164 44 163 44 162 44 161 44 161 43 160 43 159 43 159 44 160 44 160 45 161 45 162 45 163 45 164 45 165 45 166 45 167 45 168 45 169 45 170 45 171 45 172 45 173 45 174 45 175 45 176 45 176 44 177 44 177 43 176 43 175 43"/><polygon class="cls-10" points="127 43 127 44 126 44 125 44 124 44 123 44 122 44 122 43 121 43 121 42 120 42 120 43 120 44 119 44 118 44 117 44 116 44 115 44 114 44 113 44 113 43 112 43 111 43 111 44 112 44 112 45 113 45 114 45 115 45 116 45 117 45 118 45 119 45 120 45 121 45 122 45 123 45 124 45 125 45 126 45 127 45 128 45 128 44 129 44 129 43 128 43 127 43"/><polygon class="cls-10" points="79 43 79 44 78 44 77 44 76 44 75 44 74 44 74 43 73 43 73 42 72 42 72 43 72 44 71 44 70 44 69 44 68 44 67 44 66 44 65 44 65 43 64 43 63 43 63 44 64 44 64 45 65 45 66 45 67 45 68 45 69 45 70 45 71 45 72 45 73 45 74 45 75 45 76 45 77 45 78 45 79 45 80 45 80 44 81 44 81 43 80 43 79 43"/><polygon class="cls-10" points="31 43 31 44 30 44 29 44 28 44 27 44 26 44 26 43 25 43 25 42 24 42 24 43 24 44 23 44 22 44 21 44 20 44 19 44 18 44 17 44 17 43 16 43 15 43 15 44 16 44 16 45 17 45 18 45 19 45 20 45 21 45 22 45 23 45 24 45 25 45 26 45 27 45 28 45 29 45 30 45 31 45 32 45 32 44 33 44 33 43 32 43 31 43"/><polygon class="cls-10" points="360 40 360 39 360 38 359 38 359 39 359 40 359 41 359 42 360 42 360 41 360 40"/><polygon class="cls-10" points="312 40 312 39 312 38 311 38 311 39 311 40 311 41 311 42 312 42 312 41 312 40"/><polygon class="cls-10" points="264 40 264 39 264 38 263 38 263 39 263 40 263 41 263 42 264 42 264 41 264 40"/><polygon class="cls-10" points="216 40 216 39 216 38 215 38 215 39 215 40 215 41 215 42 216 42 216 41 216 40"/><polygon class="cls-10" points="168 40 168 39 168 38 167 38 167 39 167 40 167 41 167 42 168 42 168 41 168 40"/><polygon class="cls-10" points="120 40 120 39 120 38 119 38 119 39 119 40 119 41 119 42 120 42 120 41 120 40"/><polygon class="cls-10" points="72 40 72 39 72 38 71 38 71 39 71 40 71 41 71 42 72 42 72 41 72 40"/><polygon class="cls-10" points="24 40 24 39 24 38 23 38 23 39 23 40 23 41 23 42 24 42 24 41 24 40"/><rect class="cls-10" x="358" y="37" width="1" height="1"/><rect class="cls-10" x="310" y="37" width="1" height="1"/><rect class="cls-10" x="262" y="37" width="1" height="1"/><rect class="cls-10" x="214" y="37" width="1" height="1"/><rect class="cls-10" x="166" y="37" width="1" height="1"/><rect class="cls-10" x="118" y="37" width="1" height="1"/><rect class="cls-10" x="70" y="37" width="1" height="1"/><rect class="cls-10" x="22" y="37" width="1" height="1"/><polygon class="cls-10" points="278 37 278 38 278 39 279 39 279 38 279 37 279 36 278 36 278 37"/><polygon class="cls-10" points="249 37 249 38 249 39 250 39 250 38 250 37 250 36 249 36 249 37"/><polygon class="cls-10" points="105 37 105 38 105 39 106 39 106 38 106 37 106 36 105 36 105 37"/><polygon class="cls-10" points="368 35 367 35 366 35 365 35 364 35 363 35 362 35 361 35 360 35 359 35 358 35 357 35 356 35 355 35 354 35 353 35 352 35 351 35 350 35 350 36 351 36 352 36 353 36 354 36 355 36 356 36 357 36 358 36 359 36 360 36 361 36 362 36 363 36 364 36 365 36 366 36 367 36 368 36 369 36 370 36 370 35 369 35 368 35"/><polygon class="cls-10" points="326 36 326 37 326 38 327 38 327 37 327 36 327 35 326 35 326 36"/><polygon class="cls-10" points="320 35 319 35 318 35 317 35 316 35 315 35 314 35 313 35 312 35 311 35 310 35 309 35 308 35 307 35 306 35 305 35 304 35 303 35 302 35 302 36 303 36 304 36 305 36 306 36 307 36 308 36 309 36 310 36 311 36 312 36 313 36 314 36 315 36 316 36 317 36 318 36 319 36 320 36 321 36 322 36 322 35 321 35 320 35"/><polygon class="cls-10" points="297 36 297 37 297 38 298 38 298 37 298 36 298 35 297 35 297 36"/><polygon class="cls-10" points="272 35 271 35 270 35 269 35 268 35 267 35 266 35 265 35 264 35 263 35 262 35 261 35 260 35 259 35 258 35 257 35 256 35 255 35 254 35 254 36 255 36 256 36 257 36 258 36 259 36 260 36 261 36 262 36 263 36 264 36 265 36 266 36 267 36 268 36 269 36 270 36 271 36 272 36 273 36 274 36 274 35 273 35 272 35"/><polygon class="cls-10" points="224 35 223 35 222 35 221 35 220 35 219 35 218 35 217 35 216 35 215 35 214 35 213 35 212 35 211 35 210 35 209 35 208 35 207 35 206 35 206 36 207 36 208 36 209 36 210 36 211 36 212 36 213 36 214 36 215 36 216 36 217 36 218 36 219 36 220 36 221 36 222 36 223 36 224 36 225 36 226 36 226 35 225 35 224 35"/><polygon class="cls-10" points="176 35 175 35 174 35 173 35 172 35 171 35 170 35 169 35 168 35 167 35 166 35 165 35 164 35 163 35 162 35 161 35 160 35 159 35 158 35 158 36 159 36 160 36 161 36 162 36 163 36 164 36 165 36 166 36 167 36 168 36 169 36 170 36 171 36 172 36 173 36 174 36 175 36 176 36 177 36 178 36 178 35 177 35 176 35"/><polygon class="cls-10" points="128 35 127 35 126 35 125 35 124 35 123 35 122 35 121 35 120 35 119 35 118 35 117 35 116 35 115 35 114 35 113 35 112 35 111 35 110 35 110 36 111 36 112 36 113 36 114 36 115 36 116 36 117 36 118 36 119 36 120 36 121 36 122 36 123 36 124 36 125 36 126 36 127 36 128 36 129 36 130 36 130 35 129 35 128 35"/><polygon class="cls-10" points="86 36 86 37 86 38 87 38 87 37 87 36 87 35 86 35 86 36"/><polygon class="cls-10" points="80 35 79 35 78 35 77 35 76 35 75 35 74 35 73 35 72 35 71 35 70 35 69 35 68 35 67 35 66 35 65 35 64 35 63 35 62 35 62 36 63 36 64 36 65 36 66 36 67 36 68 36 69 36 70 36 71 36 72 36 73 36 74 36 75 36 76 36 77 36 78 36 79 36 80 36 81 36 82 36 82 35 81 35 80 35"/><polygon class="cls-10" points="57 36 57 37 57 38 58 38 58 37 58 36 58 35 57 35 57 36"/><polygon class="cls-10" points="32 35 31 35 30 35 29 35 28 35 27 35 26 35 25 35 24 35 23 35 22 35 21 35 20 35 19 35 18 35 17 35 16 35 15 35 14 35 14 36 15 36 16 36 17 36 18 36 19 36 20 36 21 36 22 36 23 36 24 36 25 36 26 36 27 36 28 36 29 36 30 36 31 36 32 36 33 36 34 36 34 35 33 35 32 35"/><polygon class="cls-10" points="374 34 374 35 374 36 374 37 375 37 375 36 375 35 375 34 374 34"/><polygon class="cls-10" points="345 35 345 36 345 37 346 37 346 36 346 35 346 34 345 34 345 35"/><polygon class="cls-10" points="229 35 229 36 229 37 230 37 230 36 230 35 230 34 229 34 229 35"/><polygon class="cls-10" points="201 35 201 36 201 37 201 38 201 39 201 40 202 40 202 39 202 38 202 37 202 36 202 35 202 34 201 34 201 35"/><rect class="cls-10" x="181" y="34" width="1" height="1"/><polygon class="cls-10" points="153 35 153 36 153 37 153 38 153 39 153 40 154 40 154 39 154 38 154 37 154 36 154 35 154 34 153 34 153 35"/><polygon class="cls-10" points="38 35 38 36 38 37 39 37 39 36 39 35 39 34 38 34 38 35"/><polygon class="cls-10" points="9 35 9 36 9 37 10 37 10 36 10 35 10 34 9 34 9 35"/><polygon class="cls-11" points="361 16 360 16 359 16 359 17 359 18 360 18 361 18 362 18 362 17 362 16 361 16"/><polygon class="cls-11" points="312 16 311 16 311 17 311 18 312 18 313 18 314 18 314 17 314 16 313 16 312 16"/><polygon class="cls-11" points="264 16 263 16 263 17 263 18 264 18 265 18 266 18 266 17 266 16 265 16 264 16"/><polygon class="cls-11" points="216 16 215 16 215 17 215 18 216 18 217 18 218 18 218 17 218 16 217 16 216 16"/><polygon class="cls-11" points="168 16 167 16 167 17 167 18 168 18 169 18 170 18 170 17 170 16 169 16 168 16"/><polygon class="cls-11" points="120 16 119 16 119 17 119 18 120 18 121 18 122 18 122 17 122 16 121 16 120 16"/><polygon class="cls-11" points="72 16 71 16 71 17 71 18 72 18 73 18 74 18 74 17 74 16 73 16 72 16"/><polygon class="cls-11" points="24 16 23 16 23 17 23 18 24 18 25 18 26 18 26 17 26 16 25 16 24 16"/><polygon class="cls-1" points="354 14 353 14 353 15 354 15 355 15 356 15 356 14 355 14 354 14"/><polygon class="cls-1" points="306 14 305 14 305 15 306 15 307 15 308 15 308 14 307 14 306 14"/><polygon class="cls-1" points="258 14 257 14 257 15 258 15 259 15 260 15 260 14 259 14 258 14"/><polygon class="cls-1" points="210 14 209 14 209 15 210 15 211 15 212 15 212 14 211 14 210 14"/><polygon class="cls-1" points="162 14 161 14 161 15 162 15 163 15 164 15 164 14 163 14 162 14"/><polygon class="cls-1" points="114 14 113 14 113 15 114 15 115 15 116 15 116 14 115 14 114 14"/><polygon class="cls-1" points="66 14 65 14 65 15 66 15 67 15 68 15 68 14 67 14 66 14"/><polygon class="cls-1" points="18 14 17 14 17 15 18 15 19 15 20 15 20 14 19 14 18 14"/><polygon class="cls-1" points="367 13 366 13 365 13 365 14 365 15 366 15 367 15 368 15 368 14 368 13 367 13"/><polygon class="cls-1" points="318 13 317 13 317 14 317 15 318 15 319 15 320 15 320 14 320 13 319 13 318 13"/><polygon class="cls-1" points="270 13 269 13 269 14 269 15 270 15 271 15 272 15 272 14 272 13 271 13 270 13"/><polygon class="cls-1" points="222 13 221 13 221 14 221 15 222 15 223 15 224 15 224 14 224 13 223 13 222 13"/><polygon class="cls-1" points="174 13 173 13 173 14 173 15 174 15 175 15 176 15 176 14 176 13 175 13 174 13"/><polygon class="cls-1" points="126 13 125 13 125 14 125 15 126 15 127 15 128 15 128 14 128 13 127 13 126 13"/><polygon class="cls-1" points="78 13 77 13 77 14 77 15 78 15 79 15 80 15 80 14 80 13 79 13 78 13"/><polygon class="cls-1" points="30 13 29 13 29 14 29 15 30 15 31 15 32 15 32 14 32 13 31 13 30 13"/><rect class="cls-8" x="352" y="14" width="1" height="1"/><rect class="cls-8" x="304" y="14" width="1" height="1"/><rect class="cls-8" x="256" y="14" width="1" height="1"/><rect class="cls-8" x="208" y="14" width="1" height="1"/><rect class="cls-8" x="160" y="14" width="1" height="1"/><rect class="cls-8" x="112" y="14" width="1" height="1"/><rect class="cls-8" x="64" y="14" width="1" height="1"/><rect class="cls-8" x="16" y="14" width="1" height="1"/><polygon class="cls-8" points="364 13 364 14 364 15 365 15 365 14 365 13 364 13"/><polygon class="cls-8" points="316 14 316 15 317 15 317 14 317 13 316 13 316 14"/><polygon class="cls-8" points="268 14 268 15 269 15 269 14 269 13 268 13 268 14"/><polygon class="cls-8" points="220 14 220 15 221 15 221 14 221 13 220 13 220 14"/><polygon class="cls-8" points="172 14 172 15 173 15 173 14 173 13 172 13 172 14"/><polygon class="cls-8" points="124 14 124 15 125 15 125 14 125 13 124 13 124 14"/><polygon class="cls-8" points="76 14 76 15 77 15 77 14 77 13 76 13 76 14"/><polygon class="cls-8" points="28 14 28 15 29 15 29 14 29 13 28 13 28 14"/><rect class="cls-6" x="367" y="21" width="1" height="1"/><rect class="cls-6" x="349" y="21" width="1" height="1"/><rect class="cls-6" x="319" y="21" width="1" height="1"/><rect class="cls-6" x="301" y="21" width="1" height="1"/><rect class="cls-6" x="271" y="21" width="1" height="1"/><rect class="cls-6" x="253" y="21" width="1" height="1"/><rect class="cls-6" x="223" y="21" width="1" height="1"/><rect class="cls-6" x="205" y="21" width="1" height="1"/><rect class="cls-6" x="175" y="21" width="1" height="1"/><rect class="cls-6" x="157" y="21" width="1" height="1"/><rect class="cls-6" x="127" y="21" width="1" height="1"/><rect class="cls-6" x="109" y="21" width="1" height="1"/><rect class="cls-6" x="79" y="21" width="1" height="1"/><rect class="cls-6" x="61" y="21" width="1" height="1"/><rect class="cls-6" x="31" y="21" width="1" height="1"/><rect class="cls-6" x="13" y="21" width="1" height="1"/><polygon class="cls-6" points="370 19 370 18 369 18 368 18 368 19 367 19 367 20 368 20 368 21 369 21 369 22 370 22 370 21 371 21 371 20 371 19 370 19"/><polygon class="cls-6" points="352 18 351 18 350 18 350 19 349 19 349 20 350 20 350 21 351 21 351 22 352 22 352 21 353 21 353 20 353 19 352 19 352 18"/><polygon class="cls-6" points="322 18 321 18 320 18 320 19 319 19 319 20 320 20 320 21 321 21 321 22 322 22 322 21 323 21 323 20 323 19 322 19 322 18"/><polygon class="cls-6" points="304 18 303 18 302 18 302 19 301 19 301 20 302 20 302 21 303 21 303 22 304 22 304 21 305 21 305 20 305 19 304 19 304 18"/><polygon class="cls-6" points="274 18 273 18 272 18 272 19 271 19 271 20 272 20 272 21 273 21 273 22 274 22 274 21 275 21 275 20 275 19 274 19 274 18"/><polygon class="cls-6" points="256 18 255 18 254 18 254 19 253 19 253 20 254 20 254 21 255 21 255 22 256 22 256 21 257 21 257 20 257 19 256 19 256 18"/><polygon class="cls-6" points="226 18 225 18 224 18 224 19 223 19 223 20 224 20 224 21 225 21 225 22 226 22 226 21 227 21 227 20 227 19 226 19 226 18"/><polygon class="cls-6" points="208 18 207 18 206 18 206 19 205 19 205 20 206 20 206 21 207 21 207 22 208 22 208 21 209 21 209 20 209 19 208 19 208 18"/><polygon class="cls-6" points="178 18 177 18 176 18 176 19 175 19 175 20 176 20 176 21 177 21 177 22 178 22 178 21 179 21 179 20 179 19 178 19 178 18"/><polygon class="cls-6" points="160 18 159 18 158 18 158 19 157 19 157 20 158 20 158 21 159 21 159 22 160 22 160 21 161 21 161 20 161 19 160 19 160 18"/><polygon class="cls-6" points="130 18 129 18 128 18 128 19 127 19 127 20 128 20 128 21 129 21 129 22 130 22 130 21 131 21 131 20 131 19 130 19 130 18"/><polygon class="cls-6" points="112 18 111 18 110 18 110 19 109 19 109 20 110 20 110 21 111 21 111 22 112 22 112 21 113 21 113 20 113 19 112 19 112 18"/><polygon class="cls-6" points="82 18 81 18 80 18 80 19 79 19 79 20 80 20 80 21 81 21 81 22 82 22 82 21 83 21 83 20 83 19 82 19 82 18"/><polygon class="cls-6" points="64 18 63 18 62 18 62 19 61 19 61 20 62 20 62 21 63 21 63 22 64 22 64 21 65 21 65 20 65 19 64 19 64 18"/><polygon class="cls-6" points="34 18 33 18 32 18 32 19 31 19 31 20 32 20 32 21 33 21 33 22 34 22 34 21 35 21 35 20 35 19 34 19 34 18"/><polygon class="cls-6" points="16 18 15 18 14 18 14 19 13 19 13 20 14 20 14 21 15 21 15 22 16 22 16 21 17 21 17 20 17 19 16 19 16 18"/><polygon class="cls-6" points="368 13 368 12 367 12 366 12 365 12 364 12 364 13 365 13 366 13 367 13 368 13"/><polygon class="cls-6" points="354 12 353 12 353 13 352 13 352 14 353 14 354 14 355 14 356 14 356 13 356 12 355 12 354 12"/><polygon class="cls-6" points="320 13 320 12 319 12 318 12 317 12 316 12 316 13 317 13 318 13 319 13 320 13"/><polygon class="cls-6" points="306 12 305 12 305 13 304 13 304 14 305 14 306 14 307 14 308 14 308 13 308 12 307 12 306 12"/><polygon class="cls-6" points="272 13 272 12 271 12 270 12 269 12 268 12 268 13 269 13 270 13 271 13 272 13"/><polygon class="cls-6" points="258 12 257 12 257 13 256 13 256 14 257 14 258 14 259 14 260 14 260 13 260 12 259 12 258 12"/><polygon class="cls-6" points="224 13 224 12 223 12 222 12 221 12 220 12 220 13 221 13 222 13 223 13 224 13"/><polygon class="cls-6" points="210 12 209 12 209 13 208 13 208 14 209 14 210 14 211 14 212 14 212 13 212 12 211 12 210 12"/><polygon class="cls-6" points="176 13 176 12 175 12 174 12 173 12 172 12 172 13 173 13 174 13 175 13 176 13"/><polygon class="cls-6" points="162 12 161 12 161 13 160 13 160 14 161 14 162 14 163 14 164 14 164 13 164 12 163 12 162 12"/><polygon class="cls-6" points="128 13 128 12 127 12 126 12 125 12 124 12 124 13 125 13 126 13 127 13 128 13"/><polygon class="cls-6" points="114 12 113 12 113 13 112 13 112 14 113 14 114 14 115 14 116 14 116 13 116 12 115 12 114 12"/><polygon class="cls-6" points="80 13 80 12 79 12 78 12 77 12 76 12 76 13 77 13 78 13 79 13 80 13"/><polygon class="cls-6" points="66 12 65 12 65 13 64 13 64 14 65 14 66 14 67 14 68 14 68 13 68 12 67 12 66 12"/><polygon class="cls-6" points="32 13 32 12 31 12 30 12 29 12 28 12 28 13 29 13 30 13 31 13 32 13"/><polygon class="cls-6" points="18 12 17 12 17 13 16 13 16 14 17 14 18 14 19 14 20 14 20 13 20 12 19 12 18 12"/><rect class="cls-4" x="205" y="42" width="1" height="1"/><rect class="cls-4" x="157" y="42" width="1" height="1"/><rect class="cls-4" x="253" y="41" width="1" height="1"/><rect class="cls-4" x="109" y="41" width="1" height="1"/><rect class="cls-4" x="301" y="40" width="1" height="1"/><polygon class="cls-4" points="279 41 279 42 279 43 279 44 279 45 279 46 280 46 280 45 280 44 280 43 280 42 280 41 280 40 279 40 279 41"/><polygon class="cls-4" points="205 40 204 40 204 41 204 42 205 42 205 41 205 40"/><polygon class="cls-4" points="157 40 156 40 156 41 156 42 157 42 157 41 157 40"/><rect class="cls-4" x="61" y="40" width="1" height="1"/><rect class="cls-4" x="349" y="39" width="1" height="1"/><polygon class="cls-4" points="327 40 327 41 327 42 327 43 327 44 327 45 328 45 328 44 328 43 328 42 328 41 328 40 328 39 327 39 327 40"/><rect class="cls-4" x="278" y="39" width="1" height="1"/><polygon class="cls-4" points="253 39 252 39 252 40 252 41 253 41 253 40 253 39"/><polygon class="cls-4" points="231 40 231 41 231 42 231 43 231 44 231 45 232 45 232 44 232 43 232 42 232 41 232 40 232 39 231 39 231 40"/><polygon class="cls-4" points="109 39 108 39 108 40 108 41 109 41 109 40 109 39"/><polygon class="cls-4" points="87 40 87 41 87 42 87 43 87 44 87 45 88 45 88 44 88 43 88 42 88 41 88 40 88 39 87 39 87 40"/><rect class="cls-4" x="13" y="39" width="1" height="1"/><polygon class="cls-4" points="375 39 375 40 375 41 375 42 375 43 375 44 376 44 376 43 376 42 376 41 376 40 376 39 376 38 375 38 375 39"/><rect class="cls-4" x="326" y="38" width="1" height="1"/><polygon class="cls-4" points="301 38 300 38 300 39 300 40 301 40 301 39 301 38"/><rect class="cls-4" x="230" y="38" width="1" height="1"/><polygon class="cls-4" points="135 39 135 40 135 41 135 42 135 43 135 44 136 44 136 43 136 42 136 41 136 40 136 39 136 38 135 38 135 39"/><rect class="cls-4" x="86" y="38" width="1" height="1"/><polygon class="cls-4" points="61 38 60 38 60 39 60 40 61 40 61 39 61 38"/><polygon class="cls-4" points="39 39 39 40 39 41 39 42 39 43 39 44 40 44 40 43 40 42 40 41 40 40 40 39 40 38 39 38 39 39"/><rect class="cls-4" x="374" y="37" width="1" height="1"/><polygon class="cls-4" points="349 37 348 37 348 38 348 39 349 39 349 38 349 37"/><polygon class="cls-4" points="183 38 183 39 183 40 183 41 183 42 183 43 184 43 184 42 184 41 184 40 184 39 184 38 184 37 183 37 183 38"/><rect class="cls-4" x="134" y="37" width="1" height="1"/><rect class="cls-4" x="38" y="37" width="1" height="1"/><polygon class="cls-4" points="13 37 12 37 12 38 12 39 13 39 13 38 13 37"/><rect class="cls-4" x="182" y="36" width="1" height="1"/><polygon class="cls-4" points="330 32 329 32 329 33 330 33 331 33 331 32 331 31 330 31 330 32"/><polygon class="cls-4" points="90 32 89 32 89 33 90 33 91 33 91 32 91 31 90 31 90 32"/><polygon class="cls-4" points="237 31 237 32 237 33 237 34 237 35 237 36 238 36 238 35 238 34 238 33 238 32 238 31 238 30 237 30 237 31"/><polygon class="cls-4" points="189 31 189 32 189 33 189 34 189 35 189 36 190 36 190 35 190 34 190 33 190 32 190 31 190 30 189 30 189 31"/><polygon class="cls-4" points="380 29 380 30 380 31 380 32 381 32 381 31 381 30 381 29 380 29"/><polygon class="cls-4" points="44 30 44 31 44 32 45 32 45 31 45 30 45 29 44 29 44 30"/><polygon class="cls-4" points="331 29 331 30 331 31 332 31 332 30 332 29 332 28 331 28 331 29"/><polygon class="cls-4" points="284 29 284 30 284 31 284 32 285 32 285 31 285 30 285 29 285 28 284 28 284 29"/><polygon class="cls-4" points="237 28 236 28 236 29 236 30 237 30 237 29 237 28"/><polygon class="cls-4" points="189 28 188 28 188 29 188 30 189 30 189 29 189 28"/><polygon class="cls-4" points="140 29 140 30 140 31 140 32 141 32 141 31 141 30 141 29 141 28 140 28 140 29"/><polygon class="cls-4" points="91 29 91 30 91 31 92 31 92 30 92 29 92 28 91 28 91 29"/><polygon class="cls-4" points="380 27 379 27 379 28 379 29 380 29 380 28 380 27"/><rect class="cls-4" x="283" y="27" width="1" height="1"/><rect class="cls-4" x="244" y="27" width="1" height="1"/><rect class="cls-4" x="235" y="27" width="1" height="1"/><rect class="cls-4" x="187" y="27" width="1" height="1"/><rect class="cls-4" x="139" y="27" width="1" height="1"/><rect class="cls-4" x="100" y="27" width="1" height="1"/><polygon class="cls-4" points="44 27 43 27 43 28 43 29 44 29 44 28 44 27"/><rect class="cls-4" x="378" y="26" width="1" height="1"/><rect class="cls-4" x="370" y="26" width="1" height="1"/><rect class="cls-4" x="341" y="26" width="1" height="1"/><polygon class="cls-4" points="331 26 330 26 329 26 329 27 330 27 330 28 331 28 331 27 331 26"/><rect class="cls-4" x="322" y="26" width="1" height="1"/><polygon class="cls-4" points="293 26 293 27 293 28 294 28 294 27 295 27 295 26 294 26 293 26"/><rect class="cls-4" x="282" y="26" width="1" height="1"/><rect class="cls-4" x="274" y="26" width="1" height="1"/><rect class="cls-4" x="245" y="26" width="1" height="1"/><polygon class="cls-4" points="234 26 233 26 233 27 234 27 235 27 235 26 234 26"/><rect class="cls-4" x="226" y="26" width="1" height="1"/><polygon class="cls-4" points="196 26 196 27 197 27 198 27 198 26 197 26 196 26"/><polygon class="cls-4" points="186 26 185 26 185 27 186 27 187 27 187 26 186 26"/><rect class="cls-4" x="178" y="26" width="1" height="1"/><polygon class="cls-4" points="148 26 148 27 149 27 150 27 150 26 149 26 148 26"/><rect class="cls-4" x="138" y="26" width="1" height="1"/><rect class="cls-4" x="130" y="26" width="1" height="1"/><rect class="cls-4" x="101" y="26" width="1" height="1"/><polygon class="cls-4" points="91 26 90 26 89 26 89 27 90 27 90 28 91 28 91 27 91 26"/><rect class="cls-4" x="82" y="26" width="1" height="1"/><polygon class="cls-4" points="53 26 53 27 53 28 54 28 54 27 55 27 55 26 54 26 53 26"/><rect class="cls-4" x="42" y="26" width="1" height="1"/><rect class="cls-4" x="34" y="26" width="1" height="1"/><rect class="cls-4" x="5" y="26" width="1" height="1"/><polygon class="cls-4" points="377 25 376 25 376 26 377 26 378 26 378 25 377 25"/><polygon class="cls-4" points="371 25 371 26 372 26 373 26 373 25 372 25 371 25"/><polygon class="cls-4" points="342 25 342 26 343 26 344 26 344 25 343 25 342 25"/><rect class="cls-4" x="328" y="25" width="1" height="1"/><polygon class="cls-4" points="323 25 323 26 324 26 325 26 325 25 324 25 323 25"/><rect class="cls-4" x="295" y="25" width="1" height="1"/><polygon class="cls-4" points="281 25 280 25 280 26 281 26 282 26 282 25 281 25"/><polygon class="cls-4" points="275 25 275 26 276 26 277 26 277 25 276 25 275 25"/><polygon class="cls-4" points="246 25 246 26 247 26 248 26 248 25 247 25 246 25"/><polygon class="cls-4" points="232 25 231 25 231 26 232 26 233 26 233 25 232 25"/><polygon class="cls-4" points="227 25 227 26 228 26 229 26 229 25 228 25 227 25"/><polygon class="cls-4" points="198 25 198 26 199 26 200 26 200 25 199 25 198 25"/><polygon class="cls-4" points="184 25 183 25 183 26 184 26 185 26 185 25 184 25"/><polygon class="cls-4" points="179 25 179 26 180 26 181 26 181 25 180 25 179 25"/><polygon class="cls-4" points="150 25 150 26 151 26 152 26 152 25 151 25 150 25"/><polygon class="cls-4" points="137 25 136 25 136 26 137 26 138 26 138 25 137 25"/><polygon class="cls-4" points="131 25 131 26 132 26 133 26 133 25 132 25 131 25"/><polygon class="cls-4" points="102 25 102 26 103 26 104 26 104 25 103 25 102 25"/><rect class="cls-4" x="88" y="25" width="1" height="1"/><polygon class="cls-4" points="83 25 83 26 84 26 85 26 85 25 84 25 83 25"/><rect class="cls-4" x="55" y="25" width="1" height="1"/><polygon class="cls-4" points="41 25 40 25 40 26 41 26 42 26 42 25 41 25"/><polygon class="cls-4" points="35 25 35 26 36 26 37 26 37 25 36 25 35 25"/><polygon class="cls-4" points="6 25 6 26 7 26 8 26 8 25 7 25 6 25"/><polygon class="cls-4" points="375 24 375 23 374 23 374 24 373 24 373 25 374 25 375 25 376 25 376 24 375 24"/><rect class="cls-4" x="344" y="24" width="1" height="1"/><polygon class="cls-4" points="327 24 327 23 326 23 326 24 325 24 325 25 326 25 327 25 328 25 328 24 327 24"/><rect class="cls-4" x="296" y="24" width="1" height="1"/><polygon class="cls-4" points="279 24 279 23 278 23 278 24 277 24 277 25 278 25 279 25 280 25 280 24 279 24"/><rect class="cls-4" x="248" y="24" width="1" height="1"/><rect class="cls-4" x="200" y="24" width="1" height="1"/><rect class="cls-4" x="152" y="24" width="1" height="1"/><polygon class="cls-4" points="135 24 135 23 134 23 134 24 133 24 133 25 134 25 135 25 136 25 136 24 135 24"/><rect class="cls-4" x="104" y="24" width="1" height="1"/><polygon class="cls-4" points="87 24 87 23 86 23 86 24 85 24 85 25 86 25 87 25 88 25 88 24 87 24"/><rect class="cls-4" x="56" y="24" width="1" height="1"/><polygon class="cls-4" points="39 24 39 23 38 23 38 24 37 24 37 25 38 25 39 25 40 25 40 24 39 24"/><rect class="cls-4" x="8" y="24" width="1" height="1"/><polygon class="cls-4" points="231 23 230 23 230 24 229 24 229 25 230 25 231 25 231 24 231 23"/><polygon class="cls-4" points="183 23 182 23 182 24 181 24 181 25 182 25 183 25 183 24 183 23"/><polygon class="cls-4" points="376 22 376 21 376 20 375 20 375 21 375 22 375 23 376 23 376 22"/><polygon class="cls-4" points="328 22 328 21 328 20 327 20 327 21 327 22 327 23 328 23 328 22"/><polygon class="cls-4" points="280 22 280 21 280 20 279 20 279 21 279 22 279 23 280 23 280 22"/><polygon class="cls-4" points="232 22 232 21 232 20 231 20 231 21 231 22 231 23 232 23 232 22"/><polygon class="cls-4" points="184 22 184 21 184 20 183 20 183 21 183 22 183 23 184 23 184 22"/><polygon class="cls-4" points="136 22 136 21 136 20 135 20 135 21 135 22 135 23 136 23 136 22"/><polygon class="cls-4" points="88 22 88 21 88 20 87 20 87 21 87 22 87 23 88 23 88 22"/><polygon class="cls-4" points="40 22 40 21 40 20 39 20 39 21 39 22 39 23 40 23 40 22"/><polygon class="cls-4" points="375 18 374 18 374 19 374 20 375 20 375 19 375 18"/><polygon class="cls-4" points="327 18 326 18 326 19 326 20 327 20 327 19 327 18"/><polygon class="cls-4" points="279 18 278 18 278 19 278 20 279 20 279 19 279 18"/><polygon class="cls-4" points="231 18 230 18 230 19 230 20 231 20 231 19 231 18"/><polygon class="cls-4" points="183 18 182 18 182 19 182 20 183 20 183 19 183 18"/><polygon class="cls-4" points="135 18 134 18 134 19 134 20 135 20 135 19 135 18"/><polygon class="cls-4" points="87 18 86 18 86 19 86 20 87 20 87 19 87 18"/><polygon class="cls-4" points="39 18 38 18 38 19 38 20 39 20 39 19 39 18"/><polygon class="cls-4" points="372 13 373 13 373 14 373 15 373 16 373 17 374 17 374 16 374 15 374 14 374 13 374 12 373 12 372 12 372 13"/><polygon class="cls-4" points="324 13 325 13 325 14 325 15 325 16 325 17 326 17 326 16 326 15 326 14 326 13 326 12 325 12 324 12 324 13"/><polygon class="cls-4" points="276 13 277 13 277 14 277 15 277 16 277 17 278 17 278 16 278 15 278 14 278 13 278 12 277 12 276 12 276 13"/><polygon class="cls-4" points="228 13 229 13 229 14 229 15 229 16 229 17 230 17 230 16 230 15 230 14 230 13 230 12 229 12 228 12 228 13"/><polygon class="cls-4" points="180 13 181 13 181 14 181 15 181 16 181 17 182 17 182 16 182 15 182 14 182 13 182 12 181 12 180 12 180 13"/><polygon class="cls-4" points="132 13 133 13 133 14 133 15 133 16 133 17 134 17 134 16 134 15 134 14 134 13 134 12 133 12 132 12 132 13"/><polygon class="cls-4" points="84 13 85 13 85 14 85 15 85 16 85 17 86 17 86 16 86 15 86 14 86 13 86 12 85 12 84 12 84 13"/><polygon class="cls-4" points="36 13 37 13 37 14 37 15 37 16 37 17 38 17 38 16 38 15 38 14 38 13 38 12 37 12 36 12 36 13"/><rect class="cls-4" x="371" y="10" width="1" height="1"/><rect class="cls-4" x="323" y="10" width="1" height="1"/><rect class="cls-4" x="275" y="10" width="1" height="1"/><rect class="cls-4" x="227" y="10" width="1" height="1"/><rect class="cls-4" x="179" y="10" width="1" height="1"/><rect class="cls-4" x="131" y="10" width="1" height="1"/><rect class="cls-4" x="83" y="10" width="1" height="1"/><rect class="cls-4" x="35" y="10" width="1" height="1"/><rect class="cls-4" x="370" y="9" width="1" height="1"/><rect class="cls-4" x="322" y="9" width="1" height="1"/><rect class="cls-4" x="274" y="9" width="1" height="1"/><rect class="cls-4" x="226" y="9" width="1" height="1"/><rect class="cls-4" x="178" y="9" width="1" height="1"/><rect class="cls-4" x="130" y="9" width="1" height="1"/><rect class="cls-4" x="82" y="9" width="1" height="1"/><rect class="cls-4" x="34" y="9" width="1" height="1"/><rect class="cls-4" x="369" y="8" width="1" height="1"/><rect class="cls-4" x="321" y="8" width="1" height="1"/><rect class="cls-4" x="273" y="8" width="1" height="1"/><rect class="cls-4" x="225" y="8" width="1" height="1"/><rect class="cls-4" x="177" y="8" width="1" height="1"/><rect class="cls-4" x="129" y="8" width="1" height="1"/><rect class="cls-4" x="81" y="8" width="1" height="1"/><rect class="cls-4" x="33" y="8" width="1" height="1"/><polygon class="cls-4" points="368 7 367 7 367 8 368 8 369 8 369 7 368 7"/><polygon class="cls-4" points="320 7 319 7 319 8 320 8 321 8 321 7 320 7"/><polygon class="cls-4" points="272 7 271 7 271 8 272 8 273 8 273 7 272 7"/><polygon class="cls-4" points="224 7 223 7 223 8 224 8 225 8 225 7 224 7"/><polygon class="cls-4" points="176 7 175 7 175 8 176 8 177 8 177 7 176 7"/><polygon class="cls-4" points="128 7 127 7 127 8 128 8 129 8 129 7 128 7"/><polygon class="cls-4" points="80 7 79 7 79 8 80 8 81 8 81 7 80 7"/><polygon class="cls-4" points="32 7 31 7 31 8 32 8 33 8 33 7 32 7"/><polygon class="cls-12" points="205 42 204 42 204 41 204 40 203 40 202 40 201 40 201 41 200 41 200 42 200 43 200 44 200 45 200 46 200 47 201 47 201 48 202 48 203 48 204 48 205 48 205 47 206 47 206 46 206 45 206 44 206 43 205 43 205 42"/><polygon class="cls-12" points="157 42 156 42 156 41 156 40 155 40 154 40 153 40 153 41 152 41 152 42 152 43 152 44 152 45 152 46 152 47 153 47 153 48 154 48 155 48 156 48 157 48 157 47 158 47 158 46 158 45 158 44 158 43 157 43 157 42"/><polygon class="cls-12" points="253 41 252 41 252 40 252 39 251 39 250 39 249 39 249 40 248 40 248 41 248 42 248 43 248 44 248 45 248 46 249 46 249 47 250 47 251 47 252 47 253 47 253 46 254 46 254 45 254 44 254 43 254 42 253 42 253 41"/><polygon class="cls-12" points="109 41 108 41 108 40 108 39 107 39 106 39 105 39 105 40 104 40 104 41 104 42 104 43 104 44 104 45 104 46 105 46 105 47 106 47 107 47 108 47 109 47 109 46 110 46 110 45 110 44 110 43 110 42 109 42 109 41"/><polygon class="cls-12" points="301 40 300 40 300 39 300 38 299 38 298 38 297 38 297 39 296 39 296 40 296 41 296 42 296 43 296 44 296 45 297 45 297 46 298 46 299 46 300 46 301 46 301 45 302 45 302 44 302 43 302 42 302 41 301 41 301 40"/><polygon class="cls-12" points="61 40 60 40 60 39 60 38 59 38 58 38 57 38 57 39 56 39 56 40 56 41 56 42 56 43 56 44 56 45 57 45 57 46 58 46 59 46 60 46 61 46 61 45 62 45 62 44 62 43 62 42 62 41 61 41 61 40"/><polygon class="cls-12" points="349 39 348 39 348 38 348 37 347 37 346 37 345 37 345 38 344 38 344 39 344 40 344 41 344 42 344 43 344 44 345 44 345 45 346 45 347 45 348 45 349 45 349 44 350 44 350 43 350 42 350 41 350 40 349 40 349 39"/><polygon class="cls-12" points="278 39 277 39 276 39 275 39 275 40 275 41 274 41 274 42 274 43 274 44 274 45 274 46 275 46 275 47 276 47 277 47 278 47 279 47 279 46 279 45 279 44 279 43 279 42 279 41 279 40 278 40 278 39"/><polygon class="cls-12" points="274 39 275 39 275 38 276 38 277 38 278 38 278 37 277 37 276 37 275 37 274 37 274 38 273 38 273 39 272 39 272 40 272 41 272 42 272 43 273 43 273 42 273 41 274 41 274 40 274 39"/><polygon class="cls-12" points="255 39 255 38 254 38 254 37 253 37 252 37 251 37 251 38 252 38 253 38 253 39 254 39 254 40 254 41 255 41 255 42 255 43 256 43 256 42 256 41 256 40 255 40 255 39"/><polygon class="cls-12" points="207 39 207 38 206 38 206 37 205 37 204 37 203 37 203 38 202 38 202 39 203 39 204 39 205 39 205 40 206 40 206 41 206 42 207 42 207 43 208 43 208 42 208 41 208 40 207 40 207 39"/><polygon class="cls-12" points="159 39 159 38 158 38 158 37 157 37 156 37 155 37 155 38 154 38 154 39 155 39 156 39 157 39 157 40 158 40 158 41 158 42 159 42 159 43 160 43 160 42 160 41 160 40 159 40 159 39"/><polygon class="cls-12" points="13 39 12 39 12 38 12 37 11 37 10 37 9 37 9 38 8 38 8 39 8 40 8 41 8 42 8 43 8 44 9 44 9 45 10 45 11 45 12 45 13 45 13 44 14 44 14 43 14 42 14 41 14 40 13 40 13 39"/><polygon class="cls-12" points="326 38 325 38 324 38 323 38 323 39 323 40 322 40 322 41 322 42 322 43 322 44 322 45 323 45 323 46 324 46 325 46 326 46 327 46 327 45 327 44 327 43 327 42 327 41 327 40 327 39 326 39 326 38"/><polygon class="cls-12" points="230 38 229 38 228 38 227 38 227 39 227 40 226 40 226 41 226 42 226 43 226 44 226 45 227 45 227 46 228 46 229 46 230 46 231 46 231 45 231 44 231 43 231 42 231 41 231 40 231 39 230 39 230 38"/><polygon class="cls-12" points="226 38 227 38 227 37 228 37 229 37 229 36 228 36 227 36 226 36 226 37 225 37 225 38 224 38 224 39 224 40 224 41 224 42 224 43 225 43 225 42 225 41 225 40 226 40 226 39 226 38"/><polygon class="cls-12" points="176 39 176 40 176 41 176 42 176 43 177 43 177 42 177 41 177 40 177 39 177 38 176 38 176 39"/><polygon class="cls-12" points="111 38 110 38 110 37 109 37 108 37 107 37 107 38 108 38 109 38 109 39 110 39 110 40 110 41 111 41 111 42 111 43 112 43 112 42 112 41 112 40 112 39 111 39 111 38"/><polygon class="cls-12" points="86 38 85 38 84 38 83 38 83 39 83 40 82 40 82 41 82 42 82 43 82 44 82 45 83 45 83 46 84 46 85 46 86 46 87 46 87 45 87 44 87 43 87 42 87 41 87 40 87 39 86 39 86 38"/><polygon class="cls-12" points="374 37 373 37 372 37 371 37 371 38 371 39 370 39 370 40 370 41 370 42 370 43 370 44 371 44 371 45 372 45 373 45 374 45 375 45 375 44 375 43 375 42 375 41 375 40 375 39 375 38 374 38 374 37"/><polygon class="cls-12" points="370 37 369 37 369 38 368 38 368 39 368 40 368 41 368 42 368 43 369 43 369 42 369 41 369 40 369 39 370 39 370 38 370 37"/><polygon class="cls-12" points="351 37 350 37 350 38 350 39 351 39 351 40 351 41 351 42 351 43 352 43 352 42 352 41 352 40 352 39 352 38 351 38 351 37"/><polygon class="cls-12" points="322 37 321 37 321 38 320 38 320 39 320 40 320 41 320 42 320 43 321 43 321 42 321 41 321 40 321 39 322 39 322 38 323 38 323 37 322 37"/><polygon class="cls-12" points="303 37 302 37 301 37 301 38 302 38 302 39 303 39 303 40 303 41 303 42 303 43 304 43 304 42 304 41 304 40 304 39 304 38 303 38 303 37"/><rect class="cls-12" x="177" y="37" width="1" height="1"/><polygon class="cls-12" points="134 37 133 37 132 37 131 37 131 38 131 39 130 39 130 40 130 41 130 42 130 43 130 44 131 44 131 45 132 45 133 45 134 45 135 45 135 44 135 43 135 42 135 41 135 40 135 39 135 38 134 38 134 37"/><polygon class="cls-12" points="130 37 129 37 129 38 128 38 128 39 128 40 128 41 128 42 128 43 129 43 129 42 129 41 129 40 129 39 130 39 130 38 130 37"/><polygon class="cls-12" points="82 37 81 37 81 38 80 38 80 39 80 40 80 41 80 42 80 43 81 43 81 42 81 41 81 40 81 39 82 39 82 38 83 38 83 37 82 37"/><polygon class="cls-12" points="63 37 62 37 61 37 61 38 62 38 62 39 63 39 63 40 63 41 63 42 63 43 64 43 64 42 64 41 64 40 64 39 64 38 63 38 63 37"/><polygon class="cls-12" points="38 37 37 37 36 37 35 37 35 38 35 39 34 39 34 40 34 41 34 42 34 43 34 44 35 44 35 45 36 45 37 45 38 45 39 45 39 44 39 43 39 42 39 41 39 40 39 39 39 38 38 38 38 37"/><polygon class="cls-12" points="34 37 33 37 33 38 32 38 32 39 32 40 32 41 32 42 32 43 33 43 33 42 33 41 33 40 33 39 34 39 34 38 34 37"/><polygon class="cls-12" points="15 37 14 37 14 38 14 39 15 39 15 40 15 41 15 42 15 43 16 43 16 42 16 41 16 40 16 39 16 38 15 38 15 37"/><polygon class="cls-12" points="182 36 181 36 180 36 179 36 179 37 179 38 178 38 178 39 178 40 178 41 178 42 178 43 179 43 179 44 180 44 181 44 182 44 183 44 183 43 183 42 183 41 183 40 183 39 183 38 183 37 182 37 182 36"/><rect class="cls-12" x="130" y="36" width="1" height="1"/><path class="cls-12" d="M379,29v-2h-1v-1h-2v-1h-1v1h-2v1h-2v1h-4v-1h3v-1h1v-1h2v-1h1v-1h1v-3h-1v-2h-1v-5h-1v-2h-1v-1h-1v-1h-1v-1h-2v-1h-1v-1h-3v1h-1v1h-1v1h-1v1h-2v-1h1v-1h-1v-1h-1v-1h-3v1h-2v1h-1v1h-1v1h-1v2h-3v4h2v1h-1v1h-1v2h-1v4h1v1h1v1h2v1h4v1h-4v-1h-2v-1h-2v-1h-1v1h-2v1h-1v2h-1v3h1v1h6v-3h-2v-1h-1v-1h1v1h2v1h1v3h-1v1h4v-1h7v1h3v-1h8v1h4v-1h-1v-3h1v-1h2v-1h1v1h-1v1h-2v3h6v-1h1v-3h-1ZM360,32h-1v-2h1v2ZM350,19v-1h2v1h1v2h-1v1h-1v-1h-1v1h-1v-1h1v-1h-1v-1h1ZM352,13h1v-1h3v3h-4v-2ZM371,19v2h-1v1h-1v-1h-1v1h-1v-1h1v-1h-1v-1h1v-1h2v1h1ZM364,12h4v3h-4v-3ZM359,17v-1h3v2h-3v-1ZM360,24h-1v-1h-1v-1h4v1h-1v1h-1ZM355,26h1v1h1v1h5v-1h1v-1h1v1h-1v1h-1v1h-5v-1h-1v-1h-1v-1Z"/><path class="cls-12" d="M236,29v-1h-1v-1h-2v-1h-4v1h-2v1h-4v-1h3v-1h1v-1h2v-1h1v-1h1v-3h-1v-2h-1v-5h-1v-2h-1v-1h-1v-1h-1v-1h-2v-1h-1v-1h-3v1h-1v1h-1v1h-1v1h-2v-1h1v-1h-1v-1h-1v-1h-3v1h-2v1h-1v1h-1v1h-1v2h-3v4h2v1h-1v1h-1v2h-1v4h1v1h1v1h2v1h4v1h-4v-1h-2v-1h-2v-1h-1v1h-2v1h-2v1h-1v2h-1v6h1v1h4v-4h-2v-1h2v1h1v-1h1v1h1v1h5v-1h7v1h3v-1h8v1h4v-1h1v-1h1v1h1v-1h2v1h-2v4h4v-1h1v-6h-1v-1ZM216,32h-1v-2h1v2ZM206,19v-1h2v1h1v2h-1v1h-1v-1h-1v1h-1v-1h1v-1h-1v-1h1ZM208,13h1v-1h3v3h-4v-2ZM227,19v2h-1v1h-1v-1h-1v1h-1v-1h1v-1h-1v-1h1v-1h2v1h1ZM220,12h4v3h-4v-3ZM215,17v-1h3v2h-3v-1ZM216,24h-1v-1h-1v-1h4v1h-1v1h-1ZM211,26h1v1h1v1h5v-1h1v-1h1v1h-1v1h-1v1h-5v-1h-1v-1h-1v-1Z"/><path class="cls-12" d="M188,29v-1h-1v-1h-2v-1h-4v1h-2v1h-4v-1h3v-1h1v-1h2v-1h1v-1h1v-3h-1v-2h-1v-5h-1v-2h-1v-1h-1v-1h-1v-1h-2v-1h-1v-1h-3v1h-1v1h-1v1h-1v1h-2v-1h1v-1h-1v-1h-1v-1h-3v1h-2v1h-1v1h-1v1h-1v2h-3v4h2v1h-1v1h-1v2h-1v4h1v1h1v1h2v1h4v1h-4v-1h-2v-1h-2v-1h-1v1h-2v1h-2v1h-1v2h-1v6h1v1h4v-4h-2v-1h2v1h1v-1h1v1h1v1h5v-1h7v1h3v-1h8v1h4v-1h1v-1h1v1h1v-1h2v1h-2v4h4v-1h1v-6h-1v-1ZM168,32h-1v-2h1v2ZM158,19v-1h2v1h1v2h-1v1h-1v-1h-1v1h-1v-1h1v-1h-1v-1h1ZM160,13h1v-1h3v3h-4v-2ZM179,19v2h-1v1h-1v-1h-1v1h-1v-1h1v-1h-1v-1h1v-1h2v1h1ZM172,12h4v3h-4v-3ZM167,17v-1h3v2h-3v-1ZM168,24h-1v-1h-1v-1h4v1h-1v1h-1ZM163,26h1v1h1v1h5v-1h1v-1h1v1h-1v1h-1v1h-5v-1h-1v-1h-1v-1Z"/><path class="cls-12" d="M43,28v-1h-1v-1h-2v-1h-1v1h-2v1h-2v1h-4v-1h3v-1h1v-1h2v-1h1v-1h1v-3h-1v-2h-1v-5h-1v-2h-1v-1h-1v-1h-1v-1h-2v-1h-1v-1h-3v1h-1v1h-1v1h-1v1h-2v-1h1v-1h-1v-1h-1v-1h-3v1h-2v1h-1v1h-1v1h-1v2h-3v4h2v1h-1v1h-1v2h-1v4h1v1h1v1h2v1h4v1h-4v-1h-2v-1h-2v-1h-1v1h-2v1h-1v2h-1v3h1v1h6v-3h-2v-1h-1v-1h1v1h2v1h1v3h-1v1h4v-1h7v1h3v-1h8v1h4v-1h-1v-3h1v-1h2v-1h1v1h-1v1h-2v3h6v-1h1v-3h-1v-1ZM24,32h-1v-2h1v2ZM14,19v-1h2v1h1v2h-1v1h-1v-1h-1v1h-1v-1h1v-1h-1v-1h1ZM16,13h1v-1h3v3h-4v-2ZM35,19v2h-1v1h-1v-1h-1v1h-1v-1h1v-1h-1v-1h1v-1h2v1h1ZM28,12h4v3h-4v-3ZM23,17v-1h3v2h-3v-1ZM24,24h-1v-1h-1v-1h4v1h-1v1h-1ZM19,26h1v1h1v1h5v-1h1v-1h1v1h-1v1h-1v1h-5v-1h-1v-1h-1v-1Z"/><path class="cls-12" d="M330,27h-1v-1h-1v-1h-1v1h-2v1h-2v1h-4v-1h3v-1h1v-1h2v-1h1v-1h1v-3h-1v-2h-1v-5h-1v-2h-1v-1h-1v-1h-1v-1h-2v-1h-1v-1h-3v1h-1v1h-1v1h-1v1h-2v-1h1v-1h-1v-1h-1v-1h-3v1h-2v1h-1v1h-1v1h-1v2h-3v4h2v1h-1v1h-1v2h-1v4h1v1h1v1h2v1h4v1h-4v-1h-2v-1h-2v-1h-1v1h-1v1h-1v1h-1v3h1v1h1v1h1v1h5v-3h-2v-1h-1v-2h1v2h2v1h1v3h1v-1h7v1h3v-1h8v1h1v-3h1v-1h2v-2h1v2h-1v1h-2v3h5v-1h1v-1h1v-1h1v-3h-1v-1ZM312,32h-1v-2h1v2ZM302,19v-1h2v1h1v2h-1v1h-1v-1h-1v1h-1v-1h1v-1h-1v-1h1ZM304,13h1v-1h3v3h-4v-2ZM323,19v2h-1v1h-1v-1h-1v1h-1v-1h1v-1h-1v-1h1v-1h2v1h1ZM316,12h4v3h-4v-3ZM311,17v-1h3v2h-3v-1ZM312,24h-1v-1h-1v-1h4v1h-1v1h-1ZM307,26h1v1h1v1h5v-1h1v-1h1v1h-1v1h-1v1h-5v-1h-1v-1h-1v-1Z"/><path class="cls-12" d="M283,27h-1v-1h-2v-1h-1v1h-2v1h-2v1h-4v-1h3v-1h1v-1h2v-1h1v-1h1v-3h-1v-2h-1v-5h-1v-2h-1v-1h-1v-1h-1v-1h-2v-1h-1v-1h-3v1h-1v1h-1v1h-1v1h-2v-1h1v-1h-1v-1h-1v-1h-3v1h-2v1h-1v1h-1v1h-1v2h-3v4h2v1h-1v1h-1v2h-1v4h1v1h1v1h2v1h4v1h-4v-1h-2v-1h-2v-1h-1v1h-2v1h-1v1h-1v4h1v1h1v1h1v1h4v-3h-1v-1h-1v-1h-1v-2h1v2h1v1h1v1h1v2h3v-1h7v1h3v-1h8v1h3v-2h1v-1h1v-1h1v-2h1v2h-1v1h-1v1h-1v3h4v-1h1v-1h1v-1h1v-4h-1v-1ZM264,32h-1v-2h1v2ZM254,19v-1h2v1h1v2h-1v1h-1v-1h-1v1h-1v-1h1v-1h-1v-1h1ZM256,13h1v-1h3v3h-4v-2ZM275,19v2h-1v1h-1v-1h-1v1h-1v-1h1v-1h-1v-1h1v-1h2v1h1ZM268,12h4v3h-4v-3ZM263,17v-1h3v2h-3v-1ZM264,24h-1v-1h-1v-1h4v1h-1v1h-1ZM259,26h1v1h1v1h5v-1h1v-1h1v1h-1v1h-1v1h-5v-1h-1v-1h-1v-1Z"/><path class="cls-12" d="M139,27h-1v-1h-2v-1h-1v1h-2v1h-2v1h-4v-1h3v-1h1v-1h2v-1h1v-1h1v-3h-1v-2h-1v-5h-1v-2h-1v-1h-1v-1h-1v-1h-2v-1h-1v-1h-3v1h-1v1h-1v1h-1v1h-2v-1h1v-1h-1v-1h-1v-1h-3v1h-2v1h-1v1h-1v1h-1v2h-3v4h2v1h-1v1h-1v2h-1v4h1v1h1v1h2v1h4v1h-4v-1h-2v-1h-2v-1h-1v1h-2v1h-1v1h-1v4h1v1h1v1h1v1h4v-3h-1v-1h-1v-1h-1v-2h1v2h1v1h1v1h1v2h3v-1h7v1h3v-1h8v1h3v-2h1v-1h1v-1h1v-2h1v2h-1v1h-1v1h-1v3h4v-1h1v-1h1v-1h1v-4h-1v-1ZM120,32h-1v-2h1v2ZM110,19v-1h2v1h1v2h-1v1h-1v-1h-1v1h-1v-1h1v-1h-1v-1h1ZM112,13h1v-1h3v3h-4v-2ZM131,19v2h-1v1h-1v-1h-1v1h-1v-1h1v-1h-1v-1h1v-1h2v1h1ZM124,12h4v3h-4v-3ZM119,17v-1h3v2h-3v-1ZM120,24h-1v-1h-1v-1h4v1h-1v1h-1ZM115,26h1v1h1v1h5v-1h1v-1h1v1h-1v1h-1v1h-5v-1h-1v-1h-1v-1Z"/><path class="cls-12" d="M90,27h-1v-1h-1v-1h-1v1h-2v1h-2v1h-4v-1h3v-1h1v-1h2v-1h1v-1h1v-3h-1v-2h-1v-5h-1v-2h-1v-1h-1v-1h-1v-1h-2v-1h-1v-1h-3v1h-1v1h-1v1h-1v1h-2v-1h1v-1h-1v-1h-1v-1h-3v1h-2v1h-1v1h-1v1h-1v2h-3v4h2v1h-1v1h-1v2h-1v4h1v1h1v1h2v1h4v1h-4v-1h-2v-1h-2v-1h-1v1h-1v1h-1v1h-1v3h1v1h1v1h1v1h5v-3h-2v-1h-1v-2h1v2h2v1h1v3h1v-1h7v1h3v-1h8v1h1v-3h1v-1h2v-2h1v2h-1v1h-2v3h5v-1h1v-1h1v-1h1v-3h-1v-1ZM72,32h-1v-2h1v2ZM62,19v-1h2v1h1v2h-1v1h-1v-1h-1v1h-1v-1h1v-1h-1v-1h1ZM64,13h1v-1h3v3h-4v-2ZM83,19v2h-1v1h-1v-1h-1v1h-1v-1h1v-1h-1v-1h1v-1h2v1h1ZM76,12h4v3h-4v-3ZM71,17v-1h3v2h-3v-1ZM72,24h-1v-1h-1v-1h4v1h-1v1h-1ZM67,26h1v1h1v1h5v-1h1v-1h1v1h-1v1h-1v1h-5v-1h-1v-1h-1v-1Z"/><rect class="cls-3" x="226" y="45" width="1" height="1"/><rect class="cls-3" x="130" y="44" width="1" height="1"/><rect class="cls-3" x="178" y="43" width="1" height="1"/><polygon class="cls-3" points="206 43 206 44 207 44 207 43 207 42 206 42 206 43"/><polygon class="cls-3" points="158 43 158 44 159 44 159 43 159 42 158 42 158 43"/><polygon class="cls-3" points="273 42 273 43 274 43 274 42 274 41 273 41 273 42"/><polygon class="cls-3" points="254 42 254 43 255 43 255 42 255 41 254 41 254 42"/><polygon class="cls-3" points="110 42 110 43 110 44 111 44 111 43 111 42 111 41 110 41 110 42"/><polygon class="cls-3" points="225 41 225 42 225 43 225 44 225 45 226 45 226 44 226 43 226 42 226 41 226 40 225 40 225 41"/><polygon class="cls-3" points="206 40 205 40 205 41 205 42 206 42 206 41 206 40"/><polygon class="cls-3" points="158 40 157 40 157 41 157 42 158 42 158 41 158 40"/><polygon class="cls-3" points="369 40 369 41 369 42 369 43 370 43 370 42 370 41 370 40 370 39 369 39 369 40"/><polygon class="cls-3" points="350 40 350 41 350 42 350 43 351 43 351 42 351 41 351 40 351 39 350 39 350 40"/><polygon class="cls-3" points="274 40 274 41 275 41 275 40 275 39 274 39 274 40"/><polygon class="cls-3" points="254 39 253 39 253 40 253 41 254 41 254 40 254 39"/><polygon class="cls-3" points="204 39 203 39 202 39 202 40 203 40 204 40 205 40 205 39 204 39"/><polygon class="cls-3" points="156 39 155 39 154 39 154 40 155 40 156 40 157 40 157 39 156 39"/><polygon class="cls-3" points="129 40 129 41 129 42 129 43 129 44 130 44 130 43 130 42 130 41 130 40 130 39 129 39 129 40"/><polygon class="cls-3" points="110 39 109 39 109 40 109 41 110 41 110 40 110 39"/><polygon class="cls-3" points="33 40 33 41 33 42 33 43 34 43 34 42 34 41 34 40 34 39 33 39 33 40"/><polygon class="cls-3" points="14 40 14 41 14 42 14 43 15 43 15 42 15 41 15 40 15 39 14 39 14 40"/><polygon class="cls-3" points="322 39 321 39 321 40 321 41 321 42 321 43 322 43 322 42 322 41 322 40 323 40 323 39 323 38 322 38 322 39"/><polygon class="cls-3" points="302 38 301 38 301 39 301 40 302 40 302 41 302 42 302 43 303 43 303 42 303 41 303 40 303 39 302 39 302 38"/><polygon class="cls-3" points="276 38 275 38 275 39 276 39 277 39 278 39 278 38 277 38 276 38"/><polygon class="cls-3" points="252 38 251 38 250 38 250 39 251 39 252 39 253 39 253 38 252 38"/><polygon class="cls-3" points="226 39 226 40 227 40 227 39 227 38 226 38 226 39"/><polygon class="cls-3" points="177 39 177 40 177 41 177 42 177 43 178 43 178 42 178 41 178 40 178 39 178 38 177 38 177 39"/><polygon class="cls-3" points="108 38 107 38 106 38 106 39 107 39 108 39 109 39 109 38 108 38"/><polygon class="cls-3" points="82 39 81 39 81 40 81 41 81 42 81 43 81 44 82 44 82 43 82 42 82 41 82 40 83 40 83 39 83 38 82 38 82 39"/><polygon class="cls-3" points="62 38 61 38 61 39 61 40 62 40 62 41 62 42 62 43 62 44 63 44 63 43 63 42 63 41 63 40 63 39 62 39 62 38"/><polygon class="cls-3" points="370 38 370 39 371 39 371 38 371 37 370 37 370 38"/><polygon class="cls-3" points="350 37 349 37 349 38 349 39 350 39 350 38 350 37"/><polygon class="cls-3" points="324 37 323 37 323 38 324 38 325 38 326 38 326 37 325 37 324 37"/><polygon class="cls-3" points="300 37 299 37 298 37 298 38 299 38 300 38 301 38 301 37 300 37"/><polygon class="cls-3" points="234 37 233 37 232 37 232 38 233 38 234 38 235 38 236 38 236 37 235 37 234 37"/><polygon class="cls-3" points="228 37 227 37 227 38 228 38 229 38 230 38 230 37 229 37 228 37"/><polygon class="cls-3" points="197 37 196 37 195 37 195 38 196 38 197 38 198 38 199 38 199 37 198 37 197 37"/><polygon class="cls-3" points="186 37 185 37 184 37 184 38 185 38 186 38 187 38 188 38 188 37 187 37 186 37"/><polygon class="cls-3" points="149 37 148 37 147 37 147 38 148 38 149 38 150 38 151 38 151 37 150 37 149 37"/><polygon class="cls-3" points="130 38 130 39 131 39 131 38 131 37 130 37 130 38"/><polygon class="cls-3" points="84 37 83 37 83 38 84 38 85 38 86 38 86 37 85 37 84 37"/><polygon class="cls-3" points="60 37 59 37 58 37 58 38 59 38 60 38 61 38 61 37 60 37"/><polygon class="cls-3" points="34 38 34 39 35 39 35 38 35 37 34 37 34 38"/><polygon class="cls-3" points="14 37 13 37 13 38 13 39 14 39 14 38 14 37"/><polygon class="cls-3" points="372 36 371 36 371 37 372 37 373 37 374 37 374 36 373 36 372 36"/><polygon class="cls-3" points="348 36 347 36 346 36 346 37 347 37 348 37 349 37 349 36 348 36"/><rect class="cls-3" x="236" y="36" width="1" height="1"/><rect class="cls-3" x="194" y="36" width="1" height="1"/><rect class="cls-3" x="188" y="36" width="1" height="1"/><polygon class="cls-3" points="178 37 178 38 179 38 179 37 179 36 178 36 178 37"/><rect class="cls-3" x="146" y="36" width="1" height="1"/><polygon class="cls-3" points="36 36 35 36 35 37 36 37 37 37 38 37 38 36 37 36 36 36"/><polygon class="cls-3" points="12 36 11 36 10 36 10 37 11 37 12 37 13 37 13 36 12 36"/><polygon class="cls-3" points="279 35 278 35 277 35 277 36 278 36 279 36 280 36 281 36 281 35 280 35 279 35"/><polygon class="cls-3" points="251 36 251 35 250 35 249 35 248 35 247 35 247 36 248 36 249 36 250 36 251 36"/><polygon class="cls-3" points="232 35 232 34 232 33 231 33 231 34 231 35 231 36 231 37 232 37 232 36 232 35"/><polygon class="cls-3" points="184 35 184 34 184 33 183 33 183 34 183 35 183 36 183 37 184 37 184 36 184 35"/><polygon class="cls-3" points="180 35 179 35 179 36 180 36 181 36 182 36 182 35 181 35 180 35"/><polygon class="cls-3" points="135 35 134 35 133 35 133 34 133 33 133 32 132 32 132 33 132 34 132 35 132 36 131 36 131 37 132 37 133 37 134 37 134 36 135 36 136 36 137 36 137 35 136 35 135 35"/><polygon class="cls-3" points="107 36 107 35 106 35 105 35 104 35 103 35 103 36 104 36 105 36 106 36 107 36"/><polygon class="cls-3" points="326 34 325 34 324 34 323 34 323 35 324 35 325 35 326 35 327 35 328 35 328 34 327 34 326 34"/><polygon class="cls-3" points="299 35 300 35 301 35 301 34 300 34 299 34 298 34 297 34 296 34 296 35 297 35 298 35 299 35"/><rect class="cls-3" x="281" y="34" width="1" height="1"/><polygon class="cls-3" points="252 34 252 33 252 32 251 32 251 33 251 34 251 35 252 35 252 34"/><rect class="cls-3" x="246" y="34" width="1" height="1"/><polygon class="cls-3" points="194 34 194 33 194 32 194 31 194 30 193 30 193 31 193 32 193 33 193 34 193 35 193 36 194 36 194 35 194 34"/><polygon class="cls-3" points="146 34 146 33 146 32 146 31 146 30 145 30 145 31 145 32 145 33 145 34 145 35 145 36 146 36 146 35 146 34"/><rect class="cls-3" x="137" y="34" width="1" height="1"/><polygon class="cls-3" points="108 34 108 33 108 32 107 32 107 33 107 34 107 35 108 35 108 34"/><rect class="cls-3" x="102" y="34" width="1" height="1"/><polygon class="cls-3" points="86 34 85 34 84 34 83 34 83 35 84 35 85 35 86 35 87 35 88 35 88 34 87 34 86 34"/><polygon class="cls-3" points="59 35 60 35 61 35 61 34 60 34 59 34 58 34 57 34 56 34 56 35 57 35 58 35 59 35"/><polygon class="cls-3" points="377 33 376 33 375 33 374 33 373 33 373 34 374 34 375 34 376 34 377 34 378 34 379 34 379 33 378 33 377 33"/><polygon class="cls-3" points="369 33 368 33 367 33 366 33 365 33 364 33 363 33 362 33 361 33 361 34 362 34 363 34 364 34 365 34 366 34 367 34 368 34 369 34 369 33"/><polygon class="cls-3" points="356 33 355 33 354 33 353 33 352 33 351 33 351 34 352 34 353 34 354 34 355 34 356 34 357 34 358 34 358 33 357 33 356 33"/><polygon class="cls-3" points="347 34 347 33 346 33 345 33 344 33 343 33 342 33 341 33 341 34 342 34 343 34 344 34 345 34 346 34 347 34"/><rect class="cls-3" x="328" y="33" width="1" height="1"/><polygon class="cls-3" points="321 33 320 33 319 33 318 33 317 33 316 33 315 33 314 33 313 33 313 34 314 34 315 34 316 34 317 34 318 34 319 34 320 34 321 34 321 33"/><polygon class="cls-3" points="308 33 307 33 306 33 305 33 304 33 303 33 303 34 304 34 305 34 306 34 307 34 308 34 309 34 310 34 310 33 309 33 308 33"/><polygon class="cls-3" points="302 33 302 32 302 31 301 31 301 32 301 33 301 34 302 34 302 33"/><rect class="cls-3" x="295" y="33" width="1" height="1"/><rect class="cls-3" x="282" y="33" width="1" height="1"/><polygon class="cls-3" points="277 33 277 32 276 32 276 33 276 34 276 35 277 35 277 34 277 33"/><polygon class="cls-3" points="273 33 272 33 271 33 270 33 269 33 268 33 267 33 266 33 265 33 265 34 266 34 267 34 268 34 269 34 270 34 271 34 272 34 273 34 273 33"/><polygon class="cls-3" points="260 33 259 33 258 33 257 33 256 33 255 33 255 34 256 34 257 34 258 34 259 34 260 34 261 34 262 34 262 33 261 33 260 33"/><rect class="cls-3" x="245" y="33" width="1" height="1"/><rect class="cls-3" x="229" y="33" width="1" height="1"/><polygon class="cls-3" points="225 33 224 33 223 33 222 33 221 33 220 33 219 33 218 33 217 33 217 34 218 34 219 34 220 34 221 34 222 34 223 34 224 34 225 34 225 33"/><polygon class="cls-3" points="212 33 211 33 210 33 209 33 208 33 207 33 207 34 208 34 209 34 210 34 211 34 212 34 213 34 214 34 214 33 213 33 212 33"/><rect class="cls-3" x="201" y="33" width="1" height="1"/><polygon class="cls-3" points="199 34 199 35 199 36 199 37 200 37 200 36 200 35 200 34 200 33 199 33 199 34"/><rect class="cls-3" x="181" y="33" width="1" height="1"/><polygon class="cls-3" points="177 33 176 33 175 33 174 33 173 33 172 33 171 33 170 33 169 33 169 34 170 34 171 34 172 34 173 34 174 34 175 34 176 34 177 34 177 33"/><polygon class="cls-3" points="164 33 163 33 162 33 161 33 160 33 159 33 159 34 160 34 161 34 162 34 163 34 164 34 165 34 166 34 166 33 165 33 164 33"/><rect class="cls-3" x="153" y="33" width="1" height="1"/><polygon class="cls-3" points="151 34 151 35 151 36 151 37 152 37 152 36 152 35 152 34 152 33 151 33 151 34"/><rect class="cls-3" x="138" y="33" width="1" height="1"/><polygon class="cls-3" points="129 33 128 33 127 33 126 33 125 33 124 33 123 33 122 33 121 33 121 34 122 34 123 34 124 34 125 34 126 34 127 34 128 34 129 34 129 33"/><polygon class="cls-3" points="116 33 115 33 114 33 113 33 112 33 111 33 111 34 112 34 113 34 114 34 115 34 116 34 117 34 118 34 118 33 117 33 116 33"/><rect class="cls-3" x="101" y="33" width="1" height="1"/><rect class="cls-3" x="88" y="33" width="1" height="1"/><polygon class="cls-3" points="81 33 80 33 79 33 78 33 77 33 76 33 75 33 74 33 73 33 73 34 74 34 75 34 76 34 77 34 78 34 79 34 80 34 81 34 81 33"/><polygon class="cls-3" points="68 33 67 33 66 33 65 33 64 33 63 33 63 34 64 34 65 34 66 34 67 34 68 34 69 34 70 34 70 33 69 33 68 33"/><polygon class="cls-3" points="62 33 62 32 62 31 61 31 61 32 61 33 61 34 62 34 62 33"/><rect class="cls-3" x="55" y="33" width="1" height="1"/><polygon class="cls-3" points="41 33 40 33 39 33 38 33 37 33 37 34 38 34 39 34 40 34 41 34 42 34 43 34 43 33 42 33 41 33"/><polygon class="cls-3" points="33 33 32 33 31 33 30 33 29 33 28 33 27 33 26 33 25 33 25 34 26 34 27 34 28 34 29 34 30 34 31 34 32 34 33 34 33 33"/><polygon class="cls-3" points="20 33 19 33 18 33 17 33 16 33 15 33 15 34 16 34 17 34 18 34 19 34 20 34 21 34 22 34 22 33 21 33 20 33"/><polygon class="cls-3" points="11 34 11 33 10 33 9 33 8 33 7 33 6 33 5 33 5 34 6 34 7 34 8 34 9 34 10 34 11 34"/><rect class="cls-3" x="379" y="32" width="1" height="1"/><polygon class="cls-3" points="348 32 348 31 348 30 347 30 347 31 347 32 347 33 348 33 348 32"/><rect class="cls-3" x="340" y="32" width="1" height="1"/><polygon class="cls-3" points="323 32 323 31 322 31 322 32 322 33 322 34 323 34 323 33 323 32"/><polygon class="cls-3" points="294 32 294 31 293 31 293 32 293 33 294 33 295 33 295 32 294 32"/><rect class="cls-3" x="283" y="32" width="1" height="1"/><rect class="cls-3" x="244" y="32" width="1" height="1"/><polygon class="cls-3" points="234 33 234 32 233 32 232 32 232 33 233 33 234 33"/><rect class="cls-3" x="230" y="32" width="1" height="1"/><rect class="cls-3" x="200" y="32" width="1" height="1"/><polygon class="cls-3" points="198 32 197 32 197 33 198 33 199 33 199 32 198 32"/><polygon class="cls-3" points="186 33 186 32 185 32 184 32 184 33 185 33 186 33"/><rect class="cls-3" x="182" y="32" width="1" height="1"/><rect class="cls-3" x="152" y="32" width="1" height="1"/><polygon class="cls-3" points="150 32 149 32 149 33 150 33 151 33 151 32 150 32"/><rect class="cls-3" x="139" y="32" width="1" height="1"/><rect class="cls-3" x="100" y="32" width="1" height="1"/><polygon class="cls-3" points="83 32 83 31 82 31 82 32 82 33 82 34 83 34 83 33 83 32"/><polygon class="cls-3" points="54 32 54 31 53 31 53 32 53 33 54 33 55 33 55 32 54 32"/><rect class="cls-3" x="43" y="32" width="1" height="1"/><polygon class="cls-3" points="12 32 12 31 12 30 11 30 11 31 11 32 11 33 12 33 12 32"/><rect class="cls-3" x="4" y="32" width="1" height="1"/><polygon class="cls-3" points="373 31 373 30 372 30 372 31 372 32 372 33 373 33 373 32 373 31"/><rect class="cls-3" x="277" y="31" width="1" height="1"/><rect class="cls-3" x="250" y="31" width="1" height="1"/><rect class="cls-3" x="133" y="31" width="1" height="1"/><rect class="cls-3" x="106" y="31" width="1" height="1"/><polygon class="cls-3" points="37 31 37 30 36 30 36 31 36 32 36 33 37 33 37 32 37 31"/><polygon class="cls-3" points="359 31 359 32 360 32 360 31 360 30 359 30 359 31"/><polygon class="cls-3" points="340 30 340 29 339 29 339 30 339 31 339 32 340 32 340 31 340 30"/><polygon class="cls-3" points="325 31 325 30 324 30 323 30 323 31 324 31 325 31"/><polygon class="cls-3" points="311 31 311 32 312 32 312 31 312 30 311 30 311 31"/><polygon class="cls-3" points="300 30 299 30 299 31 300 31 301 31 301 30 300 30"/><rect class="cls-3" x="278" y="30" width="1" height="1"/><polygon class="cls-3" points="263 31 263 32 264 32 264 31 264 30 263 30 263 31"/><rect class="cls-3" x="249" y="30" width="1" height="1"/><polygon class="cls-3" points="244 30 244 29 244 28 243 28 243 29 243 30 243 31 243 32 244 32 244 31 244 30"/><polygon class="cls-3" points="215 31 215 32 216 32 216 31 216 30 215 30 215 31"/><polygon class="cls-3" points="167 31 167 32 168 32 168 31 168 30 167 30 167 31"/><rect class="cls-3" x="134" y="30" width="1" height="1"/><polygon class="cls-3" points="119 31 119 32 120 32 120 31 120 30 119 30 119 31"/><rect class="cls-3" x="105" y="30" width="1" height="1"/><polygon class="cls-3" points="100 30 100 29 100 28 99 28 99 29 99 30 99 31 99 32 100 32 100 31 100 30"/><polygon class="cls-3" points="85 31 85 30 84 30 83 30 83 31 84 31 85 31"/><polygon class="cls-3" points="71 31 71 32 72 32 72 31 72 30 71 30 71 31"/><polygon class="cls-3" points="60 30 59 30 59 31 60 31 61 31 61 30 60 30"/><polygon class="cls-3" points="23 31 23 32 24 32 24 31 24 30 23 30 23 31"/><polygon class="cls-3" points="4 30 4 29 3 29 3 30 3 31 3 32 4 32 4 31 4 30"/><polygon class="cls-3" points="375 30 375 29 374 29 373 29 373 30 374 30 375 30"/><polygon class="cls-3" points="346 29 345 29 345 30 346 30 347 30 347 29 346 29"/><polygon class="cls-3" points="326 29 326 28 325 28 325 29 325 30 326 30 326 29"/><polygon class="cls-3" points="293 29 293 28 292 28 292 29 292 30 292 31 293 31 293 30 293 29"/><polygon class="cls-3" points="280 29 280 28 279 28 279 29 279 30 280 30 280 29"/><polygon class="cls-3" points="195 29 195 28 194 28 194 29 194 30 195 30 195 29"/><polygon class="cls-3" points="147 29 147 28 146 28 146 29 146 30 147 30 147 29"/><polygon class="cls-3" points="136 29 136 28 135 28 135 29 135 30 136 30 136 29"/><polygon class="cls-3" points="86 29 86 28 85 28 85 29 85 30 86 30 86 29"/><polygon class="cls-3" points="53 29 53 28 52 28 52 29 52 30 52 31 53 31 53 30 53 29"/><polygon class="cls-3" points="39 30 39 29 38 29 37 29 37 30 38 30 39 30"/><polygon class="cls-3" points="10 29 9 29 9 30 10 30 11 30 11 29 10 29"/><rect class="cls-3" x="375" y="28" width="1" height="1"/><polygon class="cls-3" points="362 29 362 28 361 28 360 28 359 28 358 28 357 28 357 29 358 29 359 29 360 29 361 29 362 29"/><rect class="cls-3" x="344" y="28" width="1" height="1"/><polygon class="cls-3" points="341 28 341 27 340 27 340 28 340 29 341 29 341 28"/><polygon class="cls-3" points="314 29 314 28 313 28 312 28 311 28 310 28 309 28 309 29 310 29 311 29 312 29 313 29 314 29"/><polygon class="cls-3" points="299 28 298 28 298 29 298 30 299 30 299 29 299 28"/><polygon class="cls-3" points="266 29 266 28 265 28 264 28 263 28 262 28 261 28 261 29 262 29 263 29 264 29 265 29 266 29"/><polygon class="cls-3" points="249 28 248 28 248 29 248 30 249 30 249 29 249 28"/><polygon class="cls-3" points="218 29 218 28 217 28 216 28 215 28 214 28 213 28 213 29 214 29 215 29 216 29 217 29 218 29"/><polygon class="cls-3" points="170 29 170 28 169 28 168 28 167 28 166 28 165 28 165 29 166 29 167 29 168 29 169 29 170 29"/><polygon class="cls-3" points="122 29 122 28 121 28 120 28 119 28 118 28 117 28 117 29 118 29 119 29 120 29 121 29 122 29"/><polygon class="cls-3" points="105 28 104 28 104 29 104 30 105 30 105 29 105 28"/><polygon class="cls-3" points="74 29 74 28 73 28 72 28 71 28 70 28 69 28 69 29 70 29 71 29 72 29 73 29 74 29"/><polygon class="cls-3" points="59 28 58 28 58 29 58 30 59 30 59 29 59 28"/><rect class="cls-3" x="39" y="28" width="1" height="1"/><polygon class="cls-3" points="26 29 26 28 25 28 24 28 23 28 22 28 21 28 21 29 22 29 23 29 24 29 25 29 26 29"/><rect class="cls-3" x="8" y="28" width="1" height="1"/><polygon class="cls-3" points="5 28 5 27 4 27 4 28 4 29 5 29 5 28"/><polygon class="cls-3" points="369 28 370 28 371 28 371 27 370 27 369 27 368 27 367 27 367 28 368 28 369 28"/><rect class="cls-3" x="362" y="27" width="1" height="1"/><rect class="cls-3" x="356" y="27" width="1" height="1"/><polygon class="cls-3" points="350 28 351 28 352 28 353 28 353 27 352 27 351 27 350 27 349 27 349 28 350 28"/><polygon class="cls-3" points="321 28 322 28 323 28 323 27 322 27 321 27 320 27 319 27 319 28 320 28 321 28"/><rect class="cls-3" x="314" y="27" width="1" height="1"/><rect class="cls-3" x="308" y="27" width="1" height="1"/><polygon class="cls-3" points="302 28 303 28 304 28 305 28 305 27 304 27 303 27 302 27 301 27 301 28 302 28"/><polygon class="cls-3" points="273 28 274 28 275 28 275 27 274 27 273 27 272 27 271 27 271 28 272 28 273 28"/><rect class="cls-3" x="266" y="27" width="1" height="1"/><rect class="cls-3" x="260" y="27" width="1" height="1"/><polygon class="cls-3" points="254 28 255 28 256 28 257 28 257 27 256 27 255 27 254 27 253 27 253 28 254 28"/><polygon class="cls-3" points="225 28 226 28 227 28 227 27 226 27 225 27 224 27 223 27 223 28 224 28 225 28"/><rect class="cls-3" x="218" y="27" width="1" height="1"/><rect class="cls-3" x="212" y="27" width="1" height="1"/><polygon class="cls-3" points="206 28 207 28 208 28 209 28 209 27 208 27 207 27 206 27 205 27 205 28 206 28"/><rect class="cls-3" x="195" y="27" width="1" height="1"/><polygon class="cls-3" points="177 28 178 28 179 28 179 27 178 27 177 27 176 27 175 27 175 28 176 28 177 28"/><rect class="cls-3" x="170" y="27" width="1" height="1"/><rect class="cls-3" x="164" y="27" width="1" height="1"/><polygon class="cls-3" points="158 28 159 28 160 28 161 28 161 27 160 27 159 27 158 27 157 27 157 28 158 28"/><rect class="cls-3" x="147" y="27" width="1" height="1"/><polygon class="cls-3" points="129 28 130 28 131 28 131 27 130 27 129 27 128 27 127 27 127 28 128 28 129 28"/><rect class="cls-3" x="122" y="27" width="1" height="1"/><rect class="cls-3" x="116" y="27" width="1" height="1"/><polygon class="cls-3" points="110 28 111 28 112 28 113 28 113 27 112 27 111 27 110 27 109 27 109 28 110 28"/><polygon class="cls-3" points="81 28 82 28 83 28 83 27 82 27 81 27 80 27 79 27 79 28 80 28 81 28"/><rect class="cls-3" x="74" y="27" width="1" height="1"/><rect class="cls-3" x="68" y="27" width="1" height="1"/><polygon class="cls-3" points="62 28 63 28 64 28 65 28 65 27 64 27 63 27 62 27 61 27 61 28 62 28"/><polygon class="cls-3" points="33 28 34 28 35 28 35 27 34 27 33 27 32 27 31 27 31 28 32 28 33 28"/><rect class="cls-3" x="26" y="27" width="1" height="1"/><rect class="cls-3" x="20" y="27" width="1" height="1"/><polygon class="cls-3" points="14 28 15 28 16 28 17 28 17 27 16 27 15 27 14 27 13 27 13 28 14 28"/><polygon class="cls-3" points="373 27 373 26 372 26 371 26 371 27 372 27 373 27"/><rect class="cls-3" x="363" y="26" width="1" height="1"/><rect class="cls-3" x="355" y="26" width="1" height="1"/><polygon class="cls-3" points="348 27 349 27 349 26 348 26 347 26 347 27 348 27"/><polygon class="cls-3" points="325 27 325 26 324 26 323 26 323 27 324 27 325 27"/><rect class="cls-3" x="315" y="26" width="1" height="1"/><rect class="cls-3" x="307" y="26" width="1" height="1"/><polygon class="cls-3" points="300 27 301 27 301 26 300 26 299 26 299 27 300 27"/><polygon class="cls-3" points="277 27 277 26 276 26 275 26 275 27 276 27 277 27"/><rect class="cls-3" x="267" y="26" width="1" height="1"/><rect class="cls-3" x="259" y="26" width="1" height="1"/><polygon class="cls-3" points="252 27 253 27 253 26 252 26 251 26 251 27 252 27"/><polygon class="cls-3" points="229 27 229 26 228 26 227 26 227 27 228 27 229 27"/><rect class="cls-3" x="219" y="26" width="1" height="1"/><rect class="cls-3" x="211" y="26" width="1" height="1"/><polygon class="cls-3" points="204 27 205 27 205 26 204 26 203 26 203 27 204 27"/><polygon class="cls-3" points="181 27 181 26 180 26 179 26 179 27 180 27 181 27"/><rect class="cls-3" x="171" y="26" width="1" height="1"/><rect class="cls-3" x="163" y="26" width="1" height="1"/><polygon class="cls-3" points="156 27 157 27 157 26 156 26 155 26 155 27 156 27"/><polygon class="cls-3" points="133 27 133 26 132 26 131 26 131 27 132 27 133 27"/><rect class="cls-3" x="123" y="26" width="1" height="1"/><rect class="cls-3" x="115" y="26" width="1" height="1"/><polygon class="cls-3" points="108 27 109 27 109 26 108 26 107 26 107 27 108 27"/><polygon class="cls-3" points="85 27 85 26 84 26 83 26 83 27 84 27 85 27"/><rect class="cls-3" x="75" y="26" width="1" height="1"/><rect class="cls-3" x="67" y="26" width="1" height="1"/><polygon class="cls-3" points="60 27 61 27 61 26 60 26 59 26 59 27 60 27"/><polygon class="cls-3" points="37 27 37 26 36 26 35 26 35 27 36 27 37 27"/><rect class="cls-3" x="27" y="26" width="1" height="1"/><rect class="cls-3" x="19" y="26" width="1" height="1"/><polygon class="cls-3" points="12 27 13 27 13 26 12 26 11 26 11 27 12 27"/><polygon class="cls-3" points="375 26 375 25 374 25 373 25 373 26 374 26 375 26"/><polygon class="cls-3" points="345 26 346 26 347 26 347 25 346 25 346 24 345 24 345 25 345 26"/><polygon class="cls-3" points="327 26 327 25 326 25 325 25 325 26 326 26 327 26"/><polygon class="cls-3" points="297 26 298 26 299 26 299 25 298 25 298 24 297 24 297 25 297 26"/><polygon class="cls-3" points="279 26 279 25 278 25 277 25 277 26 278 26 279 26"/><polygon class="cls-3" points="249 26 250 26 251 26 251 25 250 25 250 24 249 24 249 25 249 26"/><polygon class="cls-3" points="231 26 231 25 230 25 229 25 229 26 230 26 231 26"/><polygon class="cls-3" points="201 26 202 26 203 26 203 25 202 25 202 24 201 24 201 25 201 26"/><polygon class="cls-3" points="183 26 183 25 182 25 181 25 181 26 182 26 183 26"/><polygon class="cls-3" points="153 26 154 26 155 26 155 25 154 25 154 24 153 24 153 25 153 26"/><polygon class="cls-3" points="135 26 135 25 134 25 133 25 133 26 134 26 135 26"/><polygon class="cls-3" points="105 26 106 26 107 26 107 25 106 25 106 24 105 24 105 25 105 26"/><polygon class="cls-3" points="87 26 87 25 86 25 85 25 85 26 86 26 87 26"/><polygon class="cls-3" points="57 26 58 26 59 26 59 25 58 25 58 24 57 24 57 25 57 26"/><polygon class="cls-3" points="39 26 39 25 38 25 37 25 37 26 38 26 39 26"/><polygon class="cls-3" points="9 26 10 26 11 26 11 25 10 25 10 24 9 24 9 25 9 26"/><rect class="cls-3" x="375" y="23" width="1" height="1"/><polygon class="cls-3" points="359 24 360 24 361 24 361 23 362 23 362 22 361 22 360 22 359 22 358 22 358 23 359 23 359 24"/><polygon class="cls-3" points="345 23 345 22 345 21 345 20 344 20 344 21 344 22 344 23 344 24 345 24 345 23"/><rect class="cls-3" x="327" y="23" width="1" height="1"/><polygon class="cls-3" points="311 24 312 24 313 24 313 23 314 23 314 22 313 22 312 22 311 22 310 22 310 23 311 23 311 24"/><polygon class="cls-3" points="297 23 297 22 297 21 297 20 296 20 296 21 296 22 296 23 296 24 297 24 297 23"/><rect class="cls-3" x="279" y="23" width="1" height="1"/><polygon class="cls-3" points="263 24 264 24 265 24 265 23 266 23 266 22 265 22 264 22 263 22 262 22 262 23 263 23 263 24"/><polygon class="cls-3" points="249 23 249 22 249 21 249 20 248 20 248 21 248 22 248 23 248 24 249 24 249 23"/><rect class="cls-3" x="231" y="23" width="1" height="1"/><polygon class="cls-3" points="215 24 216 24 217 24 217 23 218 23 218 22 217 22 216 22 215 22 214 22 214 23 215 23 215 24"/><polygon class="cls-3" points="201 23 201 22 201 21 201 20 200 20 200 21 200 22 200 23 200 24 201 24 201 23"/><rect class="cls-3" x="183" y="23" width="1" height="1"/><polygon class="cls-3" points="167 24 168 24 169 24 169 23 170 23 170 22 169 22 168 22 167 22 166 22 166 23 167 23 167 24"/><polygon class="cls-3" points="153 23 153 22 153 21 153 20 152 20 152 21 152 22 152 23 152 24 153 24 153 23"/><rect class="cls-3" x="135" y="23" width="1" height="1"/><polygon class="cls-3" points="119 24 120 24 121 24 121 23 122 23 122 22 121 22 120 22 119 22 118 22 118 23 119 23 119 24"/><polygon class="cls-3" points="105 23 105 22 105 21 105 20 104 20 104 21 104 22 104 23 104 24 105 24 105 23"/><rect class="cls-3" x="87" y="23" width="1" height="1"/><polygon class="cls-3" points="71 24 72 24 73 24 73 23 74 23 74 22 73 22 72 22 71 22 70 22 70 23 71 23 71 24"/><polygon class="cls-3" points="57 23 57 22 57 21 57 20 56 20 56 21 56 22 56 23 56 24 57 24 57 23"/><rect class="cls-3" x="39" y="23" width="1" height="1"/><polygon class="cls-3" points="23 24 24 24 25 24 25 23 26 23 26 22 25 22 24 22 23 22 22 22 22 23 23 23 23 24"/><polygon class="cls-3" points="9 23 9 22 9 21 9 20 8 20 8 21 8 22 8 23 8 24 9 24 9 23"/><rect class="cls-3" x="345" y="19" width="1" height="1"/><rect class="cls-3" x="297" y="19" width="1" height="1"/><rect class="cls-3" x="249" y="19" width="1" height="1"/><rect class="cls-3" x="201" y="19" width="1" height="1"/><rect class="cls-3" x="153" y="19" width="1" height="1"/><rect class="cls-3" x="105" y="19" width="1" height="1"/><rect class="cls-3" x="57" y="19" width="1" height="1"/><rect class="cls-3" x="9" y="19" width="1" height="1"/><polygon class="cls-3" points="348 17 348 16 347 16 346 16 346 17 347 17 348 17"/><polygon class="cls-3" points="300 17 300 16 299 16 298 16 298 17 299 17 300 17"/><polygon class="cls-3" points="252 17 252 16 251 16 250 16 250 17 251 17 252 17"/><polygon class="cls-3" points="204 17 204 16 203 16 202 16 202 17 203 17 204 17"/><polygon class="cls-3" points="156 17 156 16 155 16 154 16 154 17 155 17 156 17"/><polygon class="cls-3" points="108 17 108 16 107 16 106 16 106 17 107 17 108 17"/><polygon class="cls-3" points="60 17 60 16 59 16 58 16 58 17 59 17 60 17"/><polygon class="cls-3" points="12 17 12 16 11 16 10 16 10 17 11 17 12 17"/><polygon class="cls-3" points="349 11 349 10 348 10 348 11 348 12 349 12 349 11"/><polygon class="cls-3" points="301 11 301 10 300 10 300 11 300 12 301 12 301 11"/><polygon class="cls-3" points="253 11 253 10 252 10 252 11 252 12 253 12 253 11"/><polygon class="cls-3" points="205 11 205 10 204 10 204 11 204 12 205 12 205 11"/><polygon class="cls-3" points="157 11 157 10 156 10 156 11 156 12 157 12 157 11"/><polygon class="cls-3" points="109 11 109 10 108 10 108 11 108 12 109 12 109 11"/><polygon class="cls-3" points="61 11 61 10 60 10 60 11 60 12 61 12 61 11"/><polygon class="cls-3" points="13 11 13 10 12 10 12 11 12 12 13 12 13 11"/><rect class="cls-3" x="349" y="9" width="1" height="1"/><rect class="cls-3" x="301" y="9" width="1" height="1"/><rect class="cls-3" x="253" y="9" width="1" height="1"/><rect class="cls-3" x="205" y="9" width="1" height="1"/><rect class="cls-3" x="157" y="9" width="1" height="1"/><rect class="cls-3" x="109" y="9" width="1" height="1"/><rect class="cls-3" x="61" y="9" width="1" height="1"/><rect class="cls-3" x="13" y="9" width="1" height="1"/><rect class="cls-3" x="350" y="8" width="1" height="1"/><rect class="cls-3" x="302" y="8" width="1" height="1"/><rect class="cls-3" x="254" y="8" width="1" height="1"/><rect class="cls-3" x="206" y="8" width="1" height="1"/><rect class="cls-3" x="158" y="8" width="1" height="1"/><rect class="cls-3" x="110" y="8" width="1" height="1"/><rect class="cls-3" x="62" y="8" width="1" height="1"/><rect class="cls-3" x="14" y="8" width="1" height="1"/><rect class="cls-3" x="351" y="7" width="1" height="1"/><rect class="cls-3" x="303" y="7" width="1" height="1"/><rect class="cls-3" x="255" y="7" width="1" height="1"/><rect class="cls-3" x="207" y="7" width="1" height="1"/><rect class="cls-3" x="159" y="7" width="1" height="1"/><rect class="cls-3" x="111" y="7" width="1" height="1"/><rect class="cls-3" x="63" y="7" width="1" height="1"/><rect class="cls-3" x="15" y="7" width="1" height="1"/><rect class="cls-3" x="353" y="6" width="1" height="1"/><rect class="cls-3" x="305" y="6" width="1" height="1"/><rect class="cls-3" x="257" y="6" width="1" height="1"/><rect class="cls-3" x="209" y="6" width="1" height="1"/><rect class="cls-3" x="161" y="6" width="1" height="1"/><rect class="cls-3" x="113" y="6" width="1" height="1"/><rect class="cls-3" x="65" y="6" width="1" height="1"/><rect class="cls-3" x="17" y="6" width="1" height="1"/><polygon class="cls-9" points="359 8 359 9 358 9 358 10 359 10 360 10 360 9 360 8 359 8"/><rect class="cls-9" x="349" y="8" width="1" height="1"/><polygon class="cls-9" points="311 9 310 9 310 10 311 10 312 10 312 9 312 8 311 8 311 9"/><rect class="cls-9" x="301" y="8" width="1" height="1"/><polygon class="cls-9" points="263 9 262 9 262 10 263 10 264 10 264 9 264 8 263 8 263 9"/><rect class="cls-9" x="253" y="8" width="1" height="1"/><polygon class="cls-9" points="215 9 214 9 214 10 215 10 216 10 216 9 216 8 215 8 215 9"/><rect class="cls-9" x="205" y="8" width="1" height="1"/><polygon class="cls-9" points="167 9 166 9 166 10 167 10 168 10 168 9 168 8 167 8 167 9"/><rect class="cls-9" x="157" y="8" width="1" height="1"/><polygon class="cls-9" points="119 9 118 9 118 10 119 10 120 10 120 9 120 8 119 8 119 9"/><rect class="cls-9" x="109" y="8" width="1" height="1"/><polygon class="cls-9" points="71 9 70 9 70 10 71 10 72 10 72 9 72 8 71 8 71 9"/><rect class="cls-9" x="61" y="8" width="1" height="1"/><polygon class="cls-9" points="23 9 22 9 22 10 23 10 24 10 24 9 24 8 23 8 23 9"/><rect class="cls-9" x="13" y="8" width="1" height="1"/><rect class="cls-9" x="358" y="7" width="1" height="1"/><rect class="cls-9" x="350" y="7" width="1" height="1"/><rect class="cls-9" x="310" y="7" width="1" height="1"/><rect class="cls-9" x="302" y="7" width="1" height="1"/><rect class="cls-9" x="262" y="7" width="1" height="1"/><rect class="cls-9" x="254" y="7" width="1" height="1"/><rect class="cls-9" x="214" y="7" width="1" height="1"/><rect class="cls-9" x="206" y="7" width="1" height="1"/><rect class="cls-9" x="166" y="7" width="1" height="1"/><rect class="cls-9" x="158" y="7" width="1" height="1"/><rect class="cls-9" x="118" y="7" width="1" height="1"/><rect class="cls-9" x="110" y="7" width="1" height="1"/><rect class="cls-9" x="70" y="7" width="1" height="1"/><rect class="cls-9" x="62" y="7" width="1" height="1"/><rect class="cls-9" x="22" y="7" width="1" height="1"/><rect class="cls-9" x="14" y="7" width="1" height="1"/><rect class="cls-9" x="357" y="6" width="1" height="1"/><polygon class="cls-9" points="351 6 351 7 352 7 353 7 353 6 352 6 351 6"/><rect class="cls-9" x="309" y="6" width="1" height="1"/><polygon class="cls-9" points="303 6 303 7 304 7 305 7 305 6 304 6 303 6"/><rect class="cls-9" x="261" y="6" width="1" height="1"/><polygon class="cls-9" points="255 6 255 7 256 7 257 7 257 6 256 6 255 6"/><rect class="cls-9" x="213" y="6" width="1" height="1"/><polygon class="cls-9" points="207 6 207 7 208 7 209 7 209 6 208 6 207 6"/><rect class="cls-9" x="165" y="6" width="1" height="1"/><polygon class="cls-9" points="159 6 159 7 160 7 161 7 161 6 160 6 159 6"/><rect class="cls-9" x="117" y="6" width="1" height="1"/><polygon class="cls-9" points="111 6 111 7 112 7 113 7 113 6 112 6 111 6"/><rect class="cls-9" x="69" y="6" width="1" height="1"/><polygon class="cls-9" points="63 6 63 7 64 7 65 7 65 6 64 6 63 6"/><rect class="cls-9" x="21" y="6" width="1" height="1"/><polygon class="cls-9" points="15 6 15 7 16 7 17 7 17 6 16 6 15 6"/><polygon class="cls-9" points="356 5 355 5 354 5 353 5 353 6 354 6 355 6 356 6 357 6 357 5 356 5"/><polygon class="cls-9" points="308 5 307 5 306 5 305 5 305 6 306 6 307 6 308 6 309 6 309 5 308 5"/><polygon class="cls-9" points="260 5 259 5 258 5 257 5 257 6 258 6 259 6 260 6 261 6 261 5 260 5"/><polygon class="cls-9" points="212 5 211 5 210 5 209 5 209 6 210 6 211 6 212 6 213 6 213 5 212 5"/><polygon class="cls-9" points="164 5 163 5 162 5 161 5 161 6 162 6 163 6 164 6 165 6 165 5 164 5"/><polygon class="cls-9" points="116 5 115 5 114 5 113 5 113 6 114 6 115 6 116 6 117 6 117 5 116 5"/><polygon class="cls-9" points="68 5 67 5 66 5 65 5 65 6 66 6 67 6 68 6 69 6 69 5 68 5"/><polygon class="cls-9" points="20 5 19 5 18 5 17 5 17 6 18 6 19 6 20 6 21 6 21 5 20 5"/><rect class="cls-2" x="368" y="5" width="1" height="1"/><rect class="cls-2" x="320" y="5" width="1" height="1"/><rect class="cls-2" x="272" y="5" width="1" height="1"/><rect class="cls-2" x="224" y="5" width="1" height="1"/><rect class="cls-2" x="176" y="5" width="1" height="1"/><rect class="cls-2" x="128" y="5" width="1" height="1"/><rect class="cls-2" x="80" y="5" width="1" height="1"/><rect class="cls-2" x="32" y="5" width="1" height="1"/><polygon class="cls-2" points="367 4 366 4 366 5 367 5 368 5 368 4 367 4"/><rect class="cls-2" x="360" y="4" width="1" height="1"/><polygon class="cls-2" points="319 4 318 4 318 5 319 5 320 5 320 4 319 4"/><rect class="cls-2" x="312" y="4" width="1" height="1"/><polygon class="cls-2" points="271 4 270 4 270 5 271 5 272 5 272 4 271 4"/><rect class="cls-2" x="264" y="4" width="1" height="1"/><polygon class="cls-2" points="223 4 222 4 222 5 223 5 224 5 224 4 223 4"/><rect class="cls-2" x="216" y="4" width="1" height="1"/><polygon class="cls-2" points="175 4 174 4 174 5 175 5 176 5 176 4 175 4"/><rect class="cls-2" x="168" y="4" width="1" height="1"/><polygon class="cls-2" points="127 4 126 4 126 5 127 5 128 5 128 4 127 4"/><rect class="cls-2" x="120" y="4" width="1" height="1"/><polygon class="cls-2" points="79 4 78 4 78 5 79 5 80 5 80 4 79 4"/><rect class="cls-2" x="72" y="4" width="1" height="1"/><polygon class="cls-2" points="31 4 30 4 30 5 31 5 32 5 32 4 31 4"/><rect class="cls-2" x="24" y="4" width="1" height="1"/><polygon class="cls-2" points="365 3 364 3 363 3 362 3 361 3 361 4 362 4 363 4 364 4 365 4 366 4 366 3 365 3"/><polygon class="cls-2" points="317 3 316 3 315 3 314 3 313 3 313 4 314 4 315 4 316 4 317 4 318 4 318 3 317 3"/><polygon class="cls-2" points="269 3 268 3 267 3 266 3 265 3 265 4 266 4 267 4 268 4 269 4 270 4 270 3 269 3"/><polygon class="cls-2" points="221 3 220 3 219 3 218 3 217 3 217 4 218 4 219 4 220 4 221 4 222 4 222 3 221 3"/><polygon class="cls-2" points="173 3 172 3 171 3 170 3 169 3 169 4 170 4 171 4 172 4 173 4 174 4 174 3 173 3"/><polygon class="cls-2" points="125 3 124 3 123 3 122 3 121 3 121 4 122 4 123 4 124 4 125 4 126 4 126 3 125 3"/><polygon class="cls-2" points="77 3 76 3 75 3 74 3 73 3 73 4 74 4 75 4 76 4 77 4 78 4 78 3 77 3"/><polygon class="cls-2" points="29 3 28 3 27 3 26 3 25 3 25 4 26 4 27 4 28 4 29 4 30 4 30 3 29 3"/><polygon class="cls-7" points="370 7 370 6 369 6 368 6 368 5 367 5 366 5 366 4 365 4 364 4 363 4 362 4 361 4 361 5 360 5 360 4 361 4 361 3 360 3 359 3 358 3 357 3 356 3 355 3 354 3 354 4 353 4 352 4 352 5 351 5 351 6 352 6 353 6 353 5 354 5 355 5 356 5 357 5 357 6 358 6 358 7 359 7 359 8 360 8 360 9 361 9 361 8 362 8 362 7 363 7 363 6 364 6 365 6 366 6 366 7 367 7 368 7 369 7 369 8 370 8 370 9 371 9 371 8 371 7 370 7"/><rect class="cls-7" x="349" y="7" width="1" height="1"/><rect class="cls-7" x="301" y="7" width="1" height="1"/><rect class="cls-7" x="253" y="7" width="1" height="1"/><rect class="cls-7" x="205" y="7" width="1" height="1"/><rect class="cls-7" x="157" y="7" width="1" height="1"/><rect class="cls-7" x="109" y="7" width="1" height="1"/><rect class="cls-7" x="61" y="7" width="1" height="1"/><rect class="cls-7" x="13" y="7" width="1" height="1"/><rect class="cls-7" x="350" y="6" width="1" height="1"/><polygon class="cls-7" points="322 6 321 6 320 6 320 5 319 5 318 5 318 4 317 4 316 4 315 4 314 4 313 4 313 5 312 5 312 4 313 4 313 3 312 3 311 3 310 3 309 3 308 3 307 3 306 3 306 4 305 4 304 4 304 5 303 5 303 6 304 6 305 6 305 5 306 5 307 5 308 5 309 5 309 6 310 6 310 7 311 7 311 8 312 8 312 9 313 9 313 8 314 8 314 7 315 7 315 6 316 6 317 6 318 6 318 7 319 7 320 7 321 7 321 8 322 8 322 9 323 9 323 8 323 7 322 7 322 6"/><rect class="cls-7" x="302" y="6" width="1" height="1"/><polygon class="cls-7" points="274 6 273 6 272 6 272 5 271 5 270 5 270 4 269 4 268 4 267 4 266 4 265 4 265 5 264 5 264 4 265 4 265 3 264 3 263 3 262 3 261 3 260 3 259 3 258 3 258 4 257 4 256 4 256 5 255 5 255 6 256 6 257 6 257 5 258 5 259 5 260 5 261 5 261 6 262 6 262 7 263 7 263 8 264 8 264 9 265 9 265 8 266 8 266 7 267 7 267 6 268 6 269 6 270 6 270 7 271 7 272 7 273 7 273 8 274 8 274 9 275 9 275 8 275 7 274 7 274 6"/><rect class="cls-7" x="254" y="6" width="1" height="1"/><polygon class="cls-7" points="226 6 225 6 224 6 224 5 223 5 222 5 222 4 221 4 220 4 219 4 218 4 217 4 217 5 216 5 216 4 217 4 217 3 216 3 215 3 214 3 213 3 212 3 211 3 210 3 210 4 209 4 208 4 208 5 207 5 207 6 208 6 209 6 209 5 210 5 211 5 212 5 213 5 213 6 214 6 214 7 215 7 215 8 216 8 216 9 217 9 217 8 218 8 218 7 219 7 219 6 220 6 221 6 222 6 222 7 223 7 224 7 225 7 225 8 226 8 226 9 227 9 227 8 227 7 226 7 226 6"/><rect class="cls-7" x="206" y="6" width="1" height="1"/><polygon class="cls-7" points="178 6 177 6 176 6 176 5 175 5 174 5 174 4 173 4 172 4 171 4 170 4 169 4 169 5 168 5 168 4 169 4 169 3 168 3 167 3 166 3 165 3 164 3 163 3 162 3 162 4 161 4 160 4 160 5 159 5 159 6 160 6 161 6 161 5 162 5 163 5 164 5 165 5 165 6 166 6 166 7 167 7 167 8 168 8 168 9 169 9 169 8 170 8 170 7 171 7 171 6 172 6 173 6 174 6 174 7 175 7 176 7 177 7 177 8 178 8 178 9 179 9 179 8 179 7 178 7 178 6"/><rect class="cls-7" x="158" y="6" width="1" height="1"/><polygon class="cls-7" points="130 6 129 6 128 6 128 5 127 5 126 5 126 4 125 4 124 4 123 4 122 4 121 4 121 5 120 5 120 4 121 4 121 3 120 3 119 3 118 3 117 3 116 3 115 3 114 3 114 4 113 4 112 4 112 5 111 5 111 6 112 6 113 6 113 5 114 5 115 5 116 5 117 5 117 6 118 6 118 7 119 7 119 8 120 8 120 9 121 9 121 8 122 8 122 7 123 7 123 6 124 6 125 6 126 6 126 7 127 7 128 7 129 7 129 8 130 8 130 9 131 9 131 8 131 7 130 7 130 6"/><rect class="cls-7" x="110" y="6" width="1" height="1"/><polygon class="cls-7" points="82 6 81 6 80 6 80 5 79 5 78 5 78 4 77 4 76 4 75 4 74 4 73 4 73 5 72 5 72 4 73 4 73 3 72 3 71 3 70 3 69 3 68 3 67 3 66 3 66 4 65 4 64 4 64 5 63 5 63 6 64 6 65 6 65 5 66 5 67 5 68 5 69 5 69 6 70 6 70 7 71 7 71 8 72 8 72 9 73 9 73 8 74 8 74 7 75 7 75 6 76 6 77 6 78 6 78 7 79 7 80 7 81 7 81 8 82 8 82 9 83 9 83 8 83 7 82 7 82 6"/><rect class="cls-7" x="62" y="6" width="1" height="1"/><polygon class="cls-7" points="34 6 33 6 32 6 32 5 31 5 30 5 30 4 29 4 28 4 27 4 26 4 25 4 25 5 24 5 24 4 25 4 25 3 24 3 23 3 22 3 21 3 20 3 19 3 18 3 18 4 17 4 16 4 16 5 15 5 15 6 16 6 17 6 17 5 18 5 19 5 20 5 21 5 21 6 22 6 22 7 23 7 23 8 24 8 24 9 25 9 25 8 26 8 26 7 27 7 27 6 28 6 29 6 30 6 30 7 31 7 32 7 33 7 33 8 34 8 34 9 35 9 35 8 35 7 34 7 34 6"/><rect class="cls-7" x="14" y="6" width="1" height="1"/></svg>