<?xml version="1.0" encoding="UTF-8"?><svg id="Layer_1" xmlns="http://www.w3.org/2000/svg" width="48" height="72" viewBox="0 0 48 72"><polygon points="33 69 33 68 32 68 31 68 30 68 29 68 28 68 27 68 27 69 27 70 28 70 29 70 30 70 31 70 32 70 33 70 34 70 34 69 33 69" fill="#6897d7"/><polygon points="20 68 19 68 18 68 17 68 16 68 16 69 15 69 15 70 16 70 17 70 18 70 19 70 20 70 21 70 22 70 22 69 22 68 21 68 20 68" fill="#6897d7"/><polygon points="31 66 31 67 31 68 32 68 32 67 32 66 32 65 31 65 31 66" fill="#234de2"/><polygon points="17 66 17 67 17 68 18 68 18 67 18 66 18 65 17 65 17 66" fill="#234de2"/><polygon points="26 64 26 65 26 66 26 67 26 68 27 68 27 67 27 66 27 65 27 64 27 63 26 63 26 64" fill="#234de2"/><polygon points="22 64 22 65 22 66 22 67 22 68 23 68 23 67 23 66 23 65 23 64 23 63 22 63 22 64" fill="#234de2"/><polygon points="17 63 17 62 16 62 16 63 16 64 16 65 17 65 17 64 17 63" fill="#234de2"/><polygon points="32 63 32 64 32 65 33 65 33 64 33 63 33 62 32 62 32 63" fill="#234de2"/><polygon points="26 61 26 60 26 59 25 59 25 60 25 61 25 62 25 63 26 63 26 62 26 61" fill="#234de2"/><polygon points="16 60 16 59 16 58 16 57 16 56 15 56 15 57 15 58 15 59 15 60 15 61 15 62 16 62 16 61 16 60" fill="#234de2"/><polygon points="23 60 23 61 23 62 23 63 24 63 24 62 24 61 24 60 24 59 23 59 23 60" fill="#234de2"/><polygon points="25 57 25 56 25 55 25 54 25 53 25 52 25 51 24 51 24 52 24 53 24 54 24 55 24 56 24 57 24 58 24 59 25 59 25 58 25 57" fill="#234de2"/><polygon points="33 57 33 58 33 59 33 60 33 61 33 62 34 62 34 61 34 60 34 59 34 58 34 57 34 56 33 56 33 57" fill="#234de2"/><polygon points="15 54 15 53 14 53 14 54 14 55 14 56 15 56 15 55 15 54" fill="#234de2"/><polygon points="34 53 34 54 34 55 34 56 35 56 35 55 35 54 35 53 34 53" fill="#234de2"/><polygon points="25 48 26 48 26 47 25 47 24 47 23 47 23 48 24 48 25 48" fill="#234de2"/><polygon points="32 50 31 50 30 50 30 51 31 51 32 51 33 51 34 51 34 50 33 50 32 50" fill="#b2c9ea"/><polygon points="17 50 16 50 15 50 15 51 16 51 17 51 18 51 19 51 19 50 18 50 17 50" fill="#b2c9ea"/><rect x="14" y="49" width="1" height="1" fill="#b2c9ea"/><polygon points="30 45 30 44 31 44 31 43 32 43 32 42 32 41 31 41 31 42 30 42 30 43 29 43 29 44 29 45 28 45 28 46 29 46 30 46 30 45" fill="#b2c9ea"/><polygon points="22 46 22 47 22 48 22 49 22 50 22 51 22 52 22 53 23 53 23 52 23 51 23 50 23 49 23 48 23 47 23 46 23 45 22 45 22 46" fill="#b2c9ea"/><rect x="32" y="44" width="1" height="1" fill="#b2c9ea"/><rect x="33" y="43" width="1" height="1" fill="#b2c9ea"/><polygon points="14 44 14 45 15 45 16 45 16 44 15 44 15 43 14 43 14 42 13 42 12 42 12 43 13 43 13 44 14 44" fill="#b2c9ea"/><polygon points="22 43 22 44 23 44 23 43 23 42 22 42 22 43" fill="#b2c9ea"/><polygon points="34 42 34 43 35 43 35 42 35 41 34 41 34 42" fill="#b2c9ea"/><rect x="11" y="41" width="1" height="1" fill="#b2c9ea"/><rect x="35" y="40" width="1" height="1" fill="#b2c9ea"/><polygon points="33 40 33 39 32 39 32 40 32 41 33 41 33 40" fill="#b2c9ea"/><rect x="10" y="40" width="1" height="1" fill="#b2c9ea"/><polygon points="28 39 29 39 29 38 29 37 28 37 28 38 27 38 27 39 26 39 26 40 26 41 27 41 27 40 28 40 28 39" fill="#b2c9ea"/><rect x="9" y="39" width="1" height="1" fill="#b2c9ea"/><rect x="33" y="38" width="1" height="1" fill="#b2c9ea"/><polygon points="22 38 21 38 21 37 20 37 20 36 19 36 19 35 18 35 18 34 17 34 17 33 16 33 16 32 17 32 17 31 18 31 18 30 17 30 17 29 16 29 16 28 17 28 18 28 18 27 19 27 19 26 18 26 17 26 17 27 16 27 15 27 15 28 14 28 14 29 15 29 15 30 16 30 16 31 15 31 15 32 14 32 14 33 15 33 15 34 16 34 16 35 17 35 17 36 18 36 18 37 19 37 19 38 20 38 20 39 21 39 21 40 22 40 22 41 23 41 23 40 23 39 22 39 22 38" fill="#b2c9ea"/><rect x="34" y="37" width="1" height="1" fill="#b2c9ea"/><rect x="29" y="36" width="1" height="1" fill="#b2c9ea"/><rect x="30" y="35" width="1" height="1" fill="#b2c9ea"/><rect x="31" y="34" width="1" height="1" fill="#b2c9ea"/><polygon points="20 63 20 64 20 65 20 66 21 66 21 65 21 64 21 63 21 62 20 62 20 63" fill="#5ea1fd"/><polygon points="30 62 30 63 30 64 31 64 31 63 31 62 31 61 30 61 30 62" fill="#5ea1fd"/><polygon points="21 61 21 62 22 62 22 61 22 60 21 60 21 61" fill="#5ea1fd"/><polygon points="31 59 31 60 31 61 32 61 32 60 32 59 32 58 31 58 31 59" fill="#5ea1fd"/><rect x="21" y="58" width="1" height="1" fill="#5ea1fd"/><rect x="31" y="56" width="1" height="1" fill="#5ea1fd"/><polygon points="28 54 27 54 26 54 26 55 27 55 28 55 29 55 30 55 30 54 29 54 28 54" fill="#5ea1fd"/><polygon points="20 55 21 55 22 55 23 55 23 54 22 54 21 54 20 54 19 54 19 55 20 55" fill="#5ea1fd"/><polygon points="32 53 31 53 30 53 30 54 31 54 32 54 33 54 34 54 34 53 33 53 32 53" fill="#5ea1fd"/><polygon points="16 54 17 54 18 54 19 54 19 53 18 53 17 53 16 53 15 53 15 54 16 54" fill="#5ea1fd"/><polygon points="34 52 34 53 35 53 36 53 36 52 35 52 34 52" fill="#5ea1fd"/><polygon points="14 53 15 53 15 52 14 52 13 52 13 53 14 53" fill="#5ea1fd"/><polygon points="32 50 33 50 34 50 34 49 33 49 32 49 31 49 30 49 30 50 31 50 32 50" fill="#5ea1fd"/><polygon points="16 50 17 50 18 50 19 50 19 49 18 49 17 49 16 49 15 49 15 50 16 50" fill="#5ea1fd"/><rect x="34" y="48" width="1" height="1" fill="#5ea1fd"/><rect x="14" y="48" width="1" height="1" fill="#5ea1fd"/><polygon points="12 46 12 47 12 48 12 49 12 50 12 51 12 52 13 52 13 51 13 50 13 49 13 48 13 47 13 46 14 46 15 46 16 46 17 46 18 46 19 46 19 45 19 44 18 44 18 45 17 45 16 45 15 45 14 45 13 45 13 44 12 44 12 45 12 46" fill="#5ea1fd"/><polygon points="36 45 35 45 34 45 33 45 32 45 31 45 31 44 30 44 30 45 30 46 31 46 32 46 33 46 34 46 35 46 36 46 36 47 36 48 36 49 36 50 36 51 36 52 37 52 37 51 37 50 37 49 37 48 37 47 37 46 37 45 37 44 36 44 36 45" fill="#5ea1fd"/><rect x="37" y="43" width="1" height="1" fill="#5ea1fd"/><rect x="31" y="43" width="1" height="1" fill="#5ea1fd"/><rect x="17" y="43" width="1" height="1" fill="#5ea1fd"/><rect x="11" y="43" width="1" height="1" fill="#5ea1fd"/><rect x="38" y="42" width="1" height="1" fill="#5ea1fd"/><polygon points="33 42 33 41 32 41 32 42 32 43 33 43 33 42" fill="#5ea1fd"/><rect x="10" y="42" width="1" height="1" fill="#5ea1fd"/><rect x="39" y="41" width="1" height="1" fill="#5ea1fd"/><polygon points="17 41 16 41 16 42 16 43 17 43 17 42 17 41" fill="#5ea1fd"/><rect x="9" y="41" width="1" height="1" fill="#5ea1fd"/><rect x="40" y="40" width="1" height="1" fill="#5ea1fd"/><polygon points="34 40 34 39 33 39 33 40 33 41 34 41 34 40" fill="#5ea1fd"/><rect x="8" y="40" width="1" height="1" fill="#5ea1fd"/><rect x="41" y="39" width="1" height="1" fill="#5ea1fd"/><polygon points="16 39 15 39 15 40 15 41 16 41 16 40 16 39" fill="#5ea1fd"/><rect x="7" y="39" width="1" height="1" fill="#5ea1fd"/><rect x="34" y="38" width="1" height="1" fill="#5ea1fd"/><rect x="14" y="38" width="1" height="1" fill="#5ea1fd"/><polygon points="42 37 42 38 42 39 43 39 43 38 43 37 42 37" fill="#5ea1fd"/><polygon points="36 37 36 36 35 36 35 37 35 38 36 38 36 37" fill="#5ea1fd"/><polygon points="6 38 6 39 7 39 7 38 7 37 6 37 6 38" fill="#5ea1fd"/><polygon points="14 36 13 36 13 37 13 38 14 38 14 37 14 36" fill="#5ea1fd"/><polygon points="42 35 41 35 41 36 41 37 42 37 42 36 42 35" fill="#5ea1fd"/><polygon points="7 36 7 37 8 37 8 36 8 35 7 35 7 36" fill="#5ea1fd"/><polygon points="41 33 40 33 40 34 40 35 41 35 41 34 41 33" fill="#5ea1fd"/><polygon points="8 34 8 35 9 35 9 34 9 33 8 33 8 34" fill="#5ea1fd"/><polygon points="40 31 39 31 39 32 39 33 40 33 40 32 40 31" fill="#5ea1fd"/><polygon points="9 32 9 33 10 33 10 32 10 31 9 31 9 32" fill="#5ea1fd"/><rect x="38" y="30" width="1" height="1" fill="#5ea1fd"/><rect x="10" y="30" width="1" height="1" fill="#5ea1fd"/><polygon points="38 28 37 28 37 29 37 30 38 30 38 29 38 28" fill="#5ea1fd"/><polygon points="11 29 11 30 12 30 12 29 12 28 11 28 11 29" fill="#5ea1fd"/><rect x="36" y="27" width="1" height="1" fill="#5ea1fd"/><rect x="30" y="27" width="1" height="1" fill="#5ea1fd"/><rect x="18" y="27" width="1" height="1" fill="#5ea1fd"/><rect x="12" y="27" width="1" height="1" fill="#5ea1fd"/><rect x="35" y="26" width="1" height="1" fill="#5ea1fd"/><rect x="13" y="26" width="1" height="1" fill="#5ea1fd"/><polygon points="34 25 33 25 32 25 31 25 30 25 29 25 28 25 28 26 27 26 27 27 26 27 26 28 25 28 25 29 24 29 24 28 23 28 23 27 22 27 22 26 21 26 21 25 20 25 19 25 18 25 17 25 16 25 15 25 14 25 14 26 15 26 16 26 17 26 18 26 19 26 19 27 20 27 21 27 21 28 22 28 22 29 23 29 23 30 23 31 23 32 23 33 23 34 23 35 23 36 23 37 22 37 22 36 21 36 21 35 20 35 20 34 19 34 19 33 18 33 18 32 19 32 19 31 20 31 20 30 19 30 19 29 18 29 18 28 17 28 16 28 16 29 17 29 17 30 18 30 18 31 17 31 17 32 16 32 16 33 17 33 17 34 18 34 18 35 19 35 19 36 20 36 20 37 21 37 21 38 22 38 22 39 23 39 23 40 23 41 23 42 23 43 23 44 23 45 23 46 23 47 24 47 25 47 26 47 26 46 26 45 26 44 26 43 26 42 26 41 26 40 26 39 27 39 27 38 28 38 28 37 29 37 29 36 30 36 30 35 31 35 31 34 32 34 32 33 33 33 33 32 32 32 32 31 31 31 31 30 32 30 32 29 33 29 33 28 32 28 31 28 31 29 30 29 30 30 29 30 29 31 30 31 30 32 31 32 31 33 30 33 30 34 29 34 29 35 28 35 28 36 27 36 27 37 26 37 26 36 26 35 26 34 26 33 26 32 26 31 26 30 26 29 27 29 27 28 28 28 28 27 29 27 30 27 30 26 31 26 32 26 33 26 34 26 35 26 35 25 34 25" fill="#5ea1fd"/><polygon points="25 25 24 25 23 25 22 25 22 26 23 26 24 26 25 26 26 26 27 26 27 25 26 25 25 25" fill="#eeb19f"/><polygon points="27 24 27 25 28 25 29 25 29 24 28 24 27 24" fill="#eeb19f"/><polygon points="21 24 20 24 20 25 21 25 22 25 22 24 21 24" fill="#eeb19f"/><polygon points="29 23 29 24 30 24 31 24 31 23 30 23 29 23" fill="#eeb19f"/><polygon points="19 23 18 23 18 24 19 24 20 24 20 23 19 23" fill="#eeb19f"/><rect x="31" y="22" width="1" height="1" fill="#eeb19f"/><rect x="17" y="22" width="1" height="1" fill="#eeb19f"/><rect x="32" y="21" width="1" height="1" fill="#eeb19f"/><polygon points="22 22 22 23 23 23 24 23 25 23 26 23 27 23 27 22 28 22 28 21 27 21 26 21 25 21 24 21 23 21 22 21 21 21 21 22 22 22" fill="#eeb19f"/><rect x="16" y="21" width="1" height="1" fill="#eeb19f"/><rect x="33" y="20" width="1" height="1" fill="#eeb19f"/><rect x="28" y="20" width="1" height="1" fill="#eeb19f"/><rect x="20" y="20" width="1" height="1" fill="#eeb19f"/><rect x="15" y="20" width="1" height="1" fill="#eeb19f"/><rect x="29" y="19" width="1" height="1" fill="#eeb19f"/><rect x="19" y="19" width="1" height="1" fill="#eeb19f"/><polygon points="34 18 34 19 34 20 35 20 35 19 35 18 34 18" fill="#eeb19f"/><polygon points="15 18 14 18 14 19 14 20 15 20 15 19 15 18" fill="#eeb19f"/><rect x="24" y="17" width="1" height="1" fill="#ff9c83"/><path d="M33,54h-3v1h-4v-7h-3v7h-4v-1h-4v2h1v6h1v3h1v3h4v-5h1v-4h1v-8h1v8h1v4h1v5h4v-3h1v-3h1v-6h1v-2h-1ZM22,61v1h-1v4h-1v-4h1v-2h1v1ZM21,59v-1h1v1h-1ZM32,59v2h-1v3h-1v-3h1v-3h1v1ZM32,57h-1v-1h1v1Z" fill="#326efc"/><polygon points="30 16 31 16 31 15 31 14 31 13 30 13 29 13 28 13 28 14 28 15 28 16 29 16 30 16" fill="#326efc"/><polygon points="20 16 21 16 21 15 21 14 21 13 20 13 19 13 18 13 18 14 18 15 18 16 19 16 20 16" fill="#326efc"/><polygon points="33 70 32 70 31 70 30 70 29 70 28 70 27 70 27 71 28 71 29 71 30 71 31 71 32 71 33 71 34 71 35 71 35 70 34 70 33 70" fill="#fbf8f6"/><polygon points="20 70 19 70 18 70 17 70 16 70 15 70 14 70 14 71 15 71 16 71 17 71 18 71 19 71 20 71 21 71 22 71 22 70 21 70 20 70" fill="#fbf8f6"/><rect x="31" y="44" width="1" height="1" fill="#fbf8f6"/><rect x="13" y="44" width="1" height="1" fill="#fbf8f6"/><rect x="32" y="43" width="1" height="1" fill="#fbf8f6"/><rect x="12" y="43" width="1" height="1" fill="#fbf8f6"/><polygon points="34 42 34 41 33 41 33 42 33 43 34 43 34 42" fill="#fbf8f6"/><rect x="11" y="42" width="1" height="1" fill="#fbf8f6"/><rect x="10" y="41" width="1" height="1" fill="#fbf8f6"/><path d="M22,40h-1v-1h-1v-1h-1v-1h-1v-1h-1v-1h-1v-1h-1v-1h-1v-1h1v-1h1v-1h-1v-1h-1v-1h1v-1h2v-1h-3v1h-1v1h-1v2h-1v1h-1v2h-1v2h-1v2h-1v2h1v1h1v-1h1v1h1v1h1v1h2v1h1v1h1v1h2v-1h-1v-1h-1v-2h-1v-2h-1v-1h-1v-2h1v2h1v1h1v2h1v2h1v1h1v2h-6v6h2v1h4v1h4v-1h-1v-8h1v-1h-1v-2h1v-1h-1v-1ZM14,50v-2h1v1h4v2h-4v-1h-1Z" fill="#fbf8f6"/><rect x="9" y="40" width="1" height="1" fill="#fbf8f6"/><path d="M41,37v-2h-1v-2h-1v-2h-1v-1h-1v-2h-1v-1h-1v-1h-5v1h1v1h2v1h-1v1h-1v1h1v1h1v1h-1v2h-1v1h-1v1h-1v2h-1v1h-1v1h-1v13h4v-1h4v-1h2v-6h-8v-1h1v-2h1v-1h1v-1h1v-2h1v-1h1v-1h1v-1h1v2h-1v1h-1v2h1v-1h1v1h-1v2h-1v1h-1v1h3v-1h1v-1h1v-1h1v-1h1v-1h1v-1h1v-2h-1ZM35,49h-1v2h-4v-2h4v-1h1v1Z" fill="#fbf8f6"/><polygon points="22 28 21 28 21 27 20 27 19 27 19 28 18 28 18 29 19 29 19 30 20 30 20 31 19 31 19 32 18 32 18 33 19 33 19 34 20 34 20 35 21 35 21 36 22 36 22 37 23 37 23 36 23 35 23 34 23 33 23 32 23 31 23 30 23 29 22 29 22 28" fill="#fbf8f6"/><polygon points="30 27 29 27 28 27 28 28 27 28 27 29 26 29 26 30 26 31 26 32 26 33 26 34 26 35 26 36 26 37 27 37 27 36 28 36 28 35 29 35 29 34 30 34 30 33 31 33 31 32 30 32 30 31 29 31 29 30 30 30 30 29 31 29 31 28 30 28 30 27" fill="#fbf8f6"/><polygon points="27 21 28 21 28 20 27 20 26 20 25 20 24 20 23 20 22 20 21 20 21 21 22 21 23 21 24 21 25 21 26 21 27 21" fill="#fbf8f6"/><polygon points="32 15 32 14 32 13 31 13 31 14 31 15 31 16 32 16 32 15" fill="#fbf8f6"/><polygon points="18 15 18 14 18 13 17 13 17 14 17 15 17 16 18 16 18 15" fill="#fbf8f6"/><polygon points="31 17 30 17 29 17 29 18 30 18 31 18 32 18 32 17 31 17" fill="#fdbea0"/><rect x="25" y="17" width="1" height="1" fill="#fdbea0"/><rect x="23" y="17" width="1" height="1" fill="#fdbea0"/><polygon points="18 17 17 17 17 18 18 18 19 18 20 18 20 17 19 17 18 17" fill="#fdbea0"/><rect x="24" y="16" width="1" height="1" fill="#fdbea0"/><polygon points="30 12 31 12 31 11 30 11 29 11 28 11 28 12 29 12 30 12" fill="#fdbea0"/><polygon points="19 11 18 11 18 12 19 12 20 12 21 12 21 11 20 11 19 11" fill="#fdbea0"/><rect x="27" y="13" width="1" height="1" fill="#4f4f4f"/><rect x="21" y="13" width="1" height="1" fill="#4f4f4f"/><polygon points="30 12 29 12 28 12 28 13 29 13 30 13 31 13 32 13 32 12 31 12 30 12" fill="#4f4f4f"/><polygon points="20 12 19 12 18 12 17 12 17 13 18 13 19 13 20 13 21 13 21 12 20 12" fill="#4f4f4f"/><rect x="32" y="11" width="1" height="1" fill="#4f4f4f"/><rect x="16" y="11" width="1" height="1" fill="#4f4f4f"/><polygon points="25 26 24 26 23 26 22 26 22 27 23 27 23 28 24 28 24 29 25 29 25 28 26 28 26 27 27 27 27 26 26 26 25 26" fill="#ffe3cd"/><rect x="27" y="25" width="1" height="1" fill="#ffe3cd"/><rect x="21" y="25" width="1" height="1" fill="#ffe3cd"/><path d="M36,14v1h-1v-2h-1v-2h-1v1h-1v4h-4v-2h-1v-1h1v-2h3v1h1v-1h1v-2h-1v-1h-2v-1h-2v-1h-1v-1h-1v2h1v1h2v1h-3v-1h-1v-1h-1v-1h-1v-1h-1v1h-1v1h-2v1h-2v1h-1v2h1v1h1v-1h3v2h1v1h-1v2h-4v-4h-1v-1h-1v2h-1v2h-1v-1h-1v4h3v2h1v1h1v1h1v1h2v1h2v1h5v-1h2v-1h2v-1h1v-1h1v-1h1v-2h3v-4h-1ZM30,17h2v1h-3v-1h1ZM24,17v-1h1v1h1v1h-3v-1h1ZM18,17h2v1h-3v-1h1ZM26,23h-4v-1h-1v-1h-1v-1h-1v-1h1v1h9v-1h1v1h-1v1h-1v1h-1v1h-1Z" fill="#ffe3cd"/><polygon points="18 24 18 23 17 23 17 22 16 22 16 21 15 21 15 20 14 20 13 20 13 21 12 21 12 22 11 22 10 22 10 23 11 23 11 24 12 24 12 25 13 25 13 26 14 26 14 25 15 25 16 25 17 25 18 25 19 25 20 25 20 24 19 24 18 24" fill="#86674f"/><polygon points="38 22 37 22 37 21 36 21 36 20 35 20 34 20 34 21 33 21 33 22 32 22 32 23 31 23 31 24 30 24 29 24 29 25 30 25 31 25 32 25 33 25 34 25 35 25 35 26 36 26 36 25 37 25 37 24 38 24 38 23 39 23 39 22 38 22" fill="#86674f"/><polygon points="35 15 36 15 36 14 36 13 35 13 35 14 35 15" fill="#86674f"/><polygon points="13 14 13 15 14 15 14 14 14 13 13 13 13 14" fill="#86674f"/><polygon points="34 13 35 13 35 12 35 11 34 11 34 12 34 13" fill="#86674f"/><polygon points="14 12 14 13 15 13 15 12 15 11 14 11 14 12" fill="#86674f"/><polygon points="33 11 34 11 34 10 34 9 33 9 33 10 33 11" fill="#86674f"/><polygon points="15 10 15 11 16 11 16 10 16 9 15 9 15 10" fill="#86674f"/><rect x="32" y="8" width="1" height="1" fill="#86674f"/><polygon points="27 9 28 9 28 8 27 8 26 8 26 9 27 9" fill="#86674f"/><rect x="16" y="8" width="1" height="1" fill="#86674f"/><rect x="25" y="7" width="1" height="1" fill="#86674f"/><polygon points="29 7 30 7 30 8 31 8 32 8 32 7 31 7 31 6 30 6 29 6 29 5 28 5 28 4 27 4 26 4 25 4 25 5 24 5 24 4 23 4 22 4 21 4 21 5 20 5 20 6 19 6 18 6 18 7 17 7 17 8 18 8 19 8 19 7 20 7 21 7 21 6 22 6 22 5 23 5 23 6 24 6 24 7 25 7 25 6 26 6 26 5 27 5 27 6 28 6 28 7 29 7" fill="#86674f"/><rect x="29" y="4" width="1" height="1" fill="#86674f"/><rect x="19" y="4" width="1" height="1" fill="#86674f"/><rect x="39" y="22" width="1" height="1" fill="#ac8a6f"/><rect x="9" y="22" width="1" height="1" fill="#ac8a6f"/><rect x="40" y="21" width="1" height="1" fill="#ac8a6f"/><rect x="38" y="21" width="1" height="1" fill="#ac8a6f"/><rect x="10" y="21" width="1" height="1" fill="#ac8a6f"/><rect x="8" y="21" width="1" height="1" fill="#ac8a6f"/><rect x="37" y="20" width="1" height="1" fill="#ac8a6f"/><rect x="11" y="20" width="1" height="1" fill="#ac8a6f"/><rect x="33" y="6" width="1" height="1" fill="#ac8a6f"/><rect x="15" y="6" width="1" height="1" fill="#ac8a6f"/><polygon points="32 5 32 4 31 4 31 3 30 3 29 3 28 3 28 4 29 4 30 4 30 5 31 5 31 6 32 6 33 6 33 5 32 5" fill="#ac8a6f"/><polygon points="19 3 18 3 18 4 17 4 17 5 16 5 16 6 17 6 18 6 18 5 19 5 19 4 20 4 21 4 21 3 20 3 19 3" fill="#ac8a6f"/><rect x="37" y="24" width="1" height="1" fill="#90725a"/><rect x="11" y="24" width="1" height="1" fill="#90725a"/><rect x="38" y="23" width="1" height="1" fill="#90725a"/><rect x="10" y="23" width="1" height="1" fill="#90725a"/><rect x="37" y="21" width="1" height="1" fill="#90725a"/><rect x="11" y="21" width="1" height="1" fill="#90725a"/><polygon points="37 21 37 20 37 19 36 19 35 19 35 20 36 20 36 21 37 21" fill="#90725a"/><polygon points="12 19 12 20 12 21 13 21 13 20 14 20 14 19 13 19 12 19" fill="#90725a"/><polygon points="34 11 35 11 35 12 35 13 36 13 36 12 36 11 36 10 36 9 35 9 35 8 35 7 35 6 35 5 34 5 34 4 33 4 33 3 32 3 32 2 31 2 30 2 30 1 29 1 28 1 27 1 26 1 25 1 24 1 23 1 22 1 21 1 20 1 19 1 19 2 18 2 17 2 17 3 16 3 16 4 15 4 15 5 14 5 14 6 14 7 14 8 14 9 13 9 13 10 13 11 13 12 13 13 14 13 14 12 14 11 15 11 15 10 15 9 16 9 16 8 17 8 17 7 18 7 18 6 17 6 16 6 16 7 15 7 15 6 16 6 16 5 17 5 17 4 18 4 18 3 19 3 20 3 21 3 21 4 22 4 23 4 24 4 24 5 25 5 25 4 26 4 27 4 28 4 28 3 29 3 30 3 31 3 31 4 32 4 32 5 33 5 33 6 34 6 34 7 33 7 33 6 32 6 31 6 31 7 32 7 32 8 33 8 33 9 34 9 34 10 34 11" fill="#90725a"/><rect x="28" y="8" width="1" height="1" fill="#90725a"/><rect x="26" y="7" width="1" height="1" fill="#90725a"/><rect x="25" y="6" width="1" height="1" fill="#90725a"/><polygon points="30 5 29 5 29 6 30 6 31 6 31 5 30 5" fill="#90725a"/><polygon points="18 5 18 6 19 6 20 6 20 5 19 5 18 5" fill="#90725a"/><rect x="28" y="4" width="1" height="1" fill="#90725a"/><rect x="20" y="4" width="1" height="1" fill="#90725a"/></svg>