<?xml version="1.0" encoding="UTF-8"?><svg id="Layer_1" xmlns="http://www.w3.org/2000/svg" width="48" height="48" viewBox="0 0 48 48"><defs><style>.cls-1{fill:#fff9f0;}.cls-2{fill:#a1f255;}.cls-3{fill:#f4eade;}.cls-4{fill:#e7f7c9;}.cls-5{fill:#caf78f;}.cls-6{fill:#dfecbc;}.cls-7{fill:#8cecff;}.cls-8{fill:#43c4e8;}</style></defs><polygon class="cls-4" points="23 29 22 29 22 30 22 31 22 32 22 33 22 34 22 35 22 36 22 37 22 38 22 39 22 40 22 41 23 41 23 42 24 42 24 41 24 40 24 39 24 38 24 37 24 36 24 35 24 34 24 33 24 32 24 31 24 30 24 29 23 29"/><polygon class="cls-6" points="22 28 22 29 23 29 24 29 24 28 23 28 22 28"/><rect class="cls-6" x="24" y="27" width="1" height="1"/><rect class="cls-5" x="24" y="25" width="1" height="1"/><polygon class="cls-5" points="25 22 25 23 25 24 25 25 26 25 26 24 26 23 26 22 25 22"/><path class="cls-2" d="M26,21h-7v5h1v1h1v1h3v-1h2v-1h1v-5h-1ZM26,23v2h-1v1h-1v-1h1v-3h1v1Z"/><rect class="cls-3" x="24" y="28" width="1" height="1"/><polygon class="cls-3" points="32 26 31 26 30 26 29 26 28 26 27 26 26 26 26 27 25 27 25 28 26 28 27 28 28 28 28 27 29 27 30 27 30 28 31 28 32 28 32 29 32 30 32 31 32 32 32 33 32 34 32 35 32 36 32 37 32 38 32 39 32 40 32 41 32 42 32 43 32 44 32 45 31 45 31 46 30 46 29 46 28 46 27 46 26 46 25 46 24 46 23 46 22 46 21 46 20 46 19 46 18 46 17 46 16 46 15 46 15 45 14 45 14 44 14 43 14 42 14 41 14 40 14 39 14 38 14 37 14 36 14 35 14 34 14 33 14 32 14 31 14 30 14 29 14 28 14 27 15 27 16 27 16 28 17 28 17 29 18 29 19 29 20 29 21 29 22 29 22 28 21 28 20 28 19 28 19 27 18 27 17 27 17 26 16 26 15 26 14 26 13 26 13 27 13 28 13 29 13 30 13 31 13 32 13 33 13 34 13 35 13 36 13 37 13 38 13 39 13 40 13 41 13 42 13 43 13 44 13 45 13 46 14 46 14 47 15 47 16 47 17 47 18 47 19 47 20 47 21 47 22 47 23 47 24 47 25 47 26 47 27 47 28 47 29 47 30 47 31 47 32 47 32 46 33 46 33 45 33 44 33 43 33 42 33 41 33 40 33 39 33 38 33 37 33 36 33 35 33 34 33 33 33 32 33 31 33 30 33 29 33 28 33 27 32 27 32 26"/><polygon class="cls-3" points="33 20 32 20 31 20 30 20 29 20 28 20 27 20 26 20 25 20 24 20 23 20 22 20 21 20 20 20 19 20 18 20 17 20 16 20 15 20 14 20 13 20 12 20 12 19 11 19 11 18 11 17 11 16 11 15 10 15 10 16 10 17 10 18 10 19 10 20 11 20 11 21 12 21 13 21 14 21 15 21 16 21 17 21 18 21 19 21 20 21 21 21 22 21 23 21 24 21 25 21 26 21 27 21 28 21 29 21 30 21 31 21 32 21 33 21 34 21 35 21 35 20 34 20 33 20"/><rect class="cls-3" x="35" y="19" width="1" height="1"/><polygon class="cls-3" points="31 18 31 17 31 16 31 15 30 15 30 16 30 17 30 18 30 19 31 19 31 18"/><polygon class="cls-3" points="26 18 27 18 27 17 27 16 26 16 26 15 25 15 25 16 25 17 25 18 25 19 26 19 26 18"/><polygon class="cls-3" points="21 18 22 18 22 17 22 16 22 15 21 15 21 14 20 14 20 15 20 16 20 17 20 18 20 19 21 19 21 18"/><polygon class="cls-3" points="17 18 18 18 18 17 18 16 18 15 17 15 17 14 16 14 16 15 16 16 16 17 16 18 16 19 17 19 17 18"/><polygon class="cls-3" points="13 19 14 19 14 18 14 17 14 16 14 15 14 14 13 14 13 15 12 15 12 16 12 17 12 18 13 18 13 19"/><polygon class="cls-8" points="30 47 29 47 28 47 27 47 26 47 25 47 24 47 23 47 22 47 21 47 20 47 19 47 18 47 17 47 16 47 15 47 14 47 14 48 15 48 16 48 17 48 18 48 19 48 20 48 21 48 22 48 23 48 24 48 25 48 26 48 27 48 28 48 29 48 30 48 31 48 32 48 32 47 31 47 30 47"/><rect class="cls-8" x="32" y="46" width="1" height="1"/><rect class="cls-8" x="13" y="46" width="1" height="1"/><polygon class="cls-8" points="13 44 13 43 13 42 13 41 13 40 13 39 13 38 13 37 13 36 13 35 13 34 13 33 13 32 13 31 13 30 13 29 13 28 13 27 13 26 13 25 13 24 13 23 13 22 13 21 12 21 12 22 12 23 12 24 12 25 12 26 12 27 12 28 12 29 12 30 12 31 12 32 12 33 12 34 12 35 12 36 12 37 12 38 12 39 12 40 12 41 12 42 12 43 12 44 12 45 12 46 13 46 13 45 13 44"/><rect class="cls-8" x="33" y="21" width="1" height="1"/><rect class="cls-8" x="27" y="12" width="1" height="1"/><rect class="cls-8" x="23" y="12" width="1" height="1"/><polygon class="cls-8" points="19 12 19 13 20 13 21 13 21 12 20 12 19 12"/><polygon class="cls-8" points="16 13 17 13 17 12 18 12 18 11 18 10 19 10 19 9 18 9 17 9 17 10 16 10 15 10 15 11 15 12 14 12 14 13 15 13 16 13"/><rect class="cls-8" x="19" y="8" width="1" height="1"/><rect class="cls-8" x="20" y="7" width="1" height="1"/><rect class="cls-8" x="22" y="3" width="1" height="1"/><rect class="cls-8" x="21" y="2" width="1" height="1"/><rect class="cls-1" x="33" y="34" width="1" height="1"/><rect class="cls-1" x="33" y="29" width="1" height="1"/><path class="cls-1" d="M30,28v-1h-2v1h-3v1h-1v13h-1v-1h-1v-12h-5v-1h-1v-1h-2v18h1v1h16v-1h1v-17h-2ZM17,45v-1h-1v-4h1v2h1v3h-1Z"/><polygon class="cls-1" points="33 26 33 27 33 28 34 28 34 27 34 26 34 25 33 25 33 26"/><path class="cls-1" d="M35,15v-1h-1v-1H12v1h-1v5h1v1h23v-1h1v-4h-1ZM13,19v-1h-1v-3h1v-1h1v5h-1ZM16,19v-5h1v1h1v3h-1v1h-1ZM20,19v-5h1v1h1v3h-1v1h-1ZM25,19v-4h1v1h1v2h-1v1h-1ZM30,19v-4h1v4h-1Z"/><rect class="cls-1" x="29" y="11" width="1" height="1"/><rect class="cls-1" x="28" y="10" width="1" height="1"/><polygon class="cls-1" points="25 9 26 9 26 10 27 10 28 10 28 9 27 9 27 8 26 8 25 8 25 9"/><rect class="cls-1" x="24" y="7" width="1" height="1"/><rect class="cls-1" x="24" y="2" width="1" height="1"/><rect class="cls-1" x="23" y="1" width="1" height="1"/><polygon class="cls-7" points="17 41 17 40 16 40 16 41 16 42 16 43 16 44 17 44 17 45 18 45 18 44 18 43 18 42 17 42 17 41"/><polygon class="cls-7" points="33 36 33 37 33 38 33 39 33 40 33 41 33 42 33 43 33 44 33 45 33 46 34 46 34 45 34 44 34 43 34 42 34 41 34 40 34 39 34 38 34 37 34 36 34 35 33 35 33 36"/><polygon class="cls-7" points="33 31 33 32 33 33 33 34 34 34 34 33 34 32 34 31 34 30 33 30 33 31"/><rect class="cls-7" x="33" y="28" width="1" height="1"/><polygon class="cls-7" points="33 22 33 23 33 24 33 25 34 25 34 24 34 23 34 22 33 22"/><path class="cls-7" d="M33,12v-1h-1v-1h-1v-1h-1v-1h-2v-1h-1v-1h-1v-1h-1v-1h1V1h-1V0h-4v1h-1v3h1v1h-1v1h-1v1h-1v1h-2v1h-1v1h2v-1h2v-1h1v-1h1v1h-1v1h-1v1h-1v2h-1v1h2v-1h2v1h2v-1h1v1h3v-1h1v1h5v-1ZM24,1v1h1v1h-1v-1h-1v-1h1ZM21,3v-1h1v1h1v1h-1v-1h-1ZM29,12v-1h-1v-1h-2v-1h-1v-1h-1v-1h1v1h2v1h1v1h1v1h1v1h-1Z"/><polygon class="cls-7" points="14 11 13 11 13 12 13 13 14 13 14 12 15 12 15 11 15 10 14 10 14 11"/></svg>