<?xml version="1.0" encoding="UTF-8"?><svg id="Layer_1" xmlns="http://www.w3.org/2000/svg" width="100" height="40" viewBox="0 0 100 40"><defs><style>.cls-1{fill:#fff9f0;}.cls-2{fill:#4edff5;}.cls-3{fill:#f4eade;}.cls-4{fill:#82827f;}.cls-5{fill:#8cecff;}.cls-6{fill:#43c4e8;}.cls-7{fill:#b8b6b2;}</style></defs><rect class="cls-6" x="30" y="27" width="1" height="1"/><polygon class="cls-6" points="27 27 26 27 25 27 25 28 26 28 27 28 28 28 29 28 29 27 28 27 27 27"/><polygon class="cls-6" points="25 25 25 24 24 24 24 25 24 26 24 27 25 27 25 26 25 25"/><rect class="cls-6" x="24" y="22" width="1" height="1"/><rect class="cls-5" x="72" y="20" width="1" height="1"/><polygon class="cls-5" points="74 18 73 18 73 19 73 20 74 20 75 20 75 19 75 18 74 18"/><path class="cls-2" d="M76,16H23v13h54v-13h-1ZM75,19v1h-2v1h-1v-1h1v-2h2v1ZM24,22h1v1h-1v-1ZM28,28h-3v-1h-1v-3h1v3h4v1h-1ZM30,28v-1h1v1h-1Z"/><polygon class="cls-4" points="83 38 82 38 81 38 81 39 81 40 82 40 83 40 84 40 84 39 84 38 83 38"/><polygon class="cls-4" points="79 39 79 40 80 40 80 39 80 38 79 38 79 39"/><polygon class="cls-4" points="76 39 76 40 77 40 77 39 77 38 76 38 76 39"/><polygon class="cls-4" points="71 39 71 40 72 40 72 39 72 38 71 38 71 39"/><polygon class="cls-4" points="64 39 64 40 65 40 65 39 65 38 64 38 64 39"/><polygon class="cls-4" points="57 39 57 40 58 40 58 39 58 38 57 38 57 39"/><polygon class="cls-4" points="49 39 49 40 50 40 50 39 50 38 49 38 49 39"/><polygon class="cls-4" points="41 39 41 40 42 40 42 39 42 38 41 38 41 39"/><polygon class="cls-4" points="34 39 34 40 35 40 35 39 35 38 34 38 34 39"/><polygon class="cls-4" points="27 39 27 40 28 40 28 39 28 38 27 38 27 39"/><polygon class="cls-4" points="22 39 22 40 23 40 23 39 23 38 22 38 22 39"/><polygon class="cls-4" points="19 39 19 40 20 40 20 39 20 38 19 38 19 39"/><polygon class="cls-4" points="16 38 15 38 15 39 15 40 16 40 17 40 18 40 18 39 18 38 17 38 16 38"/><rect class="cls-4" x="23" y="35" width="1" height="1"/><polygon class="cls-4" points="22 35 21 35 20 35 19 35 19 36 20 36 21 36 22 36 22 35"/><polygon class="cls-4" points="19 33 19 32 18 32 18 33 18 34 18 35 19 35 19 34 19 33"/><polygon class="cls-4" points="24 32 23 32 23 33 24 33 25 33 26 33 26 32 25 32 24 32"/><polygon class="cls-4" points="76 31 75 31 75 32 74 32 74 33 75 33 75 34 76 34 76 33 77 33 77 32 76 32 76 31"/><polygon class="cls-4" points="49 32 49 33 49 34 50 34 50 33 50 32 50 31 49 31 49 32"/><polygon class="cls-4" points="47 32 47 33 47 34 48 34 48 33 48 32 48 31 47 31 47 32"/><polygon class="cls-4" points="54 8 53 8 52 8 51 8 50 8 49 8 48 8 47 8 46 8 45 8 44 8 43 8 42 8 42 9 42 10 43 10 44 10 45 10 46 10 47 10 48 10 49 10 50 10 51 10 52 10 53 10 54 10 55 10 56 10 56 9 56 8 55 8 54 8"/><polygon class="cls-3" points="81 36 80 36 79 36 78 36 77 36 76 36 75 36 74 36 73 36 72 36 71 36 70 36 69 36 68 36 67 36 66 36 65 36 64 36 63 36 62 36 61 36 60 36 59 36 58 36 57 36 56 36 55 36 54 36 53 36 52 36 51 36 50 36 49 36 48 36 47 36 46 36 45 36 44 36 43 36 42 36 41 36 40 36 39 36 38 36 37 36 36 36 35 36 34 36 33 36 32 36 31 36 30 36 29 36 28 36 27 36 26 36 25 36 24 36 23 36 22 36 21 36 20 36 19 36 18 36 17 36 16 36 16 37 16 38 17 38 18 38 19 38 20 38 21 38 22 38 23 38 24 38 25 38 26 38 27 38 28 38 29 38 30 38 31 38 32 38 33 38 34 38 35 38 36 38 37 38 38 38 39 38 40 38 41 38 42 38 43 38 44 38 45 38 46 38 47 38 48 38 49 38 50 38 51 38 52 38 53 38 54 38 55 38 56 38 57 38 58 38 59 38 60 38 61 38 62 38 63 38 64 38 65 38 66 38 67 38 68 38 69 38 70 38 71 38 72 38 73 38 74 38 75 38 76 38 77 38 78 38 79 38 80 38 81 38 82 38 83 38 83 37 83 36 82 36 81 36"/><path class="cls-3" d="M78,12H21v1h-1v1h-1v21h62V14h-1v-1h-1v-1h-1ZM71,30H23v-1h-1v-13h1v-1h54v1h1v13h-1v1h-6ZM26,34h-4v-3h5v3h-1ZM50,34h-3v-1h-17v-1h17v-1h4v1h20v1h-20v1h-1ZM77,34h-4v-3h5v3h-1Z"/><polygon class="cls-3" points="82 1 81 1 80 1 79 1 78 1 77 1 77 2 76 2 76 3 75 3 75 4 74 4 73 4 73 5 72 5 71 5 70 5 69 5 68 5 67 5 66 5 65 5 64 5 63 5 62 5 61 5 60 5 59 5 58 5 57 5 56 5 55 5 54 5 53 5 52 5 51 5 50 5 49 5 48 5 47 5 46 5 45 5 44 5 43 5 42 5 41 5 40 5 39 5 38 5 37 5 36 5 35 5 34 5 33 5 32 5 31 5 30 5 29 5 28 5 27 5 27 4 26 4 25 4 25 3 24 3 24 2 23 2 23 1 22 1 21 1 20 1 19 1 18 1 18 2 18 3 18 4 19 4 19 5 20 5 20 6 21 6 22 6 22 7 23 7 24 7 25 7 26 7 27 7 28 7 29 7 30 7 31 7 32 7 33 7 34 7 35 7 36 7 37 7 38 7 39 7 40 7 41 7 42 7 43 7 44 7 45 7 46 7 47 7 48 7 49 7 50 7 51 7 52 7 53 7 54 7 55 7 56 7 57 7 58 7 59 7 60 7 61 7 62 7 63 7 64 7 65 7 66 7 67 7 68 7 69 7 70 7 71 7 72 7 73 7 74 7 75 7 76 7 77 7 78 7 78 6 79 6 80 6 81 6 81 5 82 5 83 5 83 4 83 3 83 2 83 1 82 1"/><polygon class="cls-7" points="80 39 80 40 81 40 81 39 81 38 80 38 80 39"/><polygon class="cls-7" points="77 38 77 39 77 40 78 40 79 40 79 39 79 38 78 38 77 38"/><polygon class="cls-7" points="74 38 73 38 72 38 72 39 72 40 73 40 74 40 75 40 76 40 76 39 76 38 75 38 74 38"/><polygon class="cls-7" points="69 38 68 38 67 38 66 38 65 38 65 39 65 40 66 40 67 40 68 40 69 40 70 40 71 40 71 39 71 38 70 38 69 38"/><polygon class="cls-7" points="62 38 61 38 60 38 59 38 58 38 58 39 58 40 59 40 60 40 61 40 62 40 63 40 64 40 64 39 64 38 63 38 62 38"/><polygon class="cls-7" points="55 38 54 38 53 38 52 38 51 38 50 38 50 39 50 40 51 40 52 40 53 40 54 40 55 40 56 40 57 40 57 39 57 38 56 38 55 38"/><polygon class="cls-7" points="47 38 46 38 45 38 44 38 43 38 42 38 42 39 42 40 43 40 44 40 45 40 46 40 47 40 48 40 49 40 49 39 49 38 48 38 47 38"/><polygon class="cls-7" points="39 38 38 38 37 38 36 38 35 38 35 39 35 40 36 40 37 40 38 40 39 40 40 40 41 40 41 39 41 38 40 38 39 38"/><polygon class="cls-7" points="32 38 31 38 30 38 29 38 28 38 28 39 28 40 29 40 30 40 31 40 32 40 33 40 34 40 34 39 34 38 33 38 32 38"/><polygon class="cls-7" points="25 38 24 38 23 38 23 39 23 40 24 40 25 40 26 40 27 40 27 39 27 38 26 38 25 38"/><polygon class="cls-7" points="20 38 20 39 20 40 21 40 22 40 22 39 22 38 21 38 20 38"/><polygon class="cls-7" points="18 39 18 40 19 40 19 39 19 38 18 38 18 39"/><polygon class="cls-7" points="79 35 78 35 77 35 76 35 75 35 74 35 73 35 72 35 71 35 70 35 69 35 68 35 67 35 66 35 65 35 64 35 63 35 62 35 61 35 60 35 59 35 58 35 57 35 56 35 55 35 54 35 53 35 52 35 51 35 50 35 49 35 48 35 47 35 46 35 45 35 44 35 43 35 42 35 41 35 40 35 39 35 38 35 37 35 36 35 35 35 34 35 33 35 32 35 31 35 30 35 29 35 28 35 27 35 26 35 25 35 24 35 24 36 25 36 26 36 27 36 28 36 29 36 30 36 31 36 32 36 33 36 34 36 35 36 36 36 37 36 38 36 39 36 40 36 41 36 42 36 43 36 44 36 45 36 46 36 47 36 48 36 49 36 50 36 51 36 52 36 53 36 54 36 55 36 56 36 57 36 58 36 59 36 60 36 61 36 62 36 63 36 64 36 65 36 66 36 67 36 68 36 69 36 70 36 71 36 72 36 73 36 74 36 75 36 76 36 77 36 78 36 79 36 80 36 81 36 81 35 80 35 79 35"/><rect class="cls-7" x="22" y="35" width="1" height="1"/><polygon class="cls-7" points="50 32 50 33 50 34 51 34 51 33 51 32 51 31 50 31 50 32"/><polygon class="cls-7" points="48 32 48 33 48 34 49 34 49 33 49 32 49 31 48 31 48 32"/><polygon class="cls-7" points="24 30 25 30 26 30 27 30 28 30 29 30 30 30 31 30 32 30 33 30 34 30 35 30 36 30 37 30 38 30 39 30 40 30 41 30 42 30 43 30 44 30 45 30 46 30 47 30 48 30 49 30 50 30 51 30 52 30 53 30 54 30 55 30 56 30 57 30 58 30 59 30 60 30 61 30 62 30 63 30 64 30 65 30 66 30 67 30 68 30 69 30 70 30 71 30 72 30 73 30 74 30 75 30 76 30 77 30 77 29 76 29 75 29 74 29 73 29 72 29 71 29 70 29 69 29 68 29 67 29 66 29 65 29 64 29 63 29 62 29 61 29 60 29 59 29 58 29 57 29 56 29 55 29 54 29 53 29 52 29 51 29 50 29 49 29 48 29 47 29 46 29 45 29 44 29 43 29 42 29 41 29 40 29 39 29 38 29 37 29 36 29 35 29 34 29 33 29 32 29 31 29 30 29 29 29 28 29 27 29 26 29 25 29 24 29 23 29 23 30 24 30"/><polygon class="cls-7" points="23 27 23 26 23 25 23 24 23 23 23 22 23 21 23 20 23 19 23 18 23 17 23 16 22 16 22 17 22 18 22 19 22 20 22 21 22 22 22 23 22 24 22 25 22 26 22 27 22 28 22 29 23 29 23 28 23 27"/><polygon class="cls-7" points="18 15 18 16 18 17 18 18 18 19 18 20 18 21 18 22 18 23 18 24 18 25 18 26 18 27 18 28 18 29 18 30 18 31 18 32 19 32 19 31 19 30 19 29 19 28 19 27 19 26 19 25 19 24 19 23 19 22 19 21 19 20 19 19 19 18 19 17 19 16 19 15 19 14 18 14 18 15"/><polygon class="cls-7" points="44 11 45 11 46 11 47 11 48 11 49 11 50 11 51 11 52 11 53 11 54 11 55 11 56 11 56 10 55 10 54 10 53 10 52 10 51 10 50 10 49 10 48 10 47 10 46 10 45 10 44 10 43 10 42 10 42 11 43 11 44 11"/><polygon class="cls-7" points="79 6 78 6 78 7 77 7 76 7 75 7 74 7 73 7 72 7 71 7 70 7 69 7 68 7 67 7 66 7 65 7 64 7 63 7 62 7 61 7 60 7 59 7 58 7 57 7 56 7 55 7 54 7 53 7 52 7 51 7 50 7 49 7 48 7 47 7 46 7 45 7 44 7 43 7 42 7 41 7 40 7 39 7 38 7 37 7 36 7 35 7 34 7 33 7 32 7 31 7 30 7 29 7 28 7 27 7 26 7 25 7 24 7 23 7 22 7 22 6 21 6 20 6 20 5 19 5 19 4 18 4 18 3 18 2 18 1 17 1 17 2 17 3 17 4 17 5 18 5 18 6 19 6 19 7 20 7 20 8 21 8 22 8 23 8 24 8 25 8 26 8 27 8 28 8 29 8 30 8 31 8 32 8 33 8 34 8 35 8 36 8 37 8 38 8 39 8 40 8 41 8 42 8 43 8 44 8 45 8 46 8 47 8 48 8 49 8 50 8 51 8 52 8 53 8 54 8 55 8 56 8 57 8 58 8 59 8 60 8 61 8 62 8 63 8 64 8 65 8 66 8 67 8 68 8 69 8 70 8 71 8 72 8 73 8 74 8 75 8 76 8 77 8 78 8 79 8 79 7 80 7 81 7 81 6 80 6 79 6"/><rect class="cls-7" x="81" y="5" width="1" height="1"/><polygon class="cls-7" points="30 4 31 4 32 4 33 4 34 4 35 4 36 4 37 4 38 4 39 4 40 4 41 4 42 4 43 4 44 4 45 4 46 4 47 4 48 4 49 4 50 4 51 4 52 4 53 4 54 4 55 4 56 4 57 4 58 4 59 4 60 4 61 4 62 4 63 4 64 4 65 4 66 4 67 4 68 4 69 4 70 4 71 4 72 4 72 3 71 3 70 3 69 3 68 3 67 3 66 3 65 3 64 3 63 3 62 3 61 3 60 3 59 3 58 3 57 3 56 3 55 3 54 3 53 3 52 3 51 3 50 3 49 3 48 3 47 3 46 3 45 3 44 3 43 3 42 3 41 3 40 3 39 3 38 3 37 3 36 3 35 3 34 3 33 3 32 3 31 3 30 3 29 3 28 3 28 4 29 4 30 4"/><polygon class="cls-1" points="69 32 68 32 67 32 66 32 65 32 64 32 63 32 62 32 61 32 60 32 59 32 58 32 57 32 56 32 55 32 54 32 53 32 52 32 51 32 51 33 52 33 53 33 54 33 55 33 56 33 57 33 58 33 59 33 60 33 61 33 62 33 63 33 64 33 65 33 66 33 67 33 68 33 69 33 70 33 71 33 71 32 70 32 69 32"/><polygon class="cls-1" points="45 32 44 32 43 32 42 32 41 32 40 32 39 32 38 32 37 32 36 32 35 32 34 32 33 32 32 32 31 32 30 32 30 33 31 33 32 33 33 33 34 33 35 33 36 33 37 33 38 33 39 33 40 33 41 33 42 33 43 33 44 33 45 33 46 33 47 33 47 32 46 32 45 32"/><polygon class="cls-1" points="76 31 76 32 77 32 77 33 76 33 76 34 77 34 78 34 78 33 78 32 78 31 77 31 76 31"/><polygon class="cls-1" points="73 31 73 32 73 33 73 34 74 34 75 34 75 33 74 33 74 32 75 32 75 31 74 31 73 31"/><path class="cls-1" d="M25,31h-3v3h5v-3h-2ZM26,33h-3v-1h3v1Z"/><polygon class="cls-1" points="77 17 77 18 77 19 77 20 77 21 77 22 77 23 77 24 77 25 77 26 77 27 77 28 77 29 78 29 78 28 78 27 78 26 78 25 78 24 78 23 78 22 78 21 78 20 78 19 78 18 78 17 78 16 77 16 77 17"/><polygon class="cls-1" points="76 15 75 15 74 15 73 15 72 15 71 15 70 15 69 15 68 15 67 15 66 15 65 15 64 15 63 15 62 15 61 15 60 15 59 15 58 15 57 15 56 15 55 15 54 15 53 15 52 15 51 15 50 15 49 15 48 15 47 15 46 15 45 15 44 15 43 15 42 15 41 15 40 15 39 15 38 15 37 15 36 15 35 15 34 15 33 15 32 15 31 15 30 15 29 15 28 15 27 15 26 15 25 15 24 15 23 15 23 16 24 16 25 16 26 16 27 16 28 16 29 16 30 16 31 16 32 16 33 16 34 16 35 16 36 16 37 16 38 16 39 16 40 16 41 16 42 16 43 16 44 16 45 16 46 16 47 16 48 16 49 16 50 16 51 16 52 16 53 16 54 16 55 16 56 16 57 16 58 16 59 16 60 16 61 16 62 16 63 16 64 16 65 16 66 16 67 16 68 16 69 16 70 16 71 16 72 16 73 16 74 16 75 16 76 16 77 16 77 15 76 15"/><polygon class="cls-1" points="81 15 81 16 81 17 81 18 81 19 81 20 81 21 81 22 81 23 81 24 81 25 81 26 81 27 81 28 81 29 81 30 81 31 81 32 81 33 81 34 81 35 82 35 82 34 82 33 82 32 82 31 82 30 82 29 82 28 82 27 82 26 82 25 82 24 82 23 82 22 82 21 82 20 82 19 82 18 82 17 82 16 82 15 82 14 81 14 81 15"/><rect class="cls-1" x="80" y="13" width="1" height="1"/><rect class="cls-1" x="19" y="13" width="1" height="1"/><rect class="cls-1" x="79" y="12" width="1" height="1"/><rect class="cls-1" x="20" y="12" width="1" height="1"/><polygon class="cls-1" points="78 11 77 11 76 11 75 11 74 11 73 11 72 11 71 11 70 11 69 11 68 11 67 11 66 11 65 11 64 11 63 11 62 11 61 11 60 11 59 11 58 11 57 11 56 11 55 11 54 11 53 11 52 11 51 11 50 11 49 11 48 11 47 11 46 11 45 11 44 11 43 11 42 11 41 11 40 11 39 11 38 11 37 11 36 11 35 11 34 11 33 11 32 11 31 11 30 11 29 11 28 11 27 11 26 11 25 11 24 11 23 11 22 11 21 11 21 12 22 12 23 12 24 12 25 12 26 12 27 12 28 12 29 12 30 12 31 12 32 12 33 12 34 12 35 12 36 12 37 12 38 12 39 12 40 12 41 12 42 12 43 12 44 12 45 12 46 12 47 12 48 12 49 12 50 12 51 12 52 12 53 12 54 12 55 12 56 12 57 12 58 12 59 12 60 12 61 12 62 12 63 12 64 12 65 12 66 12 67 12 68 12 69 12 70 12 71 12 72 12 73 12 74 12 75 12 76 12 77 12 78 12 79 12 79 11 78 11"/><polygon class="cls-1" points="73 3 72 3 72 4 71 4 70 4 69 4 68 4 67 4 66 4 65 4 64 4 63 4 62 4 61 4 60 4 59 4 58 4 57 4 56 4 55 4 54 4 53 4 52 4 51 4 50 4 49 4 48 4 47 4 46 4 45 4 44 4 43 4 42 4 41 4 40 4 39 4 38 4 37 4 36 4 35 4 34 4 33 4 32 4 31 4 30 4 29 4 28 4 28 3 27 3 26 3 25 3 25 4 26 4 27 4 27 5 28 5 29 5 30 5 31 5 32 5 33 5 34 5 35 5 36 5 37 5 38 5 39 5 40 5 41 5 42 5 43 5 44 5 45 5 46 5 47 5 48 5 49 5 50 5 51 5 52 5 53 5 54 5 55 5 56 5 57 5 58 5 59 5 60 5 61 5 62 5 63 5 64 5 65 5 66 5 67 5 68 5 69 5 70 5 71 5 72 5 73 5 73 4 74 4 75 4 75 3 74 3 73 3"/><rect class="cls-1" x="75" y="2" width="1" height="1"/><rect class="cls-1" x="24" y="2" width="1" height="1"/><rect class="cls-1" x="76" y="1" width="1" height="1"/><rect class="cls-1" x="23" y="1" width="1" height="1"/><polygon class="cls-1" points="83 0 82 0 81 0 80 0 79 0 78 0 77 0 77 1 78 1 79 1 80 1 81 1 82 1 83 1 84 1 84 0 83 0"/><polygon class="cls-1" points="22 0 21 0 20 0 19 0 18 0 17 0 16 0 16 1 17 1 18 1 19 1 20 1 21 1 22 1 23 1 23 0 22 0"/></svg>