<?xml version="1.0" encoding="UTF-8"?><svg xmlns="http://www.w3.org/2000/svg" width="100" height="40" viewBox="0 0 100 40"><g id="Layer_1" shape-rendering="crispEdges"><rect x="30" y="27" width="1" height="1" fill="#43c4e8"/><polygon points="27 27 26 27 25 27 25 28 26 28 27 28 28 28 29 28 29 27 28 27 27 27" fill="#43c4e8"/><polygon points="25 25 25 24 24 24 24 25 24 26 24 27 25 27 25 26 25 25" fill="#43c4e8"/><rect x="24" y="22" width="1" height="1" fill="#43c4e8"/><rect x="72" y="20" width="1" height="1" fill="#8cecff"/><polygon points="74 18 73 18 73 19 73 20 74 20 75 20 75 19 75 18 74 18" fill="#8cecff"/><path d="M76,16H23v13h54v-13h-1ZM75,19v1h-2v1h-1v-1h1v-2h2v1ZM24,22h1v1h-1v-1ZM28,28h-3v-1h-1v-3h1v3h4v1h-1ZM30,28v-1h1v1h-1Z" fill="#4edff5"/><polygon points="83 39 82 39 81 39 81 40 82 40 83 40 84 40 84 39 83 39" fill="#82827f"/><rect x="79" y="39" width="1" height="1" fill="#82827f"/><rect x="76" y="39" width="1" height="1" fill="#82827f"/><rect x="71" y="39" width="1" height="1" fill="#82827f"/><rect x="64" y="39" width="1" height="1" fill="#82827f"/><rect x="57" y="39" width="1" height="1" fill="#82827f"/><rect x="49" y="39" width="1" height="1" fill="#82827f"/><rect x="41" y="39" width="1" height="1" fill="#82827f"/><rect x="34" y="39" width="1" height="1" fill="#82827f"/><rect x="27" y="39" width="1" height="1" fill="#82827f"/><rect x="22" y="39" width="1" height="1" fill="#82827f"/><rect x="19" y="39" width="1" height="1" fill="#82827f"/><polygon points="16 39 15 39 15 40 16 40 17 40 18 40 18 39 17 39 16 39" fill="#82827f"/><rect x="23" y="36" width="1" height="1" fill="#82827f"/><polygon points="22 36 21 36 20 36 19 36 19 37 20 37 21 37 22 37 22 36" fill="#82827f"/><polygon points="19 34 19 33 18 33 18 34 18 35 18 36 19 36 19 35 19 34" fill="#82827f"/><polygon points="76 33 75 33 74 33 73 33 73 34 74 34 75 34 76 34 76 33" fill="#82827f"/><polygon points="27 33 26 33 26 32 25 32 25 33 24 33 24 34 25 34 25 35 26 35 26 34 27 34 27 33" fill="#82827f"/><polygon points="49 33 49 34 49 35 50 35 50 34 50 33 50 32 49 32 49 33" fill="#82827f"/><polygon points="47 33 47 34 47 35 48 35 48 34 48 33 48 32 47 32 47 33" fill="#82827f"/><polygon points="54 8 53 8 52 8 51 8 50 8 49 8 48 8 47 8 46 8 45 8 44 8 43 8 42 8 42 9 42 10 43 10 44 10 45 10 46 10 47 10 48 10 49 10 50 10 51 10 52 10 53 10 54 10 55 10 56 10 56 9 56 8 55 8 54 8" fill="#82827f"/><polygon points="81 37 80 37 79 37 78 37 77 37 76 37 75 37 74 37 73 37 72 37 71 37 70 37 69 37 68 37 67 37 66 37 65 37 64 37 63 37 62 37 61 37 60 37 59 37 58 37 57 37 56 37 55 37 54 37 53 37 52 37 51 37 50 37 49 37 48 37 47 37 46 37 45 37 44 37 43 37 42 37 41 37 40 37 39 37 38 37 37 37 36 37 35 37 34 37 33 37 32 37 31 37 30 37 29 37 28 37 27 37 26 37 25 37 24 37 23 37 22 37 21 37 20 37 19 37 18 37 17 37 16 37 16 38 16 39 17 39 18 39 19 39 20 39 21 39 22 39 23 39 24 39 25 39 26 39 27 39 28 39 29 39 30 39 31 39 32 39 33 39 34 39 35 39 36 39 37 39 38 39 39 39 40 39 41 39 42 39 43 39 44 39 45 39 46 39 47 39 48 39 49 39 50 39 51 39 52 39 53 39 54 39 55 39 56 39 57 39 58 39 59 39 60 39 61 39 62 39 63 39 64 39 65 39 66 39 67 39 68 39 69 39 70 39 71 39 72 39 73 39 74 39 75 39 76 39 77 39 78 39 79 39 80 39 81 39 82 39 83 39 83 38 83 37 82 37 81 37" fill="#f4eade"/><path d="M78,12H21v1h-1v1h-1v22h62V14h-1v-1h-1v-1h-1ZM28,33v2h-5v-3h5v1ZM71,34h-20v1h-4v-1h-17v-1h17v-1h4v1h20v1ZM77,33v2h-5v-3h5v1ZM78,17v12h-1v1H23v-1h-1v-13h1v-1h54v1h1v1Z" fill="#f4eade"/><polygon points="97 1 96 1 95 1 94 1 93 1 92 1 92 2 91 2 91 3 90 3 90 4 89 4 88 4 87 4 86 4 85 4 84 4 83 4 82 4 81 4 80 4 79 4 78 4 77 4 76 4 75 4 74 4 73 4 72 4 71 4 70 4 69 4 68 4 67 4 66 4 65 4 64 4 63 4 62 4 61 4 60 4 59 4 58 4 57 4 56 4 55 4 54 4 53 4 52 4 51 4 50 4 49 4 48 4 47 4 46 4 45 4 44 4 43 4 42 4 41 4 40 4 39 4 38 4 37 4 36 4 35 4 34 4 33 4 32 4 31 4 30 4 29 4 28 4 27 4 26 4 25 4 24 4 23 4 22 4 21 4 20 4 19 4 18 4 17 4 16 4 15 4 14 4 13 4 12 4 11 4 10 4 10 3 9 3 9 2 8 2 8 1 7 1 6 1 5 1 4 1 3 1 3 2 3 3 3 4 4 4 4 5 5 5 5 6 6 6 7 6 7 7 8 7 9 7 10 7 11 7 12 7 13 7 14 7 15 7 16 7 17 7 18 7 19 7 20 7 21 7 22 7 23 7 24 7 25 7 26 7 27 7 28 7 29 7 30 7 31 7 32 7 33 7 34 7 35 7 36 7 37 7 38 7 39 7 40 7 41 7 42 7 43 7 44 7 45 7 46 7 47 7 48 7 49 7 50 7 51 7 52 7 53 7 54 7 55 7 56 7 57 7 58 7 59 7 60 7 61 7 62 7 63 7 64 7 65 7 66 7 67 7 68 7 69 7 70 7 71 7 72 7 73 7 74 7 75 7 76 7 77 7 78 7 79 7 80 7 81 7 82 7 83 7 84 7 85 7 86 7 87 7 88 7 89 7 90 7 91 7 92 7 93 7 93 6 94 6 95 6 96 6 96 5 97 5 98 5 98 4 98 3 98 2 98 1 97 1" fill="#f4eade"/><rect x="80" y="39" width="1" height="1" fill="#b8b6b2"/><polygon points="77 39 77 40 78 40 79 40 79 39 78 39 77 39" fill="#b8b6b2"/><polygon points="74 39 73 39 72 39 72 40 73 40 74 40 75 40 76 40 76 39 75 39 74 39" fill="#b8b6b2"/><polygon points="69 39 68 39 67 39 66 39 65 39 65 40 66 40 67 40 68 40 69 40 70 40 71 40 71 39 70 39 69 39" fill="#b8b6b2"/><polygon points="62 39 61 39 60 39 59 39 58 39 58 40 59 40 60 40 61 40 62 40 63 40 64 40 64 39 63 39 62 39" fill="#b8b6b2"/><polygon points="55 39 54 39 53 39 52 39 51 39 50 39 50 40 51 40 52 40 53 40 54 40 55 40 56 40 57 40 57 39 56 39 55 39" fill="#b8b6b2"/><polygon points="47 39 46 39 45 39 44 39 43 39 42 39 42 40 43 40 44 40 45 40 46 40 47 40 48 40 49 40 49 39 48 39 47 39" fill="#b8b6b2"/><polygon points="39 39 38 39 37 39 36 39 35 39 35 40 36 40 37 40 38 40 39 40 40 40 41 40 41 39 40 39 39 39" fill="#b8b6b2"/><polygon points="32 39 31 39 30 39 29 39 28 39 28 40 29 40 30 40 31 40 32 40 33 40 34 40 34 39 33 39 32 39" fill="#b8b6b2"/><polygon points="25 39 24 39 23 39 23 40 24 40 25 40 26 40 27 40 27 39 26 39 25 39" fill="#b8b6b2"/><polygon points="20 39 20 40 21 40 22 40 22 39 21 39 20 39" fill="#b8b6b2"/><rect x="18" y="39" width="1" height="1" fill="#b8b6b2"/><polygon points="79 36 78 36 77 36 76 36 75 36 74 36 73 36 72 36 71 36 70 36 69 36 68 36 67 36 66 36 65 36 64 36 63 36 62 36 61 36 60 36 59 36 58 36 57 36 56 36 55 36 54 36 53 36 52 36 51 36 50 36 49 36 48 36 47 36 46 36 45 36 44 36 43 36 42 36 41 36 40 36 39 36 38 36 37 36 36 36 35 36 34 36 33 36 32 36 31 36 30 36 29 36 28 36 27 36 26 36 25 36 24 36 24 37 25 37 26 37 27 37 28 37 29 37 30 37 31 37 32 37 33 37 34 37 35 37 36 37 37 37 38 37 39 37 40 37 41 37 42 37 43 37 44 37 45 37 46 37 47 37 48 37 49 37 50 37 51 37 52 37 53 37 54 37 55 37 56 37 57 37 58 37 59 37 60 37 61 37 62 37 63 37 64 37 65 37 66 37 67 37 68 37 69 37 70 37 71 37 72 37 73 37 74 37 75 37 76 37 77 37 78 37 79 37 80 37 81 37 81 36 80 36 79 36" fill="#b8b6b2"/><rect x="22" y="36" width="1" height="1" fill="#b8b6b2"/><polygon points="50 33 50 34 50 35 51 35 51 34 51 33 51 32 50 32 50 33" fill="#b8b6b2"/><polygon points="48 33 48 34 48 35 49 35 49 34 49 33 49 32 48 32 48 33" fill="#b8b6b2"/><polygon points="24 30 25 30 26 30 27 30 28 30 29 30 30 30 31 30 32 30 33 30 34 30 35 30 36 30 37 30 38 30 39 30 40 30 41 30 42 30 43 30 44 30 45 30 46 30 47 30 48 30 49 30 50 30 51 30 52 30 53 30 54 30 55 30 56 30 57 30 58 30 59 30 60 30 61 30 62 30 63 30 64 30 65 30 66 30 67 30 68 30 69 30 70 30 71 30 72 30 73 30 74 30 75 30 76 30 77 30 77 29 76 29 75 29 74 29 73 29 72 29 71 29 70 29 69 29 68 29 67 29 66 29 65 29 64 29 63 29 62 29 61 29 60 29 59 29 58 29 57 29 56 29 55 29 54 29 53 29 52 29 51 29 50 29 49 29 48 29 47 29 46 29 45 29 44 29 43 29 42 29 41 29 40 29 39 29 38 29 37 29 36 29 35 29 34 29 33 29 32 29 31 29 30 29 29 29 28 29 27 29 26 29 25 29 24 29 23 29 23 30 24 30" fill="#b8b6b2"/><polygon points="23 27 23 26 23 25 23 24 23 23 23 22 23 21 23 20 23 19 23 18 23 17 23 16 22 16 22 17 22 18 22 19 22 20 22 21 22 22 22 23 22 24 22 25 22 26 22 27 22 28 22 29 23 29 23 28 23 27" fill="#b8b6b2"/><polygon points="18 15 18 16 18 17 18 18 18 19 18 20 18 21 18 22 18 23 18 24 18 25 18 26 18 27 18 28 18 29 18 30 18 31 18 32 18 33 19 33 19 32 19 31 19 30 19 29 19 28 19 27 19 26 19 25 19 24 19 23 19 22 19 21 19 20 19 19 19 18 19 17 19 16 19 15 19 14 18 14 18 15" fill="#b8b6b2"/><polygon points="44 11 45 11 46 11 47 11 48 11 49 11 50 11 51 11 52 11 53 11 54 11 55 11 56 11 56 10 55 10 54 10 53 10 52 10 51 10 50 10 49 10 48 10 47 10 46 10 45 10 44 10 43 10 42 10 42 11 43 11 44 11" fill="#b8b6b2"/><polygon points="94 6 93 6 93 7 92 7 91 7 90 7 89 7 88 7 87 7 86 7 85 7 84 7 83 7 82 7 81 7 80 7 79 7 78 7 77 7 76 7 75 7 74 7 73 7 72 7 71 7 70 7 69 7 68 7 67 7 66 7 65 7 64 7 63 7 62 7 61 7 60 7 59 7 58 7 57 7 56 7 55 7 54 7 53 7 52 7 51 7 50 7 49 7 48 7 47 7 46 7 45 7 44 7 43 7 42 7 41 7 40 7 39 7 38 7 37 7 36 7 35 7 34 7 33 7 32 7 31 7 30 7 29 7 28 7 27 7 26 7 25 7 24 7 23 7 22 7 21 7 20 7 19 7 18 7 17 7 16 7 15 7 14 7 13 7 12 7 11 7 10 7 9 7 8 7 7 7 7 6 6 6 5 6 5 5 4 5 4 4 3 4 3 3 3 2 3 1 2 1 2 2 2 3 2 4 2 5 3 5 3 6 4 6 4 7 5 7 6 7 6 8 7 8 8 8 9 8 10 8 11 8 12 8 13 8 14 8 15 8 16 8 17 8 18 8 19 8 20 8 21 8 22 8 23 8 24 8 25 8 26 8 27 8 28 8 29 8 30 8 31 8 32 8 33 8 34 8 35 8 36 8 37 8 38 8 39 8 40 8 41 8 42 8 43 8 44 8 45 8 46 8 47 8 48 8 49 8 50 8 51 8 52 8 53 8 54 8 55 8 56 8 57 8 58 8 59 8 60 8 61 8 62 8 63 8 64 8 65 8 66 8 67 8 68 8 69 8 70 8 71 8 72 8 73 8 74 8 75 8 76 8 77 8 78 8 79 8 80 8 81 8 82 8 83 8 84 8 85 8 86 8 87 8 88 8 89 8 90 8 91 8 92 8 93 8 94 8 94 7 95 7 96 7 96 6 95 6 94 6" fill="#b8b6b2"/><rect x="96" y="5" width="1" height="1" fill="#b8b6b2"/><polygon points="69 33 68 33 67 33 66 33 65 33 64 33 63 33 62 33 61 33 60 33 59 33 58 33 57 33 56 33 55 33 54 33 53 33 52 33 51 33 51 34 52 34 53 34 54 34 55 34 56 34 57 34 58 34 59 34 60 34 61 34 62 34 63 34 64 34 65 34 66 34 67 34 68 34 69 34 70 34 71 34 71 33 70 33 69 33" fill="#fff9f0"/><polygon points="45 33 44 33 43 33 42 33 41 33 40 33 39 33 38 33 37 33 36 33 35 33 34 33 33 33 32 33 31 33 30 33 30 34 31 34 32 34 33 34 34 34 35 34 36 34 37 34 38 34 39 34 40 34 41 34 42 34 43 34 44 34 45 34 46 34 47 34 47 33 46 33 45 33" fill="#fff9f0"/><path d="M75,32h-3v3h5v-3h-2ZM76,34h-3v-1h3v1Z" fill="#fff9f0"/><polygon points="26 32 26 33 27 33 27 34 26 34 26 35 27 35 28 35 28 34 28 33 28 32 27 32 26 32" fill="#fff9f0"/><polygon points="23 32 23 33 23 34 23 35 24 35 25 35 25 34 24 34 24 33 25 33 25 32 24 32 23 32" fill="#fff9f0"/><polygon points="77 17 77 18 77 19 77 20 77 21 77 22 77 23 77 24 77 25 77 26 77 27 77 28 77 29 78 29 78 28 78 27 78 26 78 25 78 24 78 23 78 22 78 21 78 20 78 19 78 18 78 17 78 16 77 16 77 17" fill="#fff9f0"/><polygon points="76 15 75 15 74 15 73 15 72 15 71 15 70 15 69 15 68 15 67 15 66 15 65 15 64 15 63 15 62 15 61 15 60 15 59 15 58 15 57 15 56 15 55 15 54 15 53 15 52 15 51 15 50 15 49 15 48 15 47 15 46 15 45 15 44 15 43 15 42 15 41 15 40 15 39 15 38 15 37 15 36 15 35 15 34 15 33 15 32 15 31 15 30 15 29 15 28 15 27 15 26 15 25 15 24 15 23 15 23 16 24 16 25 16 26 16 27 16 28 16 29 16 30 16 31 16 32 16 33 16 34 16 35 16 36 16 37 16 38 16 39 16 40 16 41 16 42 16 43 16 44 16 45 16 46 16 47 16 48 16 49 16 50 16 51 16 52 16 53 16 54 16 55 16 56 16 57 16 58 16 59 16 60 16 61 16 62 16 63 16 64 16 65 16 66 16 67 16 68 16 69 16 70 16 71 16 72 16 73 16 74 16 75 16 76 16 77 16 77 15 76 15" fill="#fff9f0"/><polygon points="81 15 81 16 81 17 81 18 81 19 81 20 81 21 81 22 81 23 81 24 81 25 81 26 81 27 81 28 81 29 81 30 81 31 81 32 81 33 81 34 81 35 81 36 82 36 82 35 82 34 82 33 82 32 82 31 82 30 82 29 82 28 82 27 82 26 82 25 82 24 82 23 82 22 82 21 82 20 82 19 82 18 82 17 82 16 82 15 82 14 81 14 81 15" fill="#fff9f0"/><rect x="80" y="13" width="1" height="1" fill="#fff9f0"/><rect x="19" y="13" width="1" height="1" fill="#fff9f0"/><rect x="79" y="12" width="1" height="1" fill="#fff9f0"/><rect x="20" y="12" width="1" height="1" fill="#fff9f0"/><polygon points="78 11 77 11 76 11 75 11 74 11 73 11 72 11 71 11 70 11 69 11 68 11 67 11 66 11 65 11 64 11 63 11 62 11 61 11 60 11 59 11 58 11 57 11 56 11 55 11 54 11 53 11 52 11 51 11 50 11 49 11 48 11 47 11 46 11 45 11 44 11 43 11 42 11 41 11 40 11 39 11 38 11 37 11 36 11 35 11 34 11 33 11 32 11 31 11 30 11 29 11 28 11 27 11 26 11 25 11 24 11 23 11 22 11 21 11 21 12 22 12 23 12 24 12 25 12 26 12 27 12 28 12 29 12 30 12 31 12 32 12 33 12 34 12 35 12 36 12 37 12 38 12 39 12 40 12 41 12 42 12 43 12 44 12 45 12 46 12 47 12 48 12 49 12 50 12 51 12 52 12 53 12 54 12 55 12 56 12 57 12 58 12 59 12 60 12 61 12 62 12 63 12 64 12 65 12 66 12 67 12 68 12 69 12 70 12 71 12 72 12 73 12 74 12 75 12 76 12 77 12 78 12 79 12 79 11 78 11" fill="#fff9f0"/><polygon points="88 3 87 3 86 3 85 3 84 3 83 3 82 3 81 3 80 3 79 3 78 3 77 3 76 3 75 3 74 3 73 3 72 3 71 3 70 3 69 3 68 3 67 3 66 3 65 3 64 3 63 3 62 3 61 3 60 3 59 3 58 3 57 3 56 3 55 3 54 3 53 3 52 3 51 3 50 3 49 3 48 3 47 3 46 3 45 3 44 3 43 3 42 3 41 3 40 3 39 3 38 3 37 3 36 3 35 3 34 3 33 3 32 3 31 3 30 3 29 3 28 3 27 3 26 3 25 3 24 3 23 3 22 3 21 3 20 3 19 3 18 3 17 3 16 3 15 3 14 3 13 3 12 3 11 3 10 3 10 4 11 4 12 4 13 4 14 4 15 4 16 4 17 4 18 4 19 4 20 4 21 4 22 4 23 4 24 4 25 4 26 4 27 4 28 4 29 4 30 4 31 4 32 4 33 4 34 4 35 4 36 4 37 4 38 4 39 4 40 4 41 4 42 4 43 4 44 4 45 4 46 4 47 4 48 4 49 4 50 4 51 4 52 4 53 4 54 4 55 4 56 4 57 4 58 4 59 4 60 4 61 4 62 4 63 4 64 4 65 4 66 4 67 4 68 4 69 4 70 4 71 4 72 4 73 4 74 4 75 4 76 4 77 4 78 4 79 4 80 4 81 4 82 4 83 4 84 4 85 4 86 4 87 4 88 4 89 4 90 4 90 3 89 3 88 3" fill="#fff9f0"/><rect x="90" y="2" width="1" height="1" fill="#fff9f0"/><rect x="9" y="2" width="1" height="1" fill="#fff9f0"/><rect x="91" y="1" width="1" height="1" fill="#fff9f0"/><rect x="8" y="1" width="1" height="1" fill="#fff9f0"/><polygon points="98 0 97 0 96 0 95 0 94 0 93 0 92 0 92 1 93 1 94 1 95 1 96 1 97 1 98 1 99 1 99 0 98 0" fill="#fff9f0"/><polygon points="7 0 6 0 5 0 4 0 3 0 2 0 1 0 1 1 2 1 3 1 4 1 5 1 6 1 7 1 8 1 8 0 7 0" fill="#fff9f0"/></g></svg>