<?xml version="1.0" encoding="UTF-8"?>
<svg id="Layer_1" xmlns="http://www.w3.org/2000/svg" width="384" height="48" version="1.1" viewBox="0 0 384 48">
  <!-- Generator: Adobe Illustrator 29.4.0, SVG Export Plug-In . SVG Version: 2.1.0 Build 152)  -->
  <g>
    <path d="M363,33v-1h-7v1h-1v3h2v1h5v-1h2v-3h-1ZM360,36h-2v-3h1v2h2v1h-1Z" fill="#fff236"/>
    <path d="M315,32h-7v1h-1v3h2v1h5v-1h2v-3h-1v-1ZM312,36h-2v-3h1v2h2v1h-1Z" fill="#fff236"/>
    <path d="M267,32h-7v1h-1v3h2v1h5v-1h2v-3h-1v-1ZM264,36h-2v-3h1v2h2v1h-1Z" fill="#fff236"/>
    <path d="M219,32h-7v1h-1v3h2v1h5v-1h2v-3h-1v-1ZM216,36h-2v-3h1v2h2v1h-1Z" fill="#fff236"/>
    <path d="M171,32h-7v1h-1v3h2v1h5v-1h2v-3h-1v-1ZM168,36h-2v-3h1v2h2v1h-1Z" fill="#fff236"/>
    <path d="M123,32h-7v1h-1v3h2v1h5v-1h2v-3h-1v-1ZM120,36h-2v-3h1v2h2v1h-1Z" fill="#fff236"/>
    <path d="M75,32h-7v1h-1v3h2v1h5v-1h2v-3h-1v-1ZM72,36h-2v-3h1v2h2v1h-1Z" fill="#fff236"/>
    <path d="M27,32h-7v1h-1v3h2v1h5v-1h2v-3h-1v-1ZM24,36h-2v-3h1v2h2v1h-1Z" fill="#fff236"/>
  </g>
  <g>
    <rect x="352" y="43" width="1" height="1" fill="#f94c59"/>
    <rect x="304" y="43" width="1" height="1" fill="#f94c59"/>
    <rect x="256" y="43" width="1" height="1" fill="#f94c59"/>
    <rect x="208" y="43" width="1" height="1" fill="#f94c59"/>
    <rect x="160" y="43" width="1" height="1" fill="#f94c59"/>
    <rect x="112" y="43" width="1" height="1" fill="#f94c59"/>
    <rect x="64" y="43" width="1" height="1" fill="#f94c59"/>
    <rect x="16" y="43" width="1" height="1" fill="#f94c59"/>
    <polygon points="370 43 370 44 371 44 371 43 371 42 370 42 370 43" fill="#f94c59"/>
    <polygon points="322 43 322 44 323 44 323 43 323 42 322 42 322 43" fill="#f94c59"/>
    <polygon points="274 43 274 44 275 44 275 43 275 42 274 42 274 43" fill="#f94c59"/>
    <polygon points="226 43 226 44 227 44 227 43 227 42 226 42 226 43" fill="#f94c59"/>
    <polygon points="178 43 178 44 179 44 179 43 179 42 178 42 178 43" fill="#f94c59"/>
    <polygon points="130 43 130 44 131 44 131 43 131 42 130 42 130 43" fill="#f94c59"/>
    <polygon points="82 43 82 44 83 44 83 43 83 42 82 42 82 43" fill="#f94c59"/>
    <polygon points="34 43 34 44 35 44 35 43 35 42 34 42 34 43" fill="#f94c59"/>
    <polygon points="352 41 352 40 352 39 351 39 351 40 351 41 351 42 351 43 352 43 352 42 352 41" fill="#f94c59"/>
    <polygon points="304 41 304 40 304 39 303 39 303 40 303 41 303 42 303 43 304 43 304 42 304 41" fill="#f94c59"/>
    <polygon points="256 41 256 40 256 39 255 39 255 40 255 41 255 42 255 43 256 43 256 42 256 41" fill="#f94c59"/>
    <polygon points="208 41 208 40 208 39 207 39 207 40 207 41 207 42 207 43 208 43 208 42 208 41" fill="#f94c59"/>
    <polygon points="160 41 160 40 160 39 159 39 159 40 159 41 159 42 159 43 160 43 160 42 160 41" fill="#f94c59"/>
    <polygon points="112 41 112 40 112 39 111 39 111 40 111 41 111 42 111 43 112 43 112 42 112 41" fill="#f94c59"/>
    <polygon points="64 41 64 40 64 39 63 39 63 40 63 41 63 42 63 43 64 43 64 42 64 41" fill="#f94c59"/>
    <polygon points="16 41 16 40 16 39 15 39 15 40 15 41 15 42 15 43 16 43 16 42 16 41" fill="#f94c59"/>
    <rect x="381" y="40" width="1" height="1" fill="#f94c59"/>
    <rect x="365" y="40" width="1" height="1" fill="#f94c59"/>
    <rect x="317" y="40" width="1" height="1" fill="#f94c59"/>
    <rect x="285" y="40" width="1" height="1" fill="#f94c59"/>
    <rect x="269" y="40" width="1" height="1" fill="#f94c59"/>
    <rect x="237" y="40" width="1" height="1" fill="#f94c59"/>
    <rect x="221" y="40" width="1" height="1" fill="#f94c59"/>
    <rect x="193" y="40" width="1" height="1" fill="#f94c59"/>
    <rect x="189" y="40" width="1" height="1" fill="#f94c59"/>
    <rect x="173" y="40" width="1" height="1" fill="#f94c59"/>
    <rect x="125" y="40" width="1" height="1" fill="#f94c59"/>
    <rect x="93" y="40" width="1" height="1" fill="#f94c59"/>
    <rect x="77" y="40" width="1" height="1" fill="#f94c59"/>
    <rect x="45" y="40" width="1" height="1" fill="#f94c59"/>
    <rect x="29" y="40" width="1" height="1" fill="#f94c59"/>
    <rect x="1" y="40" width="1" height="1" fill="#f94c59"/>
    <rect x="377" y="39" width="1" height="1" fill="#f94c59"/>
    <polygon points="371 40 371 41 371 42 372 42 372 41 372 40 372 39 371 39 371 40" fill="#f94c59"/>
    <rect x="328" y="39" width="1" height="1" fill="#f94c59"/>
    <polygon points="323 40 323 41 323 42 324 42 324 41 324 40 324 39 323 39 323 40" fill="#f94c59"/>
    <rect x="281" y="39" width="1" height="1" fill="#f94c59"/>
    <polygon points="275 40 275 41 275 42 276 42 276 41 276 40 276 39 275 39 275 40" fill="#f94c59"/>
    <polygon points="227 40 227 41 227 42 228 42 228 41 228 40 228 39 227 39 227 40" fill="#f94c59"/>
    <rect x="185" y="39" width="1" height="1" fill="#f94c59"/>
    <polygon points="179 40 179 41 179 42 180 42 180 41 180 40 180 39 179 39 179 40" fill="#f94c59"/>
    <rect x="136" y="39" width="1" height="1" fill="#f94c59"/>
    <polygon points="131 40 131 41 131 42 132 42 132 41 132 40 132 39 131 39 131 40" fill="#f94c59"/>
    <rect x="89" y="39" width="1" height="1" fill="#f94c59"/>
    <polygon points="83 40 83 41 83 42 84 42 84 41 84 40 84 39 83 39 83 40" fill="#f94c59"/>
    <polygon points="35 40 35 41 35 42 36 42 36 41 36 40 36 39 35 39 35 40" fill="#f94c59"/>
    <rect x="350" y="38" width="1" height="1" fill="#f94c59"/>
    <rect x="337" y="38" width="1" height="1" fill="#f94c59"/>
    <rect x="302" y="38" width="1" height="1" fill="#f94c59"/>
    <rect x="254" y="38" width="1" height="1" fill="#f94c59"/>
    <rect x="241" y="38" width="1" height="1" fill="#f94c59"/>
    <rect x="206" y="38" width="1" height="1" fill="#f94c59"/>
    <rect x="158" y="38" width="1" height="1" fill="#f94c59"/>
    <rect x="145" y="38" width="1" height="1" fill="#f94c59"/>
    <rect x="110" y="38" width="1" height="1" fill="#f94c59"/>
    <rect x="62" y="38" width="1" height="1" fill="#f94c59"/>
    <rect x="49" y="38" width="1" height="1" fill="#f94c59"/>
    <rect x="14" y="38" width="1" height="1" fill="#f94c59"/>
    <polygon points="366 38 366 39 367 39 367 38 367 37 366 37 366 38" fill="#f94c59"/>
    <rect x="342" y="37" width="1" height="1" fill="#f94c59"/>
    <polygon points="318 38 318 39 319 39 319 38 319 37 318 37 318 38" fill="#f94c59"/>
    <rect x="295" y="37" width="1" height="1" fill="#f94c59"/>
    <polygon points="270 38 270 39 271 39 271 38 271 37 270 37 270 38" fill="#f94c59"/>
    <rect x="246" y="37" width="1" height="1" fill="#f94c59"/>
    <polygon points="222 38 222 39 223 39 223 38 223 37 222 37 222 38" fill="#f94c59"/>
    <polygon points="194 38 194 39 195 39 195 38 195 37 194 37 194 38" fill="#f94c59"/>
    <polygon points="174 38 174 39 175 39 175 38 175 37 174 37 174 38" fill="#f94c59"/>
    <rect x="150" y="37" width="1" height="1" fill="#f94c59"/>
    <polygon points="126 38 126 39 127 39 127 38 127 37 126 37 126 38" fill="#f94c59"/>
    <rect x="103" y="37" width="1" height="1" fill="#f94c59"/>
    <polygon points="78 38 78 39 79 39 79 38 79 37 78 37 78 38" fill="#f94c59"/>
    <rect x="54" y="37" width="1" height="1" fill="#f94c59"/>
    <polygon points="30 38 30 39 31 39 31 38 31 37 30 37 30 38" fill="#f94c59"/>
    <polygon points="2 38 2 39 3 39 3 38 3 37 2 37 2 38" fill="#f94c59"/>
    <polygon points="289 36 289 37 290 37 290 36 290 35 289 35 289 36" fill="#f94c59"/>
    <polygon points="195 36 195 37 196 37 196 36 196 35 195 35 195 36" fill="#f94c59"/>
    <polygon points="97 36 97 37 98 37 98 36 98 35 97 35 97 36" fill="#f94c59"/>
    <polygon points="3 36 3 37 4 37 4 36 4 35 3 35 3 36" fill="#f94c59"/>
    <polygon points="339 35 339 36 340 36 340 35 340 34 339 34 339 35" fill="#f94c59"/>
    <polygon points="291 35 291 36 292 36 292 35 292 34 291 34 291 35" fill="#f94c59"/>
    <polygon points="243 35 243 36 244 36 244 35 244 34 243 34 243 35" fill="#f94c59"/>
    <polygon points="147 35 147 36 148 36 148 35 148 34 147 34 147 35" fill="#f94c59"/>
    <polygon points="99 35 99 36 100 36 100 35 100 34 99 34 99 35" fill="#f94c59"/>
    <polygon points="51 35 51 36 52 36 52 35 52 34 51 34 51 35" fill="#f94c59"/>
    <polygon points="196 34 196 35 197 35 197 34 197 33 196 33 196 34" fill="#f94c59"/>
    <polygon points="4 34 4 35 5 35 5 34 5 33 4 33 4 34" fill="#f94c59"/>
    <polygon points="342 32 342 31 341 31 341 32 340 32 340 33 340 34 341 34 341 33 342 33 342 32" fill="#f94c59"/>
    <polygon points="246 32 246 31 245 31 245 32 244 32 244 33 244 34 245 34 245 33 246 33 246 32" fill="#f94c59"/>
    <polygon points="150 32 150 31 149 31 149 32 148 32 148 33 148 34 149 34 149 33 150 33 150 32" fill="#f94c59"/>
    <polygon points="54 32 54 31 53 31 53 32 52 32 52 33 52 34 53 34 53 33 54 33 54 32" fill="#f94c59"/>
    <polygon points="293 32 292 32 292 33 292 34 293 34 293 33 294 33 294 32 294 31 293 31 293 32" fill="#f94c59"/>
    <polygon points="197 32 197 33 198 33 198 32 198 31 197 31 197 32" fill="#f94c59"/>
    <polygon points="101 32 100 32 100 33 100 34 101 34 101 33 102 33 102 32 102 31 101 31 101 32" fill="#f94c59"/>
    <polygon points="5 32 5 33 6 33 6 32 6 31 5 31 5 32" fill="#f94c59"/>
  </g>
  <g>
    <rect x="329" y="40" width="1" height="1" fill="#e63946"/>
    <rect x="137" y="40" width="1" height="1" fill="#e63946"/>
    <polygon points="380 39 379 39 378 39 378 40 379 40 380 40 381 40 381 39 380 39" fill="#e63946"/>
    <polygon points="283 39 282 39 282 40 283 40 284 40 285 40 285 39 284 39 283 39" fill="#e63946"/>
    <polygon points="236 40 236 41 237 41 237 40 237 39 236 39 236 40" fill="#e63946"/>
    <polygon points="194 40 194 41 195 41 195 40 195 39 194 39 194 40" fill="#e63946"/>
    <polygon points="187 39 186 39 186 40 187 40 188 40 189 40 189 39 188 39 187 39" fill="#e63946"/>
    <polygon points="91 39 90 39 90 40 91 40 92 40 93 40 93 39 92 39 91 39" fill="#e63946"/>
    <polygon points="44 40 44 41 45 41 45 40 45 39 44 39 44 40" fill="#e63946"/>
    <polygon points="2 40 2 41 3 41 3 40 3 39 2 39 2 40" fill="#e63946"/>
    <polygon points="377 38 377 37 376 37 376 38 376 39 377 39 378 39 378 38 377 38" fill="#e63946"/>
    <rect x="341" y="38" width="1" height="1" fill="#e63946"/>
    <rect x="328" y="38" width="1" height="1" fill="#e63946"/>
    <polygon points="294 39 294 40 295 40 295 39 295 38 294 38 294 39" fill="#e63946"/>
    <polygon points="281 38 281 37 280 37 280 38 280 39 281 39 282 39 282 38 281 38" fill="#e63946"/>
    <rect x="245" y="38" width="1" height="1" fill="#e63946"/>
    <polygon points="185 38 185 37 184 37 184 38 184 39 185 39 186 39 186 38 185 38" fill="#e63946"/>
    <rect x="149" y="38" width="1" height="1" fill="#e63946"/>
    <rect x="136" y="38" width="1" height="1" fill="#e63946"/>
    <polygon points="102 39 102 40 103 40 103 39 103 38 102 38 102 39" fill="#e63946"/>
    <polygon points="89 38 89 37 88 37 88 38 88 39 89 39 90 39 90 38 89 38" fill="#e63946"/>
    <rect x="53" y="38" width="1" height="1" fill="#e63946"/>
    <rect x="327" y="37" width="1" height="1" fill="#e63946"/>
    <polygon points="195 38 195 39 196 39 196 38 196 37 195 37 195 38" fill="#e63946"/>
    <rect x="135" y="37" width="1" height="1" fill="#e63946"/>
    <polygon points="3 38 3 39 4 39 4 38 4 37 3 37 3 38" fill="#e63946"/>
    <rect x="375" y="36" width="1" height="1" fill="#e63946"/>
    <path d="M373,36v-1h-8v2h-2v1h-7v-1h-1v-2h-7v2h-1v4h1v2h1v2h1v1h3v-1h1v-3h-1v-3h-1v4h1v1h-1v-1h-1v-4h-1v-1h1v1h1v-2h1v1h1v4h1v1h11v-1h1v-3h-1v-2h1v2h1v-1h1v1h-1v3h-1v2h1v1h1v1h2v-1h1v-2h1v-2h1v-4h-1v-1ZM366,41h-1v-1h1v1ZM372,42h-1v2h-1v-2h1v-3h1v3Z" fill="#e63946"/>
    <path d="M325,36v-1h-8v2h-2v1h-7v-1h-1v-2h-7v2h-1v4h1v2h1v2h1v1h3v-1h1v-3h-1v-3h-1v4h1v1h-1v-1h-1v-4h-1v-1h1v1h1v-2h1v1h1v4h1v1h11v-1h1v-3h-1v-2h1v2h1v-1h1v1h-1v3h-1v2h1v1h1v1h2v-1h1v-2h1v-2h1v-4h-1v-1ZM318,41h-1v-1h1v1ZM324,42h-1v2h-1v-2h1v-3h1v3Z" fill="#e63946"/>
    <polygon points="290 36 290 37 290 38 291 38 291 39 292 39 292 38 292 37 292 36 291 36 290 36" fill="#e63946"/>
    <rect x="279" y="36" width="1" height="1" fill="#e63946"/>
    <path d="M277,36v-1h-8v2h-2v1h-7v-1h-1v-2h-7v2h-1v4h1v2h1v2h1v1h3v-1h1v-3h-1v-3h-1v4h1v1h-1v-1h-1v-4h-1v-1h1v1h1v-2h1v1h1v4h1v1h11v-1h1v-3h-1v-2h1v2h1v-1h1v1h-1v3h-1v2h1v1h1v1h2v-1h1v-2h1v-2h1v-4h-1v-1ZM270,41h-1v-1h1v1ZM276,42h-1v2h-1v-2h1v-3h1v3Z" fill="#e63946"/>
    <path d="M229,36v-1h-8v2h-2v1h-7v-1h-1v-2h-7v2h-1v4h1v2h1v2h1v1h3v-1h1v-3h-1v-3h-1v4h1v1h-1v-1h-1v-4h-1v-1h1v1h1v-2h1v1h1v4h1v1h11v-1h1v-3h-1v-2h1v2h1v-1h1v1h-1v3h-1v2h1v1h1v1h2v-1h1v-2h1v-2h1v-4h-1v-1ZM222,41h-1v-1h1v1ZM228,42h-1v2h-1v-2h1v-3h1v3Z" fill="#e63946"/>
    <rect x="183" y="36" width="1" height="1" fill="#e63946"/>
    <path d="M181,36v-1h-8v2h-2v1h-7v-1h-1v-2h-7v2h-1v4h1v2h1v2h1v1h3v-1h1v-3h-1v-3h-1v4h1v1h-1v-1h-1v-4h-1v-1h1v1h1v-2h1v1h1v4h1v1h11v-1h1v-3h-1v-2h1v2h1v-1h1v1h-1v3h-1v2h1v1h1v1h2v-1h1v-2h1v-2h1v-4h-1v-1ZM174,41h-1v-1h1v1ZM180,42h-1v2h-1v-2h1v-3h1v3Z" fill="#e63946"/>
    <path d="M133,36v-1h-8v2h-2v1h-7v-1h-1v-2h-7v2h-1v4h1v2h1v2h1v1h3v-1h1v-3h-1v-3h-1v4h1v1h-1v-1h-1v-4h-1v-1h1v1h1v-2h1v1h1v4h1v1h11v-1h1v-3h-1v-2h1v2h1v-1h1v1h-1v3h-1v2h1v1h1v1h2v-1h1v-2h1v-2h1v-4h-1v-1ZM126,41h-1v-1h1v1ZM132,42h-1v2h-1v-2h1v-3h1v3Z" fill="#e63946"/>
    <polygon points="98 36 98 37 98 38 99 38 99 39 100 39 100 38 100 37 100 36 99 36 98 36" fill="#e63946"/>
    <rect x="87" y="36" width="1" height="1" fill="#e63946"/>
    <path d="M85,36v-1h-8v2h-2v1h-7v-1h-1v-2h-7v2h-1v4h1v2h1v2h1v1h3v-1h1v-3h-1v-3h-1v4h1v1h-1v-1h-1v-4h-1v-1h1v1h1v-2h1v1h1v4h1v1h11v-1h1v-3h-1v-2h1v2h1v-1h1v1h-1v3h-1v2h1v1h1v1h2v-1h1v-2h1v-2h1v-4h-1v-1ZM78,41h-1v-1h1v1ZM84,42h-1v2h-1v-2h1v-3h1v3Z" fill="#e63946"/>
    <path d="M37,36v-1h-8v2h-2v1h-7v-1h-1v-2h-7v2h-1v4h1v2h1v2h1v1h3v-1h1v-3h-1v-3h-1v4h1v1h-1v-1h-1v-4h-1v-1h1v1h1v-2h1v1h1v4h1v1h11v-1h1v-3h-1v-2h1v2h1v-1h1v1h-1v3h-1v2h1v1h1v1h2v-1h1v-2h1v-2h1v-4h-1v-1ZM30,41h-1v-1h1v1ZM36,42h-1v2h-1v-2h1v-3h1v3Z" fill="#e63946"/>
    <polygon points="360 36 361 36 361 35 360 35 359 35 359 34 359 33 358 33 358 34 358 35 358 36 359 36 360 36" fill="#e63946"/>
    <polygon points="312 36 313 36 313 35 312 35 311 35 311 34 311 33 310 33 310 34 310 35 310 36 311 36 312 36" fill="#e63946"/>
    <polygon points="296 36 296 37 297 37 297 36 297 35 296 35 296 36" fill="#e63946"/>
    <polygon points="264 36 265 36 265 35 264 35 263 35 263 34 263 33 262 33 262 34 262 35 262 36 263 36 264 36" fill="#e63946"/>
    <polygon points="216 36 217 36 217 35 216 35 215 35 215 34 215 33 214 33 214 34 214 35 214 36 215 36 216 36" fill="#e63946"/>
    <polygon points="196 36 196 37 197 37 197 36 197 35 196 35 196 36" fill="#e63946"/>
    <polygon points="168 36 169 36 169 35 168 35 167 35 167 34 167 33 166 33 166 34 166 35 166 36 167 36 168 36" fill="#e63946"/>
    <polygon points="120 36 121 36 121 35 120 35 119 35 119 34 119 33 118 33 118 34 118 35 118 36 119 36 120 36" fill="#e63946"/>
    <polygon points="104 36 104 37 105 37 105 36 105 35 104 35 104 36" fill="#e63946"/>
    <polygon points="72 36 73 36 73 35 72 35 71 35 71 34 71 33 70 33 70 34 70 35 70 36 71 36 72 36" fill="#e63946"/>
    <polygon points="24 36 25 36 25 35 24 35 23 35 23 34 23 33 22 33 22 34 22 35 22 36 23 36 24 36" fill="#e63946"/>
    <polygon points="4 36 4 37 5 37 5 36 5 35 4 35 4 36" fill="#e63946"/>
    <polygon points="344 35 343 35 343 36 343 37 344 37 344 36 345 36 345 35 345 34 344 34 344 35" fill="#e63946"/>
    <polygon points="248 35 247 35 247 36 247 37 248 37 248 36 249 36 249 35 249 34 248 34 248 35" fill="#e63946"/>
    <polygon points="152 35 151 35 151 36 151 37 152 37 152 36 153 36 153 35 153 34 152 34 152 35" fill="#e63946"/>
    <polygon points="56 35 55 35 55 36 55 37 56 37 56 36 57 36 57 35 57 34 56 34 56 35" fill="#e63946"/>
    <polygon points="341 34 340 34 340 35 340 36 339 36 339 37 338 37 338 38 338 39 339 39 339 40 340 40 340 39 340 38 340 37 341 37 341 36 341 35 342 35 342 34 342 33 341 33 341 34" fill="#e63946"/>
    <polygon points="293 34 292 34 292 35 292 36 293 36 293 35 294 35 294 34 294 33 293 33 293 34" fill="#e63946"/>
    <polygon points="245 34 244 34 244 35 244 36 243 36 243 37 242 37 242 38 242 39 243 39 243 40 244 40 244 39 244 38 244 37 245 37 245 36 245 35 246 35 246 34 246 33 245 33 245 34" fill="#e63946"/>
    <polygon points="197 34 197 35 198 35 198 34 198 33 197 33 197 34" fill="#e63946"/>
    <polygon points="149 34 148 34 148 35 148 36 147 36 147 37 146 37 146 38 146 39 147 39 147 40 148 40 148 39 148 38 148 37 149 37 149 36 149 35 150 35 150 34 150 33 149 33 149 34" fill="#e63946"/>
    <polygon points="101 34 100 34 100 35 100 36 101 36 101 35 102 35 102 34 102 33 101 33 101 34" fill="#e63946"/>
    <polygon points="53 34 52 34 52 35 52 36 51 36 51 37 50 37 50 38 50 39 51 39 51 40 52 40 52 39 52 38 52 37 53 37 53 36 53 35 54 35 54 34 54 33 53 33 53 34" fill="#e63946"/>
    <polygon points="5 34 5 35 6 35 6 34 6 33 5 33 5 34" fill="#e63946"/>
    <polygon points="343 32 343 31 344 31 344 30 343 30 343 29 342 29 342 30 342 31 342 32 342 33 343 33 343 32" fill="#e63946"/>
    <polygon points="247 32 247 31 248 31 248 30 247 30 247 29 246 29 246 30 246 31 246 32 246 33 247 33 247 32" fill="#e63946"/>
    <polygon points="151 32 151 31 152 31 152 30 151 30 151 29 150 29 150 30 150 31 150 32 150 33 151 33 151 32" fill="#e63946"/>
    <polygon points="55 32 55 31 56 31 56 30 55 30 55 29 54 29 54 30 54 31 54 32 54 33 55 33 55 32" fill="#e63946"/>
    <polygon points="294 30 294 31 294 32 294 33 295 33 295 32 295 31 295 30 295 29 294 29 294 30" fill="#e63946"/>
    <polygon points="198 30 198 31 198 32 198 33 199 33 199 32 199 31 199 30 199 29 198 29 198 30" fill="#e63946"/>
    <polygon points="102 30 102 31 102 32 102 33 103 33 103 32 103 31 103 30 103 29 102 29 102 30" fill="#e63946"/>
    <polygon points="6 30 6 31 6 32 6 33 7 33 7 32 7 31 7 30 7 29 6 29 6 30" fill="#e63946"/>
    <polygon points="371 26 372 26 372 25 372 24 371 24 371 25 370 25 369 25 369 26 370 26 371 26" fill="#e63946"/>
    <polygon points="351 26 352 26 352 25 351 25 350 25 349 25 349 26 350 26 351 26" fill="#e63946"/>
    <polygon points="323 26 324 26 324 25 324 24 323 24 323 25 322 25 321 25 321 26 322 26 323 26" fill="#e63946"/>
    <polygon points="303 26 304 26 304 25 303 25 302 25 301 25 301 26 302 26 303 26" fill="#e63946"/>
    <polygon points="275 26 276 26 276 25 276 24 275 24 275 25 274 25 273 25 273 26 274 26 275 26" fill="#e63946"/>
    <polygon points="255 26 256 26 256 25 255 25 254 25 253 25 253 26 254 26 255 26" fill="#e63946"/>
    <polygon points="227 26 228 26 228 25 228 24 227 24 227 25 226 25 225 25 225 26 226 26 227 26" fill="#e63946"/>
    <polygon points="207 26 208 26 208 25 207 25 206 25 205 25 205 26 206 26 207 26" fill="#e63946"/>
    <polygon points="179 26 180 26 180 25 180 24 179 24 179 25 178 25 177 25 177 26 178 26 179 26" fill="#e63946"/>
    <polygon points="159 26 160 26 160 25 159 25 158 25 157 25 157 26 158 26 159 26" fill="#e63946"/>
    <polygon points="131 26 132 26 132 25 132 24 131 24 131 25 130 25 129 25 129 26 130 26 131 26" fill="#e63946"/>
    <polygon points="111 26 112 26 112 25 111 25 110 25 109 25 109 26 110 26 111 26" fill="#e63946"/>
    <polygon points="83 26 84 26 84 25 84 24 83 24 83 25 82 25 81 25 81 26 82 26 83 26" fill="#e63946"/>
    <polygon points="63 26 64 26 64 25 63 25 62 25 61 25 61 26 62 26 63 26" fill="#e63946"/>
    <polygon points="35 26 36 26 36 25 36 24 35 24 35 25 34 25 33 25 33 26 34 26 35 26" fill="#e63946"/>
    <polygon points="15 26 16 26 16 25 15 25 14 25 13 25 13 26 14 26 15 26" fill="#e63946"/>
  </g>
  <g>
    <polygon points="351 46 350 46 350 45 349 45 349 44 349 43 348 43 348 44 348 45 348 46 349 46 349 47 350 47 351 47 352 47 353 47 353 46 352 46 351 46" fill="#c71522"/>
    <polygon points="303 46 302 46 302 45 301 45 301 44 301 43 300 43 300 44 300 45 300 46 301 46 301 47 302 47 303 47 304 47 305 47 305 46 304 46 303 46" fill="#c71522"/>
    <polygon points="255 46 254 46 254 45 253 45 253 44 253 43 252 43 252 44 252 45 252 46 253 46 253 47 254 47 255 47 256 47 257 47 257 46 256 46 255 46" fill="#c71522"/>
    <polygon points="207 46 206 46 206 45 205 45 205 44 205 43 204 43 204 44 204 45 204 46 205 46 205 47 206 47 207 47 208 47 209 47 209 46 208 46 207 46" fill="#c71522"/>
    <polygon points="159 46 158 46 158 45 157 45 157 44 157 43 156 43 156 44 156 45 156 46 157 46 157 47 158 47 159 47 160 47 161 47 161 46 160 46 159 46" fill="#c71522"/>
    <polygon points="111 46 110 46 110 45 109 45 109 44 109 43 108 43 108 44 108 45 108 46 109 46 109 47 110 47 111 47 112 47 113 47 113 46 112 46 111 46" fill="#c71522"/>
    <polygon points="63 46 62 46 62 45 61 45 61 44 61 43 60 43 60 44 60 45 60 46 61 46 61 47 62 47 63 47 64 47 65 47 65 46 64 46 63 46" fill="#c71522"/>
    <polygon points="15 46 14 46 14 45 13 45 13 44 13 43 12 43 12 44 12 45 12 46 13 46 13 47 14 47 15 47 16 47 17 47 17 46 16 46 15 46" fill="#c71522"/>
    <rect x="353" y="45" width="1" height="1" fill="#c71522"/>
    <rect x="305" y="45" width="1" height="1" fill="#c71522"/>
    <rect x="257" y="45" width="1" height="1" fill="#c71522"/>
    <rect x="209" y="45" width="1" height="1" fill="#c71522"/>
    <rect x="161" y="45" width="1" height="1" fill="#c71522"/>
    <rect x="113" y="45" width="1" height="1" fill="#c71522"/>
    <rect x="65" y="45" width="1" height="1" fill="#c71522"/>
    <rect x="17" y="45" width="1" height="1" fill="#c71522"/>
    <polygon points="372 44 372 45 371 45 371 46 370 46 369 46 369 45 368 45 368 44 367 44 367 45 367 46 368 46 368 47 369 47 370 47 371 47 372 47 372 46 373 46 373 45 373 44 373 43 372 43 372 44" fill="#c71522"/>
    <polygon points="364 43 363 43 362 43 361 43 360 43 359 43 358 43 357 43 356 43 355 43 355 44 356 44 357 44 358 44 359 44 360 44 361 44 362 44 363 44 364 44 365 44 366 44 366 43 365 43 364 43" fill="#c71522"/>
    <polygon points="324 44 324 45 323 45 323 46 322 46 321 46 321 45 320 45 320 44 319 44 319 45 319 46 320 46 320 47 321 47 322 47 323 47 324 47 324 46 325 46 325 45 325 44 325 43 324 43 324 44" fill="#c71522"/>
    <polygon points="316 43 315 43 314 43 313 43 312 43 311 43 310 43 309 43 308 43 307 43 307 44 308 44 309 44 310 44 311 44 312 44 313 44 314 44 315 44 316 44 317 44 318 44 318 43 317 43 316 43" fill="#c71522"/>
    <polygon points="276 44 276 45 275 45 275 46 274 46 273 46 273 45 272 45 272 44 271 44 271 45 271 46 272 46 272 47 273 47 274 47 275 47 276 47 276 46 277 46 277 45 277 44 277 43 276 43 276 44" fill="#c71522"/>
    <polygon points="268 43 267 43 266 43 265 43 264 43 263 43 262 43 261 43 260 43 259 43 259 44 260 44 261 44 262 44 263 44 264 44 265 44 266 44 267 44 268 44 269 44 270 44 270 43 269 43 268 43" fill="#c71522"/>
    <polygon points="228 44 228 45 227 45 227 46 226 46 225 46 225 45 224 45 224 44 223 44 223 45 223 46 224 46 224 47 225 47 226 47 227 47 228 47 228 46 229 46 229 45 229 44 229 43 228 43 228 44" fill="#c71522"/>
    <polygon points="220 43 219 43 218 43 217 43 216 43 215 43 214 43 213 43 212 43 211 43 211 44 212 44 213 44 214 44 215 44 216 44 217 44 218 44 219 44 220 44 221 44 222 44 222 43 221 43 220 43" fill="#c71522"/>
    <polygon points="180 44 180 45 179 45 179 46 178 46 177 46 177 45 176 45 176 44 175 44 175 45 175 46 176 46 176 47 177 47 178 47 179 47 180 47 180 46 181 46 181 45 181 44 181 43 180 43 180 44" fill="#c71522"/>
    <polygon points="172 43 171 43 170 43 169 43 168 43 167 43 166 43 165 43 164 43 163 43 163 44 164 44 165 44 166 44 167 44 168 44 169 44 170 44 171 44 172 44 173 44 174 44 174 43 173 43 172 43" fill="#c71522"/>
    <polygon points="132 44 132 45 131 45 131 46 130 46 129 46 129 45 128 45 128 44 127 44 127 45 127 46 128 46 128 47 129 47 130 47 131 47 132 47 132 46 133 46 133 45 133 44 133 43 132 43 132 44" fill="#c71522"/>
    <polygon points="124 43 123 43 122 43 121 43 120 43 119 43 118 43 117 43 116 43 115 43 115 44 116 44 117 44 118 44 119 44 120 44 121 44 122 44 123 44 124 44 125 44 126 44 126 43 125 43 124 43" fill="#c71522"/>
    <polygon points="84 44 84 45 83 45 83 46 82 46 81 46 81 45 80 45 80 44 79 44 79 45 79 46 80 46 80 47 81 47 82 47 83 47 84 47 84 46 85 46 85 45 85 44 85 43 84 43 84 44" fill="#c71522"/>
    <polygon points="76 43 75 43 74 43 73 43 72 43 71 43 70 43 69 43 68 43 67 43 67 44 68 44 69 44 70 44 71 44 72 44 73 44 74 44 75 44 76 44 77 44 78 44 78 43 77 43 76 43" fill="#c71522"/>
    <polygon points="36 44 36 45 35 45 35 46 34 46 33 46 33 45 32 45 32 44 31 44 31 45 31 46 32 46 32 47 33 47 34 47 35 47 36 47 36 46 37 46 37 45 37 44 37 43 36 43 36 44" fill="#c71522"/>
    <polygon points="28 43 27 43 26 43 25 43 24 43 23 43 22 43 21 43 20 43 19 43 19 44 20 44 21 44 22 44 23 44 24 44 25 44 26 44 27 44 28 44 29 44 30 44 30 43 29 43 28 43" fill="#c71522"/>
    <rect x="366" y="42" width="1" height="1" fill="#c71522"/>
    <rect x="354" y="42" width="1" height="1" fill="#c71522"/>
    <rect x="318" y="42" width="1" height="1" fill="#c71522"/>
    <rect x="306" y="42" width="1" height="1" fill="#c71522"/>
    <rect x="270" y="42" width="1" height="1" fill="#c71522"/>
    <rect x="258" y="42" width="1" height="1" fill="#c71522"/>
    <rect x="222" y="42" width="1" height="1" fill="#c71522"/>
    <rect x="210" y="42" width="1" height="1" fill="#c71522"/>
    <rect x="174" y="42" width="1" height="1" fill="#c71522"/>
    <rect x="162" y="42" width="1" height="1" fill="#c71522"/>
    <rect x="126" y="42" width="1" height="1" fill="#c71522"/>
    <rect x="114" y="42" width="1" height="1" fill="#c71522"/>
    <rect x="78" y="42" width="1" height="1" fill="#c71522"/>
    <rect x="66" y="42" width="1" height="1" fill="#c71522"/>
    <rect x="30" y="42" width="1" height="1" fill="#c71522"/>
    <rect x="18" y="42" width="1" height="1" fill="#c71522"/>
    <polygon points="373 42 373 43 374 43 374 42 374 41 373 41 373 42" fill="#c71522"/>
    <polygon points="368 41 368 40 368 39 367 39 367 40 367 41 367 42 368 42 368 41" fill="#c71522"/>
    <polygon points="348 41 347 41 347 42 347 43 348 43 348 42 348 41" fill="#c71522"/>
    <polygon points="325 42 325 43 326 43 326 42 326 41 325 41 325 42" fill="#c71522"/>
    <polygon points="320 41 320 40 320 39 319 39 319 40 319 41 319 42 320 42 320 41" fill="#c71522"/>
    <polygon points="300 41 299 41 299 42 299 43 300 43 300 42 300 41" fill="#c71522"/>
    <polygon points="277 42 277 43 278 43 278 42 278 41 277 41 277 42" fill="#c71522"/>
    <polygon points="272 41 272 40 272 39 271 39 271 40 271 41 271 42 272 42 272 41" fill="#c71522"/>
    <polygon points="252 41 251 41 251 42 251 43 252 43 252 42 252 41" fill="#c71522"/>
    <polygon points="229 42 229 43 230 43 230 42 230 41 229 41 229 42" fill="#c71522"/>
    <polygon points="224 41 224 40 224 39 223 39 223 40 223 41 223 42 224 42 224 41" fill="#c71522"/>
    <polygon points="204 41 203 41 203 42 203 43 204 43 204 42 204 41" fill="#c71522"/>
    <polygon points="181 42 181 43 182 43 182 42 182 41 181 41 181 42" fill="#c71522"/>
    <polygon points="176 41 176 40 176 39 175 39 175 40 175 41 175 42 176 42 176 41" fill="#c71522"/>
    <polygon points="156 41 155 41 155 42 155 43 156 43 156 42 156 41" fill="#c71522"/>
    <polygon points="133 42 133 43 134 43 134 42 134 41 133 41 133 42" fill="#c71522"/>
    <polygon points="128 41 128 40 128 39 127 39 127 40 127 41 127 42 128 42 128 41" fill="#c71522"/>
    <polygon points="108 41 107 41 107 42 107 43 108 43 108 42 108 41" fill="#c71522"/>
    <polygon points="85 42 85 43 86 43 86 42 86 41 85 41 85 42" fill="#c71522"/>
    <polygon points="80 41 80 40 80 39 79 39 79 40 79 41 79 42 80 42 80 41" fill="#c71522"/>
    <polygon points="60 41 59 41 59 42 59 43 60 43 60 42 60 41" fill="#c71522"/>
    <polygon points="37 42 37 43 38 43 38 42 38 41 37 41 37 42" fill="#c71522"/>
    <polygon points="32 41 32 40 32 39 31 39 31 40 31 41 31 42 32 42 32 41" fill="#c71522"/>
    <polygon points="12 41 11 41 11 42 11 43 12 43 12 42 12 41" fill="#c71522"/>
    <polygon points="354 40 354 39 354 38 353 38 353 37 352 37 352 38 352 39 353 39 353 40 353 41 353 42 354 42 354 41 354 40" fill="#c71522"/>
    <polygon points="306 40 306 39 306 38 305 38 305 37 304 37 304 38 304 39 305 39 305 40 305 41 305 42 306 42 306 41 306 40" fill="#c71522"/>
    <polygon points="258 40 258 39 258 38 257 38 257 37 256 37 256 38 256 39 257 39 257 40 257 41 257 42 258 42 258 41 258 40" fill="#c71522"/>
    <polygon points="210 40 210 39 210 38 209 38 209 37 208 37 208 38 208 39 209 39 209 40 209 41 209 42 210 42 210 41 210 40" fill="#c71522"/>
    <polygon points="162 40 162 39 162 38 161 38 161 37 160 37 160 38 160 39 161 39 161 40 161 41 161 42 162 42 162 41 162 40" fill="#c71522"/>
    <polygon points="114 40 114 39 114 38 113 38 113 37 112 37 112 38 112 39 113 39 113 40 113 41 113 42 114 42 114 41 114 40" fill="#c71522"/>
    <polygon points="66 40 66 39 66 38 65 38 65 37 64 37 64 38 64 39 65 39 65 40 65 41 65 42 66 42 66 41 66 40" fill="#c71522"/>
    <polygon points="18 40 18 39 18 38 17 38 17 37 16 37 16 38 16 39 17 39 17 40 17 41 17 42 18 42 18 41 18 40" fill="#c71522"/>
    <path d="M347,39v-2h1v-3h-1v-2h-1v-1h-3v2h-1v2h-1v2h-1v3h4v-1h2v2h1v-2ZM341,39v-1h1v-1h1v-2h1v-1h1v2h-1v1h-1v1h-1v1h-1Z" fill="#c71522"/>
    <polygon points="330 39 330 38 329 38 329 39 329 40 330 40 330 41 331 41 331 40 332 40 332 39 331 39 330 39" fill="#c71522"/>
    <polygon points="328 39 328 38 327 38 327 37 328 37 328 38 329 38 329 37 329 36 329 35 329 34 329 33 329 32 328 32 327 32 327 33 327 34 326 34 326 35 325 35 325 36 325 37 326 37 326 38 326 39 326 40 327 40 327 41 328 41 329 41 329 40 328 40 328 39" fill="#c71522"/>
    <polygon points="299 39 299 38 299 37 300 37 300 36 300 35 300 34 299 34 299 33 299 32 298 32 298 31 297 31 296 31 296 30 295 30 295 31 295 32 295 33 294 33 294 34 294 35 293 35 293 36 292 36 292 37 292 38 292 39 293 39 293 40 294 40 294 39 294 38 295 38 295 37 296 37 296 36 296 35 297 35 297 36 297 37 296 37 296 38 295 38 295 39 295 40 296 40 297 40 297 39 298 39 298 40 298 41 299 41 299 40 299 39" fill="#c71522"/>
    <path d="M251,39v-2h1v-3h-1v-2h-1v-1h-3v2h-1v2h-1v2h-1v3h4v-1h2v2h1v-2ZM245,39v-1h1v-1h1v-2h1v-1h1v2h-1v1h-1v1h-1v1h-1Z" fill="#c71522"/>
    <polygon points="234 39 234 38 233 38 233 37 233 36 233 35 233 34 233 33 233 32 232 32 231 32 231 33 231 34 230 34 230 35 229 35 229 36 229 37 230 37 230 38 231 38 231 39 232 39 233 39 233 40 234 40 235 40 236 40 236 39 235 39 234 39" fill="#c71522"/>
    <polygon points="203 39 203 38 203 37 204 37 204 36 204 35 204 34 203 34 203 33 203 32 202 32 202 31 201 31 200 31 200 30 199 30 199 31 199 32 199 33 198 33 198 34 198 35 197 35 197 36 197 37 196 37 196 38 196 39 195 39 195 40 196 40 197 40 197 39 198 39 199 39 200 39 200 38 201 38 201 39 202 39 202 40 202 41 203 41 203 40 203 39" fill="#c71522"/>
    <path d="M155,39v-2h1v-3h-1v-2h-1v-1h-3v2h-1v2h-1v2h-1v3h4v-1h2v2h1v-2ZM149,39v-1h1v-1h1v-2h1v-1h1v2h-1v1h-1v1h-1v1h-1Z" fill="#c71522"/>
    <polygon points="138 39 138 38 137 38 137 39 137 40 138 40 138 41 139 41 139 40 140 40 140 39 139 39 138 39" fill="#c71522"/>
    <polygon points="136 39 136 38 135 38 135 37 136 37 136 38 137 38 137 37 137 36 137 35 137 34 137 33 137 32 136 32 135 32 135 33 135 34 134 34 134 35 133 35 133 36 133 37 134 37 134 38 134 39 134 40 135 40 135 41 136 41 137 41 137 40 136 40 136 39" fill="#c71522"/>
    <polygon points="107 39 107 38 107 37 108 37 108 36 108 35 108 34 107 34 107 33 107 32 106 32 106 31 105 31 104 31 104 30 103 30 103 31 103 32 103 33 102 33 102 34 102 35 101 35 101 36 100 36 100 37 100 38 100 39 101 39 101 40 102 40 102 39 102 38 103 38 103 37 104 37 104 36 104 35 105 35 105 36 105 37 104 37 104 38 103 38 103 39 103 40 104 40 105 40 105 39 106 39 106 40 106 41 107 41 107 40 107 39" fill="#c71522"/>
    <path d="M59,39v-2h1v-3h-1v-2h-1v-1h-3v2h-1v2h-1v2h-1v3h4v-1h2v2h1v-2ZM53,39v-1h1v-1h1v-2h1v-1h1v2h-1v1h-1v1h-1v1h-1Z" fill="#c71522"/>
    <polygon points="42 39 42 38 41 38 41 37 41 36 41 35 41 34 41 33 41 32 40 32 39 32 39 33 39 34 38 34 38 35 37 35 37 36 37 37 38 37 38 38 39 38 39 39 40 39 41 39 41 40 42 40 43 40 44 40 44 39 43 39 42 39" fill="#c71522"/>
    <polygon points="11 39 11 38 11 37 12 37 12 36 12 35 12 34 11 34 11 33 11 32 10 32 10 31 9 31 8 31 8 30 7 30 7 31 7 32 7 33 6 33 6 34 6 35 5 35 5 36 5 37 4 37 4 38 4 39 3 39 3 40 4 40 5 40 5 39 6 39 7 39 8 39 8 38 9 38 9 39 10 39 10 40 10 41 11 41 11 40 11 39" fill="#c71522"/>
    <rect x="368" y="38" width="1" height="1" fill="#c71522"/>
    <rect x="320" y="38" width="1" height="1" fill="#c71522"/>
    <rect x="272" y="38" width="1" height="1" fill="#c71522"/>
    <rect x="224" y="38" width="1" height="1" fill="#c71522"/>
    <rect x="176" y="38" width="1" height="1" fill="#c71522"/>
    <rect x="128" y="38" width="1" height="1" fill="#c71522"/>
    <rect x="80" y="38" width="1" height="1" fill="#c71522"/>
    <rect x="32" y="38" width="1" height="1" fill="#c71522"/>
    <polygon points="356 38 357 38 358 38 359 38 360 38 361 38 362 38 363 38 363 37 364 37 365 37 365 36 365 35 364 35 364 36 363 36 362 36 362 37 361 37 360 37 359 37 358 37 357 37 357 36 356 36 355 36 355 37 356 37 356 38" fill="#c71522"/>
    <polygon points="308 38 309 38 310 38 311 38 312 38 313 38 314 38 315 38 315 37 316 37 317 37 317 36 317 35 316 35 316 36 315 36 314 36 314 37 313 37 312 37 311 37 310 37 309 37 309 36 308 36 307 36 307 37 308 37 308 38" fill="#c71522"/>
    <polygon points="260 38 261 38 262 38 263 38 264 38 265 38 266 38 267 38 267 37 268 37 269 37 269 36 269 35 268 35 268 36 267 36 266 36 266 37 265 37 264 37 263 37 262 37 261 37 261 36 260 36 259 36 259 37 260 37 260 38" fill="#c71522"/>
    <polygon points="212 38 213 38 214 38 215 38 216 38 217 38 218 38 219 38 219 37 220 37 221 37 221 36 221 35 220 35 220 36 219 36 218 36 218 37 217 37 216 37 215 37 214 37 213 37 213 36 212 36 211 36 211 37 212 37 212 38" fill="#c71522"/>
    <polygon points="164 38 165 38 166 38 167 38 168 38 169 38 170 38 171 38 171 37 172 37 173 37 173 36 173 35 172 35 172 36 171 36 170 36 170 37 169 37 168 37 167 37 166 37 165 37 165 36 164 36 163 36 163 37 164 37 164 38" fill="#c71522"/>
    <polygon points="116 38 117 38 118 38 119 38 120 38 121 38 122 38 123 38 123 37 124 37 125 37 125 36 125 35 124 35 124 36 123 36 122 36 122 37 121 37 120 37 119 37 118 37 117 37 117 36 116 36 115 36 115 37 116 37 116 38" fill="#c71522"/>
    <polygon points="68 38 69 38 70 38 71 38 72 38 73 38 74 38 75 38 75 37 76 37 77 37 77 36 77 35 76 35 76 36 75 36 74 36 74 37 73 37 72 37 71 37 70 37 69 37 69 36 68 36 67 36 67 37 68 37 68 38" fill="#c71522"/>
    <polygon points="20 38 21 38 22 38 23 38 24 38 25 38 26 38 27 38 27 37 28 37 29 37 29 36 29 35 28 35 28 36 27 36 26 36 26 37 25 37 24 37 23 37 22 37 21 37 21 36 20 36 19 36 19 37 20 37 20 38" fill="#c71522"/>
    <polygon points="376 32 375 32 375 33 375 34 374 34 374 35 373 35 373 36 373 37 374 37 374 38 374 39 375 39 375 40 376 40 377 40 377 39 376 39 376 38 376 37 375 37 375 36 376 36 376 37 377 37 377 36 377 35 377 34 377 33 377 32 376 32" fill="#c71522"/>
    <polygon points="279 32 279 33 279 34 278 34 278 35 277 35 277 36 277 37 278 37 278 38 278 39 279 39 279 40 280 40 281 40 281 39 280 39 280 38 280 37 279 37 279 36 280 36 280 37 281 37 281 36 281 35 281 34 281 33 281 32 280 32 279 32" fill="#c71522"/>
    <polygon points="183 32 183 33 183 34 182 34 182 35 181 35 181 36 181 37 182 37 182 38 182 39 183 39 183 40 184 40 185 40 185 39 184 39 184 38 184 37 183 37 183 36 184 36 184 37 185 37 185 36 185 35 185 34 185 33 185 32 184 32 183 32" fill="#c71522"/>
    <polygon points="87 32 87 33 87 34 86 34 86 35 85 35 85 36 85 37 86 37 86 38 86 39 87 39 87 40 88 40 89 40 89 39 88 39 88 38 88 37 87 37 87 36 88 36 88 37 89 37 89 36 89 35 89 34 89 33 89 32 88 32 87 32" fill="#c71522"/>
    <polygon points="370 27 371 27 371 26 370 26 369 26 369 27 370 27" fill="#c71522"/>
    <polygon points="350 27 351 27 351 26 350 26 349 26 349 27 350 27" fill="#c71522"/>
    <polygon points="322 27 323 27 323 26 322 26 321 26 321 27 322 27" fill="#c71522"/>
    <polygon points="302 27 303 27 303 26 302 26 301 26 301 27 302 27" fill="#c71522"/>
    <polygon points="274 27 275 27 275 26 274 26 273 26 273 27 274 27" fill="#c71522"/>
    <polygon points="254 27 255 27 255 26 254 26 253 26 253 27 254 27" fill="#c71522"/>
    <polygon points="226 27 227 27 227 26 226 26 225 26 225 27 226 27" fill="#c71522"/>
    <polygon points="206 27 207 27 207 26 206 26 205 26 205 27 206 27" fill="#c71522"/>
    <polygon points="178 27 179 27 179 26 178 26 177 26 177 27 178 27" fill="#c71522"/>
    <polygon points="158 27 159 27 159 26 158 26 157 26 157 27 158 27" fill="#c71522"/>
    <polygon points="130 27 131 27 131 26 130 26 129 26 129 27 130 27" fill="#c71522"/>
    <polygon points="110 27 111 27 111 26 110 26 109 26 109 27 110 27" fill="#c71522"/>
    <polygon points="82 27 83 27 83 26 82 26 81 26 81 27 82 27" fill="#c71522"/>
    <polygon points="62 27 63 27 63 26 62 26 61 26 61 27 62 27" fill="#c71522"/>
    <polygon points="34 27 35 27 35 26 34 26 33 26 33 27 34 27" fill="#c71522"/>
    <polygon points="14 27 15 27 15 26 14 26 13 26 13 27 14 27" fill="#c71522"/>
    <rect x="368" y="25" width="1" height="1" fill="#c71522"/>
    <polygon points="349 25 349 24 348 24 348 25 348 26 349 26 349 25" fill="#c71522"/>
    <rect x="320" y="25" width="1" height="1" fill="#c71522"/>
    <polygon points="301 25 301 24 300 24 300 25 300 26 301 26 301 25" fill="#c71522"/>
    <rect x="272" y="25" width="1" height="1" fill="#c71522"/>
    <polygon points="253 25 253 24 252 24 252 25 252 26 253 26 253 25" fill="#c71522"/>
    <rect x="224" y="25" width="1" height="1" fill="#c71522"/>
    <polygon points="205 25 205 24 204 24 204 25 204 26 205 26 205 25" fill="#c71522"/>
    <rect x="176" y="25" width="1" height="1" fill="#c71522"/>
    <polygon points="157 25 157 24 156 24 156 25 156 26 157 26 157 25" fill="#c71522"/>
    <rect x="128" y="25" width="1" height="1" fill="#c71522"/>
    <polygon points="109 25 109 24 108 24 108 25 108 26 109 26 109 25" fill="#c71522"/>
    <rect x="80" y="25" width="1" height="1" fill="#c71522"/>
    <polygon points="61 25 61 24 60 24 60 25 60 26 61 26 61 25" fill="#c71522"/>
    <rect x="32" y="25" width="1" height="1" fill="#c71522"/>
    <polygon points="13 25 13 24 12 24 12 25 12 26 13 26 13 25" fill="#c71522"/>
  </g>
  <g>
    <path d="M381,29v-1h-2v-3h-2v-1h-5v2h-1v1h-2v-1h-1v-1h-6v1h-5v-1h-5v1h-1v1h-2v-1h-1v-2h-1v-1h-2v-2h-1v-3h-1v-1h-4v6h1v1h1v2h1v1h1v1h1v1h1v1h2v2h1v1h1v2h6v-2h1v-1h7v1h1v2h9v-2h1v-1h1v-1h2v1h1v2h4v-5h-1ZM354,34h-4v-1h4v1ZM359,31v-3h1v3h-1ZM370,34h-5v-1h6v1h-1Z" fill="#1d4ed8"/>
    <path d="M333,28h-2v-3h-2v-1h-5v2h-1v1h-2v-1h-1v-1h-6v1h-5v-1h-5v1h-1v1h-2v-1h-1v-2h-1v-1h-2v-2h-1v-3h-1v-1h-4v6h1v1h1v2h1v1h1v1h1v1h1v1h2v2h1v1h1v2h6v-2h1v-1h7v1h1v2h9v-2h1v-1h1v-1h2v1h1v2h4v-5h-1v-1ZM306,34h-4v-1h4v1ZM311,31v-3h1v3h-1ZM322,34h-5v-1h6v1h-1Z" fill="#1d4ed8"/>
    <path d="M285,28h-2v-3h-2v-1h-5v2h-1v1h-2v-1h-1v-1h-6v1h-5v-1h-5v1h-1v1h-2v-1h-1v-2h-1v-1h-2v-2h-1v-3h-1v-1h-4v6h1v1h1v2h1v1h1v1h1v1h1v1h2v2h1v1h1v2h6v-2h1v-1h7v1h1v2h9v-2h1v-1h1v-1h2v1h1v2h4v-5h-1v-1ZM258,34h-4v-1h4v1ZM263,31v-3h1v3h-1ZM274,34h-5v-1h6v1h-1Z" fill="#1d4ed8"/>
    <path d="M237,28h-2v-3h-2v-1h-5v2h-1v1h-2v-1h-1v-1h-6v1h-5v-1h-5v1h-1v1h-2v-1h-1v-2h-1v-1h-2v-2h-1v-3h-1v-1h-4v6h1v1h1v2h1v1h1v1h1v1h1v1h2v2h1v1h1v2h6v-2h1v-1h7v1h1v2h9v-2h1v-1h1v-1h2v1h1v2h4v-5h-1v-1ZM210,34h-4v-1h4v1ZM215,31v-3h1v3h-1ZM226,34h-5v-1h6v1h-1Z" fill="#1d4ed8"/>
    <path d="M189,28h-2v-3h-2v-1h-5v2h-1v1h-2v-1h-1v-1h-6v1h-5v-1h-5v1h-1v1h-2v-1h-1v-2h-1v-1h-2v-2h-1v-3h-1v-1h-4v6h1v1h1v2h1v1h1v1h1v1h1v1h2v2h1v1h1v2h6v-2h1v-1h7v1h1v2h9v-2h1v-1h1v-1h2v1h1v2h4v-5h-1v-1ZM162,34h-4v-1h4v1ZM167,31v-3h1v3h-1ZM178,34h-5v-1h6v1h-1Z" fill="#1d4ed8"/>
    <path d="M141,28h-2v-3h-2v-1h-5v2h-1v1h-2v-1h-1v-1h-6v1h-5v-1h-5v1h-1v1h-2v-1h-1v-2h-1v-1h-2v-2h-1v-3h-1v-1h-4v6h1v1h1v2h1v1h1v1h1v1h1v1h2v2h1v1h1v2h6v-2h1v-1h7v1h1v2h9v-2h1v-1h1v-1h2v1h1v2h4v-5h-1v-1ZM114,34h-4v-1h4v1ZM119,31v-3h1v3h-1ZM130,34h-5v-1h6v1h-1Z" fill="#1d4ed8"/>
    <path d="M93,28h-2v-3h-2v-1h-5v2h-1v1h-2v-1h-1v-1h-6v1h-5v-1h-5v1h-1v1h-2v-1h-1v-2h-1v-1h-2v-2h-1v-3h-1v-1h-4v6h1v1h1v2h1v1h1v1h1v1h1v1h2v2h1v1h1v2h6v-2h1v-1h7v1h1v2h9v-2h1v-1h1v-1h2v1h1v2h4v-5h-1v-1ZM66,34h-4v-1h4v1ZM71,31v-3h1v3h-1ZM82,34h-5v-1h6v1h-1Z" fill="#1d4ed8"/>
    <path d="M45,28h-2v-3h-2v-1h-5v2h-1v1h-2v-1h-1v-1h-6v1h-5v-1h-5v1h-1v1h-2v-1h-1v-2h-1v-1h-2v-2h-1v-3h-1v-1H3v6h1v1h1v2h1v1h1v1h1v1h1v1h2v2h1v1h1v2h6v-2h1v-1h7v1h1v2h9v-2h1v-1h1v-1h2v1h1v2h4v-5h-1v-1ZM18,34h-4v-1h4v1ZM23,31v-3h1v3h-1ZM34,34h-5v-1h6v1h-1Z" fill="#1d4ed8"/>
  </g>
  <g>
    <polygon points="360 25 359 25 358 25 357 25 357 26 358 26 359 26 360 26 361 26 362 26 362 25 361 25 360 25" fill="#f2bcac"/>
    <polygon points="312 25 311 25 310 25 309 25 309 26 310 26 311 26 312 26 313 26 314 26 314 25 313 25 312 25" fill="#f2bcac"/>
    <polygon points="264 25 263 25 262 25 261 25 261 26 262 26 263 26 264 26 265 26 266 26 266 25 265 25 264 25" fill="#f2bcac"/>
    <polygon points="216 25 215 25 214 25 213 25 213 26 214 26 215 26 216 26 217 26 218 26 218 25 217 25 216 25" fill="#f2bcac"/>
    <polygon points="168 25 167 25 166 25 165 25 165 26 166 26 167 26 168 26 169 26 170 26 170 25 169 25 168 25" fill="#f2bcac"/>
    <polygon points="120 25 119 25 118 25 117 25 117 26 118 26 119 26 120 26 121 26 122 26 122 25 121 25 120 25" fill="#f2bcac"/>
    <polygon points="72 25 71 25 70 25 69 25 69 26 70 26 71 26 72 26 73 26 74 26 74 25 73 25 72 25" fill="#f2bcac"/>
    <polygon points="24 25 23 25 22 25 21 25 21 26 22 26 23 26 24 26 25 26 26 26 26 25 25 25 24 25" fill="#f2bcac"/>
    <rect x="362" y="24" width="1" height="1" fill="#f2bcac"/>
    <rect x="356" y="24" width="1" height="1" fill="#f2bcac"/>
    <polygon points="351 24 350 24 350 23 349 23 348 23 347 23 347 24 348 24 349 24 349 25 350 25 351 25 352 25 353 25 353 24 352 24 351 24" fill="#f2bcac"/>
    <rect x="314" y="24" width="1" height="1" fill="#f2bcac"/>
    <rect x="308" y="24" width="1" height="1" fill="#f2bcac"/>
    <polygon points="303 24 302 24 302 23 301 23 300 23 299 23 299 24 300 24 301 24 301 25 302 25 303 25 304 25 305 25 305 24 304 24 303 24" fill="#f2bcac"/>
    <rect x="266" y="24" width="1" height="1" fill="#f2bcac"/>
    <rect x="260" y="24" width="1" height="1" fill="#f2bcac"/>
    <polygon points="255 24 254 24 254 23 253 23 252 23 251 23 251 24 252 24 253 24 253 25 254 25 255 25 256 25 257 25 257 24 256 24 255 24" fill="#f2bcac"/>
    <rect x="218" y="24" width="1" height="1" fill="#f2bcac"/>
    <rect x="212" y="24" width="1" height="1" fill="#f2bcac"/>
    <polygon points="207 24 206 24 206 23 205 23 204 23 203 23 203 24 204 24 205 24 205 25 206 25 207 25 208 25 209 25 209 24 208 24 207 24" fill="#f2bcac"/>
    <rect x="170" y="24" width="1" height="1" fill="#f2bcac"/>
    <rect x="164" y="24" width="1" height="1" fill="#f2bcac"/>
    <polygon points="159 24 158 24 158 23 157 23 156 23 155 23 155 24 156 24 157 24 157 25 158 25 159 25 160 25 161 25 161 24 160 24 159 24" fill="#f2bcac"/>
    <rect x="122" y="24" width="1" height="1" fill="#f2bcac"/>
    <rect x="116" y="24" width="1" height="1" fill="#f2bcac"/>
    <polygon points="111 24 110 24 110 23 109 23 108 23 107 23 107 24 108 24 109 24 109 25 110 25 111 25 112 25 113 25 113 24 112 24 111 24" fill="#f2bcac"/>
    <rect x="74" y="24" width="1" height="1" fill="#f2bcac"/>
    <rect x="68" y="24" width="1" height="1" fill="#f2bcac"/>
    <polygon points="63 24 62 24 62 23 61 23 60 23 59 23 59 24 60 24 61 24 61 25 62 25 63 25 64 25 65 25 65 24 64 24 63 24" fill="#f2bcac"/>
    <rect x="26" y="24" width="1" height="1" fill="#f2bcac"/>
    <rect x="20" y="24" width="1" height="1" fill="#f2bcac"/>
    <polygon points="15 24 14 24 14 23 13 23 12 23 11 23 11 24 12 24 13 24 13 25 14 25 15 25 16 25 17 25 17 24 16 24 15 24" fill="#f2bcac"/>
    <polygon points="371 23 370 23 370 24 369 24 368 24 367 24 367 25 368 25 369 25 370 25 371 25 371 24 372 24 373 24 373 23 372 23 371 23" fill="#f2bcac"/>
    <rect x="363" y="23" width="1" height="1" fill="#f2bcac"/>
    <rect x="355" y="23" width="1" height="1" fill="#f2bcac"/>
    <polygon points="323 23 322 23 322 24 321 24 320 24 319 24 319 25 320 25 321 25 322 25 323 25 323 24 324 24 325 24 325 23 324 23 323 23" fill="#f2bcac"/>
    <rect x="315" y="23" width="1" height="1" fill="#f2bcac"/>
    <rect x="307" y="23" width="1" height="1" fill="#f2bcac"/>
    <polygon points="275 23 274 23 274 24 273 24 272 24 271 24 271 25 272 25 273 25 274 25 275 25 275 24 276 24 277 24 277 23 276 23 275 23" fill="#f2bcac"/>
    <rect x="267" y="23" width="1" height="1" fill="#f2bcac"/>
    <rect x="259" y="23" width="1" height="1" fill="#f2bcac"/>
    <polygon points="227 23 226 23 226 24 225 24 224 24 223 24 223 25 224 25 225 25 226 25 227 25 227 24 228 24 229 24 229 23 228 23 227 23" fill="#f2bcac"/>
    <rect x="219" y="23" width="1" height="1" fill="#f2bcac"/>
    <rect x="211" y="23" width="1" height="1" fill="#f2bcac"/>
    <polygon points="179 23 178 23 178 24 177 24 176 24 175 24 175 25 176 25 177 25 178 25 179 25 179 24 180 24 181 24 181 23 180 23 179 23" fill="#f2bcac"/>
    <rect x="171" y="23" width="1" height="1" fill="#f2bcac"/>
    <rect x="163" y="23" width="1" height="1" fill="#f2bcac"/>
    <polygon points="131 23 130 23 130 24 129 24 128 24 127 24 127 25 128 25 129 25 130 25 131 25 131 24 132 24 133 24 133 23 132 23 131 23" fill="#f2bcac"/>
    <rect x="123" y="23" width="1" height="1" fill="#f2bcac"/>
    <rect x="115" y="23" width="1" height="1" fill="#f2bcac"/>
    <polygon points="83 23 82 23 82 24 81 24 80 24 79 24 79 25 80 25 81 25 82 25 83 25 83 24 84 24 85 24 85 23 84 23 83 23" fill="#f2bcac"/>
    <rect x="75" y="23" width="1" height="1" fill="#f2bcac"/>
    <rect x="67" y="23" width="1" height="1" fill="#f2bcac"/>
    <polygon points="35 23 34 23 34 24 33 24 32 24 31 24 31 25 32 25 33 25 34 25 35 25 35 24 36 24 37 24 37 23 36 23 35 23" fill="#f2bcac"/>
    <rect x="27" y="23" width="1" height="1" fill="#f2bcac"/>
    <rect x="19" y="23" width="1" height="1" fill="#f2bcac"/>
    <polygon points="346 22 346 21 345 21 345 22 345 23 346 23 347 23 347 22 346 22" fill="#f2bcac"/>
    <polygon points="298 22 298 21 297 21 297 22 297 23 298 23 299 23 299 22 298 22" fill="#f2bcac"/>
    <polygon points="250 22 250 21 249 21 249 22 249 23 250 23 251 23 251 22 250 22" fill="#f2bcac"/>
    <polygon points="202 22 202 21 201 21 201 22 201 23 202 23 203 23 203 22 202 22" fill="#f2bcac"/>
    <polygon points="154 22 154 21 153 21 153 22 153 23 154 23 155 23 155 22 154 22" fill="#f2bcac"/>
    <polygon points="106 22 106 21 105 21 105 22 105 23 106 23 107 23 107 22 106 22" fill="#f2bcac"/>
    <polygon points="58 22 58 21 57 21 57 22 57 23 58 23 59 23 59 22 58 22" fill="#f2bcac"/>
    <polygon points="10 22 10 21 9 21 9 22 9 23 10 23 11 23 11 22 10 22" fill="#f2bcac"/>
    <polygon points="374 22 373 22 373 23 374 23 375 23 375 22 375 21 374 21 374 22" fill="#f2bcac"/>
    <polygon points="326 22 325 22 325 23 326 23 327 23 327 22 327 21 326 21 326 22" fill="#f2bcac"/>
    <polygon points="278 22 277 22 277 23 278 23 279 23 279 22 279 21 278 21 278 22" fill="#f2bcac"/>
    <polygon points="230 22 229 22 229 23 230 23 231 23 231 22 231 21 230 21 230 22" fill="#f2bcac"/>
    <polygon points="182 22 181 22 181 23 182 23 183 23 183 22 183 21 182 21 182 22" fill="#f2bcac"/>
    <polygon points="134 22 133 22 133 23 134 23 135 23 135 22 135 21 134 21 134 22" fill="#f2bcac"/>
    <polygon points="86 22 85 22 85 23 86 23 87 23 87 22 87 21 86 21 86 22" fill="#f2bcac"/>
    <polygon points="38 22 37 22 37 23 38 23 39 23 39 22 39 21 38 21 38 22" fill="#f2bcac"/>
    <rect x="375" y="20" width="1" height="1" fill="#f2bcac"/>
    <polygon points="359 21 360 21 361 21 361 20 362 20 362 19 361 19 360 19 359 19 358 19 358 20 359 20 359 21" fill="#f2bcac"/>
    <rect x="327" y="20" width="1" height="1" fill="#f2bcac"/>
    <polygon points="311 21 312 21 313 21 313 20 314 20 314 19 313 19 312 19 311 19 310 19 310 20 311 20 311 21" fill="#f2bcac"/>
    <rect x="279" y="20" width="1" height="1" fill="#f2bcac"/>
    <polygon points="263 21 264 21 265 21 265 20 266 20 266 19 265 19 264 19 263 19 262 19 262 20 263 20 263 21" fill="#f2bcac"/>
    <rect x="231" y="20" width="1" height="1" fill="#f2bcac"/>
    <polygon points="215 21 216 21 217 21 217 20 218 20 218 19 217 19 216 19 215 19 214 19 214 20 215 20 215 21" fill="#f2bcac"/>
    <rect x="183" y="20" width="1" height="1" fill="#f2bcac"/>
    <polygon points="167 21 168 21 169 21 169 20 170 20 170 19 169 19 168 19 167 19 166 19 166 20 167 20 167 21" fill="#f2bcac"/>
    <rect x="135" y="20" width="1" height="1" fill="#f2bcac"/>
    <polygon points="119 21 120 21 121 21 121 20 122 20 122 19 121 19 120 19 119 19 118 19 118 20 119 20 119 21" fill="#f2bcac"/>
    <rect x="87" y="20" width="1" height="1" fill="#f2bcac"/>
    <polygon points="71 21 72 21 73 21 73 20 74 20 74 19 73 19 72 19 71 19 70 19 70 20 71 20 71 21" fill="#f2bcac"/>
    <rect x="39" y="20" width="1" height="1" fill="#f2bcac"/>
    <polygon points="23 21 24 21 25 21 25 20 26 20 26 19 25 19 24 19 23 19 22 19 22 20 23 20 23 21" fill="#f2bcac"/>
    <polygon points="345 19 345 18 346 18 346 17 346 16 345 16 345 17 344 17 344 18 344 19 344 20 344 21 345 21 345 20 345 19" fill="#f2bcac"/>
    <polygon points="297 19 297 18 298 18 298 17 298 16 297 16 297 17 296 17 296 18 296 19 296 20 296 21 297 21 297 20 297 19" fill="#f2bcac"/>
    <polygon points="249 19 249 18 250 18 250 17 250 16 249 16 249 17 248 17 248 18 248 19 248 20 248 21 249 21 249 20 249 19" fill="#f2bcac"/>
    <polygon points="201 19 201 18 202 18 202 17 202 16 201 16 201 17 200 17 200 18 200 19 200 20 200 21 201 21 201 20 201 19" fill="#f2bcac"/>
    <polygon points="153 19 153 18 154 18 154 17 154 16 153 16 153 17 152 17 152 18 152 19 152 20 152 21 153 21 153 20 153 19" fill="#f2bcac"/>
    <polygon points="105 19 105 18 106 18 106 17 106 16 105 16 105 17 104 17 104 18 104 19 104 20 104 21 105 21 105 20 105 19" fill="#f2bcac"/>
    <polygon points="57 19 57 18 58 18 58 17 58 16 57 16 57 17 56 17 56 18 56 19 56 20 56 21 57 21 57 20 57 19" fill="#f2bcac"/>
    <polygon points="9 19 9 18 10 18 10 17 10 16 9 16 9 17 8 17 8 18 8 19 8 20 8 21 9 21 9 20 9 19" fill="#f2bcac"/>
  </g>
  <g>
    <polygon points="380 34 379 34 378 34 378 33 378 32 377 32 377 33 377 34 377 35 378 35 379 35 380 35 381 35 381 34 380 34" fill="#162fd2"/>
    <polygon points="331 34 330 34 330 33 330 32 329 32 329 33 329 34 329 35 330 35 331 35 332 35 333 35 333 34 332 34 331 34" fill="#162fd2"/>
    <polygon points="283 34 282 34 282 33 282 32 281 32 281 33 281 34 281 35 282 35 283 35 284 35 285 35 285 34 284 34 283 34" fill="#162fd2"/>
    <polygon points="235 34 234 34 234 33 234 32 233 32 233 33 233 34 233 35 234 35 235 35 236 35 237 35 237 34 236 34 235 34" fill="#162fd2"/>
    <polygon points="187 34 186 34 186 33 186 32 185 32 185 33 185 34 185 35 186 35 187 35 188 35 189 35 189 34 188 34 187 34" fill="#162fd2"/>
    <polygon points="139 34 138 34 138 33 138 32 137 32 137 33 137 34 137 35 138 35 139 35 140 35 141 35 141 34 140 34 139 34" fill="#162fd2"/>
    <polygon points="91 34 90 34 90 33 90 32 89 32 89 33 89 34 89 35 90 35 91 35 92 35 93 35 93 34 92 34 91 34" fill="#162fd2"/>
    <polygon points="43 34 42 34 42 33 42 32 41 32 41 33 41 34 41 35 42 35 43 35 44 35 45 35 45 34 44 34 43 34" fill="#162fd2"/>
    <polygon points="369 33 368 33 367 33 366 33 365 33 365 34 366 34 367 34 368 34 369 34 370 34 371 34 371 33 370 33 369 33" fill="#162fd2"/>
    <polygon points="352 33 351 33 350 33 350 34 351 34 352 34 353 34 354 34 354 33 353 33 352 33" fill="#162fd2"/>
    <polygon points="321 33 320 33 319 33 318 33 317 33 317 34 318 34 319 34 320 34 321 34 322 34 323 34 323 33 322 33 321 33" fill="#162fd2"/>
    <polygon points="304 33 303 33 302 33 302 34 303 34 304 34 305 34 306 34 306 33 305 33 304 33" fill="#162fd2"/>
    <polygon points="273 33 272 33 271 33 270 33 269 33 269 34 270 34 271 34 272 34 273 34 274 34 275 34 275 33 274 33 273 33" fill="#162fd2"/>
    <polygon points="256 33 255 33 254 33 254 34 255 34 256 34 257 34 258 34 258 33 257 33 256 33" fill="#162fd2"/>
    <polygon points="225 33 224 33 223 33 222 33 221 33 221 34 222 34 223 34 224 34 225 34 226 34 227 34 227 33 226 33 225 33" fill="#162fd2"/>
    <polygon points="208 33 207 33 206 33 206 34 207 34 208 34 209 34 210 34 210 33 209 33 208 33" fill="#162fd2"/>
    <polygon points="177 33 176 33 175 33 174 33 173 33 173 34 174 34 175 34 176 34 177 34 178 34 179 34 179 33 178 33 177 33" fill="#162fd2"/>
    <polygon points="160 33 159 33 158 33 158 34 159 34 160 34 161 34 162 34 162 33 161 33 160 33" fill="#162fd2"/>
    <polygon points="129 33 128 33 127 33 126 33 125 33 125 34 126 34 127 34 128 34 129 34 130 34 131 34 131 33 130 33 129 33" fill="#162fd2"/>
    <polygon points="112 33 111 33 110 33 110 34 111 34 112 34 113 34 114 34 114 33 113 33 112 33" fill="#162fd2"/>
    <polygon points="81 33 80 33 79 33 78 33 77 33 77 34 78 34 79 34 80 34 81 34 82 34 83 34 83 33 82 33 81 33" fill="#162fd2"/>
    <polygon points="64 33 63 33 62 33 62 34 63 34 64 34 65 34 66 34 66 33 65 33 64 33" fill="#162fd2"/>
    <polygon points="33 33 32 33 31 33 30 33 29 33 29 34 30 34 31 34 32 34 33 34 34 34 35 34 35 33 34 33 33 33" fill="#162fd2"/>
    <polygon points="16 33 15 33 14 33 14 34 15 34 16 34 17 34 18 34 18 33 17 33 16 33" fill="#162fd2"/>
    <polygon points="374 33 373 33 373 34 373 35 374 35 374 34 375 34 375 33 375 32 374 32 374 33" fill="#162fd2"/>
    <polygon points="348 32 347 32 347 33 347 34 348 34 348 35 349 35 349 34 349 33 348 33 348 32" fill="#162fd2"/>
    <polygon points="326 33 325 33 325 34 325 35 326 35 326 34 327 34 327 33 327 32 326 32 326 33" fill="#162fd2"/>
    <polygon points="300 32 299 32 299 33 299 34 300 34 300 35 301 35 301 34 301 33 300 33 300 32" fill="#162fd2"/>
    <polygon points="278 33 277 33 277 34 277 35 278 35 278 34 279 34 279 33 279 32 278 32 278 33" fill="#162fd2"/>
    <polygon points="252 32 251 32 251 33 251 34 252 34 252 35 253 35 253 34 253 33 252 33 252 32" fill="#162fd2"/>
    <polygon points="230 33 229 33 229 34 229 35 230 35 230 34 231 34 231 33 231 32 230 32 230 33" fill="#162fd2"/>
    <polygon points="204 32 203 32 203 33 203 34 204 34 204 35 205 35 205 34 205 33 204 33 204 32" fill="#162fd2"/>
    <polygon points="182 33 181 33 181 34 181 35 182 35 182 34 183 34 183 33 183 32 182 32 182 33" fill="#162fd2"/>
    <polygon points="156 32 155 32 155 33 155 34 156 34 156 35 157 35 157 34 157 33 156 33 156 32" fill="#162fd2"/>
    <polygon points="134 33 133 33 133 34 133 35 134 35 134 34 135 34 135 33 135 32 134 32 134 33" fill="#162fd2"/>
    <polygon points="108 32 107 32 107 33 107 34 108 34 108 35 109 35 109 34 109 33 108 33 108 32" fill="#162fd2"/>
    <polygon points="86 33 85 33 85 34 85 35 86 35 86 34 87 34 87 33 87 32 86 32 86 33" fill="#162fd2"/>
    <polygon points="60 32 59 32 59 33 59 34 60 34 60 35 61 35 61 34 61 33 60 33 60 32" fill="#162fd2"/>
    <polygon points="38 33 37 33 37 34 37 35 38 35 38 34 39 34 39 33 39 32 38 32 38 33" fill="#162fd2"/>
    <polygon points="12 32 11 32 11 33 11 34 12 34 12 35 13 35 13 34 13 33 12 33 12 32" fill="#162fd2"/>
    <polygon points="376 31 375 31 375 32 376 32 377 32 377 31 376 31" fill="#162fd2"/>
    <polygon points="328 31 327 31 327 32 328 32 329 32 329 31 328 31" fill="#162fd2"/>
    <polygon points="280 31 279 31 279 32 280 32 281 32 281 31 280 31" fill="#162fd2"/>
    <polygon points="232 31 231 31 231 32 232 32 233 32 233 31 232 31" fill="#162fd2"/>
    <polygon points="184 31 183 31 183 32 184 32 185 32 185 31 184 31" fill="#162fd2"/>
    <polygon points="136 31 135 31 135 32 136 32 137 32 137 31 136 31" fill="#162fd2"/>
    <polygon points="88 31 87 31 87 32 88 32 89 32 89 31 88 31" fill="#162fd2"/>
    <polygon points="40 31 39 31 39 32 40 32 41 32 41 31 40 31" fill="#162fd2"/>
    <polygon points="347 30 346 30 345 30 345 29 344 29 344 28 343 28 343 27 342 27 342 26 341 26 341 25 341 24 340 24 340 23 339 23 339 24 339 25 340 25 340 26 340 27 341 27 341 28 342 28 342 29 343 29 343 30 344 30 344 31 345 31 346 31 346 32 347 32 347 31 347 30" fill="#162fd2"/>
    <polygon points="299 30 298 30 297 30 297 29 296 29 296 28 295 28 295 27 294 27 294 26 293 26 293 25 293 24 292 24 292 23 291 23 291 24 291 25 292 25 292 26 292 27 293 27 293 28 294 28 294 29 295 29 295 30 296 30 296 31 297 31 298 31 298 32 299 32 299 31 299 30" fill="#162fd2"/>
    <polygon points="251 30 250 30 249 30 249 29 248 29 248 28 247 28 247 27 246 27 246 26 245 26 245 25 245 24 244 24 244 23 243 23 243 24 243 25 244 25 244 26 244 27 245 27 245 28 246 28 246 29 247 29 247 30 248 30 248 31 249 31 250 31 250 32 251 32 251 31 251 30" fill="#162fd2"/>
    <polygon points="203 30 202 30 201 30 201 29 200 29 200 28 199 28 199 27 198 27 198 26 197 26 197 25 197 24 196 24 196 23 195 23 195 24 195 25 196 25 196 26 196 27 197 27 197 28 198 28 198 29 199 29 199 30 200 30 200 31 201 31 202 31 202 32 203 32 203 31 203 30" fill="#162fd2"/>
    <polygon points="155 30 154 30 153 30 153 29 152 29 152 28 151 28 151 27 150 27 150 26 149 26 149 25 149 24 148 24 148 23 147 23 147 24 147 25 148 25 148 26 148 27 149 27 149 28 150 28 150 29 151 29 151 30 152 30 152 31 153 31 154 31 154 32 155 32 155 31 155 30" fill="#162fd2"/>
    <polygon points="107 30 106 30 105 30 105 29 104 29 104 28 103 28 103 27 102 27 102 26 101 26 101 25 101 24 100 24 100 23 99 23 99 24 99 25 100 25 100 26 100 27 101 27 101 28 102 28 102 29 103 29 103 30 104 30 104 31 105 31 106 31 106 32 107 32 107 31 107 30" fill="#162fd2"/>
    <polygon points="59 30 58 30 57 30 57 29 56 29 56 28 55 28 55 27 54 27 54 26 53 26 53 25 53 24 52 24 52 23 51 23 51 24 51 25 52 25 52 26 52 27 53 27 53 28 54 28 54 29 55 29 55 30 56 30 56 31 57 31 58 31 58 32 59 32 59 31 59 30" fill="#162fd2"/>
    <polygon points="11 30 10 30 9 30 9 29 8 29 8 28 7 28 7 27 6 27 6 26 5 26 5 25 5 24 4 24 4 23 3 23 3 24 3 25 4 25 4 26 4 27 5 27 5 28 6 28 6 29 7 29 7 30 8 30 8 31 9 31 10 31 10 32 11 32 11 31 11 30" fill="#162fd2"/>
    <polygon points="359 29 359 30 359 31 360 31 360 30 360 29 360 28 359 28 359 29" fill="#162fd2"/>
    <polygon points="311 29 311 30 311 31 312 31 312 30 312 29 312 28 311 28 311 29" fill="#162fd2"/>
    <polygon points="263 29 263 30 263 31 264 31 264 30 264 29 264 28 263 28 263 29" fill="#162fd2"/>
    <polygon points="215 29 215 30 215 31 216 31 216 30 216 29 216 28 215 28 215 29" fill="#162fd2"/>
    <polygon points="167 29 167 30 167 31 168 31 168 30 168 29 168 28 167 28 167 29" fill="#162fd2"/>
    <polygon points="119 29 119 30 119 31 120 31 120 30 120 29 120 28 119 28 119 29" fill="#162fd2"/>
    <polygon points="71 29 71 30 71 31 72 31 72 30 72 29 72 28 71 28 71 29" fill="#162fd2"/>
    <polygon points="23 29 23 30 23 31 24 31 24 30 24 29 24 28 23 28 23 29" fill="#162fd2"/>
    <polygon points="339 21 339 20 339 19 339 18 339 17 340 17 340 16 339 16 338 16 338 17 338 18 338 19 338 20 338 21 338 22 338 23 339 23 339 22 339 21" fill="#162fd2"/>
    <polygon points="291 21 291 20 291 19 291 18 291 17 292 17 292 16 291 16 290 16 290 17 290 18 290 19 290 20 290 21 290 22 290 23 291 23 291 22 291 21" fill="#162fd2"/>
    <polygon points="243 21 243 20 243 19 243 18 243 17 244 17 244 16 243 16 242 16 242 17 242 18 242 19 242 20 242 21 242 22 242 23 243 23 243 22 243 21" fill="#162fd2"/>
    <polygon points="195 21 195 20 195 19 195 18 195 17 196 17 196 16 195 16 194 16 194 17 194 18 194 19 194 20 194 21 194 22 194 23 195 23 195 22 195 21" fill="#162fd2"/>
    <polygon points="147 21 147 20 147 19 147 18 147 17 148 17 148 16 147 16 146 16 146 17 146 18 146 19 146 20 146 21 146 22 146 23 147 23 147 22 147 21" fill="#162fd2"/>
    <polygon points="99 21 99 20 99 19 99 18 99 17 100 17 100 16 99 16 98 16 98 17 98 18 98 19 98 20 98 21 98 22 98 23 99 23 99 22 99 21" fill="#162fd2"/>
    <polygon points="51 21 51 20 51 19 51 18 51 17 52 17 52 16 51 16 50 16 50 17 50 18 50 19 50 20 50 21 50 22 50 23 51 23 51 22 51 21" fill="#162fd2"/>
    <polygon points="3 21 3 20 3 19 3 18 3 17 4 17 4 16 3 16 2 16 2 17 2 18 2 19 2 20 2 21 2 22 2 23 3 23 3 22 3 21" fill="#162fd2"/>
  </g>
  <g>
    <polygon points="361 13 360 13 359 13 359 14 359 15 360 15 361 15 362 15 362 14 362 13 361 13" fill="#ff9c83"/>
    <polygon points="312 13 311 13 311 14 311 15 312 15 313 15 314 15 314 14 314 13 313 13 312 13" fill="#ff9c83"/>
    <polygon points="264 13 263 13 263 14 263 15 264 15 265 15 266 15 266 14 266 13 265 13 264 13" fill="#ff9c83"/>
    <polygon points="216 13 215 13 215 14 215 15 216 15 217 15 218 15 218 14 218 13 217 13 216 13" fill="#ff9c83"/>
    <polygon points="168 13 167 13 167 14 167 15 168 15 169 15 170 15 170 14 170 13 169 13 168 13" fill="#ff9c83"/>
    <polygon points="120 13 119 13 119 14 119 15 120 15 121 15 122 15 122 14 122 13 121 13 120 13" fill="#ff9c83"/>
    <polygon points="72 13 71 13 71 14 71 15 72 15 73 15 74 15 74 14 74 13 73 13 72 13" fill="#ff9c83"/>
    <polygon points="24 13 23 13 23 14 23 15 24 15 25 15 26 15 26 14 26 13 25 13 24 13" fill="#ff9c83"/>
  </g>
  <rect x="364" y="11" width="1" height="1" fill="#fbf8f6"/>
  <rect x="352" y="11" width="1" height="1" fill="#fbf8f6"/>
  <rect x="316" y="11" width="1" height="1" fill="#fbf8f6"/>
  <rect x="304" y="11" width="1" height="1" fill="#fbf8f6"/>
  <rect x="268" y="11" width="1" height="1" fill="#fbf8f6"/>
  <rect x="256" y="11" width="1" height="1" fill="#fbf8f6"/>
  <rect x="220" y="11" width="1" height="1" fill="#fbf8f6"/>
  <rect x="208" y="11" width="1" height="1" fill="#fbf8f6"/>
  <rect x="172" y="11" width="1" height="1" fill="#fbf8f6"/>
  <rect x="160" y="11" width="1" height="1" fill="#fbf8f6"/>
  <rect x="124" y="11" width="1" height="1" fill="#fbf8f6"/>
  <rect x="112" y="11" width="1" height="1" fill="#fbf8f6"/>
  <rect x="76" y="11" width="1" height="1" fill="#fbf8f6"/>
  <rect x="64" y="11" width="1" height="1" fill="#fbf8f6"/>
  <rect x="28" y="11" width="1" height="1" fill="#fbf8f6"/>
  <rect x="16" y="11" width="1" height="1" fill="#fbf8f6"/>
  <rect x="364" y="10" width="1" height="1" fill="#fbf8f6"/>
  <rect x="316" y="10" width="1" height="1" fill="#fbf8f6"/>
  <rect x="268" y="10" width="1" height="1" fill="#fbf8f6"/>
  <rect x="220" y="10" width="1" height="1" fill="#fbf8f6"/>
  <rect x="172" y="10" width="1" height="1" fill="#fbf8f6"/>
  <rect x="124" y="10" width="1" height="1" fill="#fbf8f6"/>
  <rect x="76" y="10" width="1" height="1" fill="#fbf8f6"/>
  <g>
    <polygon points="382 29 382 30 382 31 382 32 382 33 382 34 381 34 381 35 382 35 383 35 383 34 383 33 383 32 383 31 383 30 383 29 382 29" fill="#326efc"/>
    <polygon points="334 30 334 31 334 32 334 33 334 34 333 34 333 35 334 35 335 35 335 34 335 33 335 32 335 31 335 30 335 29 334 29 334 30" fill="#326efc"/>
    <polygon points="286 30 286 31 286 32 286 33 286 34 285 34 285 35 286 35 287 35 287 34 287 33 287 32 287 31 287 30 287 29 286 29 286 30" fill="#326efc"/>
    <polygon points="238 30 238 31 238 32 238 33 238 34 237 34 237 35 238 35 239 35 239 34 239 33 239 32 239 31 239 30 239 29 238 29 238 30" fill="#326efc"/>
    <polygon points="190 30 190 31 190 32 190 33 190 34 189 34 189 35 190 35 191 35 191 34 191 33 191 32 191 31 191 30 191 29 190 29 190 30" fill="#326efc"/>
    <polygon points="142 30 142 31 142 32 142 33 142 34 141 34 141 35 142 35 143 35 143 34 143 33 143 32 143 31 143 30 143 29 142 29 142 30" fill="#326efc"/>
    <polygon points="94 30 94 31 94 32 94 33 94 34 93 34 93 35 94 35 95 35 95 34 95 33 95 32 95 31 95 30 95 29 94 29 94 30" fill="#326efc"/>
    <polygon points="46 30 46 31 46 32 46 33 46 34 45 34 45 35 46 35 47 35 47 34 47 33 47 32 47 31 47 30 47 29 46 29 46 30" fill="#326efc"/>
    <polygon points="382 27 381 27 380 27 380 26 380 25 379 25 379 26 379 27 379 28 380 28 381 28 381 29 382 29 382 28 382 27" fill="#326efc"/>
    <polygon points="334 27 333 27 332 27 332 26 332 25 331 25 331 26 331 27 331 28 332 28 333 28 333 29 334 29 334 28 334 27" fill="#326efc"/>
    <polygon points="286 27 285 27 284 27 284 26 284 25 283 25 283 26 283 27 283 28 284 28 285 28 285 29 286 29 286 28 286 27" fill="#326efc"/>
    <polygon points="238 27 237 27 236 27 236 26 236 25 235 25 235 26 235 27 235 28 236 28 237 28 237 29 238 29 238 28 238 27" fill="#326efc"/>
    <polygon points="190 27 189 27 188 27 188 26 188 25 187 25 187 26 187 27 187 28 188 28 189 28 189 29 190 29 190 28 190 27" fill="#326efc"/>
    <polygon points="142 27 141 27 140 27 140 26 140 25 139 25 139 26 139 27 139 28 140 28 141 28 141 29 142 29 142 28 142 27" fill="#326efc"/>
    <polygon points="94 27 93 27 92 27 92 26 92 25 91 25 91 26 91 27 91 28 92 28 93 28 93 29 94 29 94 28 94 27" fill="#326efc"/>
    <polygon points="46 27 45 27 44 27 44 26 44 25 43 25 43 26 43 27 43 28 44 28 45 28 45 29 46 29 46 28 46 27" fill="#326efc"/>
    <polygon points="378 24 377 24 377 25 378 25 379 25 379 24 378 24" fill="#326efc"/>
    <polygon points="330 24 329 24 329 25 330 25 331 25 331 24 330 24" fill="#326efc"/>
    <polygon points="282 24 281 24 281 25 282 25 283 25 283 24 282 24" fill="#326efc"/>
    <polygon points="234 24 233 24 233 25 234 25 235 25 235 24 234 24" fill="#326efc"/>
    <polygon points="186 24 185 24 185 25 186 25 187 25 187 24 186 24" fill="#326efc"/>
    <polygon points="138 24 137 24 137 25 138 25 139 25 139 24 138 24" fill="#326efc"/>
    <polygon points="90 24 89 24 89 25 90 25 91 25 91 24 90 24" fill="#326efc"/>
    <polygon points="42 24 41 24 41 25 42 25 43 25 43 24 42 24" fill="#326efc"/>
    <polygon points="376 23 375 23 374 23 373 23 373 24 374 24 375 24 376 24 377 24 377 23 376 23" fill="#326efc"/>
    <polygon points="328 23 327 23 326 23 325 23 325 24 326 24 327 24 328 24 329 24 329 23 328 23" fill="#326efc"/>
    <polygon points="280 23 279 23 278 23 277 23 277 24 278 24 279 24 280 24 281 24 281 23 280 23" fill="#326efc"/>
    <polygon points="232 23 231 23 230 23 229 23 229 24 230 24 231 24 232 24 233 24 233 23 232 23" fill="#326efc"/>
    <polygon points="184 23 183 23 182 23 181 23 181 24 182 24 183 24 184 24 185 24 185 23 184 23" fill="#326efc"/>
    <polygon points="136 23 135 23 134 23 133 23 133 24 134 24 135 24 136 24 137 24 137 23 136 23" fill="#326efc"/>
    <polygon points="88 23 87 23 86 23 85 23 85 24 86 24 87 24 88 24 89 24 89 23 88 23" fill="#326efc"/>
    <polygon points="40 23 39 23 38 23 37 23 37 24 38 24 39 24 40 24 41 24 41 23 40 23" fill="#326efc"/>
    <polygon points="342 16 341 16 340 16 340 17 341 17 342 17 343 17 343 18 344 18 344 17 344 16 343 16 342 16" fill="#326efc"/>
    <polygon points="294 16 293 16 292 16 292 17 293 17 294 17 295 17 295 18 296 18 296 17 296 16 295 16 294 16" fill="#326efc"/>
    <polygon points="246 16 245 16 244 16 244 17 245 17 246 17 247 17 247 18 248 18 248 17 248 16 247 16 246 16" fill="#326efc"/>
    <polygon points="198 16 197 16 196 16 196 17 197 17 198 17 199 17 199 18 200 18 200 17 200 16 199 16 198 16" fill="#326efc"/>
    <polygon points="150 16 149 16 148 16 148 17 149 17 150 17 151 17 151 18 152 18 152 17 152 16 151 16 150 16" fill="#326efc"/>
    <polygon points="102 16 101 16 100 16 100 17 101 17 102 17 103 17 103 18 104 18 104 17 104 16 103 16 102 16" fill="#326efc"/>
    <polygon points="54 16 53 16 52 16 52 17 53 17 54 17 55 17 55 18 56 18 56 17 56 16 55 16 54 16" fill="#326efc"/>
    <polygon points="6 16 5 16 4 16 4 17 5 17 6 17 7 17 7 18 8 18 8 17 8 16 7 16 6 16" fill="#326efc"/>
    <polygon points="354 11 353 11 353 12 354 12 355 12 356 12 356 11 355 11 354 11" fill="#326efc"/>
    <polygon points="306 11 305 11 305 12 306 12 307 12 308 12 308 11 307 11 306 11" fill="#326efc"/>
    <polygon points="258 11 257 11 257 12 258 12 259 12 260 12 260 11 259 11 258 11" fill="#326efc"/>
    <polygon points="210 11 209 11 209 12 210 12 211 12 212 12 212 11 211 11 210 11" fill="#326efc"/>
    <polygon points="162 11 161 11 161 12 162 12 163 12 164 12 164 11 163 11 162 11" fill="#326efc"/>
    <polygon points="114 11 113 11 113 12 114 12 115 12 116 12 116 11 115 11 114 11" fill="#326efc"/>
    <polygon points="66 11 65 11 65 12 66 12 67 12 68 12 68 11 67 11 66 11" fill="#326efc"/>
    <polygon points="18 11 17 11 17 12 18 12 19 12 20 12 20 11 19 11 18 11" fill="#326efc"/>
    <polygon points="366 10 365 10 365 11 365 12 366 12 367 12 368 12 368 11 368 10 367 10 366 10" fill="#326efc"/>
    <polygon points="318 10 317 10 317 11 317 12 318 12 319 12 320 12 320 11 320 10 319 10 318 10" fill="#326efc"/>
    <polygon points="270 10 269 10 269 11 269 12 270 12 271 12 272 12 272 11 272 10 271 10 270 10" fill="#326efc"/>
    <polygon points="222 10 221 10 221 11 221 12 222 12 223 12 224 12 224 11 224 10 223 10 222 10" fill="#326efc"/>
    <polygon points="174 10 173 10 173 11 173 12 174 12 175 12 176 12 176 11 176 10 175 10 174 10" fill="#326efc"/>
    <polygon points="126 10 125 10 125 11 125 12 126 12 127 12 128 12 128 11 128 10 127 10 126 10" fill="#326efc"/>
    <polygon points="78 10 77 10 77 11 77 12 78 12 79 12 80 12 80 11 80 10 79 10 78 10" fill="#326efc"/>
    <polygon points="30 10 29 10 29 11 29 12 30 12 31 12 32 12 32 11 32 10 31 10 30 10" fill="#326efc"/>
  </g>
  <rect x="28" y="10" width="1" height="1" fill="#fbf8f6"/>
  <g>
    <polygon points="381 38 380 38 379 38 379 37 378 37 378 36 378 35 377 35 377 36 377 37 377 38 378 38 378 39 379 39 380 39 381 39 382 39 382 38 381 38" fill="#ffc5a9"/>
    <polygon points="332 38 331 38 331 37 330 37 330 36 330 35 329 35 329 36 329 37 329 38 330 38 330 39 331 39 332 39 333 39 334 39 334 38 333 38 332 38" fill="#ffc5a9"/>
    <polygon points="284 38 283 38 283 37 282 37 282 36 282 35 281 35 281 36 281 37 281 38 282 38 282 39 283 39 284 39 285 39 286 39 286 38 285 38 284 38" fill="#ffc5a9"/>
    <polygon points="236 38 235 38 235 37 234 37 234 36 234 35 233 35 233 36 233 37 233 38 234 38 234 39 235 39 236 39 237 39 238 39 238 38 237 38 236 38" fill="#ffc5a9"/>
    <polygon points="188 38 187 38 187 37 186 37 186 36 186 35 185 35 185 36 185 37 185 38 186 38 186 39 187 39 188 39 189 39 190 39 190 38 189 38 188 38" fill="#ffc5a9"/>
    <polygon points="140 38 139 38 139 37 138 37 138 36 138 35 137 35 137 36 137 37 137 38 138 38 138 39 139 39 140 39 141 39 142 39 142 38 141 38 140 38" fill="#ffc5a9"/>
    <polygon points="92 38 91 38 91 37 90 37 90 36 90 35 89 35 89 36 89 37 89 38 90 38 90 39 91 39 92 39 93 39 94 39 94 38 93 38 92 38" fill="#ffc5a9"/>
    <polygon points="44 38 43 38 43 37 42 37 42 36 42 35 41 35 41 36 41 37 41 38 42 38 42 39 43 39 44 39 45 39 46 39 46 38 45 38 44 38" fill="#ffc5a9"/>
    <rect x="367" y="18" width="1" height="1" fill="#ffc5a9"/>
    <rect x="349" y="18" width="1" height="1" fill="#ffc5a9"/>
    <rect x="319" y="18" width="1" height="1" fill="#ffc5a9"/>
    <rect x="301" y="18" width="1" height="1" fill="#ffc5a9"/>
    <rect x="271" y="18" width="1" height="1" fill="#ffc5a9"/>
    <rect x="253" y="18" width="1" height="1" fill="#ffc5a9"/>
    <rect x="223" y="18" width="1" height="1" fill="#ffc5a9"/>
    <rect x="205" y="18" width="1" height="1" fill="#ffc5a9"/>
    <rect x="175" y="18" width="1" height="1" fill="#ffc5a9"/>
    <rect x="157" y="18" width="1" height="1" fill="#ffc5a9"/>
    <rect x="127" y="18" width="1" height="1" fill="#ffc5a9"/>
    <rect x="109" y="18" width="1" height="1" fill="#ffc5a9"/>
    <rect x="79" y="18" width="1" height="1" fill="#ffc5a9"/>
    <rect x="61" y="18" width="1" height="1" fill="#ffc5a9"/>
    <rect x="31" y="18" width="1" height="1" fill="#ffc5a9"/>
    <rect x="13" y="18" width="1" height="1" fill="#ffc5a9"/>
    <polygon points="370 15 369 15 368 15 368 16 367 16 367 17 368 17 368 18 369 18 369 19 370 19 370 18 371 18 371 17 371 16 370 16 370 15" fill="#ffc5a9"/>
    <polygon points="352 15 351 15 350 15 350 16 349 16 349 17 350 17 350 18 351 18 351 19 352 19 352 18 353 18 353 17 353 16 352 16 352 15" fill="#ffc5a9"/>
    <polygon points="342 15 341 15 340 15 339 15 339 14 339 13 338 13 338 14 338 15 338 16 339 16 340 16 341 16 342 16 343 16 344 16 344 15 343 15 342 15" fill="#ffc5a9"/>
    <polygon points="322 15 321 15 320 15 320 16 319 16 319 17 320 17 320 18 321 18 321 19 322 19 322 18 323 18 323 17 323 16 322 16 322 15" fill="#ffc5a9"/>
    <polygon points="304 15 303 15 302 15 302 16 301 16 301 17 302 17 302 18 303 18 303 19 304 19 304 18 305 18 305 17 305 16 304 16 304 15" fill="#ffc5a9"/>
    <polygon points="294 15 293 15 292 15 291 15 291 14 291 13 290 13 290 14 290 15 290 16 291 16 292 16 293 16 294 16 295 16 296 16 296 15 295 15 294 15" fill="#ffc5a9"/>
    <polygon points="274 15 273 15 272 15 272 16 271 16 271 17 272 17 272 18 273 18 273 19 274 19 274 18 275 18 275 17 275 16 274 16 274 15" fill="#ffc5a9"/>
    <polygon points="256 15 255 15 254 15 254 16 253 16 253 17 254 17 254 18 255 18 255 19 256 19 256 18 257 18 257 17 257 16 256 16 256 15" fill="#ffc5a9"/>
    <polygon points="246 15 245 15 244 15 243 15 243 14 243 13 242 13 242 14 242 15 242 16 243 16 244 16 245 16 246 16 247 16 248 16 248 15 247 15 246 15" fill="#ffc5a9"/>
    <polygon points="226 15 225 15 224 15 224 16 223 16 223 17 224 17 224 18 225 18 225 19 226 19 226 18 227 18 227 17 227 16 226 16 226 15" fill="#ffc5a9"/>
    <polygon points="208 15 207 15 206 15 206 16 205 16 205 17 206 17 206 18 207 18 207 19 208 19 208 18 209 18 209 17 209 16 208 16 208 15" fill="#ffc5a9"/>
    <polygon points="198 15 197 15 196 15 195 15 195 14 195 13 194 13 194 14 194 15 194 16 195 16 196 16 197 16 198 16 199 16 200 16 200 15 199 15 198 15" fill="#ffc5a9"/>
    <polygon points="178 15 177 15 176 15 176 16 175 16 175 17 176 17 176 18 177 18 177 19 178 19 178 18 179 18 179 17 179 16 178 16 178 15" fill="#ffc5a9"/>
    <polygon points="160 15 159 15 158 15 158 16 157 16 157 17 158 17 158 18 159 18 159 19 160 19 160 18 161 18 161 17 161 16 160 16 160 15" fill="#ffc5a9"/>
    <polygon points="150 15 149 15 148 15 147 15 147 14 147 13 146 13 146 14 146 15 146 16 147 16 148 16 149 16 150 16 151 16 152 16 152 15 151 15 150 15" fill="#ffc5a9"/>
    <polygon points="130 15 129 15 128 15 128 16 127 16 127 17 128 17 128 18 129 18 129 19 130 19 130 18 131 18 131 17 131 16 130 16 130 15" fill="#ffc5a9"/>
    <polygon points="112 15 111 15 110 15 110 16 109 16 109 17 110 17 110 18 111 18 111 19 112 19 112 18 113 18 113 17 113 16 112 16 112 15" fill="#ffc5a9"/>
    <polygon points="102 15 101 15 100 15 99 15 99 14 99 13 98 13 98 14 98 15 98 16 99 16 100 16 101 16 102 16 103 16 104 16 104 15 103 15 102 15" fill="#ffc5a9"/>
    <polygon points="82 15 81 15 80 15 80 16 79 16 79 17 80 17 80 18 81 18 81 19 82 19 82 18 83 18 83 17 83 16 82 16 82 15" fill="#ffc5a9"/>
    <polygon points="64 15 63 15 62 15 62 16 61 16 61 17 62 17 62 18 63 18 63 19 64 19 64 18 65 18 65 17 65 16 64 16 64 15" fill="#ffc5a9"/>
    <polygon points="54 15 53 15 52 15 51 15 51 14 51 13 50 13 50 14 50 15 50 16 51 16 52 16 53 16 54 16 55 16 56 16 56 15 55 15 54 15" fill="#ffc5a9"/>
    <polygon points="34 15 33 15 32 15 32 16 31 16 31 17 32 17 32 18 33 18 33 19 34 19 34 18 35 18 35 17 35 16 34 16 34 15" fill="#ffc5a9"/>
    <polygon points="16 15 15 15 14 15 14 16 13 16 13 17 14 17 14 18 15 18 15 19 16 19 16 18 17 18 17 17 17 16 16 16 16 15" fill="#ffc5a9"/>
    <polygon points="6 15 5 15 4 15 3 15 3 14 3 13 2 13 2 14 2 15 2 16 3 16 4 16 5 16 6 16 7 16 8 16 8 15 7 15 6 15" fill="#ffc5a9"/>
    <polygon points="368 10 368 9 367 9 366 9 365 9 364 9 364 10 365 10 366 10 367 10 368 10" fill="#ffc5a9"/>
    <polygon points="354 9 353 9 353 10 352 10 352 11 353 11 354 11 355 11 356 11 356 10 356 9 355 9 354 9" fill="#ffc5a9"/>
    <polygon points="320 10 320 9 319 9 318 9 317 9 316 9 316 10 317 10 318 10 319 10 320 10" fill="#ffc5a9"/>
    <polygon points="306 9 305 9 305 10 304 10 304 11 305 11 306 11 307 11 308 11 308 10 308 9 307 9 306 9" fill="#ffc5a9"/>
    <polygon points="272 10 272 9 271 9 270 9 269 9 268 9 268 10 269 10 270 10 271 10 272 10" fill="#ffc5a9"/>
    <polygon points="258 9 257 9 257 10 256 10 256 11 257 11 258 11 259 11 260 11 260 10 260 9 259 9 258 9" fill="#ffc5a9"/>
    <polygon points="224 10 224 9 223 9 222 9 221 9 220 9 220 10 221 10 222 10 223 10 224 10" fill="#ffc5a9"/>
    <polygon points="210 9 209 9 209 10 208 10 208 11 209 11 210 11 211 11 212 11 212 10 212 9 211 9 210 9" fill="#ffc5a9"/>
    <polygon points="176 10 176 9 175 9 174 9 173 9 172 9 172 10 173 10 174 10 175 10 176 10" fill="#ffc5a9"/>
    <polygon points="162 9 161 9 161 10 160 10 160 11 161 11 162 11 163 11 164 11 164 10 164 9 163 9 162 9" fill="#ffc5a9"/>
    <polygon points="128 10 128 9 127 9 126 9 125 9 124 9 124 10 125 10 126 10 127 10 128 10" fill="#ffc5a9"/>
    <polygon points="114 9 113 9 113 10 112 10 112 11 113 11 114 11 115 11 116 11 116 10 116 9 115 9 114 9" fill="#ffc5a9"/>
    <polygon points="80 10 80 9 79 9 78 9 77 9 76 9 76 10 77 10 78 10 79 10 80 10" fill="#ffc5a9"/>
    <polygon points="66 9 65 9 65 10 64 10 64 11 65 11 66 11 67 11 68 11 68 10 68 9 67 9 66 9" fill="#ffc5a9"/>
    <polygon points="32 10 32 9 31 9 30 9 29 9 28 9 28 10 29 10 30 10 31 10 32 10" fill="#ffc5a9"/>
    <polygon points="18 9 17 9 17 10 16 10 16 11 17 11 18 11 19 11 20 11 20 10 20 9 19 9 18 9" fill="#ffc5a9"/>
  </g>
  <g>
    <polygon points="382 35 381 35 380 35 379 35 378 35 378 36 378 37 379 37 379 38 380 38 381 38 382 38 383 38 383 37 383 36 383 35 382 35" fill="#ffe3cd"/>
    <polygon points="333 35 332 35 331 35 330 35 330 36 330 37 331 37 331 38 332 38 333 38 334 38 335 38 335 37 335 36 335 35 334 35 333 35" fill="#ffe3cd"/>
    <polygon points="285 35 284 35 283 35 282 35 282 36 282 37 283 37 283 38 284 38 285 38 286 38 287 38 287 37 287 36 287 35 286 35 285 35" fill="#ffe3cd"/>
    <polygon points="237 35 236 35 235 35 234 35 234 36 234 37 235 37 235 38 236 38 237 38 238 38 239 38 239 37 239 36 239 35 238 35 237 35" fill="#ffe3cd"/>
    <polygon points="189 35 188 35 187 35 186 35 186 36 186 37 187 37 187 38 188 38 189 38 190 38 191 38 191 37 191 36 191 35 190 35 189 35" fill="#ffe3cd"/>
    <polygon points="141 35 140 35 139 35 138 35 138 36 138 37 139 37 139 38 140 38 141 38 142 38 143 38 143 37 143 36 143 35 142 35 141 35" fill="#ffe3cd"/>
    <polygon points="93 35 92 35 91 35 90 35 90 36 90 37 91 37 91 38 92 38 93 38 94 38 95 38 95 37 95 36 95 35 94 35 93 35" fill="#ffe3cd"/>
    <polygon points="45 35 44 35 43 35 42 35 42 36 42 37 43 37 43 38 44 38 45 38 46 38 47 38 47 37 47 36 47 35 46 35 45 35" fill="#ffe3cd"/>
    <path d="M375,16v-1h-2v-1h1v-5h-2v-2h-1v-1h-1v-1h-1v-1h-3v-1h-3v1h-1v1h-1v1h-1v1h-2v-1h1v-1h-1v-1h-1v-1h-4v1h-2v1h-1v1h-1v1h-1v2h-2v5h1v1h-1v3h-1v3h1v1h1v1h3v1h3v1h3v-1h-1v-1h1v1h1v1h5v-1h1v-1h1v1h-1v1h4v-1h3v-1h3v-1h1v-1h1v-1h1v-3h-1v-1ZM361,21h-2v-1h-1v-1h4v1h-1v1ZM371,16v2h-1v1h-1v-1h-1v1h-1v-1h1v-1h-1v-1h1v-1h2v1h1ZM352,11v-1h1v-1h3v3h-4v-1ZM364,9h4v3h-4v-3ZM362,14v1h-3v-2h3v1ZM350,16v-1h2v1h1v2h-1v1h-1v-1h-1v1h-1v-1h1v-1h-1v-1h1Z" fill="#ffe3cd"/>
    <path d="M327,16v-1h-2v-1h1v-5h-2v-2h-1v-1h-1v-1h-1v-1h-3v-1h-3v1h-1v1h-1v1h-1v1h-2v-1h1v-1h-1v-1h-1v-1h-4v1h-2v1h-1v1h-1v1h-1v2h-2v5h1v1h-1v3h-1v3h1v1h1v1h3v1h3v1h3v-1h-1v-1h1v1h1v1h5v-1h1v-1h1v1h-1v1h4v-1h3v-1h3v-1h1v-1h1v-1h1v-3h-1v-1ZM313,21h-2v-1h-1v-1h4v1h-1v1ZM323,16v2h-1v1h-1v-1h-1v1h-1v-1h1v-1h-1v-1h1v-1h2v1h1ZM304,11v-1h1v-1h3v3h-4v-1ZM316,9h4v3h-4v-3ZM314,14v1h-3v-2h3v1ZM302,16v-1h2v1h1v2h-1v1h-1v-1h-1v1h-1v-1h1v-1h-1v-1h1Z" fill="#ffe3cd"/>
    <path d="M279,16v-1h-2v-1h1v-5h-2v-2h-1v-1h-1v-1h-1v-1h-3v-1h-3v1h-1v1h-1v1h-1v1h-2v-1h1v-1h-1v-1h-1v-1h-4v1h-2v1h-1v1h-1v1h-1v2h-2v5h1v1h-1v3h-1v3h1v1h1v1h3v1h3v1h3v-1h-1v-1h1v1h1v1h5v-1h1v-1h1v1h-1v1h4v-1h3v-1h3v-1h1v-1h1v-1h1v-3h-1v-1ZM265,21h-2v-1h-1v-1h4v1h-1v1ZM275,16v2h-1v1h-1v-1h-1v1h-1v-1h1v-1h-1v-1h1v-1h2v1h1ZM256,11v-1h1v-1h3v3h-4v-1ZM268,9h4v3h-4v-3ZM266,14v1h-3v-2h3v1ZM254,16v-1h2v1h1v2h-1v1h-1v-1h-1v1h-1v-1h1v-1h-1v-1h1Z" fill="#ffe3cd"/>
    <path d="M231,16v-1h-2v-1h1v-5h-2v-2h-1v-1h-1v-1h-1v-1h-3v-1h-3v1h-1v1h-1v1h-1v1h-2v-1h1v-1h-1v-1h-1v-1h-4v1h-2v1h-1v1h-1v1h-1v2h-2v5h1v1h-1v3h-1v3h1v1h1v1h3v1h3v1h3v-1h-1v-1h1v1h1v1h5v-1h1v-1h1v1h-1v1h4v-1h3v-1h3v-1h1v-1h1v-1h1v-3h-1v-1ZM217,21h-2v-1h-1v-1h4v1h-1v1ZM227,16v2h-1v1h-1v-1h-1v1h-1v-1h1v-1h-1v-1h1v-1h2v1h1ZM208,11v-1h1v-1h3v3h-4v-1ZM220,9h4v3h-4v-3ZM218,14v1h-3v-2h3v1ZM206,16v-1h2v1h1v2h-1v1h-1v-1h-1v1h-1v-1h1v-1h-1v-1h1Z" fill="#ffe3cd"/>
    <path d="M183,16v-1h-2v-1h1v-5h-2v-2h-1v-1h-1v-1h-1v-1h-3v-1h-3v1h-1v1h-1v1h-1v1h-2v-1h1v-1h-1v-1h-1v-1h-4v1h-2v1h-1v1h-1v1h-1v2h-2v5h1v1h-1v3h-1v3h1v1h1v1h3v1h3v1h3v-1h-1v-1h1v1h1v1h5v-1h1v-1h1v1h-1v1h4v-1h3v-1h3v-1h1v-1h1v-1h1v-3h-1v-1ZM169,21h-2v-1h-1v-1h4v1h-1v1ZM179,16v2h-1v1h-1v-1h-1v1h-1v-1h1v-1h-1v-1h1v-1h2v1h1ZM160,11v-1h1v-1h3v3h-4v-1ZM172,9h4v3h-4v-3ZM170,14v1h-3v-2h3v1ZM158,16v-1h2v1h1v2h-1v1h-1v-1h-1v1h-1v-1h1v-1h-1v-1h1Z" fill="#ffe3cd"/>
    <path d="M135,16v-1h-2v-1h1v-5h-2v-2h-1v-1h-1v-1h-1v-1h-3v-1h-3v1h-1v1h-1v1h-1v1h-2v-1h1v-1h-1v-1h-1v-1h-4v1h-2v1h-1v1h-1v1h-1v2h-2v5h1v1h-1v3h-1v3h1v1h1v1h3v1h3v1h3v-1h-1v-1h1v1h1v1h5v-1h1v-1h1v1h-1v1h4v-1h3v-1h3v-1h1v-1h1v-1h1v-3h-1v-1ZM121,21h-2v-1h-1v-1h4v1h-1v1ZM131,16v2h-1v1h-1v-1h-1v1h-1v-1h1v-1h-1v-1h1v-1h2v1h1ZM112,11v-1h1v-1h3v3h-4v-1ZM124,9h4v3h-4v-3ZM122,14v1h-3v-2h3v1ZM110,16v-1h2v1h1v2h-1v1h-1v-1h-1v1h-1v-1h1v-1h-1v-1h1Z" fill="#ffe3cd"/>
    <path d="M87,16v-1h-2v-1h1v-5h-2v-2h-1v-1h-1v-1h-1v-1h-3v-1h-3v1h-1v1h-1v1h-1v1h-2v-1h1v-1h-1v-1h-1v-1h-4v1h-2v1h-1v1h-1v1h-1v2h-2v5h1v1h-1v3h-1v3h1v1h1v1h3v1h3v1h3v-1h-1v-1h1v1h1v1h5v-1h1v-1h1v1h-1v1h4v-1h3v-1h3v-1h1v-1h1v-1h1v-3h-1v-1ZM73,21h-2v-1h-1v-1h4v1h-1v1ZM83,16v2h-1v1h-1v-1h-1v1h-1v-1h1v-1h-1v-1h1v-1h2v1h1ZM64,11v-1h1v-1h3v3h-4v-1ZM76,9h4v3h-4v-3ZM74,14v1h-3v-2h3v1ZM62,16v-1h2v1h1v2h-1v1h-1v-1h-1v1h-1v-1h1v-1h-1v-1h1Z" fill="#ffe3cd"/>
    <path d="M39,16v-1h-2v-1h1v-5h-2v-2h-1v-1h-1v-1h-1v-1h-3v-1h-3v1h-1v1h-1v1h-1v1h-2v-1h1v-1h-1v-1h-1v-1h-4v1h-2v1h-1v1h-1v1h-1v2h-2v5h1v1h-1v3h-1v3h1v1h1v1h3v1h3v1h3v-1h-1v-1h1v1h1v1h5v-1h1v-1h1v1h-1v1h4v-1h3v-1h3v-1h1v-1h1v-1h1v-3h-1v-1ZM25,21h-2v-1h-1v-1h4v1h-1v1ZM35,16v2h-1v1h-1v-1h-1v1h-1v-1h1v-1h-1v-1h1v-1h2v1h1ZM16,11v-1h1v-1h3v3h-4v-1ZM28,9h4v3h-4v-3ZM26,14v1h-3v-2h3v1ZM14,16v-1h2v1h1v2h-1v1h-1v-1h-1v1h-1v-1h1v-1h-1v-1h1Z" fill="#ffe3cd"/>
    <polygon points="343 12 342 12 341 12 340 12 339 12 339 13 339 14 339 15 340 15 341 15 342 15 343 15 344 15 344 14 344 13 343 13 343 12" fill="#ffe3cd"/>
    <polygon points="295 12 294 12 293 12 292 12 291 12 291 13 291 14 291 15 292 15 293 15 294 15 295 15 296 15 296 14 296 13 295 13 295 12" fill="#ffe3cd"/>
    <polygon points="247 12 246 12 245 12 244 12 243 12 243 13 243 14 243 15 244 15 245 15 246 15 247 15 248 15 248 14 248 13 247 13 247 12" fill="#ffe3cd"/>
    <polygon points="199 12 198 12 197 12 196 12 195 12 195 13 195 14 195 15 196 15 197 15 198 15 199 15 200 15 200 14 200 13 199 13 199 12" fill="#ffe3cd"/>
    <polygon points="151 12 150 12 149 12 148 12 147 12 147 13 147 14 147 15 148 15 149 15 150 15 151 15 152 15 152 14 152 13 151 13 151 12" fill="#ffe3cd"/>
    <polygon points="103 12 102 12 101 12 100 12 99 12 99 13 99 14 99 15 100 15 101 15 102 15 103 15 104 15 104 14 104 13 103 13 103 12" fill="#ffe3cd"/>
    <polygon points="55 12 54 12 53 12 52 12 51 12 51 13 51 14 51 15 52 15 53 15 54 15 55 15 56 15 56 14 56 13 55 13 55 12" fill="#ffe3cd"/>
    <polygon points="7 12 6 12 5 12 4 12 3 12 3 13 3 14 3 15 4 15 5 15 6 15 7 15 8 15 8 14 8 13 7 13 7 12" fill="#ffe3cd"/>
  </g>
  <g>
    <polygon points="370 4 370 3 369 3 369 2 368 2 368 1 367 1 366 1 366 0 365 0 364 0 363 0 362 0 361 0 360 0 359 0 358 0 357 0 356 0 355 0 354 0 354 1 353 1 352 1 352 2 351 2 351 3 350 3 350 4 349 4 349 5 349 6 350 6 350 5 351 5 351 4 352 4 353 4 353 3 354 3 355 3 356 3 357 3 357 4 358 4 358 5 359 5 359 6 358 6 358 7 359 7 360 7 360 6 361 6 361 5 362 5 362 4 363 4 363 3 364 3 365 3 366 3 366 4 367 4 368 4 369 4 369 5 370 5 370 6 371 6 371 5 371 4 370 4" fill="#90725a"/>
    <polygon points="322 3 321 3 321 2 320 2 320 1 319 1 318 1 318 0 317 0 316 0 315 0 314 0 313 0 312 0 311 0 310 0 309 0 308 0 307 0 306 0 306 1 305 1 304 1 304 2 303 2 303 3 302 3 302 4 301 4 301 5 301 6 302 6 302 5 303 5 303 4 304 4 305 4 305 3 306 3 307 3 308 3 309 3 309 4 310 4 310 5 311 5 311 6 310 6 310 7 311 7 312 7 312 6 313 6 313 5 314 5 314 4 315 4 315 3 316 3 317 3 318 3 318 4 319 4 320 4 321 4 321 5 322 5 322 6 323 6 323 5 323 4 322 4 322 3" fill="#90725a"/>
    <polygon points="274 3 273 3 273 2 272 2 272 1 271 1 270 1 270 0 269 0 268 0 267 0 266 0 265 0 264 0 263 0 262 0 261 0 260 0 259 0 258 0 258 1 257 1 256 1 256 2 255 2 255 3 254 3 254 4 253 4 253 5 253 6 254 6 254 5 255 5 255 4 256 4 257 4 257 3 258 3 259 3 260 3 261 3 261 4 262 4 262 5 263 5 263 6 262 6 262 7 263 7 264 7 264 6 265 6 265 5 266 5 266 4 267 4 267 3 268 3 269 3 270 3 270 4 271 4 272 4 273 4 273 5 274 5 274 6 275 6 275 5 275 4 274 4 274 3" fill="#90725a"/>
    <polygon points="226 3 225 3 225 2 224 2 224 1 223 1 222 1 222 0 221 0 220 0 219 0 218 0 217 0 216 0 215 0 214 0 213 0 212 0 211 0 210 0 210 1 209 1 208 1 208 2 207 2 207 3 206 3 206 4 205 4 205 5 205 6 206 6 206 5 207 5 207 4 208 4 209 4 209 3 210 3 211 3 212 3 213 3 213 4 214 4 214 5 215 5 215 6 214 6 214 7 215 7 216 7 216 6 217 6 217 5 218 5 218 4 219 4 219 3 220 3 221 3 222 3 222 4 223 4 224 4 225 4 225 5 226 5 226 6 227 6 227 5 227 4 226 4 226 3" fill="#90725a"/>
    <polygon points="178 3 177 3 177 2 176 2 176 1 175 1 174 1 174 0 173 0 172 0 171 0 170 0 169 0 168 0 167 0 166 0 165 0 164 0 163 0 162 0 162 1 161 1 160 1 160 2 159 2 159 3 158 3 158 4 157 4 157 5 157 6 158 6 158 5 159 5 159 4 160 4 161 4 161 3 162 3 163 3 164 3 165 3 165 4 166 4 166 5 167 5 167 6 166 6 166 7 167 7 168 7 168 6 169 6 169 5 170 5 170 4 171 4 171 3 172 3 173 3 174 3 174 4 175 4 176 4 177 4 177 5 178 5 178 6 179 6 179 5 179 4 178 4 178 3" fill="#90725a"/>
    <polygon points="130 3 129 3 129 2 128 2 128 1 127 1 126 1 126 0 125 0 124 0 123 0 122 0 121 0 120 0 119 0 118 0 117 0 116 0 115 0 114 0 114 1 113 1 112 1 112 2 111 2 111 3 110 3 110 4 109 4 109 5 109 6 110 6 110 5 111 5 111 4 112 4 113 4 113 3 114 3 115 3 116 3 117 3 117 4 118 4 118 5 119 5 119 6 118 6 118 7 119 7 120 7 120 6 121 6 121 5 122 5 122 4 123 4 123 3 124 3 125 3 126 3 126 4 127 4 128 4 129 4 129 5 130 5 130 6 131 6 131 5 131 4 130 4 130 3" fill="#90725a"/>
    <polygon points="82 3 81 3 81 2 80 2 80 1 79 1 78 1 78 0 77 0 76 0 75 0 74 0 73 0 72 0 71 0 70 0 69 0 68 0 67 0 66 0 66 1 65 1 64 1 64 2 63 2 63 3 62 3 62 4 61 4 61 5 61 6 62 6 62 5 63 5 63 4 64 4 65 4 65 3 66 3 67 3 68 3 69 3 69 4 70 4 70 5 71 5 71 6 70 6 70 7 71 7 72 7 72 6 73 6 73 5 74 5 74 4 75 4 75 3 76 3 77 3 78 3 78 4 79 4 80 4 81 4 81 5 82 5 82 6 83 6 83 5 83 4 82 4 82 3" fill="#90725a"/>
    <polygon points="34 3 33 3 33 2 32 2 32 1 31 1 30 1 30 0 29 0 28 0 27 0 26 0 25 0 24 0 23 0 22 0 21 0 20 0 19 0 18 0 18 1 17 1 16 1 16 2 15 2 15 3 14 3 14 4 13 4 13 5 13 6 14 6 14 5 15 5 15 4 16 4 17 4 17 3 18 3 19 3 20 3 21 3 21 4 22 4 22 5 23 5 23 6 22 6 22 7 23 7 24 7 24 6 25 6 25 5 26 5 26 4 27 4 27 3 28 3 29 3 30 3 30 4 31 4 32 4 33 4 33 5 34 5 34 6 35 6 35 5 35 4 34 4 34 3" fill="#90725a"/>
  </g>
</svg>