<?xml version="1.0" encoding="UTF-8"?><svg id="Layer_1" xmlns="http://www.w3.org/2000/svg" width="36" height="36" viewBox="0 0 36 36"><rect x="24" y="24" width="1" height="1" fill="#efb71f"/><polygon points="23 24 23 23 23 22 23 21 23 20 23 19 23 18 23 17 23 16 23 15 23 14 23 13 23 12 23 11 23 10 22 10 21 10 20 10 20 11 21 11 22 11 22 12 22 13 22 14 22 15 22 16 22 17 22 18 22 19 22 20 22 21 22 22 22 23 22 24 22 25 22 26 23 26 24 26 24 25 23 25 23 24" fill="#efb71f"/><rect x="11" y="24" width="1" height="1" fill="#efb71f"/><rect x="25" y="23" width="1" height="1" fill="#efb71f"/><rect x="10" y="23" width="1" height="1" fill="#efb71f"/><rect x="26" y="22" width="1" height="1" fill="#efb71f"/><rect x="9" y="22" width="1" height="1" fill="#efb71f"/><polygon points="9 20 9 19 9 18 9 17 9 16 9 15 9 14 9 13 9 12 9 11 9 10 9 9 9 8 9 7 9 6 8 6 8 7 8 8 8 9 8 10 8 11 8 12 8 13 8 14 8 15 8 16 8 17 8 18 8 19 8 20 8 21 8 22 9 22 9 21 9 20" fill="#efb71f"/><polygon points="18 17 17 17 16 17 16 16 16 15 16 14 16 13 16 12 16 11 16 10 15 10 14 10 13 10 13 11 13 12 13 13 13 14 13 15 13 16 13 17 13 18 13 19 13 20 13 21 13 22 13 23 13 24 13 25 12 25 12 26 13 26 14 26 14 25 14 24 14 23 14 22 14 21 14 20 14 19 14 18 14 17 14 16 14 15 14 14 14 13 14 12 14 11 15 11 15 12 15 13 15 14 15 15 15 16 15 17 15 18 16 18 17 18 18 18 19 18 20 18 20 17 19 17 18 17" fill="#efb71f"/><polygon points="20 8 20 7 20 6 19 6 19 7 19 8 19 9 19 10 20 10 20 9 20 8" fill="#efb71f"/><polygon points="22 26 22 25 22 24 22 23 22 22 22 21 22 20 22 19 22 18 22 17 22 16 22 15 22 14 22 13 22 12 22 11 21 11 20 11 20 12 20 13 20 14 20 15 20 16 20 17 20 18 19 18 18 18 17 18 16 18 15 18 15 17 15 16 15 15 15 14 15 13 15 12 15 11 14 11 14 12 14 13 14 14 14 15 14 16 14 17 14 18 14 19 14 20 14 21 14 22 14 23 14 24 14 25 14 26 13 26 12 26 12 27 13 27 13 28 14 28 14 29 15 29 15 30 16 30 16 31 17 31 18 31 19 31 20 31 20 30 21 30 21 29 22 29 22 28 23 28 23 27 24 27 24 26 23 26 22 26" fill="#fff236"/><rect x="24" y="25" width="1" height="1" fill="#fff236"/><rect x="11" y="25" width="1" height="1" fill="#fff236"/><rect x="25" y="24" width="1" height="1" fill="#fff236"/><rect x="10" y="24" width="1" height="1" fill="#fff236"/><rect x="26" y="23" width="1" height="1" fill="#fff236"/><rect x="9" y="23" width="1" height="1" fill="#fff236"/><rect x="8" y="22" width="1" height="1" fill="#fff236"/><polygon points="8 20 8 19 8 18 8 17 8 16 8 15 8 14 8 13 8 12 8 11 8 10 8 9 8 8 8 7 8 6 7 6 7 7 6 7 6 8 5 8 5 9 4 9 4 10 4 11 4 12 4 13 4 14 4 15 4 16 4 17 4 18 4 19 5 19 5 20 6 20 6 21 7 21 7 22 8 22 8 21 8 20" fill="#fff236"/><polygon points="31 9 31 8 30 8 30 7 29 7 29 6 28 6 28 5 27 5 27 4 26 4 25 4 24 4 23 4 22 4 21 4 20 4 19 4 18 4 17 4 16 4 15 4 14 4 13 4 12 4 11 4 10 4 9 4 9 5 8 5 8 6 9 6 10 6 11 6 12 6 13 6 14 6 15 6 16 6 16 7 16 8 16 9 16 10 17 10 18 10 19 10 19 9 19 8 19 7 19 6 20 6 21 6 22 6 23 6 24 6 25 6 26 6 27 6 27 7 27 8 27 9 27 10 27 11 27 12 27 13 27 14 27 15 27 16 27 17 27 18 27 19 27 20 27 21 27 22 27 23 28 23 28 22 29 22 29 21 30 21 30 20 31 20 31 19 32 19 32 18 32 17 32 16 32 15 32 14 32 13 32 12 32 11 32 10 32 9 31 9" fill="#fff236"/><polygon points="19 34 18 34 17 34 16 34 15 34 15 35 16 35 17 35 18 35 19 35 20 35 21 35 21 34 20 34 19 34" fill="#c71522"/><rect x="21" y="33" width="1" height="1" fill="#c71522"/><rect x="14" y="33" width="1" height="1" fill="#c71522"/><rect x="22" y="32" width="1" height="1" fill="#c71522"/><rect x="13" y="32" width="1" height="1" fill="#c71522"/><rect x="23" y="31" width="1" height="1" fill="#c71522"/><polygon points="18 31 17 31 16 31 16 32 17 32 18 32 19 32 20 32 20 31 19 31 18 31" fill="#c71522"/><rect x="12" y="31" width="1" height="1" fill="#c71522"/><rect x="24" y="30" width="1" height="1" fill="#c71522"/><rect x="20" y="30" width="1" height="1" fill="#c71522"/><rect x="15" y="30" width="1" height="1" fill="#c71522"/><rect x="11" y="30" width="1" height="1" fill="#c71522"/><rect x="25" y="29" width="1" height="1" fill="#c71522"/><rect x="21" y="29" width="1" height="1" fill="#c71522"/><rect x="14" y="29" width="1" height="1" fill="#c71522"/><rect x="10" y="29" width="1" height="1" fill="#c71522"/><rect x="26" y="28" width="1" height="1" fill="#c71522"/><rect x="22" y="28" width="1" height="1" fill="#c71522"/><rect x="13" y="28" width="1" height="1" fill="#c71522"/><rect x="9" y="28" width="1" height="1" fill="#c71522"/><rect x="27" y="27" width="1" height="1" fill="#c71522"/><rect x="23" y="27" width="1" height="1" fill="#c71522"/><rect x="12" y="27" width="1" height="1" fill="#c71522"/><rect x="8" y="27" width="1" height="1" fill="#c71522"/><rect x="28" y="26" width="1" height="1" fill="#c71522"/><rect x="24" y="26" width="1" height="1" fill="#c71522"/><rect x="11" y="26" width="1" height="1" fill="#c71522"/><rect x="7" y="26" width="1" height="1" fill="#c71522"/><rect x="29" y="25" width="1" height="1" fill="#c71522"/><rect x="25" y="25" width="1" height="1" fill="#c71522"/><rect x="10" y="25" width="1" height="1" fill="#c71522"/><rect x="6" y="25" width="1" height="1" fill="#c71522"/><rect x="30" y="24" width="1" height="1" fill="#c71522"/><rect x="26" y="24" width="1" height="1" fill="#c71522"/><polygon points="24 24 25 24 25 23 24 23 24 22 24 21 24 20 24 19 24 18 24 17 24 16 24 15 24 14 24 13 24 12 24 11 24 10 23 10 23 11 23 12 23 13 23 14 23 15 23 16 23 17 23 18 23 19 23 20 23 21 23 22 23 23 23 24 23 25 24 25 24 24" fill="#c71522"/><rect x="12" y="24" width="1" height="1" fill="#c71522"/><rect x="9" y="24" width="1" height="1" fill="#c71522"/><rect x="5" y="24" width="1" height="1" fill="#c71522"/><rect x="31" y="23" width="1" height="1" fill="#c71522"/><rect x="27" y="23" width="1" height="1" fill="#c71522"/><rect x="11" y="23" width="1" height="1" fill="#c71522"/><rect x="8" y="23" width="1" height="1" fill="#c71522"/><rect x="4" y="23" width="1" height="1" fill="#c71522"/><rect x="32" y="22" width="1" height="1" fill="#c71522"/><rect x="28" y="22" width="1" height="1" fill="#c71522"/><rect x="25" y="22" width="1" height="1" fill="#c71522"/><rect x="10" y="22" width="1" height="1" fill="#c71522"/><rect x="7" y="22" width="1" height="1" fill="#c71522"/><rect x="3" y="22" width="1" height="1" fill="#c71522"/><rect x="33" y="21" width="1" height="1" fill="#c71522"/><rect x="29" y="21" width="1" height="1" fill="#c71522"/><rect x="26" y="21" width="1" height="1" fill="#c71522"/><polygon points="10 21 10 20 10 19 10 18 10 17 10 16 10 15 10 14 10 13 10 12 10 11 10 10 10 9 10 8 10 7 10 6 9 6 9 7 9 8 9 9 9 10 9 11 9 12 9 13 9 14 9 15 9 16 9 17 9 18 9 19 9 20 9 21 9 22 10 22 10 21" fill="#c71522"/><rect x="6" y="21" width="1" height="1" fill="#c71522"/><rect x="2" y="21" width="1" height="1" fill="#c71522"/><rect x="34" y="20" width="1" height="1" fill="#c71522"/><rect x="30" y="20" width="1" height="1" fill="#c71522"/><rect x="5" y="20" width="1" height="1" fill="#c71522"/><rect x="1" y="20" width="1" height="1" fill="#c71522"/><rect x="31" y="19" width="1" height="1" fill="#c71522"/><rect x="4" y="19" width="1" height="1" fill="#c71522"/><polygon points="4 18 4 17 4 16 4 15 4 14 4 13 4 12 4 11 4 10 4 9 3 9 3 10 3 11 3 12 3 13 3 14 3 15 3 16 3 17 3 18 3 19 4 19 4 18" fill="#c71522"/><polygon points="1 18 1 17 1 16 1 15 1 14 1 13 1 12 1 11 1 10 1 9 1 8 0 8 0 9 0 10 0 11 0 12 0 13 0 14 0 15 0 16 0 17 0 18 0 19 0 20 1 20 1 19 1 18" fill="#c71522"/><polygon points="32 11 32 12 32 13 32 14 32 15 32 16 32 17 32 18 32 19 33 19 33 18 33 17 33 16 33 15 33 14 33 13 33 12 33 11 33 10 33 9 32 9 32 10 32 11" fill="#c71522"/><polygon points="35 8 35 9 35 10 35 11 35 12 35 13 35 14 35 15 35 16 35 17 35 18 35 19 35 20 36 20 36 19 36 18 36 17 36 16 36 15 36 14 36 13 36 12 36 11 36 10 36 9 36 8 35 8" fill="#c71522"/><rect x="31" y="8" width="1" height="1" fill="#c71522"/><rect x="4" y="8" width="1" height="1" fill="#c71522"/><rect x="30" y="7" width="1" height="1" fill="#c71522"/><rect x="5" y="7" width="1" height="1" fill="#c71522"/><rect x="29" y="6" width="1" height="1" fill="#c71522"/><rect x="6" y="6" width="1" height="1" fill="#c71522"/><rect x="28" y="5" width="1" height="1" fill="#c71522"/><rect x="7" y="5" width="1" height="1" fill="#c71522"/><rect x="27" y="4" width="1" height="1" fill="#c71522"/><rect x="8" y="4" width="1" height="1" fill="#c71522"/><polygon points="11 4 12 4 13 4 14 4 15 4 16 4 17 4 18 4 19 4 20 4 21 4 22 4 23 4 24 4 25 4 26 4 27 4 27 3 26 3 25 3 24 3 23 3 22 3 21 3 20 3 19 3 18 3 17 3 16 3 15 3 14 3 13 3 12 3 11 3 10 3 9 3 9 4 10 4 11 4" fill="#c71522"/><polygon points="17 11 16 11 16 12 16 13 16 14 16 15 16 16 16 17 17 17 18 17 19 17 19 16 19 15 19 14 19 13 19 12 19 11 18 11 17 11" fill="#e63946"/><path d="M34,8v-1h-1v-1h-1v-1h-1v-1h-1v-1h-1v-1h-1v-1H8v1h-1v1h-1v1h-1v1h-1v1h-1v1h-1v1h-1v12h1v1h1v1h1v1h1v1h1v1h1v1h1v1h1v1h1v1h1v1h1v1h1v1h1v1h1v1h6v-1h1v-1h1v-1h1v-1h1v-1h1v-1h1v-1h1v-1h1v-1h1v-1h1v-1h1v-1h1v-1h1v-1h1v-12h-1ZM33,10v9h-1v1h-1v1h-1v1h-1v1h-1v1h-1v1h-1v1h-1v1h-1v1h-1v1h-1v1h-1v1h-1v1h-4v-1h-1v-1h-1v-1h-1v-1h-1v-1h-1v-1h-1v-1h-1v-1h-1v-1h-1v-1h-1v-1h-1v-1h-1v-1h-1v-10h1v-1h1v-1h1v-1h1v-1h1v-1h1v-1h18v1h1v1h1v1h1v1h1v1h1v1h1v1Z" fill="#e63946"/><polygon points="24 7 23 7 22 7 21 7 20 7 20 8 20 9 20 10 21 10 22 10 23 10 24 10 24 11 24 12 24 13 24 14 24 15 24 16 24 17 24 18 24 19 24 20 24 21 24 22 24 23 25 23 25 22 26 22 26 21 26 20 26 19 26 18 26 17 26 16 26 15 26 14 26 13 26 12 26 11 26 10 26 9 26 8 26 7 25 7 24 7" fill="#e63946"/><polygon points="13 7 12 7 11 7 10 7 10 8 10 9 10 10 10 11 10 12 10 13 10 14 10 15 10 16 10 17 10 18 10 19 10 20 10 21 10 22 11 22 11 23 12 23 12 24 13 24 13 23 13 22 13 21 13 20 13 19 13 18 13 17 13 16 13 15 13 14 13 13 13 12 13 11 13 10 14 10 15 10 15 9 15 8 15 7 14 7 13 7" fill="#e63946"/><polygon points="18 10 17 10 16 10 16 11 17 11 18 11 19 11 19 12 19 13 19 14 19 15 19 16 19 17 20 17 20 16 20 15 20 14 20 13 20 12 20 11 20 10 19 10 18 10" fill="#f94c59"/><polygon points="16 8 16 7 16 6 15 6 14 6 13 6 12 6 11 6 10 6 10 7 11 7 12 7 13 7 14 7 15 7 15 8 15 9 15 10 16 10 16 9 16 8" fill="#f94c59"/><rect x="34" y="7" width="1" height="1" fill="#f94c59"/><rect x="1" y="7" width="1" height="1" fill="#f94c59"/><rect x="33" y="6" width="1" height="1" fill="#f94c59"/><polygon points="25 6 24 6 23 6 22 6 21 6 20 6 20 7 21 7 22 7 23 7 24 7 25 7 26 7 26 8 26 9 26 10 26 11 26 12 26 13 26 14 26 15 26 16 26 17 26 18 26 19 26 20 26 21 27 21 27 20 27 19 27 18 27 17 27 16 27 15 27 14 27 13 27 12 27 11 27 10 27 9 27 8 27 7 27 6 26 6 25 6" fill="#f94c59"/><rect x="2" y="6" width="1" height="1" fill="#f94c59"/><rect x="32" y="5" width="1" height="1" fill="#f94c59"/><rect x="3" y="5" width="1" height="1" fill="#f94c59"/><rect x="31" y="4" width="1" height="1" fill="#f94c59"/><rect x="4" y="4" width="1" height="1" fill="#f94c59"/><rect x="30" y="3" width="1" height="1" fill="#f94c59"/><rect x="5" y="3" width="1" height="1" fill="#f94c59"/><rect x="29" y="2" width="1" height="1" fill="#f94c59"/><rect x="6" y="2" width="1" height="1" fill="#f94c59"/><rect x="28" y="1" width="1" height="1" fill="#f94c59"/><rect x="7" y="1" width="1" height="1" fill="#f94c59"/><polygon points="27 0 26 0 25 0 24 0 23 0 22 0 21 0 20 0 19 0 18 0 17 0 16 0 15 0 14 0 13 0 12 0 11 0 10 0 9 0 8 0 8 1 9 1 10 1 11 1 12 1 13 1 14 1 15 1 16 1 17 1 18 1 19 1 20 1 21 1 22 1 23 1 24 1 25 1 26 1 27 1 28 1 28 0 27 0" fill="#f94c59"/></svg>